<svg viewBox="0 0 739 533" fill="none"
    xmlns="http://www.w3.org/2000/svg">
    <g clip-path="url(#clip0)">
        <path opacity="0.1" d="M584.493 457.373C668.244 457.373 736.137 443.941 736.137 427.373C736.137 410.804 668.244 397.373 584.493 397.373C500.742 397.373 432.849 410.804 432.849 427.373C432.849 443.941 500.742 457.373 584.493 457.373Z" fill="#6C63FF"/>
        <g opacity="0.5">
            <path opacity="0.5" d="M454.603 75.6274C452.558 76.2189 450.054 77.7598 448.82 81.9735C446.402 90.2329 452.02 95.8488 450.169 104.459C449.655 106.743 448.677 108.892 447.299 110.768C445.039 113.887 442.585 115.362 440.203 117.545C437.181 120.335 435.016 123.954 433.968 127.966C432.819 132.395 432.724 137.039 433.688 141.513C434.535 145.252 435.977 147.976 437.24 151.007C438.81 154.872 440.037 158.873 440.906 162.961C441.383 164.952 441.653 166.989 441.71 169.037C441.674 171.759 441.434 174.473 440.992 177.158L437.555 201.564C437.033 204.755 436.719 207.977 436.616 211.211C436.66 214.451 437.028 217.678 437.713 220.843C438.919 227.299 440.217 233.988 442.98 237.406C445.742 240.823 450.448 239.596 453.34 232.681C456.088 226.064 456.152 217.235 458.577 210.166C462.401 199.03 469.999 197.533 474.218 186.907C478.265 176.683 477.023 164.21 479.075 152.584C480.51 144.252 483.674 136.657 485.533 128.426C488.202 116.574 487.936 104.269 485.805 95.155C484.185 87.6666 480.679 80.7358 475.632 75.0432C473.845 73.0349 471.929 71.2457 469.684 71.0631C467.295 70.8733 465.207 73.9331 462.846 74.8533C460.12 75.9414 457.379 74.8241 454.603 75.6274Z" fill="#6C63FF"/>
            <path opacity="0.5" d="M467.539 71.6838C467.539 71.6838 463.492 177.092 446.474 239.246" stroke="#535461" stroke-width="2" stroke-miterlimit="10"/>
            <path opacity="0.5" d="M448.719 82.47C448.719 82.47 466.907 99.3248 463.456 131.399" stroke="#535461" stroke-width="2" stroke-miterlimit="10"/>
            <path opacity="0.5" d="M433.459 130.435C433.459 130.435 463.313 136.547 461.096 154.724" stroke="#535461" stroke-width="2" stroke-miterlimit="10"/>
            <path opacity="0.5" d="M485.855 94.9358C485.855 94.9358 473.773 105.7 463.011 136.189" stroke="#535461" stroke-width="2" stroke-miterlimit="10"/>
            <path opacity="0.5" d="M474.053 187.082C474.053 187.082 465.809 193.655 459.194 170.644" stroke="#535461" stroke-width="2" stroke-miterlimit="10"/>
            <path opacity="0.5" d="M438.481 200.527C438.481 200.527 455.291 198.292 456.841 187.579" stroke="#535461" stroke-width="2" stroke-miterlimit="10"/>
        </g>
        <path d="M495.24 4.92944C491.079 5.55748 486.071 7.52193 484.012 13.5759C479.972 25.4502 492.248 34.4399 489.421 46.8473C488.578 50.2618 486.802 53.3634 484.299 55.7932C479.994 60.1092 475.072 61.9933 470.408 64.9217C465.745 67.8501 460.902 72.4582 458.714 79.5272C456.611 86.3261 457.523 93.8334 459.711 99.4419C461.899 105.05 465.207 109.235 468.163 113.85C471.755 119.531 474.758 125.576 477.124 131.888C478.317 134.765 479.119 137.795 479.506 140.892C479.886 144.69 479.405 148.772 478.925 152.767L474.656 188.36C474.089 193.093 473.515 197.898 473.838 202.455C474.204 207.705 475.732 212.292 477.239 216.768C480.482 226.422 483.954 236.486 490.074 241.802C496.194 247.119 505.794 245.979 510.967 236.091C515.889 226.678 514.985 213.686 519.182 203.572C525.797 187.63 541.352 186.338 548.835 171.206C556.009 156.688 551.999 138.117 554.883 121.248C556.949 109.162 562.546 98.3538 565.415 86.4576C569.555 69.318 567.568 51.1706 562.101 37.529C556.634 23.8874 547.988 14.1601 538.711 6.68941C534.78 3.51271 530.611 0.642716 525.94 0.116917C520.975 -0.445397 517.008 3.80481 512.237 4.87832C506.684 6.05407 500.886 4.07502 495.24 4.92944Z" fill="#6C63FF"/>
        <path d="M521.557 0.679199C521.557 0.679199 525.474 155.418 497.479 244.898" stroke="#535461" stroke-width="2" stroke-miterlimit="10"/>
        <path d="M483.854 14.3208C483.854 14.3208 523.458 41.341 520.064 88.1956" stroke="#535461" stroke-width="2" stroke-miterlimit="10"/>
        <path d="M457.86 83.0908C457.86 83.0908 520.366 95.6954 517.898 122.19" stroke="#535461" stroke-width="2" stroke-miterlimit="10"/>
        <path d="M562.173 37.1345C562.173 37.1345 538.417 51.5283 519.706 95.1258" stroke="#535461" stroke-width="2" stroke-miterlimit="10"/>
        <path d="M548.462 171.411C548.462 171.411 532.175 180.174 515.795 145.406" stroke="#535461" stroke-width="2" stroke-miterlimit="10"/>
        <path d="M476.406 186.9C476.406 186.9 510.938 185.636 512.904 170.045" stroke="#535461" stroke-width="2" stroke-miterlimit="10"/>
        <path d="M48.2498 422.531C48.2498 422.531 54.2622 430.564 45.4732 442.614C36.6842 454.663 29.4234 464.902 32.3722 472.438C32.3722 472.438 45.631 449.997 56.4217 449.683C67.2125 449.369 60.1239 436.027 48.2498 422.531Z" fill="#6C63FF"/>
        <path opacity="0.1" d="M48.2497 422.531C48.7862 423.303 49.2114 424.149 49.5125 425.043C60.0449 437.633 65.6483 449.383 55.532 449.683C46.1045 449.96 34.7972 467.114 32.0851 471.452C32.1746 471.787 32.2824 472.116 32.408 472.438C32.408 472.438 45.6668 449.997 56.4575 449.683C67.2483 449.369 60.1238 436.027 48.2497 422.531Z" fill="black"/>
        <path d="M59.4279 432.733C59.4279 435.552 59.1194 437.845 58.7105 437.845C58.3015 437.845 57.993 435.559 57.993 432.733C57.993 429.907 58.3804 431.272 58.7607 431.272C59.1409 431.272 59.4279 429.914 59.4279 432.733Z" fill="#FFD037"/>
        <path d="M63.2664 436.092C60.8342 437.443 58.7177 438.283 58.5383 437.911C58.359 437.538 60.1742 436.194 62.6064 434.851C65.0386 433.507 64.0772 434.486 64.2637 434.851C64.4503 435.216 65.6915 434.741 63.2664 436.092Z" fill="#FFD037"/>
        <path d="M16.509 422.531C16.509 422.531 10.4966 430.564 19.2856 442.614C28.0746 454.663 35.321 464.894 32.3865 472.431C32.3865 472.431 19.1277 449.989 8.33699 449.675C-2.45374 449.361 4.62051 436.027 16.509 422.531Z" fill="#6C63FF"/>
        <path opacity="0.1" d="M16.509 422.531C15.985 423.305 15.5719 424.151 15.2821 425.043C4.74965 437.633 -0.85378 449.383 9.26253 449.683C18.6901 449.96 29.9974 467.114 32.7094 471.452C32.6199 471.787 32.5121 472.116 32.3865 472.438C32.3865 472.438 19.1277 449.997 8.33699 449.683C-2.45374 449.369 4.62051 436.027 16.509 422.531Z" fill="black"/>
        <path d="M5.31641 432.733C5.31641 435.552 5.62492 437.845 6.03387 437.845C6.44283 437.845 6.75134 435.559 6.75134 432.733C6.75134 429.907 6.36391 431.272 5.98365 431.272C5.60339 431.272 5.31641 429.914 5.31641 432.733Z" fill="#FFD037"/>
        <path d="M1.47801 436.092C3.91022 437.443 6.02675 438.283 6.20612 437.911C6.38549 437.538 4.57029 436.194 2.13808 434.851C-0.294144 433.507 0.667266 434.486 0.480724 434.851C0.294182 435.216 -0.947039 434.741 1.47801 436.092Z" fill="#FFD037"/>
        <path d="M7.23206 471.387C7.23206 471.387 24.0423 470.861 29.1077 467.187C34.173 463.514 54.9366 459.154 56.2208 464.997C57.5051 470.839 81.4829 494.288 62.5059 494.441C43.5288 494.595 18.4102 491.433 13.3521 488.3C8.29391 485.167 7.23206 471.387 7.23206 471.387Z" fill="#A8A8A8"/>
        <path opacity="0.2" d="M62.8431 492.411C43.866 492.565 18.7474 489.403 13.6893 486.27C9.83647 483.882 8.30108 475.316 7.79168 471.365H7.23206C7.23206 471.365 8.29391 485.167 13.3521 488.3C18.4102 491.433 43.5288 494.602 62.5059 494.442C67.9873 494.398 69.8743 492.411 69.7738 489.476C69.0133 491.272 66.9255 492.382 62.8431 492.411Z" fill="black"/>
        <path d="M704.813 419.208C706.128 418.117 707.086 416.645 707.561 414.987C707.919 413.308 707.216 411.299 705.638 410.686C703.873 409.999 701.986 411.241 700.558 412.504C699.13 413.768 697.487 415.199 695.615 414.929C696.577 414.041 697.297 412.914 697.705 411.659C698.112 410.403 698.193 409.061 697.939 407.765C697.858 407.227 697.635 406.722 697.294 406.304C696.311 405.238 694.538 405.698 693.362 406.538C689.631 409.211 688.591 414.366 688.569 419.011C688.196 417.339 688.512 415.593 688.497 413.899C688.483 412.205 688.024 410.248 686.603 409.357C685.722 408.875 684.733 408.636 683.733 408.663C682.054 408.597 680.189 408.773 679.041 410.021C677.606 411.569 677.986 414.177 679.228 415.864C680.469 417.55 682.349 418.639 684.085 419.822C685.476 420.664 686.664 421.814 687.558 423.188C687.663 423.379 687.749 423.579 687.816 423.787H698.327C700.682 422.566 702.863 421.025 704.813 419.208Z" fill="#6C63FF"/>
        <path opacity="0.1" d="M105.274 350.767C128.104 380.314 119.236 423.48 104.729 458.044C99.8717 469.619 94.3759 481.866 96.4279 494.273C98.9318 509.449 112.212 520.563 126.217 526.406C151.687 537.126 182.18 534.57 205.576 519.753C225.802 506.944 240.288 486.116 260.857 473.891C295.296 453.444 339.104 461.163 376.485 475.25C402.93 485.218 431.844 498.188 458.125 487.767C476.615 480.464 489.4 462.594 496.366 443.68C499.731 434.544 502.171 424.693 508.563 417.39C512.38 413.089 517.36 410.029 522.468 407.458C569.103 383.936 627.936 396.504 673.194 370.448C703.765 352.833 723.338 319.599 732.026 284.947C740.715 250.295 739.682 213.957 737.479 178.275C735.915 152.913 733.11 125.841 717.189 106.263C700.35 85.5593 671.443 77.8549 645.32 81.7911C619.197 85.7273 595.506 99.8216 574.7 116.34C548.663 136.985 524.52 162.698 492.549 171.067C470.782 176.764 447.88 173.645 425.423 172.572C387.885 170.768 350.34 174.763 313.01 179.144C277.273 183.351 241.263 187.981 207.234 199.811C183.141 208.187 163.827 223.384 141.076 234.003C126.246 240.926 110.074 242.839 96.0404 251.654C78.7423 262.513 62.8934 281.405 67.3417 303.503C71.5173 324.542 93.149 335.088 105.274 350.767Z" fill="#6C63FF"/>
        <path opacity="0.1" d="M396.294 350.752C565.757 350.752 703.134 337.321 703.134 320.752C703.134 304.184 565.757 290.752 396.294 290.752C226.831 290.752 89.454 304.184 89.454 320.752C89.454 337.321 226.831 350.752 396.294 350.752Z" fill="#6C63FF"/>
        <path opacity="0.1" d="M160.469 523.828C244.22 523.828 312.113 510.396 312.113 493.828C312.113 477.259 244.22 463.828 160.469 463.828C76.7183 463.828 8.82492 477.259 8.82492 493.828C8.82492 510.396 76.7183 523.828 160.469 523.828Z" fill="#6C63FF"/>
        <g opacity="0.1">
            <path opacity="0.1" d="M335.108 207.508C334.97 207.469 334.836 207.418 334.706 207.355C334.496 207.467 334.281 207.572 334.061 207.669C334.415 207.662 334.767 207.608 335.108 207.508Z" fill="black"/>
            <path opacity="0.1" d="M337.433 194.933C337.195 194.622 336.941 194.325 336.672 194.042C336.672 194.042 335.237 195.503 331.693 195.78C333.645 195.977 335.616 195.687 337.433 194.933Z" fill="black"/>
            <path opacity="0.1" d="M315.485 208.02L315.528 208.494C318.41 209.037 321.337 209.282 324.267 209.224C321.308 209.115 318.367 208.711 315.485 208.02Z" fill="black"/>
            <path opacity="0.1" d="M300.418 251.164C289.061 249.828 279.454 246.943 282.482 244.497C285.509 242.05 288.595 228.044 288.595 228.044C288.595 228.044 288.595 228.124 288.645 227.993C288.77 227.632 288.752 227.237 288.595 226.89C283.809 216.118 284.448 196.948 284.448 196.948C284.448 196.948 283.795 187.389 286.851 183.803C289.125 181.153 294.428 180.605 296.989 180.495C296.75 180.476 296.51 180.476 296.271 180.495C296.271 180.495 287.755 180.276 284.699 183.833C281.642 187.389 282.295 196.978 282.295 196.978C282.295 196.978 281.657 216.177 286.442 226.919C286.6 227.266 286.618 227.662 286.492 228.022C286.442 228.153 286.442 228.073 286.442 228.073C286.442 228.073 283.407 242.036 280.322 244.482C277.237 246.929 286.873 249.821 298.259 251.15C309.645 252.479 314.201 255.816 314.201 255.816C314.43 255.537 314.631 255.236 314.804 254.918C312.587 253.83 308.024 252.041 300.418 251.164Z" fill="black"/>
        </g>
        <path d="M487.161 142.404H675.977V334.576H487.161V142.404Z" fill="#F7DF1E"/>
        <path d="M505.098 299.808L519.548 290.906C522.339 295.938 524.871 300.195 530.956 300.195C536.789 300.195 540.462 297.873 540.462 288.847V227.438H558.205V289.095C558.205 307.797 547.443 316.312 531.716 316.312C517.525 316.312 509.288 308.827 505.105 299.801L505.098 299.808ZM567.841 297.866L582.283 289.35C586.086 295.675 591.029 300.305 599.775 300.305C607.129 300.305 611.814 296.566 611.814 291.403C611.814 285.21 607 283.019 598.9 279.404L594.466 277.469C581.666 271.926 573.171 264.959 573.171 250.251C573.171 236.705 583.309 226.386 599.151 226.386C610.43 226.386 618.523 230.388 624.37 240.831L610.559 249.864C607.517 244.314 604.223 242.123 599.151 242.123C593.956 242.123 590.656 245.475 590.656 249.864C590.656 255.283 593.949 257.474 601.554 260.819L605.988 262.754C621.055 269.326 629.564 276.038 629.564 291.132C629.564 307.388 617.016 316.29 600.148 316.29C583.646 316.29 573.028 308.257 567.862 297.844" fill="black"/>
        <g opacity="0.1">
            <path opacity="0.1" d="M537.556 335.876C537.556 335.876 536.064 316.429 537.556 312.894C539.049 309.36 538.051 297.237 538.051 297.237C538.051 297.237 534.084 291.935 528.624 279.813C525.144 272.094 525.395 266.726 526.034 263.849C526.191 263.147 526.484 262.484 526.897 261.9C527.31 261.315 527.834 260.821 528.437 260.446C531.601 258.474 538.683 253.662 540.785 249.002C542.327 245.585 544.257 243.854 545.649 242.992L545.743 242.437C545.743 242.437 541.775 243.168 539.041 249.258C536.946 253.917 529.858 258.752 526.694 260.701C526.09 261.077 525.567 261.571 525.154 262.155C524.741 262.74 524.447 263.403 524.29 264.105C523.652 266.982 523.408 272.349 526.88 280.068C532.34 292.191 536.308 297.493 536.308 297.493C536.308 297.493 537.298 309.615 535.813 313.15C534.328 316.685 535.813 336.132 535.813 336.132C535.813 336.132 554.424 339.739 565.43 337.804C554.316 339.155 537.556 335.876 537.556 335.876Z" fill="black"/>
            <path opacity="0.1" d="M571.048 268.975C570.71 270.531 571.048 279.681 571.328 285.29C572.526 287.78 573.279 289.438 573.279 289.438C573.279 289.438 572.289 270.998 572.784 268.727C573.258 266.536 564.54 250.719 563.672 249.156L561.864 249.28C561.864 249.28 571.55 266.704 571.048 268.975Z" fill="black"/>
            <path opacity="0.1" d="M599.094 290.19C588.174 290.446 578.495 279.835 578.495 279.835C578.205 280.246 577.993 280.709 577.871 281.2C580.741 283.917 588.633 290.643 597.357 290.438C605.315 290.39 613.268 290.811 621.177 291.702C621.177 291.702 621.127 291.534 621.048 291.249C613.755 290.482 606.425 290.128 599.094 290.19Z" fill="black"/>
            <path opacity="0.1" d="M579.722 311.405C579.722 311.405 579.822 312.982 579.765 315.348C582.348 320.562 587.047 329.479 589.149 329.837L588.783 327.763C585.175 323.147 579.722 311.405 579.722 311.405Z" fill="black"/>
        </g>
        <path d="M286.571 329.837L227.065 313.04L213.806 161.654H359.516L346.243 313.019L286.571 329.837Z" fill="#264DE4"/>
        <path d="M334.879 303.386L346.222 174.04H286.672V316.962L334.879 303.386Z" fill="#2965F1"/>
        <path d="M244.241 230.161L245.877 248.725H286.701V230.161H244.241ZM240.955 192.581L242.612 211.145H286.693V192.581H240.919H240.955ZM286.693 278.382H286.614L266.296 272.795L264.997 257.985H246.651L249.206 287.138L286.571 297.719H286.657L286.693 278.382Z" fill="#EBEBEB"/>
        <path d="M248.101 120.496H270.192V129.902H257.335V139.308H270.192V148.714H248.101V120.496ZM274.647 120.496H296.738V128.675H283.852V130.311H296.709V149.122H274.611V140.534H287.468V138.899H274.611V120.496H274.647ZM301.194 120.496H323.284V128.675H310.363V130.311H323.22V149.122H301.122V140.534H313.979V138.899H301.122V120.496H301.194Z" fill="black"/>
        <path d="M329.002 230.161L332.296 192.581H286.571V211.145H312.278L310.621 230.132H286.571V248.696H309.035L306.883 272.795L286.571 278.396V297.712L323.966 287.159L324.238 284.019L328.543 235.135L328.988 230.147L329.002 230.161Z" fill="white"/>
        <path opacity="0.3" d="M238.86 491.038C238.837 492.458 238.676 493.872 238.379 495.259C238.379 495.259 206.638 497.596 196.694 496.815C191.909 496.442 189.878 494.624 189.519 492.886C189.082 494.887 190.818 497.523 196.694 497.998C206.638 498.779 238.379 496.442 238.379 496.442C238.753 494.667 238.914 492.853 238.86 491.038Z" fill="white"/>
        <path opacity="0.3" d="M252.241 495.705C252.218 497.124 252.057 498.538 251.76 499.926C251.76 499.926 220.019 502.263 210.075 501.481C205.289 501.109 203.259 499.29 202.9 497.552C202.463 499.553 204.199 502.19 210.075 502.664C220.019 503.446 251.76 501.109 251.76 501.109C252.134 499.334 252.295 497.519 252.241 495.705Z" fill="white"/>
        <path d="M306.617 350.562C307.932 349.471 308.891 347.999 309.365 346.341C309.724 344.662 309.021 342.653 307.443 342.04C305.678 341.353 303.791 342.595 302.363 343.858C300.935 345.122 299.292 346.553 297.419 346.283C298.382 345.395 299.102 344.268 299.509 343.013C299.917 341.757 299.998 340.415 299.744 339.119C299.663 338.581 299.44 338.076 299.098 337.658C298.115 336.592 296.343 337.052 295.167 337.892C291.436 340.565 290.395 345.72 290.374 350.365C290.001 348.693 290.317 346.947 290.302 345.253C290.288 343.559 289.829 341.602 288.408 340.711C287.527 340.229 286.538 339.99 285.538 340.017C283.859 339.951 281.994 340.126 280.846 341.375C279.411 342.923 279.791 345.531 281.033 347.217C282.274 348.904 284.153 349.993 285.89 351.176C287.281 352.018 288.468 353.168 289.362 354.542C289.467 354.733 289.554 354.933 289.621 355.141H300.132C302.487 353.92 304.668 352.379 306.617 350.562Z" fill="#6C63FF"/>
        <path d="M325.925 487.686C327.596 486.102 329.167 484.232 329.655 481.961C330.143 479.69 329.189 476.959 327.051 476.119C324.662 475.184 322.1 476.849 320.163 478.58C318.226 480.31 316.002 482.231 313.469 481.866C314.774 480.662 315.749 479.134 316.301 477.432C316.853 475.73 316.963 473.911 316.619 472.153C316.508 471.428 316.205 470.746 315.744 470.182C314.416 468.721 312.006 469.356 310.42 470.496C305.398 474.147 303.963 481.107 303.927 487.401C303.418 485.13 303.848 482.764 303.834 480.435C303.819 478.105 303.195 475.527 301.265 474.271C300.063 473.614 298.712 473.291 297.348 473.336C295.073 473.249 292.541 473.482 290.991 475.177C289.061 477.28 289.556 480.807 291.242 483.122C292.928 485.437 295.475 486.89 297.821 488.49C299.705 489.632 301.311 491.192 302.521 493.054C302.664 493.314 302.782 493.588 302.872 493.872H317.128C320.321 492.223 323.28 490.142 325.925 487.686Z" fill="#6C63FF"/>
    </g>
    <defs>
        <clipPath id="clip0">
            <rect width="739" height="533" fill="white"/>
        </clipPath>
    </defs>
</svg>
