<svg viewBox="0 0 659 565" fill="none"
    xmlns="http://www.w3.org/2000/svg">
    <path class="main_sheild" d="M330.803 7.90808L123.992 130.043C123.992 130.043 123.992 381.947 330.803 519.349C537.615 381.947 537.615 130.043 537.615 130.043L330.803 7.90808Z" fill="#3F3D56"/>
    <path opacity="0.04" d="M332.038 7.90808L328.503 9.99586V516.966C329.677 517.763 330.85 518.56 332.038 519.349C538.85 381.947 538.85 130.043 538.85 130.043L332.038 7.90808Z" fill="#6C63FF"/>
    <!-- <g opacity="0.7">
        <path opacity="0.7" d="M280.736 255.402L319.723 289.698L368.053 222.789L387.547 238.379L319.723 320.878L264.491 261.638L280.736 255.402Z" fill="url(#paint0_linear)"/>
    </g> -->
    <path class="tick_mark" d="M289.937 257.462L321.563 285.283L366.367 222.053L382.18 234.699L321.563 310.576L276.76 262.521L289.937 257.462Z" fill="#3AD29F"/>
    <path class="left_part" opacity="0.5" d="M126.747 35.2903C126.113 35.0254 125.602 34.5459 125.313 33.9433C125.023 33.3407 124.975 32.657 125.176 32.0223C125.209 31.925 125.23 31.8243 125.238 31.7224V31.7224C125.256 31.4316 125.177 31.1428 125.011 30.8988C124.845 30.6549 124.601 30.4687 124.316 30.3679C124.032 30.267 123.721 30.2569 123.429 30.339C123.138 30.4211 122.882 30.5911 122.699 30.8237V30.8237C122.636 30.9063 122.584 30.9956 122.543 31.09C122.267 31.6983 121.767 32.1881 121.139 32.4659C120.511 32.7437 119.799 32.7903 119.137 32.5967C119.036 32.5653 118.931 32.5456 118.825 32.5379C118.522 32.5202 118.221 32.5966 117.967 32.7558C117.713 32.9151 117.519 33.1487 117.413 33.422C117.308 33.6953 117.298 33.9939 117.383 34.2734C117.469 34.5529 117.646 34.7986 117.889 34.974V34.974C117.975 35.0343 118.068 35.0847 118.166 35.124C118.8 35.389 119.31 35.8684 119.6 36.471C119.889 37.0736 119.938 37.7574 119.736 38.3921C119.703 38.4894 119.683 38.5901 119.675 38.692V38.692C119.656 38.9828 119.736 39.2716 119.902 39.5155C120.068 39.7595 120.311 39.9457 120.596 40.0465C120.881 40.1473 121.192 40.1575 121.483 40.0753C121.774 39.9932 122.03 39.8233 122.213 39.5906V39.5906C122.276 39.5081 122.329 39.4187 122.37 39.3244C122.646 38.716 123.145 38.2263 123.773 37.9485C124.401 37.6706 125.114 37.6241 125.775 37.8177C125.876 37.849 125.981 37.8688 126.088 37.8765V37.8765C126.391 37.8942 126.691 37.8178 126.946 37.6585C127.2 37.4993 127.394 37.2657 127.499 36.9923C127.604 36.719 127.615 36.4205 127.529 36.1409C127.443 35.8614 127.266 35.6158 127.024 35.4404V35.4404C126.938 35.3801 126.845 35.3297 126.747 35.2903V35.2903Z" fill="#4D8AF0"/>
    <path class="left_part" opacity="0.5" d="M14.7915 274.453C14.1576 274.188 13.6473 273.708 13.3578 273.106C13.0683 272.503 13.0198 271.819 13.2215 271.185C13.2542 271.087 13.2747 270.987 13.2828 270.885V270.885C13.3012 270.594 13.2216 270.305 13.0556 270.061C12.8897 269.817 12.6463 269.631 12.3615 269.53C12.0767 269.429 11.7656 269.419 11.4743 269.501C11.183 269.583 10.927 269.753 10.7443 269.986V269.986C10.6814 270.069 10.629 270.158 10.5879 270.252C10.3118 270.861 9.81225 271.35 9.18431 271.628C8.55637 271.906 7.84389 271.953 7.1825 271.759C7.0811 271.728 6.97622 271.708 6.87 271.7V271.7C6.56698 271.683 6.26607 271.759 6.01185 271.918C5.75763 272.077 5.56362 272.311 5.45855 272.584C5.35348 272.858 5.34294 273.156 5.4285 273.436C5.51406 273.715 5.69116 273.961 5.93357 274.136C6.01958 274.197 6.1127 274.247 6.21101 274.286C6.84496 274.551 7.35526 275.031 7.64477 275.633C7.93428 276.236 7.98277 276.92 7.78104 277.554C7.74839 277.652 7.72783 277.752 7.71977 277.854V277.854C7.70133 278.145 7.78097 278.434 7.94691 278.678C8.11284 278.922 8.35625 279.108 8.64107 279.209C8.92589 279.31 9.23698 279.32 9.52826 279.238C9.81954 279.156 10.0755 278.986 10.2583 278.753C10.3211 278.67 10.3736 278.581 10.4146 278.487C10.6907 277.878 11.1903 277.389 11.8182 277.111C12.4462 276.833 13.1587 276.786 13.8201 276.98C13.9215 277.011 14.0263 277.031 14.1326 277.039V277.039C14.4356 277.057 14.7365 276.98 14.9907 276.821C15.2449 276.662 15.4389 276.428 15.544 276.155C15.6491 275.881 15.6596 275.583 15.574 275.303C15.4885 275.024 15.3114 274.778 15.069 274.603C14.983 274.542 14.8899 274.492 14.7915 274.453V274.453Z" fill="#4D8AF0"/>
    <path class="right_part" opacity="0.5" d="M573.883 191.33C576.424 191.33 578.484 189.353 578.484 186.915C578.484 184.476 576.424 182.499 573.883 182.499C571.342 182.499 569.283 184.476 569.283 186.915C569.283 189.353 571.342 191.33 573.883 191.33Z" fill="#F55F44"/>
    <path opacity="0.5" d="M93.0906 507.024C95.6316 507.024 97.6915 505.047 97.6915 502.609C97.6915 500.17 95.6316 498.194 93.0906 498.194C90.5496 498.194 88.4897 500.17 88.4897 502.609C88.4897 505.047 90.5496 507.024 93.0906 507.024Z" fill="#F55F44"/>
    <path opacity="0.5" d="M652.099 361.319C654.64 361.319 656.7 359.342 656.7 356.904C656.7 354.465 654.64 352.489 652.099 352.489C649.558 352.489 647.498 354.465 647.498 356.904C647.498 359.342 649.558 361.319 652.099 361.319Z" fill="#F55F44"/>
    <path opacity="0.5" d="M540.06 56.6309C539.426 56.366 538.915 55.8865 538.626 55.2839C538.336 54.6813 538.288 53.9976 538.49 53.3628C538.522 53.2655 538.543 53.1649 538.551 53.0629V53.0629C538.569 52.7721 538.49 52.4834 538.324 52.2394C538.158 51.9954 537.914 51.8093 537.63 51.7084C537.345 51.6076 537.034 51.5975 536.742 51.6796C536.451 51.7617 536.195 51.9317 536.012 52.1643C535.95 52.2468 535.897 52.3362 535.856 52.4305C535.58 53.0389 535.08 53.5286 534.452 53.8065C533.824 54.0843 533.112 54.1308 532.451 53.9372C532.349 53.9059 532.244 53.8862 532.138 53.8784V53.8784C531.835 53.8607 531.534 53.9372 531.28 54.0964C531.026 54.2557 530.832 54.4893 530.727 54.7626C530.622 55.0359 530.611 55.3345 530.697 55.614C530.782 55.8935 530.959 56.1392 531.202 56.3146V56.3146C531.288 56.3749 531.381 56.4252 531.479 56.4646C532.113 56.7296 532.623 57.209 532.913 57.8116C533.202 58.4142 533.251 59.098 533.049 59.7327C533.017 59.83 532.996 59.9306 532.988 60.0326V60.0326C532.969 60.3234 533.049 60.6121 533.215 60.8561C533.381 61.1001 533.624 61.2863 533.909 61.3871C534.194 61.4879 534.505 61.498 534.796 61.4159C535.088 61.3338 535.344 61.1639 535.526 60.9312V60.9312C535.589 60.8487 535.642 60.7593 535.683 60.665C535.959 60.0566 536.458 59.5669 537.086 59.2891C537.714 59.0112 538.427 58.9647 539.088 59.1583C539.19 59.1896 539.294 59.2093 539.401 59.2171V59.2171C539.704 59.2348 540.005 59.1583 540.259 58.9991C540.513 58.8399 540.707 58.6063 540.812 58.3329C540.917 58.0596 540.928 57.7611 540.842 57.4815C540.757 57.202 540.58 56.9564 540.337 56.781C540.251 56.7207 540.158 56.6703 540.06 56.6309V56.6309Z" fill="#4D8AF0"/>
    <path opacity="0.5" d="M616.741 518.766C616.107 518.501 615.597 518.022 615.307 517.419C615.018 516.817 614.969 516.133 615.171 515.498C615.204 515.401 615.224 515.3 615.232 515.198V515.198C615.251 514.908 615.171 514.619 615.005 514.375C614.839 514.131 614.596 513.945 614.311 513.844C614.026 513.743 613.715 513.733 613.424 513.815C613.133 513.897 612.877 514.067 612.694 514.3C612.631 514.382 612.579 514.472 612.537 514.566C612.261 515.174 611.762 515.664 611.134 515.942C610.506 516.22 609.793 516.266 609.132 516.073C609.031 516.041 608.926 516.022 608.82 516.014V516.014C608.517 515.996 608.216 516.073 607.961 516.232C607.707 516.391 607.513 516.625 607.408 516.898C607.303 517.171 607.293 517.47 607.378 517.749C607.464 518.029 607.641 518.275 607.883 518.45V518.45C607.969 518.51 608.062 518.561 608.161 518.6C608.795 518.865 609.305 519.344 609.594 519.947C609.884 520.55 609.932 521.233 609.731 521.868C609.698 521.965 609.677 522.066 609.669 522.168V522.168C609.651 522.459 609.731 522.748 609.896 522.991C610.062 523.235 610.306 523.422 610.591 523.522C610.875 523.623 611.187 523.633 611.478 523.551C611.769 523.469 612.025 523.299 612.208 523.067V523.067C612.271 522.984 612.323 522.895 612.364 522.8C612.64 522.192 613.14 521.702 613.768 521.424C614.396 521.147 615.108 521.1 615.77 521.294C615.871 521.325 615.976 521.345 616.082 521.352V521.352C616.385 521.37 616.686 521.294 616.94 521.134C617.194 520.975 617.388 520.742 617.494 520.468C617.599 520.195 617.609 519.896 617.524 519.617C617.438 519.337 617.261 519.092 617.019 518.916C616.933 518.856 616.839 518.806 616.741 518.766V518.766Z" fill="#4D8AF0"/>
    <path opacity="0.5" d="M9.42384 134.635C8.78989 134.37 8.2796 133.89 7.99009 133.288C7.70058 132.685 7.65208 132.001 7.85381 131.367C7.88646 131.269 7.90702 131.169 7.91508 131.067V131.067C7.93352 130.776 7.85388 130.487 7.68794 130.243C7.52201 129.999 7.2786 129.813 6.99378 129.712C6.70896 129.611 6.39787 129.601 6.10659 129.683C5.81531 129.765 5.55934 129.935 5.37658 130.168C5.31374 130.251 5.26125 130.34 5.22023 130.434C4.94412 131.043 4.44455 131.532 3.8166 131.81C3.18866 132.088 2.47618 132.135 1.8148 131.941C1.7134 131.91 1.60851 131.89 1.50229 131.882V131.882C1.19927 131.865 0.898363 131.941 0.644144 132.1C0.389924 132.259 0.195911 132.493 0.0908427 132.766C-0.0142252 133.04 -0.0247619 133.338 0.0607953 133.618C0.146353 133.897 0.323456 134.143 0.565866 134.318V134.318C0.651871 134.379 0.744994 134.429 0.843301 134.468C1.47726 134.733 1.98756 135.213 2.27707 135.815C2.56657 136.418 2.61507 137.102 2.41333 137.736C2.38069 137.834 2.36013 137.934 2.35207 138.036V138.036C2.33362 138.327 2.41326 138.616 2.5792 138.86C2.74514 139.104 2.98854 139.29 3.27337 139.391C3.55819 139.492 3.86928 139.502 4.16056 139.42C4.45183 139.338 4.70782 139.168 4.89057 138.935V138.935C4.95342 138.852 5.0059 138.763 5.04693 138.669C5.32303 138.06 5.82259 137.571 6.45054 137.293C7.07849 137.015 7.79096 136.968 8.45235 137.162C8.55375 137.193 8.65863 137.213 8.76485 137.221V137.221C9.06787 137.239 9.36878 137.162 9.623 137.003C9.87722 136.844 10.0712 136.61 10.1763 136.337C10.2814 136.063 10.2919 135.765 10.2063 135.485C10.1208 135.206 9.94368 134.96 9.70128 134.785C9.61527 134.724 9.52215 134.674 9.42384 134.635V134.635Z" fill="#4D8AF0"/>
    <path class="left_part" opacity="0.5" d="M60.8844 213.406C63.4254 213.406 65.4853 211.43 65.4853 208.991C65.4853 206.553 63.4254 204.576 60.8844 204.576C58.3434 204.576 56.2835 206.553 56.2835 208.991C56.2835 211.43 58.3434 213.406 60.8844 213.406Z" fill="#47E6B1"/>
    <path opacity="0.5" d="M654.399 248.729C656.94 248.729 659 246.752 659 244.313C659 241.875 656.94 239.898 654.399 239.898C651.858 239.898 649.798 241.875 649.798 244.313C649.798 246.752 651.858 248.729 654.399 248.729Z" fill="#47E6B1"/>
    <g class="right_part" opacity="0.5">
        <path opacity="0.5" d="M449.66 0H447.359V12.51H449.66V0Z" fill="#47E6B1"/>
        <path opacity="0.5" d="M455.027 7.3589V5.15125L441.991 5.15125V7.3589L455.027 7.3589Z" fill="#47E6B1"/>
    </g>
    <g class="right_part" opacity="0.5">
        <path opacity="0.5" d="M458.094 490.099H455.794V502.609H458.094V490.099Z" fill="#47E6B1"/>
        <path opacity="0.5" d="M463.462 497.458V495.25H450.426V497.458H463.462Z" fill="#47E6B1"/>
    </g>
    <g class="left_part" opacity="0.5">
        <path opacity="0.5" d="M22.5437 516.591H20.2432V529.101H22.5437V516.591Z" fill="#47E6B1"/>
        <path opacity="0.5" d="M27.9114 523.95V521.742H14.8755V523.95H27.9114Z" fill="#47E6B1"/>
    </g>
    <g class="right_part" opacity="0.5">
        <path opacity="0.5" d="M546.278 291.41H543.978V303.92H546.278V291.41Z" fill="#47E6B1"/>
        <path opacity="0.5" d="M551.646 298.769V296.561H538.61V298.769H551.646Z" fill="#47E6B1"/>
    </g>
    <path class="right_part" opacity="0.5" d="M610.083 90.527L615.023 94.8731L622.023 84.9946L624.493 86.9705L615.023 98.8248L608.024 91.3173L610.083 90.527Z" fill="#47E6B1"/>
    <path d="M469.037 176.076L451.994 176.711L452.844 197.739L469.887 197.105L469.037 176.076Z" fill="#6C63FF"/>
    <path d="M392.157 249.723C392.157 249.723 368.555 238.901 368.932 248.247C369.31 257.593 392.723 263.742 392.723 263.742L392.157 249.723Z" fill="#FFB9B9"/>
    <path d="M405.105 328.801C405.105 328.801 393.97 354.956 389.856 373.829C385.742 392.702 379.477 418.675 387.536 437.095C395.596 455.516 418.509 509.653 418.745 515.494C418.981 521.336 416.783 527.268 421.652 527.086C426.521 526.905 453.02 518.899 454.096 515.349C455.171 511.799 445.055 502.815 445.055 502.815L420.074 427.695L446.138 378.754L464.937 451.765L468.62 542.889C468.62 542.889 486.691 537.536 489.315 542.118C489.315 542.118 497.411 531.287 498.44 526.569C499.468 521.85 494.616 431.941 494.616 431.941C494.616 431.941 511.204 329.533 497.813 330.031C484.422 330.529 431.972 299.721 405.105 328.801Z" fill="#6C63FF"/>
    <path d="M421.463 522.413C421.463 522.413 409.111 548.613 407.941 549.827C406.77 551.04 398.721 563.04 404.808 562.813C410.895 562.587 425.267 556.202 435.845 546.448C446.424 536.694 460.371 519.795 459.107 518.672C457.842 517.549 449.179 514.362 449.179 514.362L421.463 522.413Z" fill="#575A89"/>
    <path d="M470.818 536.957C470.818 536.957 470.073 548.684 467.827 553.448C465.581 558.212 465.864 565.221 471.951 564.995C478.038 564.768 493.769 561.843 493.769 561.843C493.769 561.843 494.703 554.788 493.439 553.665C492.174 552.542 486.785 539.872 489.078 536.277C491.371 532.682 470.818 536.957 470.818 536.957Z" fill="#575A89"/>
    <path d="M479.823 156.37C479.823 156.37 492.799 175.777 497.857 180.269C502.916 184.761 488.685 194.65 488.685 194.65L463.215 197.938C463.215 197.938 463.535 175.696 462.224 173.405C460.912 171.114 479.823 156.37 479.823 156.37Z" fill="#FFB9B9"/>
    <path d="M457.685 181.764C457.685 181.764 462.932 190.929 467.801 190.747C472.671 190.566 497.857 180.269 498.933 176.719C500.009 173.169 507.276 202.148 507.276 202.148L445.646 306.232L430.613 296.262L437.897 235.15L443.879 202.168L457.685 181.764Z" fill="#6C63FF"/>
    <path d="M501.206 274.915C498.748 279.85 497.212 284.997 497.425 290.265C497.435 290.499 497.444 290.733 497.466 290.966C498.049 301.778 502.2 314.283 503.689 323.377C504.769 329.901 504.462 334.663 500.484 335.782C490.839 338.481 501.89 340.409 464.577 352.328C427.264 364.247 420.752 353.959 420.658 351.622C420.563 349.286 425.942 331.536 424.677 330.413C423.413 329.29 406.984 345.111 402.02 342.956C397.056 340.801 401.453 328.937 401.453 328.937C401.453 328.937 412.636 303.951 412.4 298.11C412.164 292.268 429.338 264.719 429.338 264.719L441.019 191.744C441.019 191.744 445.511 182.217 451.551 180.822C457.59 179.427 462.601 182.751 462.601 182.751L452.495 204.187L441.832 242.024L443.616 255.998C443.616 255.998 456.015 230.966 464.159 221.303C472.303 211.64 489.666 188.764 489.666 188.764C489.666 188.764 493.72 175.637 490.66 171.715C487.599 167.78 503.425 167.192 510.172 183.321C513.749 191.869 519.555 204.616 523.192 216.485C526.434 227 527.965 236.83 524.753 242.448C519.846 251.031 507.5 262.313 501.206 274.915Z" fill="#575A89"/>
    <path opacity="0.1" d="M524.754 242.448C519.846 251.031 507.5 262.313 501.206 274.915C499.562 269.231 497.557 263.35 497.557 263.35C497.557 263.35 489.865 223.856 512.617 213.65C516.387 213.3 520.158 214.311 523.192 216.485C526.434 227 527.965 236.83 524.754 242.448Z" fill="black"/>
    <path d="M434.433 239.959L415.145 245.357L388.363 246.354L385.608 268.686L429.621 271.729C429.621 271.729 440.615 242.069 434.433 239.959Z" fill="#575A89"/>
    <path d="M465.886 315.049C465.886 315.049 440.082 319.157 445.971 326.609C451.861 334.061 474.721 326.227 474.721 326.227L465.886 315.049Z" fill="#FFB9B9"/>
    <path opacity="0.1" d="M497.466 290.966C498.049 301.778 502.2 314.283 503.689 323.377C495.468 330.844 487.651 337.429 484.705 337.539C478.619 337.765 468.833 336.96 465.228 338.264C461.623 339.568 459.509 317.417 459.509 317.417C459.509 317.417 461.66 310.316 471.257 306.449C477.735 303.833 490.152 296.737 497.466 290.966Z" fill="black"/>
    <path d="M512.334 206.64C512.334 206.64 532.934 203.534 531.822 236.335C530.709 269.137 533.993 290.075 525.708 296.233C517.422 302.391 490.509 330.303 484.422 330.529C478.335 330.756 468.549 329.95 464.944 331.254C461.34 332.558 459.225 310.407 459.225 310.407C459.225 310.407 461.377 303.307 470.974 299.44C480.571 295.573 503.182 281.861 502.993 277.188C502.804 272.515 497.274 256.341 497.274 256.341C497.274 256.341 489.582 216.847 512.334 206.64Z" fill="#575A89"/>
    <path d="M461.657 185.107C476.459 185.107 488.459 173.591 488.459 159.386C488.459 145.181 476.459 133.665 461.657 133.665C446.855 133.665 434.855 145.181 434.855 159.386C434.855 173.591 446.855 185.107 461.657 185.107Z" fill="#FFB9B9"/>
    <path d="M443.611 122.52C442.964 123.055 442.19 123.428 441.357 123.606C440.939 123.677 440.508 123.587 440.159 123.355C439.81 123.123 439.571 122.768 439.494 122.367C438.88 123.587 438.189 124.888 436.937 125.514C435.685 126.14 433.749 125.615 433.568 124.272C433.385 125.292 432.915 126.245 432.208 127.027C431.431 127.737 430.023 127.917 429.345 127.118C429.893 129.994 429.554 132.951 429.727 135.87C429.899 138.788 430.71 141.882 433.007 143.801C436.358 146.6 441.397 145.909 445.805 145.379C446.472 145.245 447.163 145.281 447.811 145.484C449.461 146.159 449.386 148.364 449.408 150.085C449.543 153.106 450.789 155.983 452.924 158.205C455.06 160.428 457.947 161.852 461.073 162.226C462.823 162.485 464.608 162.067 466.036 161.063C467.288 160.045 467.927 158.386 469.361 157.621C471.694 156.377 474.523 158.191 476.229 160.161C477.934 162.131 479.615 164.554 482.257 164.915C485.751 165.391 488.413 161.974 489.719 158.827C491.52 154.417 492.383 149.705 492.257 144.969C492.131 140.233 491.018 135.57 488.984 131.254C481.687 115.991 456.763 113.577 443.611 122.52Z" fill="#2F2E41"/>
    <defs>
        <linearGradient id="paint0_linear" x1="264.49" y1="271.834" x2="387.548" y2="271.834" gradientUnits="userSpaceOnUse">
            <stop stop-color="#808080" stop-opacity="0.25"/>
            <stop offset="0.53514" stop-color="#808080" stop-opacity="0.12"/>
            <stop offset="1" stop-color="#808080" stop-opacity="0.1"/>
        </linearGradient>
    </defs>
</svg>
