<svg viewBox="0 0 626 391" fill="none"
    xmlns="http://www.w3.org/2000/svg">
    <g clip-path="url(#clip0)">
        <path opacity="0.1" d="M626 250.965C626.008 261.587 624.746 272.159 622.252 282.381C619.841 292.235 616.294 301.669 611.707 310.427C611.707 342.16 593.201 369.585 566.338 382.633C555.114 388.03 543.073 390.786 530.918 390.74H118.836C96.8111 390.74 76.4005 383.862 59.6615 372.144C54.871 368.806 50.3265 365.016 46.0745 360.813C27.4696 342.305 15.9346 316.729 15.9346 288.481C5.49291 269.87 -0.0437333 248.144 1.31066e-05 225.953C1.31066e-05 179.488 23.7431 139.534 57.7573 121.895C62.274 119.553 66.9411 117.622 71.7164 116.118C73.4054 115.586 75.1127 115.109 76.8382 114.687C81.4381 113.553 86.1037 112.812 90.7974 112.47C92.4937 112.347 94.1991 112.278 95.9137 112.261H96.8549C98.7482 112.261 100.625 112.337 102.491 112.463L103.104 111.26C103.855 109.807 104.625 108.37 105.413 106.947C106.836 104.354 108.328 101.799 109.889 99.2828C111.524 96.6268 113.229 94.013 115.006 91.4415L115.46 90.8081C116.467 89.3555 117.495 87.9199 118.546 86.5011C121.829 82.0716 125.295 77.7752 128.943 73.6118C168.402 28.8443 230.219 0.0253296 299.714 0.0253296C353.788 0.0253296 403.217 17.475 441.078 46.3066C455.421 36.9114 471.624 31.9816 488.105 31.9985C541.588 31.9985 584.96 82.9035 584.96 145.697C584.952 149.67 584.769 153.64 584.413 157.592C597.305 168.156 607.813 182.153 615.051 198.404C622.289 214.655 626.044 232.682 626 250.965V250.965Z" fill="#6C63FF"/>
        <path opacity="0.2" d="M128.954 73.5864V86.4758H118.557C121.815 82.0505 125.28 77.7541 128.954 73.5864Z" fill="#6C63FF"/>
        <path class="blinker" opacity="0.2" d="M148.035 70.3182H134.076V86.4758H148.035V70.3182Z" fill="#6C63FF"/>
        <path class="blinker" opacity="0.2" d="M167.11 70.3182H153.151V86.4758H167.11V70.3182Z" fill="#6C63FF"/>
        <path class="blinker" opacity="0.2" d="M186.191 70.3182H172.232V86.4758H186.191V70.3182Z" fill="#6C63FF"/>
        <path class="blinker" opacity="0.2" d="M205.267 70.3182H191.308V86.4758H205.267V70.3182Z" fill="#6C63FF"/>
        <path class="blinker" opacity="0.2" d="M224.348 70.3182H210.389V86.4758H224.348V70.3182Z" fill="#6C63FF"/>
        <path d="M243.429 70.3182H229.469V86.4758H243.429V70.3182Z" fill="#6C63FF"/>
        <path class="blinker" opacity="0.2" d="M262.504 70.3182H248.545V86.4758H262.504V70.3182Z" fill="#6C63FF"/>
        <path class="blinker" opacity="0.2" d="M281.585 70.3182H267.626V86.4758H281.585V70.3182Z" fill="#6C63FF"/>
        <path class="blinker" opacity="0.2" d="M300.661 70.3182H286.701V86.4758H300.661V70.3182Z" fill="#6C63FF"/>
        <path d="M319.741 70.3182H305.782V86.4758H319.741V70.3182Z" fill="#6C63FF"/>
        <path class="blinker" opacity="0.2" d="M338.823 70.3182H324.863V86.4758H338.823V70.3182Z" fill="#6C63FF"/>
        <path class="blinker" opacity="0.2" d="M357.898 70.3182H343.939V86.4758H357.898V70.3182Z" fill="#6C63FF"/>
        <path class="blinker" opacity="0.2" d="M376.979 70.3182H363.02V86.4758H376.979V70.3182Z" fill="#6C63FF"/>
        <path class="blinker" opacity="0.2" d="M396.06 70.3182H382.101V86.4758H396.06V70.3182Z" fill="#6C63FF"/>
        <path class="blinker" opacity="0.2" d="M415.135 70.3182H401.176V86.4758H415.135V70.3182Z" fill="#6C63FF"/>
        <path class="blinker" opacity="0.2" d="M434.216 70.3182H420.257V86.4758H434.216V70.3182Z" fill="#6C63FF"/>
        <path d="M453.292 70.3182H439.333V86.4758H453.292V70.3182Z" fill="#6C63FF"/>
        <path d="M472.373 70.3182H458.414V86.4758H472.373V70.3182Z" fill="#6C63FF"/>
        <path class="blinker" opacity="0.2" d="M491.454 70.3182H477.495V86.4758H491.454V70.3182Z" fill="#6C63FF"/>
        <path class="blinker" opacity="0.2" d="M510.529 70.3182H496.57V86.4758H510.529V70.3182Z" fill="#6C63FF"/>
        <path d="M529.61 70.3182H515.651V86.4758H529.61V70.3182Z" fill="#6C63FF"/>
        <path d="M548.686 70.3182H534.727V86.4758H548.686V70.3182Z" fill="#6C63FF"/>
        <path d="M109.878 99.2764V106.94H105.402C106.825 104.331 108.317 101.776 109.878 99.2764Z" fill="#6C63FF"/>
        <path class="blinker" opacity="0.2" d="M128.954 90.7828H114.995V106.94H128.954V90.7828Z" fill="#6C63FF"/>
        <path d="M148.035 90.7828H134.076V106.94H148.035V90.7828Z" fill="#6C63FF"/>
        <path class="blinker" opacity="0.2" d="M167.11 90.7828H153.151V106.94H167.11V90.7828Z" fill="#6C63FF"/>
        <path class="blinker" opacity="0.7" d="M186.191 90.7828H172.232V106.94H186.191V90.7828Z" fill="#6C63FF"/>
        <path class="blinker" opacity="0.2" d="M205.267 90.7828H191.308V106.94H205.267V90.7828Z" fill="#6C63FF"/>
        <path class="blinker" opacity="0.4" d="M224.348 90.7828H210.389V106.94H224.348V90.7828Z" fill="#6C63FF"/>
        <path d="M243.429 90.7828H229.469V106.94H243.429V90.7828Z" fill="#6C63FF"/>
        <path class="blinker" opacity="0.4" d="M262.504 90.7828H248.545V106.94H262.504V90.7828Z" fill="#6C63FF"/>
        <path class="blinker" opacity="0.2" d="M281.585 90.7828H267.626V106.94H281.585V90.7828Z" fill="#6C63FF"/>
        <path class="blinker" opacity="0.4" d="M300.661 90.7828H286.701V106.94H300.661V90.7828Z" fill="#6C63FF"/>
        <path d="M319.741 90.7828H305.782V106.94H319.741V90.7828Z" fill="#6C63FF"/>
        <path class="blinker" opacity="0.4" d="M338.823 90.7828H324.863V106.94H338.823V90.7828Z" fill="#6C63FF"/>
        <path class="blinker" opacity="0.4" d="M357.898 90.7828H343.939V106.94H357.898V90.7828Z" fill="#6C63FF"/>
        <path class="blinker" opacity="0.2" d="M376.979 90.7828H363.02V106.94H376.979V90.7828Z" fill="#6C63FF"/>
        <path class="blinker" opacity="0.4" d="M396.06 90.7828H382.101V106.94H396.06V90.7828Z" fill="#6C63FF"/>
        <path class="blinker" opacity="0.4" d="M415.135 90.7828H401.176V106.94H415.135V90.7828Z" fill="#6C63FF"/>
        <path class="blinker" opacity="0.2" d="M434.216 90.7828H420.257V106.94H434.216V90.7828Z" fill="#6C63FF"/>
        <path class="blinker" opacity="0.2" d="M453.292 90.7828H439.333V106.94H453.292V90.7828Z" fill="#6C63FF"/>
        <path class="blinker" opacity="0.4" d="M472.373 90.7828H458.414V106.94H472.373V90.7828Z" fill="#6C63FF"/>
        <path class="blinker" opacity="0.2" d="M491.454 90.7828H477.495V106.94H491.454V90.7828Z" fill="#6C63FF"/>
        <path d="M510.529 90.7828H496.57V106.94H510.529V90.7828Z" fill="#6C63FF"/>
        <path d="M529.61 90.7828H515.651V106.94H529.61V90.7828Z" fill="#6C63FF"/>
        <path d="M548.686 90.7828H534.727V106.94H548.686V90.7828Z" fill="#6C63FF"/>
        <path class="blinker" opacity="0.2" d="M71.7164 116.118V127.411H57.7572V121.895C62.2739 119.553 66.941 117.622 71.7164 116.118V116.118Z" fill="#6C63FF"/>
        <path class="blinker" opacity="0.2" d="M90.7974 112.47V127.411H76.8383V114.687L90.7974 112.47Z" fill="#6C63FF"/>
        <path d="M109.873 111.254H95.9137V127.411H109.873V111.254Z" fill="#6C63FF"/>
        <path class="blinker" opacity="0.7" d="M128.954 111.254H114.995V127.411H128.954V111.254Z" fill="#6C63FF"/>
        <path d="M148.035 111.254H134.076V127.411H148.035V111.254Z" fill="#6C63FF"/>
        <path class="blinker" opacity="0.7" d="M167.11 111.254H153.151V127.411H167.11V111.254Z" fill="#6C63FF"/>
        <path class="blinker" opacity="0.7" d="M186.191 111.254H172.232V127.411H186.191V111.254Z" fill="#6C63FF"/>
        <path class="blinker" opacity="0.2" d="M205.267 111.254H191.308V127.411H205.267V111.254Z" fill="#6C63FF"/>
        <path class="blinker" opacity="0.4" d="M224.348 111.254H210.389V127.411H224.348V111.254Z" fill="#6C63FF"/>
        <path class="blinker" opacity="0.4" d="M243.429 111.254H229.469V127.411H243.429V111.254Z" fill="#6C63FF"/>
        <path d="M262.504 111.254H248.545V127.411H262.504V111.254Z" fill="#6C63FF"/>
        <path class="blinker" opacity="0.2" d="M281.585 111.254H267.626V127.411H281.585V111.254Z" fill="#6C63FF"/>
        <path class="blinker" opacity="0.4" d="M300.661 111.254H286.701V127.411H300.661V111.254Z" fill="#6C63FF"/>
        <path d="M319.741 111.254H305.782V127.411H319.741V111.254Z" fill="#6C63FF"/>
        <path class="blinker" opacity="0.2" d="M338.823 111.254H324.863V127.411H338.823V111.254Z" fill="#6C63FF"/>
        <path class="blinker" opacity="0.4" d="M357.898 111.254H343.939V127.411H357.898V111.254Z" fill="#6C63FF"/>
        <path class="blinker" opacity="0.2" d="M376.979 111.254H363.02V127.411H376.979V111.254Z" fill="#6C63FF"/>
        <path d="M396.06 111.254H382.101V127.411H396.06V111.254Z" fill="#6C63FF"/>
        <path class="blinker" opacity="0.2" d="M415.135 111.254H401.176V127.411H415.135V111.254Z" fill="#6C63FF"/>
        <path class="blinker" opacity="0.7" d="M434.216 111.254H420.257V127.411H434.216V111.254Z" fill="#6C63FF"/>
        <path class="blinker" opacity="0.7" d="M453.292 111.254H439.333V127.411H453.292V111.254Z" fill="#6C63FF"/>
        <path class="blinker" opacity="0.4" d="M472.373 111.254H458.414V127.411H472.373V111.254Z" fill="#6C63FF"/>
        <path class="blinker" opacity="0.2" d="M491.454 111.254H477.495V127.411H491.454V111.254Z" fill="#6C63FF"/>
        <path d="M510.529 111.254H496.57V127.411H510.529V111.254Z" fill="#6C63FF"/>
        <path d="M529.61 111.254H515.651V127.411H529.61V111.254Z" fill="#6C63FF"/>
        <path d="M548.686 111.254H534.727V127.411H548.686V111.254Z" fill="#6C63FF"/>
        <path class="blinker" opacity="0.2" d="M71.7164 131.718H57.7572V147.876H71.7164V131.718Z" fill="#6C63FF"/>
        <path class="blinker" opacity="0.2" d="M90.7974 131.718H76.8383V147.876H90.7974V131.718Z" fill="#6C63FF"/>
        <path class="blinker" opacity="0.2" d="M109.873 131.718H95.9137V147.876H109.873V131.718Z" fill="#6C63FF"/>
        <path class="blinker" opacity="0.2" d="M128.954 131.718H114.995V147.876H128.954V131.718Z" fill="#6C63FF"/>
        <path d="M148.035 131.718H134.076V147.876H148.035V131.718Z" fill="#6C63FF"/>
        <path class="blinker" opacity="0.7" d="M167.11 131.718H153.151V147.876H167.11V131.718Z" fill="#6C63FF"/>
        <path class="blinker" opacity="0.7" d="M186.191 131.718H172.232V147.876H186.191V131.718Z" fill="#6C63FF"/>
        <path class="blinker" opacity="0.2" d="M205.267 131.718H191.308V147.876H205.267V131.718Z" fill="#6C63FF"/>
        <path class="blinker" opacity="0.2" d="M224.348 131.718H210.389V147.876H224.348V131.718Z" fill="#6C63FF"/>
        <path class="blinker" opacity="0.4" d="M243.429 131.718H229.469V147.876H243.429V131.718Z" fill="#6C63FF"/>
        <path class="blinker" opacity="0.4" d="M262.504 131.718H248.545V147.876H262.504V131.718Z" fill="#6C63FF"/>
        <path d="M281.585 131.718H267.626V147.876H281.585V131.718Z" fill="#6C63FF"/>
        <path class="blinker" opacity="0.2" d="M300.661 131.718H286.701V147.876H300.661V131.718Z" fill="#6C63FF"/>
        <path class="blinker" opacity="0.4" d="M319.741 131.718H305.782V147.876H319.741V131.718Z" fill="#6C63FF"/>
        <path class="blinker" opacity="0.4" d="M338.823 131.718H324.863V147.876H338.823V131.718Z" fill="#6C63FF"/>
        <path class="blinker" opacity="0.4" d="M357.898 131.718H343.939V147.876H357.898V131.718Z" fill="#6C63FF"/>
        <path class="blinker" opacity="0.4" d="M376.979 131.718H363.02V147.876H376.979V131.718Z" fill="#6C63FF"/>
        <path class="blinker" opacity="0.2" d="M396.06 131.718H382.101V147.876H396.06V131.718Z" fill="#6C63FF"/>
        <path class="blinker" opacity="0.2" d="M415.135 131.718H401.176V147.876H415.135V131.718Z" fill="#6C63FF"/>
        <path class="blinker" opacity="0.2" d="M434.216 131.718H420.257V147.876H434.216V131.718Z" fill="#6C63FF"/>
        <path class="blinker" opacity="0.2" d="M453.292 131.718H439.333V147.876H453.292V131.718Z" fill="#6C63FF"/>
        <path class="blinker" opacity="0.7" d="M472.373 131.718H458.414V147.876H472.373V131.718Z" fill="#6C63FF"/>
        <path class="blinker" opacity="0.7" d="M491.454 131.718H477.495V147.876H491.454V131.718Z" fill="#6C63FF"/>
        <path class="blinker" opacity="0.4" d="M510.529 131.718H496.57V147.876H510.529V131.718Z" fill="#6C63FF"/>
        <path class="blinker" opacity="0.2" d="M529.61 131.718H515.651V147.876H529.61V131.718Z" fill="#6C63FF"/>
        <path d="M548.686 131.718H534.727V147.876H548.686V131.718Z" fill="#6C63FF"/>
        <path class="blinker" opacity="0.2" d="M71.7164 152.189H57.7572V168.347H71.7164V152.189Z" fill="#6C63FF"/>
        <path class="blinker" opacity="0.2" d="M90.7974 152.189H76.8383V168.347H90.7974V152.189Z" fill="#6C63FF"/>
        <path class="blinker" opacity="0.4" d="M109.873 152.189H95.9137V168.347H109.873V152.189Z" fill="#6C63FF"/>
        <path class="blinker" opacity="0.2" d="M128.954 152.189H114.995V168.347H128.954V152.189Z" fill="#6C63FF"/>
        <path class="blinker" opacity="0.2" d="M148.035 152.189H134.076V168.347H148.035V152.189Z" fill="#6C63FF"/>
        <path class="blinker" opacity="0.7" d="M167.11 152.189H153.151V168.347H167.11V152.189Z" fill="#6C63FF"/>
        <path class="blinker" opacity="0.7" d="M186.191 152.189H172.232V168.347H186.191V152.189Z" fill="#6C63FF"/>
        <path class="blinker" opacity="0.2" d="M205.267 152.189H191.308V168.347H205.267V152.189Z" fill="#6C63FF"/>
        <path class="blinker" opacity="0.2" d="M224.348 152.189H210.389V168.347H224.348V152.189Z" fill="#6C63FF"/>
        <path class="blinker" opacity="0.4" d="M243.429 152.189H229.469V168.347H243.429V152.189Z" fill="#6C63FF"/>
        <path d="M262.504 152.189H248.545V168.347H262.504V152.189Z" fill="#6C63FF"/>
        <path class="blinker" opacity="0.2" d="M281.585 152.189H267.626V168.347H281.585V152.189Z" fill="#6C63FF"/>
        <path d="M300.661 152.189H286.701V168.347H300.661V152.189Z" fill="#6C63FF"/>
        <path d="M319.741 152.189H305.782V168.347H319.741V152.189Z" fill="#6C63FF"/>
        <path d="M338.823 152.189H324.863V168.347H338.823V152.189Z" fill="#6C63FF"/>
        <path class="blinker" opacity="0.2" d="M357.898 152.189H343.939V168.347H357.898V152.189Z" fill="#6C63FF"/>
        <path d="M376.979 152.189H363.02V168.347H376.979V152.189Z" fill="#6C63FF"/>
        <path class="blinker" opacity="0.2" d="M396.06 152.189H382.101V168.347H396.06V152.189Z" fill="#6C63FF"/>
        <path class="blinker" opacity="0.2" d="M415.135 152.189H401.176V168.347H415.135V152.189Z" fill="#6C63FF"/>
        <path class="blinker" opacity="0.2" d="M434.216 152.189H420.257V168.347H434.216V152.189Z" fill="#6C63FF"/>
        <path class="blinker" opacity="0.2" d="M453.292 152.189H439.333V168.347H453.292V152.189Z" fill="#6C63FF"/>
        <path class="blinker" opacity="0.2" d="M472.373 152.189H458.414V168.347H472.373V152.189Z" fill="#6C63FF"/>
        <path class="blinker" opacity="0.7" d="M491.454 152.189H477.495V168.347H491.454V152.189Z" fill="#6C63FF"/>
        <path class="blinker" opacity="0.2" d="M510.529 152.189H496.57V168.347H510.529V152.189Z" fill="#6C63FF"/>
        <path class="blinker" opacity="0.2" d="M529.61 152.189H515.651V168.347H529.61V152.189Z" fill="#6C63FF"/>
        <path d="M548.686 152.189H534.727V168.347H548.686V152.189Z" fill="#6C63FF"/>
        <path class="blinker" opacity="0.2" d="M71.7164 172.654H57.7572V188.811H71.7164V172.654Z" fill="#6C63FF"/>
        <path class="blinker" opacity="0.2" d="M90.7974 172.654H76.8383V188.811H90.7974V172.654Z" fill="#6C63FF"/>
        <path class="blinker" opacity="0.2" d="M109.873 172.654H95.9137V188.811H109.873V172.654Z" fill="#6C63FF"/>
        <path class="blinker" opacity="0.4" d="M128.954 172.654H114.995V188.811H128.954V172.654Z" fill="#6C63FF"/>
        <path class="blinker" opacity="0.2" d="M148.035 172.654H134.076V188.811H148.035V172.654Z" fill="#6C63FF"/>
        <path class="blinker" opacity="0.2" d="M167.11 172.654H153.151V188.811H167.11V172.654Z" fill="#6C63FF"/>
        <path class="blinker" opacity="0.7" d="M186.191 172.654H172.232V188.811H186.191V172.654Z" fill="#6C63FF"/>
        <path class="blinker" opacity="0.2" d="M205.267 172.654H191.308V188.811H205.267V172.654Z" fill="#6C63FF"/>
        <path class="blinker" opacity="0.2" d="M224.348 172.654H210.389V188.811H224.348V172.654Z" fill="#6C63FF"/>
        <path class="blinker" opacity="0.2" d="M243.429 172.654H229.469V188.811H243.429V172.654Z" fill="#6C63FF"/>
        <path d="M262.504 172.654H248.545V188.811H262.504V172.654Z" fill="#6C63FF"/>
        <path class="blinker" opacity="0.2" d="M281.585 172.654H267.626V188.811H281.585V172.654Z" fill="#6C63FF"/>
        <path d="M300.661 172.654H286.701V188.811H300.661V172.654Z" fill="#6C63FF"/>
        <path d="M319.741 172.654H305.782V188.811H319.741V172.654Z" fill="#6C63FF"/>
        <path class="blinker" opacity="0.2" d="M338.823 172.654H324.863V188.811H338.823V172.654Z" fill="#6C63FF"/>
        <path class="blinker" opacity="0.2" d="M357.898 172.654H343.939V188.811H357.898V172.654Z" fill="#6C63FF"/>
        <path class="blinker" opacity="0.2" d="M376.979 172.654H363.02V188.811H376.979V172.654Z" fill="#6C63FF"/>
        <path class="blinker" opacity="0.2" d="M396.06 172.654H382.101V188.811H396.06V172.654Z" fill="#6C63FF"/>
        <path class="blinker" opacity="0.2" d="M415.135 172.654H401.176V188.811H415.135V172.654Z" fill="#6C63FF"/>
        <path class="blinker" opacity="0.2" d="M434.216 172.654H420.257V188.811H434.216V172.654Z" fill="#6C63FF"/>
        <path class="blinker" opacity="0.2" d="M453.292 172.654H439.333V188.811H453.292V172.654Z" fill="#6C63FF"/>
        <path class="blinker" opacity="0.2" d="M472.373 172.654H458.414V188.811H472.373V172.654Z" fill="#6C63FF"/>
        <path class="blinker" opacity="0.2" d="M491.454 172.654H477.495V188.811H491.454V172.654Z" fill="#6C63FF"/>
        <path class="blinker" opacity="0.2" d="M510.529 172.654H496.57V188.811H510.529V172.654Z" fill="#6C63FF"/>
        <path class="blinker" opacity="0.4" d="M529.61 172.654H515.651V188.811H529.61V172.654Z" fill="#6C63FF"/>
        <path d="M548.686 172.654H534.727V188.811H548.686V172.654Z" fill="#6C63FF"/>
        <path class="blinker" opacity="0.7" d="M71.7164 193.125H57.7572V209.282H71.7164V193.125Z" fill="#6C63FF"/>
        <path class="blinker" opacity="0.7" d="M90.7974 193.125H76.8383V209.282H90.7974V193.125Z" fill="#6C63FF"/>
        <path class="blinker" opacity="0.7" d="M109.873 193.125H95.9137V209.282H109.873V193.125Z" fill="#6C63FF"/>
        <path class="blinker" opacity="0.7" d="M128.954 193.125H114.995V209.282H128.954V193.125Z" fill="#6C63FF"/>
        <path class="blinker" opacity="0.7" d="M148.035 193.125H134.076V209.282H148.035V193.125Z" fill="#6C63FF"/>
        <path class="blinker" opacity="0.2" d="M167.11 193.125H153.151V209.282H167.11V193.125Z" fill="#6C63FF"/>
        <path class="blinker" opacity="0.2" d="M186.191 193.125H172.232V209.282H186.191V193.125Z" fill="#6C63FF"/>
        <path class="blinker" opacity="0.2" d="M205.267 193.125H191.308V209.282H205.267V193.125Z" fill="#6C63FF"/>
        <path class="blinker" opacity="0.2" d="M224.348 193.125H210.389V209.282H224.348V193.125Z" fill="#6C63FF"/>
        <path class="blinker" opacity="0.2" d="M243.429 193.125H229.469V209.282H243.429V193.125Z" fill="#6C63FF"/>
        <path class="blinker" opacity="0.2" d="M262.504 193.125H248.545V209.282H262.504V193.125Z" fill="#6C63FF"/>
        <path d="M281.585 193.125H267.626V209.282H281.585V193.125Z" fill="#6C63FF"/>
        <path class="blinker" opacity="0.2" d="M300.661 193.125H286.701V209.282H300.661V193.125Z" fill="#6C63FF"/>
        <path class="blinker" opacity="0.2" d="M319.741 193.125H305.782V209.282H319.741V193.125Z" fill="#6C63FF"/>
        <path class="blinker" opacity="0.2" d="M338.823 193.125H324.863V209.282H338.823V193.125Z" fill="#6C63FF"/>
        <path d="M357.898 193.125H343.939V209.282H357.898V193.125Z" fill="#6C63FF"/>
        <path class="blinker" opacity="0.2" d="M376.979 193.125H363.02V209.282H376.979V193.125Z" fill="#6C63FF"/>
        <path class="blinker" opacity="0.2" d="M396.06 193.125H382.101V209.282H396.06V193.125Z" fill="#6C63FF"/>
        <path class="blinker" opacity="0.2" d="M415.135 193.125H401.176V209.282H415.135V193.125Z" fill="#6C63FF"/>
        <path class="blinker" opacity="0.2" d="M434.216 193.125H420.257V209.282H434.216V193.125Z" fill="#6C63FF"/>
        <path class="blinker" opacity="0.2" d="M453.292 193.125H439.333V209.282H453.292V193.125Z" fill="#6C63FF"/>
        <path class="blinker" opacity="0.2" d="M472.373 193.125H458.414V209.282H472.373V193.125Z" fill="#6C63FF"/>
        <path class="blinker" opacity="0.2" d="M491.454 193.125H477.495V209.282H491.454V193.125Z" fill="#6C63FF"/>
        <path class="blinker" opacity="0.2" d="M510.529 193.125H496.57V209.282H510.529V193.125Z" fill="#6C63FF"/>
        <path class="blinker" opacity="0.2" d="M529.61 193.125H515.651V209.282H529.61V193.125Z" fill="#6C63FF"/>
        <path d="M548.686 193.125H534.727V209.282H548.686V193.125Z" fill="#6C63FF"/>
        <path d="M401.932 252.568C412.47 252.568 421.012 242.68 421.012 230.482C421.012 218.284 412.47 208.396 401.932 208.396C391.393 208.396 382.851 218.284 382.851 230.482C382.851 242.68 391.393 252.568 401.932 252.568Z" fill="#767D9F"/>
        <path d="M400.941 202.385C402.845 212.004 404.461 221.695 405.789 231.457C406.189 234.358 406.544 237.417 405.636 240.16C404.875 242.446 403.327 244.232 402.112 246.234C400.897 248.235 399.978 250.801 400.717 253.094C401.455 255.386 403.611 256.64 405.669 257.287C411.557 259.123 417.833 257.787 423.694 255.798C426.347 255.007 428.891 253.788 431.251 252.175C433.735 250.351 435.77 247.817 437.642 245.208C446.184 233.218 451.776 218.828 457.04 204.526C453.658 204.882 450.251 204.302 447.1 202.832C443.95 201.363 441.147 199.047 438.922 196.076C436.766 193.144 435.185 189.059 436.4 185.474C432.837 187.735 428.608 187.887 424.772 189.432C422.393 190.484 420.103 191.788 417.932 193.328C415.312 195.08 412.708 196.866 410.118 198.686C407.157 200.751 404.383 202.588 400.941 202.385Z" fill="#FFB8B8"/>
        <path d="M440.848 218.967C437.505 226.498 433.155 233.737 426.944 238.222C420.733 242.706 412.372 243.922 406.15 239.488C403.086 237.322 400.766 234.029 398.09 231.255C395.414 228.48 392.071 226.105 388.476 226.466C384.514 226.865 381.411 230.444 378.757 233.87C374.73 239.077 370.839 244.505 367.988 250.668C362.516 262.512 361.219 276.358 361.46 289.785C361.701 303.213 363.381 316.571 363.419 329.999C363.474 346.518 361.055 362.903 358.609 379.175C381.099 375.97 403.617 382.975 426.156 385.629C440.58 387.345 455.114 387.307 469.615 387.263C472.165 387.263 474.879 387.187 477.002 385.553C478.3 384.457 479.349 383.014 480.061 381.347C482.064 377.072 482.868 372.195 483.426 367.375C484.844 355.201 484.887 342.876 484.926 330.588C485.024 300.819 485.117 270.942 481.85 241.408C481.046 234.143 480.017 226.84 477.609 220.044C475.202 213.247 471.273 206.996 465.779 203.354C462.249 201.01 454.069 196.931 449.91 199.294C445.242 201.929 443.086 213.925 440.848 218.967Z" fill="#767D9F"/>
        <path d="M442.512 303.029C441.664 284.661 438.211 265.058 445.56 248.755C447.366 244.752 440.887 239.755 442.89 235.878C445.334 231.152 447.187 226.049 448.394 220.721C448.81 218.891 449.144 216.953 448.75 215.116C448.022 211.765 445.16 209.77 442.731 207.731C440.05 205.476 438.671 198.604 437.806 194.886C436.941 191.168 444.684 195.646 447.798 194.322C452.121 192.491 457.615 193.644 461.927 195.5C464.334 196.526 466.95 196.615 469.516 196.691C474.501 196.843 479.503 196.988 484.45 196.279C486.671 195.956 488.898 195.468 491.131 195.614C496.827 195.988 501.779 200.497 505.15 205.831C508.521 211.164 510.666 217.377 513.429 223.154C515.733 227.967 518.48 232.515 520.445 237.525C522.185 241.959 523.285 246.722 524.373 251.459L527.181 263.614C527.672 265.353 527.905 267.175 527.87 269.004C527.728 270.949 526.984 272.76 526.228 274.489C523.373 280.898 519.949 286.946 516.012 292.534C510.108 300.914 502.94 308.47 499.432 318.503C498.064 322.411 497.303 326.566 496.608 330.708C493.806 347.276 491.815 364.013 490.644 380.841C484.25 377.416 477.548 374.822 470.66 373.107C467.227 372.257 463.756 371.622 460.263 371.207C457.204 370.839 453.259 371.536 450.348 370.573C445.478 368.971 444.942 359.439 444.203 354.448C443.021 346.499 442.786 338.41 442.742 330.379C442.687 321.246 442.933 312.131 442.512 303.029Z" fill="#4C4981"/>
        <path d="M335.561 268.681C337.865 283.882 340.404 299.128 345.411 313.411C345.285 313.55 345.159 313.677 345.033 313.803C344.59 314.24 344.13 314.652 343.649 315.07C342.527 315.982 341.296 316.755 340.366 317.946C340.013 318.401 339.735 318.927 339.545 319.497C339.373 319.943 339.284 320.425 339.284 320.913C339.284 321.401 339.373 321.883 339.545 322.329C336.935 323.665 333.903 323.253 330.976 323.127C328.453 323.019 326.007 323.127 323.982 324.729C321.17 326.971 320.321 331.278 319.867 335.193C319.699 336.62 319.555 338.049 319.435 339.481C319.318 340.811 319.223 342.145 319.15 343.484C318.902 347.912 318.868 352.352 319.047 356.785C319.076 357.595 319.114 358.406 319.161 359.217C310.22 358.97 302.072 353.573 294.362 348.329C292.6 347.132 290.784 345.871 289.64 343.895C288.586 341.954 288.14 339.654 288.376 337.378C288.376 337.055 288.425 336.744 288.463 336.415C288.708 334.535 289.129 332.692 289.716 330.917C292.129 323.357 295.684 316.355 300.217 310.237C302.176 307.59 304.381 304.999 305.295 301.674C305.695 300.224 305.843 298.684 306.247 297.24C308.064 290.982 314.62 288.025 316.863 281.95C317.41 280.5 317.662 278.91 318.341 277.517C318.951 276.359 319.74 275.339 320.666 274.508C321.066 274.122 321.482 273.748 321.892 273.374C325.737 269.887 329.442 266.202 333.006 262.322C333.67 261.6 334.326 260.869 334.976 260.13C334.889 262.997 335.085 265.866 335.561 268.681V268.681Z" fill="#4C4981"/>
        <path d="M390.703 223.724C389.915 224.686 389.061 225.592 388.224 226.491L388 226.726L387.113 227.676C385.504 229.283 384.112 231.16 382.982 233.243L382.889 233.421C380.098 239.203 381.132 246.323 381.909 252.891C382.873 261.076 383.307 269.333 383.206 277.593C383.064 288.994 381.904 300.318 381.882 311.707C381.882 314.291 381.931 316.869 382.03 319.453C382.188 323.652 382.462 327.845 382.79 332.038C383.146 336.637 383.573 341.229 383.972 345.821C384.29 349.374 384.591 352.921 384.842 356.468C384.968 358.305 385.088 360.135 385.187 361.972C385.302 364.126 385.395 366.285 385.45 368.439C385.488 369.807 385.51 371.169 385.51 372.537C385.51 373.316 385.51 374.089 385.51 374.861C385.51 376.343 385.475 377.821 385.406 379.295C385.333 381.191 385.222 383.091 385.072 384.995C384.902 387.067 384.601 389.328 383.343 390.785C383.266 390.873 383.184 390.956 383.102 391.038L381.329 390.785C369.107 389.091 356.769 388.836 344.502 390.025C344.771 387.884 345.017 385.749 345.258 383.602C345.367 382.589 345.476 381.569 345.58 380.549C345.701 379.384 345.816 378.218 345.925 377.053C346.051 375.786 346.166 374.519 346.275 373.253C346.56 369.989 346.81 366.722 347.025 363.454C347.342 358.687 347.583 353.911 347.747 349.127C347.828 346.843 347.89 344.556 347.933 342.267C347.995 339.43 348.025 336.59 348.021 333.748C348.021 330.987 348.001 328.221 347.961 325.451C347.961 324.539 347.928 323.627 347.862 322.721C347.815 321.906 347.718 321.095 347.572 320.295C347.166 318.451 346.617 316.654 345.931 314.924C345.81 314.595 345.695 314.291 345.58 313.943C345.515 313.772 345.455 313.594 345.394 313.423C348.546 310.174 350.79 305.823 352.946 301.541C356.442 294.643 360.021 287.442 360.607 279.474C361.192 271.506 357.772 262.556 351.195 260.124C349.405 259.491 347.512 259.313 345.668 258.94C343.928 258.585 340.3 257.781 338.286 256.336C337.192 257.637 336.097 258.914 335.003 260.168C335.069 258.255 335.474 256.377 336.19 254.652L336.967 254.696C336.904 254.493 336.874 254.278 336.88 254.063C336.88 253.385 337.285 252.618 338.149 251.77C340.727 249.236 344.782 248.672 346.407 245.246C347.085 243.821 347.2 242.123 347.747 240.629C349.318 236.366 353.827 234.795 356.541 231.387C359.255 227.98 359.934 223.153 362.128 219.353C363.767 216.578 366.04 214.385 368.694 213.019C368.913 212.899 369.138 212.779 369.362 212.671C373.904 210.422 379.299 209.909 384.005 209.922C385.833 209.922 390.571 209.985 392.892 211.056C393.268 211.211 393.612 211.455 393.904 211.772C396.377 214.888 392.53 221.469 390.703 223.724Z" fill="#4C4981"/>
        <path d="M336.377 254.208C340.604 252.735 345.042 252.25 349.432 252.779C353.823 253.309 358.079 254.843 361.953 257.293C365.893 259.826 369.428 263.361 371.595 267.921C374.85 274.762 374.708 283.008 374.478 290.818C374.363 294.726 374.216 298.773 372.727 302.282C371.004 306.342 367.753 309.129 364.437 311.409C362.36 312.943 360.084 314.083 357.696 314.785C354.018 315.71 350.199 314.924 346.494 314.152C342.467 313.29 338.144 312.251 335.348 308.781C333.706 306.766 332.809 304.151 331.922 301.592C330.649 297.897 329.372 294.206 328.092 290.52C325.876 284.117 325.126 278.79 328.054 272.551C329.383 269.707 331.009 267.047 332.322 264.184C332.978 262.727 335.331 254.582 336.377 254.208Z" fill="#4C4981"/>
        <path d="M566.355 363.701V382.639C555.13 388.037 543.089 390.793 530.934 390.747H383.359C383.283 390.835 383.201 390.918 383.119 391L381.346 390.747H118.836C96.8111 390.747 76.4004 383.868 59.6615 372.15V343.237L185.912 326.37H186.011L259.533 333.577L278.559 335.478L288.442 336.447L308.896 338.454L319.419 339.487L334.74 340.994L336.896 341.203L347.939 342.286L362.921 343.712L383.989 345.776L419.108 349.228L443.814 351.654L484.384 355.638L492.099 356.392L492.931 356.474L493.654 356.544L503.842 357.545L515.027 358.647L516.324 358.773L566.355 363.701Z" fill="#504F60"/>
        <path d="M418.063 363.004L259.845 331.747L253.711 367.654L326.237 377.705L348.568 380.942L409.997 366.938L418.063 363.004Z" fill="#9C9CA1"/>
        <path d="M336.163 379.143L415.431 361.896C415.827 361.808 416.236 361.823 416.627 361.939C417.018 362.056 417.382 362.271 417.693 362.57C418.003 362.868 418.253 363.242 418.424 363.666C418.595 364.089 418.683 364.551 418.681 365.019V365.019C418.683 365.76 418.46 366.479 418.051 367.049C417.642 367.62 417.073 368.006 416.443 368.141L339.03 384.92L336.163 379.143Z" fill="#9C9CA1"/>
        <path d="M370.549 324.907C373.017 324.641 375.518 324.191 377.74 322.924C380.476 321.347 382.604 318.63 385.138 316.628C390.708 312.195 398.161 311.599 404.547 314.145C410.933 316.692 416.263 322.145 419.995 328.656C422.473 332.995 424.334 338.531 422.583 343.319C421.982 344.783 421.225 346.153 420.328 347.398L415.765 354.302C414.898 355.753 413.855 357.052 412.668 358.159C410.96 359.597 408.837 360.186 406.747 360.541C401.193 361.478 395.54 360.946 389.942 361.377C380.328 362.118 370.938 365.703 361.302 365.582C355.764 365.513 350.297 364.221 344.886 362.929L320.934 357.228C316.765 356.24 312.053 354.796 310.089 350.419C309.208 348.449 309.044 346.169 308.94 343.952C308.655 337.847 308.94 331.057 312.595 326.655C316.031 322.525 321.465 321.22 325.569 318.167C330.593 314.424 332.251 315.634 337.548 318.446C347.881 323.863 359.251 326.089 370.549 324.907V324.907Z" fill="#FFB8B8"/>
        <path opacity="0.05" d="M370.549 324.907C373.017 324.641 375.518 324.191 377.74 322.924C380.476 321.347 382.604 318.63 385.138 316.628C390.708 312.195 398.161 311.599 404.547 314.145C410.933 316.692 416.263 322.145 419.995 328.656C422.473 332.995 424.334 338.531 422.583 343.319C421.982 344.783 421.225 346.153 420.328 347.398L415.765 354.302C414.898 355.753 413.855 357.052 412.668 358.159C410.96 359.597 408.837 360.186 406.747 360.541C401.193 361.478 395.54 360.946 389.942 361.377C380.328 362.118 370.938 365.703 361.302 365.582C355.764 365.513 350.297 364.221 344.886 362.929L320.934 357.228C316.765 356.24 312.053 354.796 310.089 350.419C309.208 348.449 309.044 346.169 308.94 343.952C308.655 337.847 308.94 331.057 312.595 326.655C316.031 322.525 321.465 321.22 325.569 318.167C330.593 314.424 332.251 315.634 337.548 318.446C347.881 323.863 359.251 326.089 370.549 324.907Z" fill="black"/>
        <path d="M466.731 316.223C460.012 319.231 453.254 322.253 446.217 324.045C434.419 327.054 422.074 326.579 410.369 330.018C404.186 331.842 398.041 334.781 391.688 334.186C388.848 333.92 386.106 332.919 383.343 332.159C367.819 327.725 350.172 329.163 337.564 340.564C333.252 344.459 329.723 349.317 326.521 354.498C325.836 355.617 325.374 356.898 325.166 358.248C324.958 359.598 325.01 360.985 325.319 362.309C325.628 363.633 326.186 364.861 326.953 365.907C327.72 366.952 328.677 367.789 329.755 368.357C334.658 370.966 339.91 372.588 345.285 373.151C352.47 373.886 359.687 372.708 366.834 371.53C377.439 369.788 388.049 368.04 398.626 366.083C402.424 365.38 406.222 364.651 410.041 364.094C437.527 360.072 465.511 364.962 493.068 361.605C495.853 361.263 498.688 360.819 501.221 359.445C507.635 355.961 510.808 346.777 509.484 338.708C508.16 330.639 503.049 323.931 496.899 319.814C491.744 316.349 486.184 314.95 480.444 313.48C475.114 312.042 471.864 313.943 466.731 316.223Z" fill="#FFB8B8"/>
        <path opacity="0.1" d="M525.681 267.984C528.713 272.583 529.359 278.752 529.03 284.509C528.702 290.267 527.52 295.961 527.345 301.744C527.104 309.674 528.757 317.578 528.478 325.483C528.281 331.012 527.148 336.434 525.807 341.742C524.226 348.006 521.938 354.739 516.943 357.747C510.31 361.744 496.4 359.496 489.424 362.624C490.058 358.045 496.143 351.414 496.778 346.834C497.216 343.667 497.659 340.412 497.188 337.238C496.587 333.191 494.535 329.6 492.099 326.61C488.225 321.854 483.169 318.275 477.615 317.11C472.061 315.944 458.463 316.901 454.02 320.961C453.472 316.768 463.65 312.727 467.229 311.821C469.013 311.358 471.06 311.618 472.488 310.307C475.224 307.824 473.237 302.877 473.369 298.906C473.473 295.739 475.071 292.838 475.393 289.671C475.941 284.604 473.084 279.442 474.206 274.47C474.622 272.633 475.547 271.018 476.187 269.27C478.135 263.918 477.281 257.812 476.242 252.124C475.596 248.552 474.967 244.524 476.685 241.477C478.277 238.633 482.797 248.761 485.692 248.292C495.251 246.741 503.903 238.538 511.624 245.252C515.558 248.673 516.072 252.219 517.643 257.103C519.17 261.752 523.126 264.133 525.681 267.984Z" fill="black"/>
        <path d="M527.323 267.984C530.354 272.583 531 278.752 530.672 284.509C530.343 290.267 529.162 295.961 528.986 301.744C528.746 309.674 530.398 317.578 530.119 325.483C529.922 331.012 528.789 336.434 527.449 341.742C525.867 348.006 523.58 354.739 518.584 357.747C511.952 361.744 498.042 359.496 491.065 362.624C491.7 358.045 497.785 351.414 498.42 346.834C498.857 343.667 499.301 340.412 498.83 337.239C498.228 333.191 496.176 329.6 493.741 326.61C489.867 321.854 484.811 318.275 479.257 317.11C473.703 315.944 460.105 316.901 455.661 320.961C455.114 316.768 465.292 312.727 468.871 311.821C470.655 311.358 472.701 311.618 474.129 310.307C476.865 307.824 474.879 302.877 475.01 298.906C475.114 295.739 476.712 292.838 477.035 289.671C477.582 284.604 474.726 279.442 475.848 274.47C476.263 272.633 477.188 271.018 477.828 269.27C479.776 263.918 478.923 257.812 477.883 252.125C477.237 248.552 476.608 244.524 478.326 241.477C479.919 238.633 483.032 237.557 485.927 237.082C495.619 235.564 505.439 238.497 513.287 245.252C517.222 248.673 517.736 252.22 519.306 257.103C520.811 261.752 524.767 264.133 527.323 267.984Z" fill="#4C4981"/>
        <path d="M165.255 237.975L195.007 365.247C195.372 366.806 196.139 368.2 197.205 369.242C198.272 370.284 199.587 370.925 200.977 371.08L334.888 385.971C335.98 386.093 337.08 385.91 338.098 385.438C339.116 384.966 340.021 384.219 340.738 383.259C341.455 382.299 341.963 381.154 342.219 379.92C342.475 378.686 342.472 377.398 342.21 376.166L309.629 222.647C309.242 220.822 308.307 219.215 306.993 218.113C305.679 217.01 304.069 216.482 302.45 216.623L171.346 227.974C170.339 228.064 169.362 228.411 168.484 228.988C167.607 229.566 166.85 230.361 166.269 231.316C165.687 232.271 165.294 233.363 165.119 234.514C164.944 235.665 164.991 236.847 165.255 237.975V237.975Z" fill="#9C9CA1"/>
        <path d="M430.709 262.81C438.838 262.81 445.429 255.082 445.429 245.55C445.429 236.018 438.838 228.29 430.709 228.29C422.579 228.29 415.989 236.018 415.989 245.55C415.989 255.082 422.579 262.81 430.709 262.81Z" fill="white"/>
        <path d="M442.797 214.064C442.797 214.064 445.899 224.743 436.744 229.234L435.573 231.603L441.308 238.152C441.308 238.152 448.378 223.223 447.612 217.922C447.612 217.922 446.518 212.538 442.797 214.064Z" fill="white"/>
        <path d="M432.4 262.81C440.239 262.81 446.594 255.454 446.594 246.38C446.594 237.306 440.239 229.95 432.4 229.95C424.56 229.95 418.205 237.306 418.205 246.38C418.205 255.454 424.56 262.81 432.4 262.81Z" fill="#6C63FF"/>
        <path d="M447.683 220.348L445.429 216.041L442.145 215.502C442.846 201.321 439.667 197.096 439.667 197.096L438.928 197.014L435.71 196.653L429.658 189.381V187.317C438.162 188.488 442.862 193.163 445.401 198.642C449.888 208.256 447.683 220.348 447.683 220.348Z" fill="#6C63FF"/>
        <path opacity="0.1" d="M438.955 194.404V197.014L435.738 196.653L429.686 189.381C429.686 189.381 439.048 191.807 438.955 194.404Z" fill="black" stroke="#4C4981" stroke-miterlimit="10"/>
        <path opacity="0.1" d="M447.683 220.348L445.429 216.041V198.667C449.888 208.256 447.683 220.348 447.683 220.348Z" fill="black" stroke="#4C4981" stroke-miterlimit="10"/>
        <path d="M406.17 253.134C409.947 250.61 409.784 242.1 405.807 234.126C401.83 226.153 395.545 221.735 391.768 224.259C387.991 226.783 388.154 235.293 392.131 243.266C396.108 251.24 402.394 255.657 406.17 253.134Z" fill="white"/>
        <path d="M401.1 237.303C405.078 245.277 409.959 250.604 406.183 253.138C402.408 255.671 391.409 254.405 387.431 246.424C383.452 238.443 387.064 227.422 390.84 224.889C394.615 222.355 397.116 229.31 401.1 237.303Z" fill="#6C63FF"/>
        <path opacity="0.1" d="M436.52 179.855C436.52 205.336 421.456 229.893 399.442 229.893C388.869 229.893 378.73 225.031 371.254 216.378C363.778 207.725 359.578 195.988 359.578 183.751C359.578 171.513 363.778 159.777 371.254 151.123C378.73 142.47 388.869 137.609 399.442 137.609C421.456 137.634 436.52 154.368 436.52 179.855Z" fill="black"/>
        <path d="M399.442 228.651C421.458 228.651 439.305 207.993 439.305 182.509C439.305 157.026 421.458 136.367 399.442 136.367C377.425 136.367 359.578 157.026 359.578 182.509C359.578 207.993 377.425 228.651 399.442 228.651Z" fill="#FFB8B8"/>
        <path d="M395.94 162.064C400.684 164.084 403.491 169.759 407.748 172.92C413.767 177.354 421.603 176.207 428.476 174.016C432.307 172.806 436.312 171.33 440.082 172.673C440.637 172.957 441.249 173.058 441.85 172.964C442.671 172.692 443.076 171.64 443.344 170.703C448.006 154.615 445.91 136.393 438.873 121.508C437.056 117.67 434.879 113.958 431.88 111.292C429.516 109.195 426.736 107.821 423.934 106.649C418.814 104.521 413.519 103.007 408.131 102.133C407.18 101.933 406.208 101.897 405.247 102.025C403.929 102.272 402.747 103.096 401.57 103.83C396.532 106.957 390.944 108.714 385.231 108.967C377.57 109.303 368.815 107.213 362.91 112.901C355.797 119.722 357.57 133.029 352.957 142.289C349.903 148.414 344.015 152.861 343.047 159.834C342.795 161.966 342.912 164.134 343.392 166.212C345.646 176.942 354.62 185.252 364.185 185.448C365.654 185.578 367.125 185.229 368.432 184.441C369.288 183.765 370.043 182.933 370.67 181.977C376.935 173.389 384.104 157.022 395.94 162.064Z" fill="#444053"/>
        <path opacity="0.1" d="M443.344 166.035C443.076 166.972 442.671 168.024 441.85 168.296C441.249 168.39 440.637 168.289 440.082 168.005C436.312 166.662 432.285 168.138 428.482 169.348C421.603 171.539 413.751 172.711 407.754 168.252C403.491 165.085 400.689 159.384 395.939 157.396C384.103 152.329 376.935 168.721 370.653 177.309C370.027 178.265 369.271 179.097 368.415 179.773C367.109 180.561 365.638 180.91 364.169 180.78C354.637 180.584 345.657 172.274 343.375 161.544C343.249 160.911 343.14 160.278 343.058 159.644C343.058 159.701 343.058 159.752 343.03 159.809C342.778 161.94 342.895 164.109 343.375 166.187C345.63 176.917 354.609 185.226 364.169 185.423C365.638 185.553 367.109 185.204 368.415 184.416C369.271 183.74 370.027 182.908 370.653 181.952C376.935 173.363 384.103 156.997 395.939 162.038C400.689 164.059 403.491 169.734 407.754 172.895C413.773 177.328 421.603 176.182 428.482 173.99C432.312 172.781 436.312 171.305 440.082 172.648C440.637 172.932 441.249 173.033 441.85 172.939C442.671 172.667 443.076 171.615 443.344 170.678C445.224 164.095 446.055 157.171 445.795 150.245C445.634 155.617 444.809 160.934 443.344 166.035V166.035Z" fill="black"/>
    </g>
    <defs>
        <clipPath id="clip0">
            <rect width="626" height="391" fill="white"/>
        </clipPath>
    </defs>
</svg>
