<svg viewBox="0 0 649 540" fill="none"
    xmlns="http://www.w3.org/2000/svg">
    <g clip-path="url(#clip0)">
        <path d="M98.5704 434.398C98.5704 467.048 79.2585 478.449 55.4379 478.449C54.8834 478.449 54.3318 478.443 53.7832 478.428C52.68 478.404 51.5858 478.356 50.5066 478.277C29.0063 476.75 12.3025 464.761 12.3025 434.398C12.3025 402.978 52.2453 363.329 55.2581 360.385L55.2641 360.382C55.378 360.267 55.4379 360.21 55.4379 360.21C55.4379 360.21 98.5704 401.745 98.5704 434.398Z" fill="#3F3D56"/>
        <path d="M53.8641 473.453L69.6416 451.298L53.8251 475.885L53.7832 478.428C52.68 478.404 51.5858 478.356 50.5066 478.277L52.2063 445.613L52.1943 445.36L52.2243 445.311L52.3832 442.226L36.5278 417.576L52.4311 439.912L52.4701 440.566L53.7562 415.886L40.1821 390.416L53.921 411.55L55.2581 360.385L55.2641 360.21V360.382L55.0422 400.73L68.5533 384.734L54.9852 404.204L54.6285 426.302L67.2463 405.096L54.5746 429.556L54.3768 441.84L72.6934 412.321L54.3078 446.128L53.8641 473.453Z" fill="#F2F2F2"/>
        <g opacity="0.7">
            <path opacity="0.7" d="M598.852 205.549V197.686H559.735V234.053C559.735 236.086 560.539 238.036 561.969 239.474C563.4 240.912 565.34 241.719 567.363 241.719H591.224C593.247 241.719 595.188 240.912 596.618 239.474C598.049 238.036 598.852 236.086 598.852 234.053V225.993C601.55 225.993 604.136 224.916 606.044 222.999C607.951 221.082 609.023 218.482 609.023 215.771C609.023 213.06 607.951 210.46 606.044 208.543C604.136 206.626 601.55 205.549 598.852 205.549V205.549ZM598.852 222.061V209.48C600.512 209.48 602.104 210.143 603.278 211.323C604.451 212.503 605.111 214.103 605.111 215.771C605.111 217.439 604.451 219.039 603.278 220.219C602.104 221.399 600.512 222.061 598.852 222.061V222.061Z" fill="url(#paint0_linear)"/>
        </g>
        <path d="M597.594 206.779C595.757 206.779 593.962 207.327 592.435 208.352C590.907 209.378 589.717 210.836 589.014 212.541C588.312 214.246 588.128 216.123 588.486 217.933C588.844 219.744 589.729 221.407 591.027 222.712C592.326 224.018 593.981 224.906 595.782 225.267C597.583 225.627 599.45 225.442 601.147 224.735C602.844 224.029 604.294 222.833 605.314 221.298C606.335 219.763 606.879 217.959 606.879 216.113C606.879 213.637 605.901 211.263 604.16 209.513C602.418 207.763 600.056 206.779 597.594 206.779V206.779ZM597.594 221.856C596.463 221.856 595.358 221.519 594.419 220.888C593.479 220.257 592.747 219.36 592.314 218.311C591.882 217.261 591.768 216.106 591.989 214.992C592.209 213.878 592.754 212.855 593.553 212.051C594.352 211.248 595.37 210.701 596.479 210.48C597.587 210.258 598.736 210.372 599.78 210.806C600.825 211.241 601.717 211.977 602.345 212.922C602.973 213.866 603.308 214.977 603.308 216.113C603.308 217.636 602.706 219.097 601.634 220.174C600.563 221.251 599.109 221.856 597.594 221.856Z" fill="#6C63FF"/>
        <path opacity="0.1" d="M597.594 206.779C595.757 206.779 593.962 207.327 592.435 208.352C590.907 209.378 589.717 210.836 589.014 212.541C588.312 214.246 588.128 216.123 588.486 217.933C588.844 219.744 589.729 221.407 591.027 222.712C592.326 224.018 593.981 224.906 595.782 225.267C597.583 225.627 599.45 225.442 601.147 224.735C602.844 224.029 604.294 222.833 605.314 221.298C606.335 219.763 606.879 217.959 606.879 216.113C606.879 213.637 605.901 211.263 604.16 209.513C602.418 207.763 600.056 206.779 597.594 206.779V206.779ZM597.594 221.856C596.463 221.856 595.358 221.519 594.419 220.888C593.479 220.257 592.747 219.36 592.314 218.311C591.882 217.261 591.768 216.106 591.989 214.992C592.209 213.878 592.754 212.855 593.553 212.051C594.352 211.248 595.37 210.701 596.479 210.48C597.587 210.258 598.736 210.372 599.78 210.806C600.825 211.241 601.717 211.977 602.345 212.922C602.973 213.866 603.308 214.977 603.308 216.113C603.308 217.636 602.706 219.097 601.634 220.174C600.563 221.251 599.109 221.856 597.594 221.856Z" fill="black"/>
        <path d="M561.878 199.6H597.594V232.768C597.594 234.634 596.856 236.424 595.543 237.744C594.23 239.064 592.449 239.805 590.592 239.805H568.879C567.022 239.805 565.242 239.064 563.929 237.744C562.616 236.424 561.878 234.634 561.878 232.768V199.6Z" fill="#6C63FF"/>
        <path opacity="0.1" d="M591.165 199.6V232.805C591.165 234.661 590.431 236.442 589.125 237.755C587.819 239.067 586.048 239.805 584.2 239.805H587.772C589.619 239.805 591.391 239.067 592.697 237.755C594.003 236.442 594.736 234.661 594.736 232.805V199.6H591.165Z" fill="black"/>
        <path d="M568.926 172.838C568.621 172.847 568.321 172.924 568.048 173.064C567.776 173.203 567.537 173.4 567.349 173.642C566.88 174.496 567.729 175.458 568.504 176.045C569.935 177.129 571.444 178.193 572.417 179.706C573.39 181.218 573.695 183.329 572.632 184.778C571.243 186.671 567.93 187.078 567.61 189.408C567.404 190.903 568.69 192.179 569.994 192.93C573.211 194.782 577.358 195.276 579.688 198.174C580.652 196.182 582.808 195.03 584.958 194.538C587.107 194.047 589.34 194.083 591.519 193.75C591.875 193.743 592.224 193.652 592.539 193.484C592.853 193.317 593.124 193.077 593.329 192.785C593.938 191.542 592.202 190.052 592.801 188.805C593.257 187.855 594.597 187.929 595.576 187.549C597.168 186.93 597.825 184.869 597.373 183.214C596.921 181.558 595.644 180.265 594.301 179.204C590.682 176.346 586.33 174.665 581.928 173.455C579.881 172.893 577.478 172.011 575.352 171.926C573.299 171.844 570.958 172.488 568.926 172.838Z" fill="#EEEEEE"/>
        <path d="M318.251 248.282L243.573 482.119" stroke="#E0E0E0" stroke-width="8" stroke-miterlimit="10"/>
        <g opacity="0.7">
            <path opacity="0.7" d="M376.112 508.455C366.926 508.99 358.743 516.725 358.743 516.725L354.785 506.859L354.462 506.964C356.395 498.459 395.727 323.129 356.354 308.014C326.1 296.399 294.009 282.026 268.867 282.566V241.147H304.115V239.671H332.021C337.37 235.83 329.597 233.19 320.91 231.539C321.264 231.132 321.576 230.69 321.841 230.219L366.535 149.624C366.535 149.624 376.816 132.648 370.207 124.529C363.598 116.41 354.051 145.196 354.051 145.196L317.334 198.338C317.334 198.338 280.276 159.516 256.701 140.21C254.085 137.604 251.134 135.362 247.925 133.544C243.622 130.617 240.365 129.101 238.758 129.696C238.742 129.702 238.729 129.712 238.713 129.718C235.14 128.724 231.45 128.22 227.743 128.22H224.806V122.164C231.386 119.979 237.405 116.363 242.435 111.573C247.466 106.782 251.382 100.935 253.906 94.4488C258.049 87.5527 260.579 79.8008 261.305 71.7783C262.032 63.7557 260.936 55.6722 258.1 48.1376C258.538 48.0856 258.96 47.9388 259.336 47.7073C260.666 46.8468 260.798 44.9644 260.67 43.38C260.187 38.062 258.423 32.9421 255.53 28.4631C252.637 23.9841 248.703 20.2807 244.066 17.6732C240.345 15.6284 236.084 14.2194 233.341 10.9695C230.983 8.17698 229.992 4.27128 227.14 1.99275C223.751 -0.714171 218.855 -0.248815 214.696 0.959051C210.068 2.30491 205.683 4.38448 201.708 7.11931C197.209 10.216 193.149 14.1944 187.971 15.9084C184.291 17.1263 180.3 17.1021 176.597 18.2462C173.755 19.1513 171.163 20.7124 169.029 22.8045C166.895 24.8966 165.277 27.4617 164.306 30.2946C163.363 33.338 163.006 36.5341 163.255 39.7118C161.002 43.4953 159.23 47.5472 157.98 51.773C157.703 51.9234 157.424 52.0706 157.149 52.2257L157.955 51.8618C155.146 61.391 155.052 71.5209 157.685 81.1007C160.318 90.6804 165.572 99.3259 172.849 106.055C178.599 113.579 186.467 119.192 195.432 122.164V129.49C189.036 130.877 182.935 133.388 177.409 136.909L177.401 136.899C177.401 136.899 176.932 137.191 176.13 137.733C176.049 137.787 175.969 137.842 175.889 137.897C170.455 141.603 152.246 155.148 152.861 169.784C152.837 170.347 152.841 170.911 152.871 171.477C151.877 175.707 151.373 180.038 151.371 184.384V290.599C151.357 302.335 155.281 313.733 162.509 322.951C147.185 326.403 137.418 331.624 137.418 337.467C137.495 337.957 137.495 338.455 137.418 338.944C137.418 349.338 168.324 357.765 206.447 357.765C211.057 357.765 215.559 357.641 219.916 357.406L262.992 392.455L193.963 503.906C193.963 503.906 171.198 521.62 188.823 527.525C206.447 533.43 242.43 537.858 242.43 537.858C242.43 537.858 248.305 527.525 240.227 523.097C232.149 518.668 221.134 520.882 221.134 520.882L222.603 512.025C222.603 512.025 342.302 408.693 317.334 373.265C312.557 366.487 307.78 359.493 302.962 352.609L321.805 354.335L326.093 516.546L326.63 516.37C325.553 519.557 317.94 543.608 334.815 539.538C352.88 535.181 385.749 519.812 385.749 519.812C385.749 519.812 385.298 507.919 376.112 508.455ZM304.115 229.338L268.867 219.052V188.743L307.178 229.619C305.294 229.429 304.115 229.338 304.115 229.338Z" fill="url(#paint1_linear)"/>
        </g>
        <path d="M209.824 123.425C238.377 123.425 261.525 100.16 261.525 71.4616C261.525 42.7628 238.377 19.4979 209.824 19.4979C181.271 19.4979 158.124 42.7628 158.124 71.4616C158.124 100.16 181.271 123.425 209.824 123.425Z" fill="black"/>
        <path d="M268.705 190.545L308.161 232.642C308.991 233.528 310.018 234.205 311.158 234.618C312.298 235.031 313.519 235.168 314.721 235.018C315.924 234.868 317.074 234.435 318.079 233.754C319.084 233.074 319.915 232.165 320.505 231.101L364.207 152.294L352 147.964L316.097 199.927C316.097 199.927 248.695 129.317 239.265 132.808C229.835 136.298 268.705 190.545 268.705 190.545Z" fill="#6C63FF"/>
        <path d="M193.309 336.332L135.146 487.893" stroke="#BDBDBD" stroke-width="5" stroke-miterlimit="10"/>
        <path d="M222.031 336.332L280.194 487.893" stroke="#BDBDBD" stroke-width="5" stroke-miterlimit="10"/>
        <path d="M207.67 355.818C244.948 355.818 275.168 347.579 275.168 337.415C275.168 327.25 244.948 319.011 207.67 319.011C170.392 319.011 140.172 327.25 140.172 337.415C140.172 347.579 170.392 355.818 207.67 355.818Z" fill="#B84733"/>
        <path d="M207.67 354.375C244.948 354.375 275.168 346.135 275.168 335.971C275.168 325.807 244.948 317.567 207.67 317.567C170.392 317.567 140.172 325.807 140.172 335.971C140.172 346.135 170.392 354.375 207.67 354.375Z" fill="#F55F44"/>
        <path d="M179.268 369.631L242.953 389.355" stroke="#BDBDBD" stroke-width="5" stroke-miterlimit="10"/>
        <path d="M236.072 369.631L172.387 389.355" stroke="#BDBDBD" stroke-width="5" stroke-miterlimit="10"/>
        <path d="M208.456 131.364H228.494C239.158 131.364 249.386 135.622 256.928 143.202C264.469 150.781 268.705 161.061 268.705 171.78V278.595H153.815V186.283C153.815 171.718 159.572 157.749 169.819 147.449C180.066 137.15 193.964 131.364 208.456 131.364V131.364Z" fill="#6C63FF"/>
        <path d="M153.815 278.594H268.705V341.384H204.798C191.276 341.384 178.309 335.985 168.748 326.375C159.187 316.766 153.815 303.732 153.815 290.142V278.594V278.594Z" fill="#39447A"/>
        <path opacity="0.05" d="M155.367 174.696L225.621 241.787H303.172V231.683L236.392 212.197L179.268 141.295C179.268 141.295 153.328 157.403 155.367 174.696Z" fill="black"/>
        <path d="M155.367 173.252L225.621 240.344H303.172V230.24L236.392 210.753L179.268 139.851C179.268 139.851 153.328 155.959 155.367 173.252Z" fill="#6C63FF"/>
        <path d="M303.172 230.24C303.172 230.24 340.511 233.126 330.458 240.344H303.172V230.24Z" fill="#FDA57D"/>
        <path d="M352 147.964C352 147.964 361.335 119.817 367.798 127.756C374.26 135.695 364.207 152.294 364.207 152.294L352 147.964Z" fill="#FDA57D"/>
        <path opacity="0.05" d="M153.815 278.594V281.963L268.705 282.203V278.594H153.815Z" fill="black"/>
        <path d="M243.187 345.385L320.47 352.464L324.663 511.078L352.33 502.024C352.33 502.024 393.709 322.318 354.252 307.17C314.795 292.023 272.143 272.076 246.678 288.332C221.212 304.588 243.187 345.385 243.187 345.385Z" fill="#39447A"/>
        <path opacity="0.1" d="M247.881 296.637C247.881 296.637 290.247 318.289 295.992 342.827Z" fill="black"/>
        <path d="M202.644 340.662L262.961 389.739L195.463 498.718L223.467 506.657C223.467 506.657 340.511 405.617 316.097 370.974C291.683 336.332 267.269 295.916 237.11 295.194C206.952 294.472 202.644 340.662 202.644 340.662Z" fill="#39447A"/>
        <path opacity="0.05" d="M297.428 181.163L312.507 207.144L316.097 199.927L297.428 181.163Z" fill="black"/>
        <path d="M195.463 498.718C195.463 498.718 173.203 516.04 190.436 521.813C207.67 527.587 242.855 531.917 242.855 531.917C242.855 531.917 248.599 521.813 240.701 517.483C232.802 513.153 222.031 515.318 222.031 515.318L223.467 506.657L195.463 498.718Z" fill="#333333"/>
        <path d="M325.305 510.565C325.305 510.565 315.527 537.82 333.191 533.56C350.855 529.299 382.995 514.271 382.995 514.271C382.995 514.271 382.554 502.642 373.572 503.166C364.59 503.689 356.588 511.252 356.588 511.252L352.718 501.605L325.305 510.565Z" fill="#333333"/>
        <path d="M211.26 106.104H211.26C203.329 106.104 196.899 112.567 196.899 120.538V134.973C196.899 142.945 203.329 149.407 211.26 149.407H211.26C219.192 149.407 225.622 142.945 225.622 134.973V120.538C225.622 112.567 219.192 106.104 211.26 106.104Z" fill="#FDA57D"/>
        <path opacity="0.05" d="M211.26 107.547C207.451 107.547 203.799 109.068 201.105 111.775C198.412 114.482 196.899 118.154 196.899 121.982V126.886C206.227 129.97 216.293 129.97 225.622 126.886V121.982C225.621 118.154 224.108 114.482 221.415 111.775C218.722 109.068 215.069 107.547 211.26 107.547Z" fill="black"/>
        <path d="M211.26 127.756C236.641 127.756 257.216 107.076 257.216 81.5657C257.216 56.0557 236.641 35.3757 211.26 35.3757C185.879 35.3757 165.304 56.0557 165.304 81.5657C165.304 107.076 185.879 127.756 211.26 127.756Z" fill="#FDA57D"/>
        <path opacity="0.05" d="M165.304 79.4697C165.304 79.4697 176.793 82.4455 183.256 69.3212C189.718 56.1969 194.745 49.0381 221.313 56.7934C247.881 64.5487 253.226 65.4949 254.503 58.1614C255.376 53.1501 245.928 40.9779 239.858 33.7714C236.896 30.2557 232.063 28.1586 226.898 28.1586H196.899L178.947 36.5104L165.304 48.4416L162.432 64.5487L165.304 79.4697Z" fill="black"/>
        <path d="M165.304 78.0263C165.304 78.0263 176.793 81.0022 183.256 67.8778C189.718 54.7535 194.745 47.5948 221.313 55.3501C247.881 63.1054 253.226 64.0516 254.503 56.718C255.376 51.7068 245.928 39.5345 239.858 32.328C236.896 28.8124 232.063 26.7152 226.898 26.7152H196.899L178.947 35.0671L165.304 46.9983L162.432 63.1054L165.304 78.0263Z" fill="black"/>
        <path d="M169.972 87.3394C172.549 87.3394 174.639 83.1388 174.639 77.957C174.639 72.7753 172.549 68.5747 169.972 68.5747C167.394 68.5747 165.304 72.7753 165.304 77.957C165.304 83.1388 167.394 87.3394 169.972 87.3394Z" fill="#FDA57D"/>
        <path d="M166.636 53.8151C165.571 47.7734 164.524 41.4291 166.463 35.611C167.413 32.841 168.995 30.3327 171.082 28.287C173.168 26.2413 175.703 24.7149 178.482 23.8299C182.103 22.7111 186.005 22.7348 189.603 21.5439C194.667 19.8679 198.637 15.9778 203.036 12.9497C206.923 10.2755 211.211 8.24207 215.736 6.92608C219.802 5.74498 224.59 5.28994 227.904 7.93686C230.693 10.1648 231.662 13.9839 233.967 16.7145C236.65 19.8924 240.816 21.27 244.454 23.2696C248.988 25.8192 252.836 29.4405 255.665 33.8201C258.493 38.1998 260.218 43.2061 260.69 48.4061C260.815 49.9554 260.687 51.7961 259.386 52.6375C258.578 53.0505 257.668 53.2175 256.767 53.118C238.4 52.8541 220.011 52.5891 201.72 50.8945C196.033 50.3676 190.336 49.7021 184.63 49.9193C175.798 50.2654 167.174 52.7111 159.466 57.0557" fill="black"/>
        <path d="M87.1019 465.701H23.541C10.5397 465.701 0 476.294 0 489.361V489.361C0 502.429 10.5397 513.022 23.541 513.022H87.1019C100.103 513.022 110.643 502.429 110.643 489.361C110.643 476.294 100.103 465.701 87.1019 465.701Z" fill="#6C63FF"/>
        <path d="M413.514 296.758C413.793 296.748 414.058 296.63 414.252 296.428C414.446 296.226 414.555 295.956 414.555 295.675C414.555 295.394 414.446 295.125 414.252 294.923C414.058 294.721 413.793 294.602 413.514 294.593C413.235 294.602 412.971 294.721 412.776 294.923C412.582 295.125 412.474 295.394 412.474 295.675C412.474 295.956 412.582 296.226 412.776 296.428C412.971 296.63 413.235 296.748 413.514 296.758Z" fill="url(#paint2_linear)"/>
        <path d="M571.556 248.282L646.235 515.384" stroke="#E0E0E0" stroke-width="8" stroke-miterlimit="10"/>
        <path d="M646.538 240.46H243.27V256.255H646.538V240.46Z" fill="#E0E0E0"/>
        <path d="M404.06 236.735H347.333C344.755 236.735 342.666 238.835 342.666 241.426V241.426C342.666 244.017 344.755 246.117 347.333 246.117H404.06C406.638 246.117 408.727 244.017 408.727 241.426C408.727 238.835 406.638 236.735 404.06 236.735Z" fill="#535461"/>
        <g opacity="0.7">
            <path opacity="0.7" d="M526.805 132.13H403.14C391.949 132.13 382.877 141.248 382.877 152.496V225.868C382.877 237.116 391.949 246.234 403.14 246.234H526.805C537.996 246.234 547.069 237.116 547.069 225.868V152.496C547.069 141.248 537.996 132.13 526.805 132.13Z" fill="url(#paint3_linear)"/>
        </g>
        <path d="M522.074 134.235H405.073C394.431 134.235 385.804 142.906 385.804 153.602V226.867C385.804 237.563 394.431 246.234 405.073 246.234H522.074C532.716 246.234 541.343 237.563 541.343 226.867V153.602C541.343 142.906 532.716 134.235 522.074 134.235Z" fill="#3E3F49"/>
        <path d="M524.228 134.235H407.228C396.586 134.235 387.958 142.906 387.958 153.602V226.867C387.958 237.563 396.586 246.234 407.228 246.234H524.228C534.87 246.234 543.497 237.563 543.497 226.867V153.602C543.497 142.906 534.87 134.235 524.228 134.235Z" fill="#535461"/>
        <path d="M472.994 194.514C475.77 194.514 478.02 192.253 478.02 189.462C478.02 186.672 475.77 184.41 472.994 184.41C470.218 184.41 467.967 186.672 467.967 189.462C467.967 192.253 470.218 194.514 472.994 194.514Z" fill="#E0E0E0"/>
    </g>
    <defs>
        <linearGradient id="paint0_linear" x1="584.379" y1="241.719" x2="584.379" y2="197.686" gradientUnits="userSpaceOnUse">
            <stop stop-color="#808080" stop-opacity="0.25"/>
            <stop offset="0.53514" stop-color="#808080" stop-opacity="0.12"/>
            <stop offset="1" stop-color="#808080" stop-opacity="0.1"/>
        </linearGradient>
        <linearGradient id="paint1_linear" x1="127803" y1="445018" x2="127803" y2="40981.9" gradientUnits="userSpaceOnUse">
            <stop stop-color="#808080" stop-opacity="0.25"/>
            <stop offset="0.53514" stop-color="#808080" stop-opacity="0.12"/>
            <stop offset="1" stop-color="#808080" stop-opacity="0.1"/>
        </linearGradient>
        <linearGradient id="paint2_linear" x1="1922.52" y1="1349.19" x2="1922.52" y2="1342.69" gradientUnits="userSpaceOnUse">
            <stop stop-color="#808080" stop-opacity="0.25"/>
            <stop offset="0.53514" stop-color="#808080" stop-opacity="0.12"/>
            <stop offset="1" stop-color="#808080" stop-opacity="0.1"/>
        </linearGradient>
        <linearGradient id="paint3_linear" x1="106703" y1="39062.1" x2="106703" y2="21022" gradientUnits="userSpaceOnUse">
            <stop stop-color="#808080" stop-opacity="0.25"/>
            <stop offset="0.53514" stop-color="#808080" stop-opacity="0.12"/>
            <stop offset="1" stop-color="#808080" stop-opacity="0.1"/>
        </linearGradient>
        <clipPath id="clip0">
            <rect width="649" height="540" fill="white"/>
        </clipPath>
    </defs>
</svg>
