<svg viewBox="0 0 693 531" fill="none"
    xmlns="http://www.w3.org/2000/svg">
    <g clip-path="url(#clip0)">
        <path d="M242.169 162.816H331.596" stroke="#3F3D56" stroke-width="2" stroke-miterlimit="10"/>
        <path d="M135.634 264.177C140.471 251.18 141.172 239.381 137.199 237.821C133.226 236.262 126.085 245.533 121.248 258.53C116.411 271.526 115.71 283.326 119.683 284.886C123.656 286.445 130.797 277.174 135.634 264.177Z" fill="#2F2E41"/>
        <path d="M690.156 324.823C699.885 399.182 686.638 473.622 619.256 502.609C551.874 531.596 474.37 498.995 446.145 429.794C417.921 360.592 484.515 319.186 517.046 252.008C583.107 115.589 659.944 93.9026 690.156 324.823Z" fill="#F2F2F2"/>
        <path d="M568.85 521.433C627.157 521.433 674.423 514.829 674.423 506.683C674.423 498.537 627.157 491.933 568.85 491.933C510.544 491.933 463.278 498.537 463.278 506.683C463.278 514.829 510.544 521.433 568.85 521.433Z" fill="#3F3D56"/>
        <path d="M499.786 469.143L503.757 483.896L529.496 476.59L525.525 461.836L499.786 469.143Z" fill="#2F2E41"/>
        <path d="M501.56 486.505C504.04 485.801 504.568 479.726 502.74 472.936C500.913 466.146 497.421 461.212 494.942 461.916C492.463 462.62 491.934 468.695 493.762 475.485C495.589 482.275 499.081 487.209 501.56 486.505Z" fill="#2F2E41"/>
        <path d="M581.026 418.4C582.846 404.612 580.904 392.96 576.69 392.373C572.475 391.787 567.584 402.488 565.764 416.275C563.944 430.063 565.886 441.715 570.1 442.302C574.315 442.889 579.206 432.187 581.026 418.4Z" fill="#2F2E41"/>
        <path d="M568.592 514.887C595.688 514.887 617.653 492.329 617.653 464.502C617.653 436.674 595.688 414.116 568.592 414.116C541.497 414.116 519.532 436.674 519.532 464.502C519.532 492.329 541.497 514.887 568.592 514.887Z" fill="#2F2E41"/>
        <path d="M499.786 460.214L503.757 474.967L529.496 467.66L525.525 452.907L499.786 460.214Z" fill="#2F2E41"/>
        <path d="M501.56 477.576C504.04 476.872 504.568 470.797 502.74 464.007C500.913 457.217 497.421 452.283 494.942 452.987C492.463 453.691 491.934 459.766 493.762 466.556C495.589 473.346 499.081 478.28 501.56 477.576Z" fill="#2F2E41"/>
        <path d="M581.475 452.858C590.735 452.858 598.242 445.148 598.242 435.637C598.242 426.127 590.735 418.417 581.475 418.417C572.215 418.417 564.708 426.127 564.708 435.637C564.708 445.148 572.215 452.858 581.475 452.858Z" fill="white"/>
        <path d="M586.837 433.771C589.924 433.771 592.426 431.201 592.426 428.031C592.426 424.86 589.924 422.291 586.837 422.291C583.75 422.291 581.248 424.86 581.248 428.031C581.248 431.201 583.75 433.771 586.837 433.771Z" fill="#3F3D56"/>
        <path d="M625.248 499.126C643.403 498.192 657.307 480.752 656.304 460.172C655.301 439.592 639.771 423.664 621.616 424.598C603.461 425.531 600.612 440.168 601.615 460.748C602.618 481.328 607.092 500.059 625.248 499.126Z" fill="#6C63FF"/>
        <path d="M548.542 443.183C545.587 443.428 542.659 442.458 540.401 440.485C538.143 438.513 536.74 435.701 536.501 432.666C536.262 429.632 537.206 426.624 539.126 424.305C541.046 421.986 543.784 420.544 546.738 420.298C552.892 419.786 554.57 424.803 555.068 431.123C555.566 437.443 554.695 442.672 548.542 443.183Z" fill="white"/>
        <path d="M30.7179 230.258H305.513L348.117 251.574L415.997 285.538L460.38 200.194H585.974" stroke="#3F3D56" stroke-width="2" stroke-miterlimit="10"/>
        <path d="M138.369 247.915C143.063 247.915 146.868 244.007 146.868 239.187C146.868 234.366 143.063 230.458 138.369 230.458C133.676 230.458 129.871 234.366 129.871 239.187C129.871 244.007 133.676 247.915 138.369 247.915Z" fill="#6C63FF"/>
        <path d="M217.692 238.987C222.386 238.987 226.191 235.079 226.191 230.258C226.191 225.438 222.386 221.53 217.692 221.53C212.998 221.53 209.193 225.438 209.193 230.258C209.193 235.079 212.998 238.987 217.692 238.987Z" fill="#6C63FF"/>
        <path d="M348.007 260.322C352.701 260.322 356.506 256.415 356.506 251.594C356.506 246.774 352.701 242.866 348.007 242.866C343.313 242.866 339.508 246.774 339.508 251.594C339.508 256.415 343.313 260.322 348.007 260.322Z" fill="#6C63FF"/>
        <path d="M531.204 208.922C535.898 208.922 539.703 205.014 539.703 200.194C539.703 195.373 535.898 191.465 531.204 191.465C526.51 191.465 522.705 195.373 522.705 200.194C522.705 205.014 526.51 208.922 531.204 208.922Z" fill="#6C63FF"/>
        <path d="M442.438 242.866C447.132 242.866 450.937 238.958 450.937 234.138C450.937 229.317 447.132 225.409 442.438 225.409C437.745 225.409 433.939 229.317 433.939 234.138C433.939 238.958 437.745 242.866 442.438 242.866Z" fill="#6C63FF"/>
        <path d="M265.531 380.248C270.592 380.248 274.695 376.034 274.695 370.837C274.695 365.639 270.592 361.426 265.531 361.426C260.47 361.426 256.368 365.639 256.368 370.837C256.368 376.034 260.47 380.248 265.531 380.248Z" stroke="#3F3D56" stroke-width="2" stroke-miterlimit="10"/>
        <path d="M105.573 531C163.879 531 211.145 524.396 211.145 516.25C211.145 508.103 163.879 501.5 105.573 501.5C47.2665 501.5 0 508.103 0 516.25C0 524.396 47.2665 531 105.573 531Z" fill="#3F3D56"/>
        <path d="M99.8622 494.565C126.957 494.565 148.922 472.006 148.922 444.179C148.922 416.352 126.957 393.794 99.8622 393.794C72.767 393.794 50.8019 416.352 50.8019 444.179C50.8019 472.006 72.767 494.565 99.8622 494.565Z" fill="#2F2E41"/>
        <path d="M92.41 483.723H77.5056V511.148H92.41V483.723Z" fill="#2F2E41"/>
        <path d="M122.219 483.723H107.314V511.148H122.219V483.723Z" fill="#2F2E41"/>
        <path d="M89.9259 516.249C96.7855 516.249 102.346 514.108 102.346 511.466C102.346 508.824 96.7855 506.683 89.9259 506.683C83.0664 506.683 77.5056 508.824 77.5056 511.466C77.5056 514.108 83.0664 516.249 89.9259 516.249Z" fill="#2F2E41"/>
        <path d="M119.735 515.612C126.594 515.612 132.155 513.47 132.155 510.828C132.155 508.187 126.594 506.045 119.735 506.045C112.875 506.045 107.314 508.187 107.314 510.828C107.314 513.47 112.875 515.612 119.735 515.612Z" fill="#2F2E41"/>
        <path d="M101.104 448.644C110.365 448.644 117.872 440.934 117.872 431.424C117.872 421.913 110.365 414.204 101.104 414.204C91.8438 414.204 84.3368 421.913 84.3368 431.424C84.3368 440.934 91.8438 448.644 101.104 448.644Z" fill="white"/>
        <path d="M101.104 437.164C104.191 437.164 106.693 434.594 106.693 431.424C106.693 428.254 104.191 425.684 101.104 425.684C98.0174 425.684 95.5151 428.254 95.5151 431.424C95.5151 434.594 98.0174 437.164 101.104 437.164Z" fill="#3F3D56"/>
        <path d="M52.2721 397.323C48.3107 379.102 60.9737 360.692 80.5557 356.201C100.138 351.711 119.223 362.841 123.185 381.061C127.146 399.281 114.168 406.001 94.5864 410.491C75.0045 414.982 56.2335 415.543 52.2721 397.323Z" fill="#6C63FF"/>
        <path d="M83.0948 349.787C110.19 349.787 132.155 327.228 132.155 299.401C132.155 271.574 110.19 249.016 83.0948 249.016C55.9996 249.016 34.0345 271.574 34.0345 299.401C34.0345 327.228 55.9996 349.787 83.0948 349.787Z" fill="#2F2E41"/>
        <path d="M75.6426 338.944H60.7382V366.369H75.6426V338.944Z" fill="#2F2E41"/>
        <path d="M105.451 338.944H90.5469V366.369H105.451V338.944Z" fill="#2F2E41"/>
        <path d="M73.1585 371.472C80.0181 371.472 85.5788 369.33 85.5788 366.688C85.5788 364.046 80.0181 361.905 73.1585 361.905C66.299 361.905 60.7382 364.046 60.7382 366.688C60.7382 369.33 66.299 371.472 73.1585 371.472Z" fill="#2F2E41"/>
        <path d="M102.967 370.834C109.827 370.834 115.388 368.692 115.388 366.051C115.388 363.409 109.827 361.267 102.967 361.267C96.1077 361.267 90.5469 363.409 90.5469 366.051C90.5469 368.692 96.1077 370.834 102.967 370.834Z" fill="#2F2E41"/>
        <path d="M84.3368 303.866C93.5972 303.866 101.104 296.156 101.104 286.646C101.104 277.135 93.5972 269.425 84.3368 269.425C75.0764 269.425 67.5694 277.135 67.5694 286.646C67.5694 296.156 75.0764 303.866 84.3368 303.866Z" fill="white"/>
        <path d="M84.3368 292.386C87.4236 292.386 89.926 289.816 89.926 286.646C89.926 283.476 87.4236 280.906 84.3368 280.906C81.25 280.906 78.7477 283.476 78.7477 286.646C78.7477 289.816 81.25 292.386 84.3368 292.386Z" fill="#3F3D56"/>
        <path d="M35.5047 252.545C31.5433 234.325 44.2063 215.914 63.7883 211.423C83.3702 206.933 102.456 218.063 106.417 236.283C110.379 254.503 97.401 261.223 77.819 265.713C58.2371 270.204 39.4661 270.765 35.5047 252.545Z" fill="#6C63FF"/>
        <path d="M50.0002 286.818C51.8227 282.872 43.3772 274.839 31.1365 268.877C18.8959 262.914 7.49541 261.28 5.67287 265.227C3.85032 269.173 12.2959 277.206 24.5365 283.168C36.7772 289.131 48.1776 290.765 50.0002 286.818Z" fill="#2F2E41"/>
        <path d="M58.9965 317.578C58.9965 322.51 71.36 332.248 85.0791 332.248C98.7982 332.248 111.661 318.364 111.661 313.433C111.661 308.501 98.7982 314.39 85.0791 314.39C71.36 314.39 58.9965 312.647 58.9965 317.578Z" fill="white"/>
        <path d="M597.171 360.166H518.843V401.087H597.171V360.166Z" fill="#6C63FF"/>
        <path d="M591.041 366.811H512.713V407.732H591.041V366.811Z" stroke="#3F3D56" stroke-width="2" stroke-miterlimit="10"/>
        <path d="M163.081 126.92H140.724V149.88H163.081V126.92Z" fill="#FF6584"/>
        <path d="M157.492 119.267H135.135V142.227H157.492V119.267Z" stroke="#3F3D56" stroke-width="2" stroke-miterlimit="10"/>
        <path d="M562.673 171.227C589.768 171.227 611.733 148.669 611.733 120.842C611.733 93.0148 589.768 70.4565 562.673 70.4565C535.577 70.4565 513.612 93.0148 513.612 120.842C513.612 148.669 535.577 171.227 562.673 171.227Z" fill="#2F2E41"/>
        <path d="M581.619 185.373L596.285 182.646L591.529 155.66L576.863 158.386L581.619 185.373Z" fill="#2F2E41"/>
        <path d="M552.289 190.829L566.955 188.102L562.198 161.116L547.532 163.842L552.289 190.829Z" fill="#2F2E41"/>
        <path d="M560.075 196.508C565.309 191.955 568.205 186.63 566.543 184.614C564.88 182.598 559.289 184.655 554.054 189.207C548.82 193.76 545.924 199.085 547.586 201.101C549.249 203.117 554.84 201.061 560.075 196.508Z" fill="#2F2E41"/>
        <path d="M588.796 191.168C594.03 186.615 596.926 181.29 595.264 179.274C593.601 177.258 588.01 179.315 582.775 183.868C577.541 188.421 574.645 193.746 576.307 195.762C577.97 197.778 583.561 195.721 588.796 191.168Z" fill="#2F2E41"/>
        <path d="M559.238 125.737C568.498 125.737 576.005 118.028 576.005 108.517C576.005 99.0067 568.498 91.2969 559.238 91.2969C549.978 91.2969 542.47 99.0067 542.47 108.517C542.47 118.028 549.978 125.737 559.238 125.737Z" fill="white"/>
        <path d="M552.347 108.085C555.433 108.085 557.936 105.515 557.936 102.345C557.936 99.1749 555.433 96.605 552.347 96.605C549.26 96.605 546.757 99.1749 546.757 102.345C546.757 105.515 549.26 108.085 552.347 108.085Z" fill="#3F3D56"/>
        <path d="M601.374 66.028C602.112 47.3745 586.458 31.575 566.411 30.7387C546.363 29.9023 529.513 44.3459 528.775 62.9993C528.037 81.6527 541.973 85.8909 562.021 86.7273C582.068 87.5636 600.636 84.6814 601.374 66.028Z" fill="#6C63FF"/>
        <path d="M541.282 117.291C542.233 113.034 532.298 107.062 519.093 103.954C505.888 100.845 494.412 101.776 493.462 106.034C492.512 110.291 502.447 116.263 515.652 119.371C528.857 122.48 540.332 121.549 541.282 117.291Z" fill="#2F2E41"/>
        <path d="M637.586 133.739C638.536 129.481 628.601 123.51 615.396 120.401C602.191 117.293 590.716 118.224 589.766 122.482C588.815 126.739 598.75 132.71 611.955 135.819C625.16 138.928 636.635 137.996 637.586 133.739Z" fill="#2F2E41"/>
        <path d="M576.147 140.698C576.408 142.182 576.383 143.704 576.072 145.177C575.76 146.65 575.17 148.046 574.333 149.285C573.497 150.524 572.431 151.581 571.196 152.397C569.962 153.213 568.583 153.771 567.139 154.04C565.694 154.308 564.212 154.282 562.778 153.962C561.343 153.643 559.984 153.036 558.778 152.177C557.571 151.318 556.542 150.223 555.747 148.956C554.953 147.688 554.41 146.272 554.148 144.788C553.048 138.549 557.745 136.342 563.82 135.212C569.895 134.083 575.047 134.459 576.147 140.698Z" fill="white"/>
        <path d="M442.538 63.1411L499.05 107.786" stroke="#3F3D56" stroke-width="2" stroke-miterlimit="10"/>
        <path d="M415.834 86.7393C439.157 86.7393 458.063 67.3221 458.063 43.3697C458.063 19.4173 439.157 0 415.834 0C392.512 0 373.605 19.4173 373.605 43.3697C373.605 67.3221 392.512 86.7393 415.834 86.7393Z" fill="#FF6584"/>
        <path d="M562.612 430.372C564.431 416.585 562.49 404.932 558.276 404.345C554.061 403.759 549.17 414.46 547.35 428.248C545.53 442.035 547.472 453.687 551.686 454.274C555.901 454.861 560.792 444.159 562.612 430.372Z" fill="#2F2E41"/>
        <path d="M42.733 510.047C47.4268 510.047 51.2318 506.139 51.2318 501.318C51.2318 496.498 47.4268 492.59 42.733 492.59C38.0392 492.59 34.2342 496.498 34.2342 501.318C34.2342 506.139 38.0392 510.047 42.733 510.047Z" fill="#6C63FF"/>
        <path d="M181.711 491.098H159.355V514.058H181.711V491.098Z" fill="#FF6584"/>
        <path d="M159.484 515.149C164.178 515.149 167.983 511.241 167.983 506.421C167.983 501.6 164.178 497.692 159.484 497.692C154.79 497.692 150.985 501.6 150.985 506.421C150.985 511.241 154.79 515.149 159.484 515.149Z" fill="#6C63FF"/>
        <path d="M286.882 171.381C291.576 171.381 295.381 167.473 295.381 162.652C295.381 157.832 291.576 153.924 286.882 153.924C282.189 153.924 278.384 157.832 278.384 162.652C278.384 167.473 282.189 171.381 286.882 171.381Z" fill="#6C63FF"/>
        <path d="M451.926 437.388C454.167 437.388 455.985 435.521 455.985 433.219C455.985 430.917 454.167 429.051 451.926 429.051C449.685 429.051 447.867 430.917 447.867 433.219C447.867 435.521 449.685 437.388 451.926 437.388Z" fill="#FF6584"/>
        <path d="M471.81 502.402V454.943" stroke="#3F3D56" stroke-width="2" stroke-miterlimit="10"/>
        <path d="M471.81 461.655C475.419 461.655 478.345 458.65 478.345 454.943C478.345 451.237 475.419 448.232 471.81 448.232C468.201 448.232 465.275 451.237 465.275 454.943C465.275 458.65 468.201 461.655 471.81 461.655Z" fill="#3F3D56"/>
        <path d="M471.81 484.193C471.81 484.193 470.877 463.572 451.739 465.969L471.81 484.193Z" fill="#3F3D56"/>
    </g>
    <defs>
        <clipPath id="clip0">
            <rect width="693" height="531" fill="white"/>
        </clipPath>
    </defs>
</svg>
