<svg viewBox="0 0 584 380" fill="none"
    xmlns="http://www.w3.org/2000/svg">
    <g clip-path="url(#clip0)">
        <path d="M556.897 380H63.2955C58.9059 380 54.6962 378.195 51.5923 374.981C48.4885 371.768 46.7448 367.409 46.7448 362.865C225.675 341.335 401.243 341.335 573.448 362.865C573.448 367.409 571.704 371.768 568.6 374.981C565.496 378.195 561.286 380 556.897 380Z" fill="#CCCCCC"/>
        <path d="M573.448 363.873L46.7448 362.865L107.788 256.525L108.08 256.021V21.661C108.08 18.8164 108.621 15.9996 109.672 13.3714C110.723 10.7433 112.264 8.35529 114.207 6.34384C116.15 4.33238 118.457 2.73685 120.995 1.64837C123.534 0.559884 126.254 -0.000237627 129.002 7.56245e-08H488.27C491.017 -0.000237627 493.738 0.559884 496.276 1.64837C498.815 2.73685 501.121 4.33238 503.064 6.34384C505.007 8.35529 506.548 10.7433 507.6 13.3714C508.651 15.9996 509.192 18.8164 509.192 21.661V257.634L573.448 363.873Z" fill="#E6E6E6"/>
        <path d="M128.525 15.1194C126.718 15.1215 124.986 15.8655 123.708 17.1883C122.431 18.511 121.712 20.3044 121.71 22.1751V235.862C121.712 237.733 122.431 239.526 123.708 240.849C124.986 242.172 126.718 242.916 128.525 242.918H491.667C493.474 242.916 495.206 242.171 496.484 240.849C497.762 239.526 498.48 237.733 498.482 235.862V22.1751C498.48 20.3045 497.762 18.5111 496.484 17.1884C495.206 15.8656 493.474 15.1216 491.667 15.1194H128.525Z" fill="white"/>
        <path d="M130.911 271.141C130.353 271.142 129.807 271.308 129.337 271.62C128.866 271.931 128.492 272.376 128.258 272.901L109.449 315.235C109.244 315.696 109.154 316.202 109.188 316.708C109.222 317.214 109.378 317.703 109.643 318.13C109.907 318.557 110.27 318.908 110.7 319.152C111.13 319.395 111.612 319.523 112.102 319.523H507.65C508.148 319.523 508.638 319.391 509.073 319.14C509.507 318.889 509.873 318.527 510.135 318.088C510.396 317.65 510.545 317.149 510.568 316.634C510.59 316.12 510.485 315.607 510.262 315.146L489.817 272.812C489.576 272.309 489.203 271.885 488.742 271.59C488.28 271.295 487.748 271.139 487.205 271.141L130.911 271.141Z" fill="#CCCCCC"/>
        <path d="M308.636 11.5916C311.055 11.5916 313.017 9.56088 313.017 7.05583C313.017 4.55077 311.055 2.52002 308.636 2.52002C306.216 2.52002 304.255 4.55077 304.255 7.05583C304.255 9.56088 306.216 11.5916 308.636 11.5916Z" fill="white"/>
        <path d="M269.757 327.586C269.115 327.587 268.491 327.807 267.981 328.211C267.471 328.615 267.104 329.182 266.937 329.824L262.219 347.967C262.102 348.415 262.086 348.885 262.173 349.34C262.26 349.796 262.447 350.224 262.72 350.593C262.993 350.961 263.344 351.259 263.746 351.465C264.148 351.67 264.59 351.777 265.038 351.777H354.766C355.232 351.777 355.691 351.662 356.105 351.441C356.518 351.22 356.875 350.9 357.145 350.507C357.415 350.114 357.591 349.66 357.657 349.183C357.723 348.706 357.678 348.22 357.525 347.764L351.46 329.621C351.261 329.027 350.888 328.512 350.393 328.147C349.899 327.782 349.307 327.586 348.7 327.586H269.757Z" fill="#CCCCCC"/>
        <path d="M509.192 252.493V256.526H107.788L108.09 256.021V252.493H509.192Z" fill="#CCCCCC"/>
        <path d="M459.646 261.729C459.49 261.729 459.338 261.783 459.214 261.881C459.09 261.98 459 262.118 458.96 262.274L457.811 266.692C457.782 266.801 457.778 266.916 457.8 267.027C457.821 267.138 457.866 267.242 457.933 267.332C457.999 267.421 458.085 267.494 458.183 267.544C458.28 267.594 458.388 267.62 458.497 267.62H480.347C480.461 267.62 480.573 267.592 480.673 267.538C480.774 267.484 480.861 267.406 480.927 267.311C480.992 267.215 481.035 267.105 481.051 266.988C481.067 266.872 481.056 266.754 481.019 266.643L479.542 262.225C479.494 262.08 479.403 261.955 479.283 261.866C479.162 261.777 479.018 261.729 478.87 261.729H459.646Z" fill="#CCCCCC"/>
        <path d="M427.742 261.729C427.586 261.729 427.434 261.783 427.31 261.881C427.186 261.98 427.096 262.118 427.056 262.274L425.907 266.692C425.878 266.801 425.875 266.916 425.896 267.027C425.917 267.138 425.962 267.242 426.029 267.332C426.095 267.421 426.181 267.494 426.279 267.544C426.377 267.594 426.484 267.62 426.593 267.62H448.444C448.557 267.62 448.669 267.592 448.769 267.538C448.87 267.484 448.957 267.406 449.023 267.311C449.089 267.215 449.131 267.105 449.147 266.988C449.163 266.872 449.153 266.754 449.115 266.643L447.638 262.225C447.59 262.08 447.499 261.955 447.379 261.866C447.258 261.777 447.114 261.729 446.966 261.729H427.742Z" fill="#CCCCCC"/>
        <path d="M335.31 289.802H337.023L333.598 52.8154H331.885L331.954 57.5434H293.572L293.64 52.8154H291.927L288.502 289.802H290.215L290.437 274.436H335.088L335.31 289.802ZM332.842 119.006H292.683L293.102 90.0478H332.423L332.842 119.006ZM332.868 120.779L333.286 149.738H292.239L292.658 120.779H332.868ZM333.312 151.511L333.73 180.469H291.795L292.213 151.511H333.312ZM333.756 182.242L334.174 211.201H291.351L291.769 182.242H333.756ZM334.2 212.973L334.618 241.932H290.907L291.325 212.973H334.2ZM331.979 59.3163L332.398 88.2748H293.127L293.546 59.3163H331.979ZM290.463 272.663L290.881 243.705H334.644L335.063 272.663H290.463Z" fill="#3F3D56"/>
        <path d="M304.279 134.441C319.701 134.441 332.203 121.498 332.203 105.531C332.203 89.5644 319.701 76.6208 304.279 76.6208C288.857 76.6208 276.355 89.5644 276.355 105.531C276.355 121.498 288.857 134.441 304.279 134.441Z" fill="#2F2E41"/>
        <path d="M320.704 125.511L312.357 127.075L315.064 142.559L323.412 140.995L320.704 125.511Z" fill="#2F2E41"/>
        <path d="M304.009 128.64L295.662 130.204L298.369 145.688L306.717 144.124L304.009 128.64Z" fill="#2F2E41"/>
        <path d="M302.8 148.947C305.78 146.335 307.428 143.279 306.482 142.123C305.536 140.966 302.353 142.146 299.374 144.758C296.394 147.371 294.746 150.426 295.692 151.583C296.639 152.74 299.821 151.56 302.8 148.947Z" fill="#2F2E41"/>
        <path d="M319.148 145.883C322.127 143.271 323.775 140.216 322.829 139.059C321.883 137.902 318.701 139.082 315.721 141.694C312.742 144.307 311.094 147.362 312.04 148.519C312.986 149.676 316.168 148.496 319.148 145.883Z" fill="#2F2E41"/>
        <path d="M302.324 108.34C307.595 108.34 311.868 103.917 311.868 98.4596C311.868 93.0026 307.595 88.5789 302.324 88.5789C297.053 88.5789 292.781 93.0026 292.781 98.4596C292.781 103.917 297.053 108.34 302.324 108.34Z" fill="white"/>
        <path d="M298.402 98.2114C300.159 98.2114 301.583 96.7368 301.583 94.9178C301.583 93.0988 300.159 91.6243 298.402 91.6243C296.645 91.6243 295.221 93.0988 295.221 94.9178C295.221 96.7368 296.645 98.2114 298.402 98.2114Z" fill="#3F3D56"/>
        <path d="M326.307 74.08C326.727 63.377 317.818 54.3115 306.407 53.8316C294.996 53.3517 285.405 61.6392 284.986 72.3422C284.566 83.0453 292.497 85.4771 303.908 85.957C315.319 86.4369 325.887 84.783 326.307 74.08Z" fill="#6C63FF"/>
        <path d="M292.104 103.494C292.645 101.051 286.99 97.6246 279.474 95.841C271.958 94.0573 265.427 94.5917 264.886 97.0346C264.345 99.4774 270 102.904 277.516 104.687C285.032 106.471 291.563 105.937 292.104 103.494Z" fill="#2F2E41"/>
        <path d="M346.918 112.931C347.459 110.488 341.804 107.062 334.288 105.278C326.772 103.495 320.241 104.029 319.7 106.472C319.159 108.915 324.814 112.341 332.33 114.125C339.846 115.909 346.377 115.374 346.918 112.931Z" fill="#2F2E41"/>
        <path d="M311.949 116.924C312.099 117.776 312.086 118.649 311.91 119.496C311.734 120.342 311.399 121.144 310.923 121.856C310.448 122.567 309.842 123.175 309.139 123.645C308.437 124.114 307.652 124.435 306.829 124.59C306.007 124.745 305.163 124.731 304.346 124.548C303.529 124.365 302.755 124.017 302.067 123.525C301.38 123.032 300.793 122.404 300.341 121.676C299.888 120.948 299.578 120.135 299.429 119.284L299.427 119.271C298.801 115.691 301.475 114.425 304.932 113.776C308.39 113.128 311.323 113.345 311.949 116.924Z" fill="white"/>
        <path d="M209.702 203.721C212.524 196.077 212.933 189.136 210.615 188.219C208.297 187.302 204.13 192.755 201.308 200.4C198.485 208.044 198.077 214.985 200.395 215.902C202.713 216.819 206.879 211.366 209.702 203.721Z" fill="#2F2E41"/>
        <path d="M207.302 229.187C209.834 213.031 199.237 197.808 183.631 195.187C168.026 192.565 153.323 203.537 150.791 219.693C148.258 235.849 158.856 251.072 174.461 253.694C190.066 256.316 204.77 245.344 207.302 229.187Z" fill="#2F2E41"/>
        <path d="M174.698 247.699H166.002V263.83H174.698V247.699Z" fill="#2F2E41"/>
        <path d="M192.091 247.699H183.394V263.83H192.091V247.699Z" fill="#2F2E41"/>
        <path d="M173.249 266.831C177.251 266.831 180.496 265.572 180.496 264.018C180.496 262.464 177.251 261.204 173.249 261.204C169.246 261.204 166.002 262.464 166.002 264.018C166.002 265.572 169.246 266.831 173.249 266.831Z" fill="#2F2E41"/>
        <path d="M190.641 266.456C194.644 266.456 197.888 265.197 197.888 263.643C197.888 262.089 194.644 260.829 190.641 260.829C186.639 260.829 183.394 262.089 183.394 263.643C183.394 265.197 186.639 266.456 190.641 266.456Z" fill="#2F2E41"/>
        <path d="M151.279 196.879C148.967 186.162 156.356 175.333 167.781 172.692C179.207 170.051 190.343 176.597 192.654 187.314C194.966 198.031 187.393 201.984 175.968 204.625C164.542 207.266 153.59 207.596 151.279 196.879Z" fill="#6C63FF"/>
        <path d="M159.736 217.039C160.8 214.718 155.872 209.993 148.73 206.486C141.588 202.979 134.936 202.018 133.873 204.339C132.809 206.66 137.737 211.385 144.879 214.892C152.021 218.399 158.673 219.36 159.736 217.039Z" fill="#2F2E41"/>
        <path d="M55.1011 284.085C70.9104 284.085 83.7264 270.816 83.7264 254.448C83.7264 238.081 70.9104 224.812 55.1011 224.812C39.2918 224.812 26.4758 238.081 26.4758 254.448C26.4758 270.816 39.2918 284.085 55.1011 284.085Z" fill="#2F2E41"/>
        <path d="M50.753 277.707H42.0567V293.838H50.753V277.707Z" fill="#2F2E41"/>
        <path d="M68.1456 277.707H59.4493V293.838H68.1456V277.707Z" fill="#2F2E41"/>
        <path d="M49.3036 296.839C53.3059 296.839 56.5505 295.58 56.5505 294.026C56.5505 292.472 53.3059 291.212 49.3036 291.212C45.3012 291.212 42.0566 292.472 42.0566 294.026C42.0566 295.58 45.3012 296.839 49.3036 296.839Z" fill="#2F2E41"/>
        <path d="M66.6962 296.464C70.6986 296.464 73.9431 295.204 73.9431 293.65C73.9431 292.097 70.6986 290.837 66.6962 290.837C62.6938 290.837 59.4493 292.097 59.4493 293.65C59.4493 295.204 62.6938 296.464 66.6962 296.464Z" fill="#2F2E41"/>
        <path d="M55.8258 257.074C61.229 257.074 65.6091 252.539 65.6091 246.945C65.6091 241.351 61.229 236.816 55.8258 236.816C50.4226 236.816 46.0425 241.351 46.0425 246.945C46.0425 252.539 50.4226 257.074 55.8258 257.074Z" fill="white"/>
        <path d="M55.8258 250.322C57.6269 250.322 59.0869 248.81 59.0869 246.945C59.0869 245.081 57.6269 243.569 55.8258 243.569C54.0247 243.569 52.5647 245.081 52.5647 246.945C52.5647 248.81 54.0247 250.322 55.8258 250.322Z" fill="#3F3D56"/>
        <path d="M27.3336 226.887C25.0222 216.17 32.4107 205.341 43.8363 202.7C55.2618 200.059 66.3977 206.605 68.7091 217.322C71.0204 228.039 63.4483 231.992 52.0228 234.633C40.5973 237.274 29.645 237.604 27.3336 226.887Z" fill="#E6E6E6"/>
        <path d="M75.9732 148.572C78.7954 140.927 79.2042 133.987 76.8862 133.07C74.5683 132.152 70.4013 137.606 67.5791 145.25C64.757 152.895 64.3482 159.835 66.6662 160.753C68.9841 161.67 73.151 156.216 75.9732 148.572Z" fill="#2F2E41"/>
        <path d="M73.5735 174.038C76.1058 157.882 65.5082 142.659 49.9031 140.037C34.2979 137.415 19.5945 148.387 17.0621 164.544C14.5298 180.7 25.1274 195.923 40.7325 198.544C56.3377 201.166 71.0411 190.194 73.5735 174.038Z" fill="#2F2E41"/>
        <path d="M40.9697 192.55H32.2734V208.681H40.9697V192.55Z" fill="#2F2E41"/>
        <path d="M58.3622 192.55H49.6659V208.681H58.3622V192.55Z" fill="#2F2E41"/>
        <path d="M39.5203 211.682C43.5227 211.682 46.7672 210.422 46.7672 208.868C46.7672 207.314 43.5227 206.055 39.5203 206.055C35.5179 206.055 32.2734 207.314 32.2734 208.868C32.2734 210.422 35.5179 211.682 39.5203 211.682Z" fill="#2F2E41"/>
        <path d="M56.9128 211.307C60.9152 211.307 64.1597 210.047 64.1597 208.493C64.1597 206.939 60.9152 205.68 56.9128 205.68C52.9105 205.68 49.6659 206.939 49.6659 208.493C49.6659 210.047 52.9105 211.307 56.9128 211.307Z" fill="#2F2E41"/>
        <path d="M46.0425 171.917C51.4457 171.917 55.8258 167.382 55.8258 161.788C55.8258 156.194 51.4457 151.659 46.0425 151.659C40.6393 151.659 36.2592 156.194 36.2592 161.788C36.2592 167.382 40.6393 171.917 46.0425 171.917Z" fill="white"/>
        <path d="M46.0425 165.164C47.8436 165.164 49.3036 163.653 49.3036 161.788C49.3036 159.923 47.8436 158.412 46.0425 158.412C44.2414 158.412 42.7814 159.923 42.7814 161.788C42.7814 163.653 44.2414 165.164 46.0425 165.164Z" fill="#3F3D56"/>
        <path d="M17.5503 141.73C15.239 131.013 22.6275 120.184 34.053 117.543C45.4785 114.901 56.6145 121.448 58.9258 132.165C61.2372 142.882 53.6651 146.834 42.2395 149.476C30.814 152.117 19.8617 152.447 17.5503 141.73Z" fill="#6C63FF"/>
        <path d="M26.0081 161.89C27.0715 159.568 22.1437 154.843 15.0017 151.336C7.85959 147.829 1.20773 146.868 0.144328 149.189C-0.919072 151.511 4.00868 156.236 11.1508 159.743C18.2928 163.25 24.9447 164.211 26.0081 161.89Z" fill="#2F2E41"/>
        <path d="M31.2571 179.982C31.2571 182.883 38.4709 188.611 46.4756 188.611C54.4804 188.611 61.9857 180.444 61.9857 177.544C61.9857 174.643 54.4803 178.107 46.4756 178.107C38.471 178.107 31.2571 177.082 31.2571 179.982Z" fill="white"/>
        <path d="M73.4611 56.1306C72.9324 56.1312 72.4256 56.3489 72.0518 56.7359C71.6779 57.123 71.4677 57.6477 71.4671 58.195V143.524C71.4677 144.072 71.6779 144.596 72.0518 144.983C72.4256 145.37 72.9324 145.588 73.4611 145.589H264.219C264.748 145.588 265.255 145.37 265.629 144.983C266.003 144.596 266.213 144.072 266.213 143.524V58.195C266.213 57.6477 266.003 57.123 265.629 56.7359C265.255 56.3489 264.748 56.1312 264.219 56.1306H73.4611Z" fill="#6C63FF"/>
        <path d="M124.969 120.899C135.659 120.899 144.324 111.927 144.324 100.859C144.324 89.792 135.659 80.8201 124.969 80.8201C114.279 80.8201 105.613 89.792 105.613 100.859C105.613 111.927 114.279 120.899 124.969 120.899Z" fill="white"/>
        <path d="M168.654 98.1932C168.06 98.2033 167.494 98.4546 167.078 98.8929C166.661 99.3312 166.428 99.9214 166.428 100.536C166.428 101.151 166.661 101.741 167.078 102.179C167.494 102.618 168.06 102.869 168.654 102.879H229.767C230.064 102.884 230.36 102.829 230.636 102.716C230.913 102.603 231.165 102.435 231.379 102.221C231.593 102.007 231.764 101.751 231.882 101.469C232.001 101.186 232.064 100.883 232.069 100.575C232.074 100.267 232.02 99.961 231.911 99.6747C231.801 99.3884 231.639 99.1272 231.432 98.906C231.225 98.6848 230.978 98.5081 230.705 98.3857C230.432 98.2634 230.139 98.198 229.841 98.1932C229.816 98.1928 229.792 98.1928 229.767 98.1932H168.654Z" fill="white"/>
        <path d="M168.654 84.6182C168.06 84.6284 167.494 84.8797 167.078 85.318C166.661 85.7563 166.428 86.3464 166.428 86.9613C166.428 87.5761 166.661 88.1662 167.078 88.6045C167.494 89.0428 168.06 89.2941 168.654 89.3042H199.172C199.47 89.3095 199.765 89.2541 200.042 89.1412C200.318 89.0282 200.571 88.8599 200.785 88.6459C200.999 88.4319 201.169 88.1763 201.288 87.8939C201.406 87.6114 201.47 87.3076 201.475 86.9997C201.479 86.6919 201.426 86.3861 201.316 86.0997C201.207 85.8134 201.044 85.5522 200.837 85.331C200.63 85.1099 200.383 84.9331 200.111 84.8108C199.838 84.6885 199.544 84.623 199.247 84.6182C199.222 84.6178 199.197 84.6178 199.172 84.6182H168.654Z" fill="white"/>
        <path d="M168.654 112.415C168.06 112.425 167.494 112.676 167.078 113.115C166.661 113.553 166.428 114.143 166.428 114.758C166.428 115.373 166.661 115.963 167.078 116.401C167.494 116.84 168.06 117.091 168.654 117.101H229.767C230.064 117.106 230.36 117.051 230.636 116.938C230.913 116.825 231.165 116.657 231.379 116.443C231.593 116.229 231.764 115.973 231.882 115.691C232.001 115.408 232.064 115.104 232.069 114.796C232.074 114.489 232.02 114.183 231.911 113.896C231.801 113.61 231.639 113.349 231.432 113.128C231.225 112.907 230.978 112.73 230.705 112.607C230.432 112.485 230.139 112.42 229.841 112.415C229.816 112.414 229.792 112.414 229.767 112.415H168.654Z" fill="white"/>
        <path d="M465.458 270.249C467.776 269.332 467.367 262.391 464.545 254.746C461.722 247.102 457.556 241.648 455.238 242.566C452.92 243.483 453.328 250.424 456.151 258.068C458.973 265.713 463.14 271.166 465.458 270.249Z" fill="#2F2E41"/>
        <path d="M485.409 314.234C501.014 311.612 511.612 296.389 509.08 280.233C506.547 264.077 491.844 253.105 476.239 255.726C460.634 258.348 450.036 273.571 452.568 289.727C455.101 305.884 469.804 316.855 485.409 314.234Z" fill="#2F2E41"/>
        <path d="M493.868 308.239H485.172L486.874 327.557L493.883 325.586L493.868 308.239Z" fill="#2F2E41"/>
        <path d="M474.91 308.289H466.213L467.915 327.607L474.608 325.586L474.91 308.289Z" fill="#2F2E41"/>
        <path d="M467.668 328.515C471.66 328.213 474.807 326.712 474.697 325.162C474.588 323.612 471.263 322.601 467.272 322.903C463.28 323.205 460.133 324.706 460.242 326.256C460.352 327.806 463.676 328.817 467.668 328.515Z" fill="#2F2E41"/>
        <path d="M480.099 287.606C485.502 287.606 489.883 283.071 489.883 277.477C489.883 271.883 485.502 267.348 480.099 267.348C474.696 267.348 470.316 271.883 470.316 277.477C470.316 283.071 474.696 287.606 480.099 287.606Z" fill="white"/>
        <path d="M480.099 280.854C481.9 280.854 483.36 279.342 483.36 277.477C483.36 275.613 481.9 274.101 480.099 274.101C478.298 274.101 476.838 275.613 476.838 277.477C476.838 279.342 478.298 280.854 480.099 280.854Z" fill="#3F3D56"/>
        <path d="M514.686 267.111C519.382 260.528 521.571 253.954 519.575 252.428C517.579 250.902 512.154 255.001 507.457 261.584C502.761 268.166 500.572 274.74 502.568 276.267C504.564 277.793 509.989 273.694 514.686 267.111Z" fill="#2F2E41"/>
        <path d="M466.858 300.261C466.858 297.871 472.803 293.15 479.4 293.15C485.998 293.15 492.183 299.88 492.183 302.271C492.183 304.662 485.998 301.807 479.4 301.807C472.803 301.807 466.858 302.652 466.858 300.261Z" fill="white"/>
        <path d="M561.093 260.489L404.402 238C403.18 237.823 402.076 237.152 401.332 236.133C400.588 235.115 400.264 233.832 400.432 232.567L418.047 101.014C418.218 99.7497 418.866 98.6067 419.85 97.8362C420.834 97.0657 422.072 96.7307 423.294 96.9046L579.986 119.394C581.207 119.57 582.311 120.242 583.056 121.26C583.8 122.279 584.123 123.561 583.956 124.826L566.341 256.379C566.17 257.644 565.521 258.787 564.538 259.557C563.554 260.328 562.315 260.663 561.093 260.489V260.489Z" fill="#6C63FF"/>
        <path d="M504.96 219.433L424.964 207.952C424.864 207.939 424.765 207.916 424.669 207.885L471.588 145.466C471.875 145.077 472.257 144.773 472.695 144.587C473.133 144.4 473.611 144.338 474.08 144.405C474.549 144.472 474.992 144.667 475.364 144.97C475.737 145.273 476.025 145.672 476.199 146.128L495.494 195.304L496.418 197.657L504.96 219.433Z" fill="white"/>
        <path opacity="0.2" d="M504.959 219.433L477.647 215.513L493.754 197.275L494.914 195.961L495.494 195.304L496.418 197.657L504.959 219.433Z" fill="black"/>
        <path d="M549.5 225.826L480.311 215.896L496.418 197.657L497.578 196.343L518.567 172.575C518.93 172.218 519.361 171.944 519.833 171.77C520.304 171.597 520.806 171.528 521.305 171.569C521.804 171.609 522.289 171.758 522.729 172.005C523.169 172.252 523.554 172.592 523.858 173.003C523.935 173.119 524.005 173.239 524.066 173.364L549.5 225.826Z" fill="white"/>
        <path d="M505.932 166.656C512.54 166.656 517.896 161.11 517.896 154.269C517.896 147.428 512.54 141.883 505.932 141.883C499.325 141.883 493.969 147.428 493.969 154.269C493.969 161.11 499.325 166.656 505.932 166.656Z" fill="white"/>
        <path d="M440.451 109.096L425.967 107.017L423.959 122.013L438.444 124.092L440.451 109.096Z" fill="#3F3D56"/>
        <path d="M508.591 257.419C510.903 246.702 503.514 235.873 492.089 233.232C480.663 230.591 469.527 237.137 467.216 247.854C464.905 258.571 472.477 262.523 483.902 265.165C495.328 267.806 506.28 268.136 508.591 257.419Z" fill="#F2F2F2"/>
        <path d="M486.739 328.467C490.73 328.165 493.878 326.664 493.768 325.114C493.659 323.564 490.334 322.553 486.342 322.855C482.351 323.157 479.203 324.659 479.313 326.208C479.422 327.758 482.747 328.77 486.739 328.467Z" fill="#2F2E41"/>
    </g>
    <defs>
        <clipPath id="clip0">
            <rect width="584" height="380" fill="white"/>
        </clipPath>
    </defs>
</svg>
