<svg viewBox="0 0 583 551" fill="none"
    xmlns="http://www.w3.org/2000/svg">
    <path d="M582.324 468.355C582.324 497.25 454.518 551 293.527 551C132.536 551 0 500.583 0 471.687C0 442.792 132.536 446.361 293.527 446.361C454.518 446.361 582.324 439.459 582.324 468.355Z" fill="#3F3D56"/>
    <path opacity="0.1" d="M582.324 468.355C582.324 497.25 454.518 551 293.527 551C132.536 551 0 500.583 0 471.687C0 442.792 132.536 446.361 293.527 446.361C454.518 446.361 582.324 439.459 582.324 468.355Z" fill="black"/>
    <path d="M291.5 523.674C452.491 523.674 583 500.249 583 471.354C583 442.459 452.491 419.034 291.5 419.034C130.509 419.034 0 442.459 0 471.354C0 500.249 130.509 523.674 291.5 523.674Z" fill="#3F3D56"/>
    <path d="M401.857 293.416V433.342L425.581 471.487L427.386 474.388H520.993L522.883 293.416H401.857Z" fill="#2F2E41"/>
    <path opacity="0.1" d="M401.857 293.416V433.342L425.581 471.487L427.036 293.416H401.857Z" fill="black"/>
    <path d="M175.878 289.684V429.611L152.155 467.755L150.349 470.656H56.7422L54.8513 289.684H175.878Z" fill="#2F2E41"/>
    <path opacity="0.1" d="M175.878 289.684V429.611L152.155 467.755L150.698 289.684H175.878Z" fill="black"/>
    <path d="M551.249 286.886V295.281H42.5597V283.155L89.8354 258.901H509.646L551.249 286.886Z" fill="#2F2E41"/>
    <path opacity="0.1" d="M551.249 286.886V295.281H42.5597V283.155L551.249 286.886Z" fill="black"/>
    <path opacity="0.1" d="M115.364 328.864H92.672L83.217 322.334H125.765L115.364 328.864Z" fill="black"/>
    <path opacity="0.1" d="M115.364 355.917H92.672L83.217 349.386H125.765L115.364 355.917Z" fill="black"/>
    <path opacity="0.1" d="M115.364 394.163H92.672L83.217 387.633H125.765L115.364 394.163Z" fill="black"/>
    <path opacity="0.1" d="M115.364 432.409H92.672L83.217 425.88H125.765L115.364 432.409Z" fill="black"/>
    <path opacity="0.1" d="M462.37 332.595H485.063L494.518 326.065H451.969L462.37 332.595Z" fill="black"/>
    <path opacity="0.1" d="M462.37 359.648H485.063L494.518 353.118H451.969L462.37 359.648Z" fill="black"/>
    <path opacity="0.1" d="M462.37 397.894H485.063L494.518 391.365H451.969L462.37 397.894Z" fill="black"/>
    <path opacity="0.1" d="M462.37 436.141H485.063L494.518 429.611H451.969L462.37 436.141Z" fill="black"/>
    <path d="M359.741 235.557L356.587 255.423C356.587 255.423 341.06 263.561 351.978 263.801C362.895 264.04 414.328 263.801 414.328 263.801C414.328 263.801 424.275 263.801 408.505 255.184L405.351 234.36L359.741 235.557Z" fill="#3F3D56"/>
    <path opacity="0.1" d="M349.781 263.585C351.902 261.894 354.181 260.405 356.587 259.14L359.741 239.274L405.351 239.316L408.505 258.901C411.097 260.221 413.54 261.807 415.794 263.632C417.819 263.177 420.032 261.482 408.505 255.184L405.351 234.36L359.741 235.557L356.587 255.423C356.587 255.423 343.54 262.262 349.781 263.585Z" fill="black"/>
    <path d="M477.823 97.0894H286.784C282.794 97.0894 279.559 100.281 279.559 104.217V231.181C279.559 235.118 282.794 238.309 286.784 238.309H477.823C481.814 238.309 485.048 235.118 485.048 231.181V104.217C485.048 100.281 481.814 97.0894 477.823 97.0894Z" fill="#3F3D56"/>
    <path d="M478.134 104.629H286.474V210.424H478.134V104.629Z" fill="#F2F2F2"/>
    <path d="M382.304 102.475C382.974 102.475 383.517 101.939 383.517 101.278C383.517 100.617 382.974 100.081 382.304 100.081C381.634 100.081 381.091 100.617 381.091 101.278C381.091 101.939 381.634 102.475 382.304 102.475Z" fill="#F2F2F2"/>
    <path d="M485.048 218.802V231.181C485.048 232.117 484.862 233.044 484.499 233.909C484.136 234.774 483.603 235.56 482.932 236.222C482.262 236.884 481.465 237.409 480.588 237.767C479.712 238.125 478.772 238.309 477.823 238.309H286.784C285.835 238.309 284.896 238.125 284.019 237.767C283.142 237.409 282.346 236.884 281.675 236.222C281.004 235.56 280.472 234.774 280.109 233.909C279.746 233.044 279.559 232.117 279.559 231.181V218.802H485.048Z" fill="#3F3D56"/>
    <path d="M382.304 233.163C384.85 233.163 386.913 231.127 386.913 228.615C386.913 226.104 384.85 224.068 382.304 224.068C379.758 224.068 377.694 226.104 377.694 228.615C377.694 231.127 379.758 233.163 382.304 233.163Z" fill="#F2F2F2"/>
    <path d="M375.12 276.726V279.12H244.597V277.205L244.777 276.726L247.994 268.109H372.452L375.12 276.726Z" fill="#3F3D56"/>
    <path d="M425.35 274.383C425.112 275.385 424.215 276.443 422.187 277.444C414.908 281.034 400.109 276.486 400.109 276.486C400.109 276.486 388.707 274.572 388.707 269.545C389.027 269.329 389.361 269.133 389.706 268.959C392.766 267.362 402.912 263.42 420.902 269.126C422.227 269.536 423.411 270.301 424.321 271.336C424.725 271.728 425.028 272.208 425.207 272.737C425.386 273.267 425.435 273.831 425.35 274.383Z" fill="#3F3D56"/>
    <path opacity="0.1" d="M425.35 274.382C416.442 277.75 408.501 278.002 400.352 272.417C396.242 269.603 392.508 268.906 389.706 268.959C392.766 267.362 402.912 263.42 420.902 269.126C422.227 269.536 423.411 270.301 424.321 271.336C424.725 271.728 425.028 272.208 425.207 272.737C425.386 273.267 425.435 273.831 425.35 274.382Z" fill="black"/>
    <path d="M414.181 272.417C415.922 272.417 417.335 271.989 417.335 271.46C417.335 270.931 415.922 270.502 414.181 270.502C412.439 270.502 411.027 270.931 411.027 271.46C411.027 271.989 412.439 272.417 414.181 272.417Z" fill="#F2F2F2"/>
    <path opacity="0.1" d="M375.12 276.726V279.12H244.597V277.205L244.777 276.726H375.12Z" fill="black"/>
    <path d="M266.599 129.394C280.868 129.394 292.436 117.981 292.436 103.903C292.436 89.8244 280.868 78.4116 266.599 78.4116C252.329 78.4116 240.761 89.8244 240.761 103.903C240.761 117.981 252.329 129.394 266.599 129.394Z" fill="#FFB9B9"/>
    <path d="M247.56 116.648V156.898H289.716C289.716 156.898 284.277 123.356 286.997 113.294L247.56 116.648Z" fill="#FFB9B9"/>
    <path d="M331.192 170.985C331.192 170.985 291.076 151.531 291.076 150.189C291.076 148.848 286.997 140.127 284.277 140.127C281.557 140.127 258.439 132.748 245.521 143.481L244.161 152.202L194.525 184.401L208.124 233.371C208.124 233.371 216.963 242.763 214.244 249.471C211.524 256.179 216.283 290.391 216.283 290.391L323.033 287.037V241.421C323.033 241.421 326.433 230.688 328.473 227.334C330.513 223.98 328.473 213.917 328.473 213.917L344.791 193.793C344.791 193.793 342.751 175.01 331.192 170.985Z" fill="#D0CDE1"/>
    <path opacity="0.1" d="M196.225 200.836L199.285 184.401C199.285 184.401 181.607 260.204 183.646 268.924C185.686 277.645 200.645 291.062 202.685 291.732C204.724 292.403 223.763 234.042 223.763 234.042L196.225 200.836Z" fill="black"/>
    <path d="M206.084 182.389L194.525 184.401C194.525 184.401 176.847 260.204 178.887 268.925C180.927 277.645 195.885 291.062 197.925 291.732C199.965 292.403 219.003 234.042 219.003 234.042L206.084 182.389Z" fill="#D0CDE1"/>
    <path opacity="0.1" d="M334.932 204.861L340.712 193.793C340.712 193.793 348.871 269.595 343.431 276.974C337.992 284.354 316.475 287.115 316.475 287.115L316.234 232.03L334.932 204.861Z" fill="black"/>
    <path d="M335.952 185.072L344.791 193.793C344.791 193.793 352.95 269.595 347.511 276.974C342.071 284.354 320.554 287.115 320.554 287.115L320.313 232.029L335.952 185.072Z" fill="#D0CDE1"/>
    <path d="M204.044 300.453C204.044 300.453 184.326 293.074 180.927 307.161C177.527 321.248 189.086 384.306 189.086 384.306C189.086 384.306 196.565 431.934 201.325 433.275C206.084 434.617 227.162 435.288 230.562 429.251C233.962 423.213 220.363 361.498 220.363 361.498L299.235 360.156C299.235 360.156 294.476 413.822 291.756 418.517C289.036 423.213 289.036 439.313 291.756 439.313C294.476 439.313 324.393 437.971 326.433 433.946C328.473 429.921 340.032 339.361 340.032 339.361C340.032 339.361 349.551 307.832 338.672 309.845C327.793 311.857 204.044 300.453 204.044 300.453Z" fill="#3F3D56"/>
    <path d="M320.314 431.263C320.314 431.263 327.113 426.567 330.513 431.263C333.912 435.959 335.272 441.325 320.314 449.375C305.355 457.425 293.796 455.413 293.796 454.071V434.617L320.314 431.263Z" fill="#2F2E41"/>
    <path d="M202.685 429.251C202.685 429.251 195.885 424.555 192.486 429.251C189.086 433.946 187.726 439.313 202.685 447.363C217.643 455.413 229.202 453.4 229.202 452.059V432.605L202.685 429.251Z" fill="#2F2E41"/>
    <path d="M266.766 71.7608C264.193 71.6726 261.623 72.0339 259.177 72.8279C257.281 73.5802 255.469 74.526 253.771 75.6499L242.364 82.6483C241.396 83.0617 240.573 83.7489 240 84.6231C239.427 85.4973 239.129 86.5194 239.144 87.5603L237.719 98.0921C237.359 100.75 237.028 103.592 238.234 105.995C239.24 108.001 241.16 109.373 242.738 110.981C245.264 113.564 246.964 116.823 247.627 120.352C248.443 124.75 247.92 130.045 251.447 132.851C253.357 134.37 255.96 134.658 258.409 134.799C265.107 135.185 271.826 134.93 278.474 134.037C279.531 133.959 280.561 133.674 281.505 133.199C282.704 132.499 283.459 131.264 284.165 130.079C286.712 125.8 289.338 121.249 289.31 116.287C289.296 113.832 288.66 111.195 289.854 109.042C290.486 108.127 291.171 107.249 291.906 106.413C293.385 104.362 293.673 101.727 293.914 99.2215C294.684 91.2178 293.88 85.127 287.901 79.489C282.319 74.2261 274.378 71.8092 266.766 71.7608Z" fill="#2F2E41"/>
    <path d="M203.298 379.704L180.606 493.511H191.952L213.699 381.57L203.298 379.704Z" fill="#2F2E41"/>
    <path d="M276.103 389.032L290.286 519.631H299.741L291.231 385.301L276.103 389.032Z" fill="#2F2E41"/>
    <path d="M314.869 385.301L334.725 472.056H344.18L325.27 383.435L314.869 385.301Z" fill="#2F2E41"/>
    <path d="M239.228 385.301L236.391 454.332H243.955L249.629 385.301H239.228Z" fill="#2F2E41"/>
    <path d="M187.224 367.577C187.224 367.577 172.096 267.763 214.644 264.964C257.193 262.165 317.706 264.964 317.706 264.964C317.706 264.964 352.69 262.165 342.289 367.577C342.289 367.577 351.745 398.361 266.648 395.562C181.551 392.764 187.224 367.577 187.224 367.577Z" fill="#6C63FF"/>
    <path d="M574.893 408.338C574.893 425.743 564.406 431.821 551.468 431.821C538.53 431.821 528.042 425.743 528.042 408.338C528.042 390.932 551.468 368.789 551.468 368.789C551.468 368.789 574.893 390.932 574.893 408.338Z" fill="#6C63FF"/>
    <path d="M550.855 414.591L560.839 396.57L550.892 412.306L551 405.756L557.881 392.717L551.028 404.023L551.222 392.242L558.591 381.862L551.253 390.39L551.374 368.789L550.645 396.16L543.183 384.892L550.555 398.469L549.857 411.626L549.836 411.277L541.199 399.371L549.81 412.51L549.722 414.156L549.707 414.181L549.714 414.316L547.943 431.873H550.309L550.593 430.454L559.183 417.346L550.614 429.158L550.855 414.591Z" fill="#3F3D56"/>
    <path d="M566.429 469.578H538.501L531.283 429.331H572.077L566.429 469.578Z" fill="#2F2E41"/>
    <path d="M156.052 197.482H97.9548V264.683H156.052V197.482Z" fill="#3F3D56"/>
    <path d="M147.037 207.91H106.97V254.256H147.037V207.91Z" fill="#F2F2F2"/>
    <path d="M131.019 217.753L126.95 224.705L122.881 217.753H109.333L126.95 247.859L144.568 217.753H131.019Z" fill="#4DBA87"/>
    <path d="M131.019 217.753L126.95 224.705L122.881 217.753H116.38L126.95 235.816L137.521 217.753H131.019Z" fill="#435466"/>
    <path d="M385.132 141.963L381.064 148.916L376.995 141.963H363.446L381.064 172.069L398.681 141.963H385.132Z" fill="#4DBA87"/>
    <path d="M385.132 141.963L381.064 148.916L376.995 141.963H370.493L381.064 160.026L391.634 141.963H385.132Z" fill="#435466"/>
</svg>
