<svg width="67" height="43" viewBox="0 0 67 43" fill="none"
    xmlns="http://www.w3.org/2000/svg">
    <path d="M42.1547 0.838745H24.8455C23.0629 0.838745 21.613 2.1589 21.613 3.78128V21.5C21.613 22.0434 22.0963 22.484 22.6937 22.484H44.3066C44.9039 22.484 45.3873 22.0434 45.3873 21.5V3.78114C45.3871 2.15876 43.9371 0.838745 42.1547 0.838745ZM43.2259 20.5161H23.7743V3.78114C23.7743 3.24342 24.2544 2.80644 24.8455 2.80644H42.1547C42.7458 2.80644 43.2259 3.24356 43.2259 3.78114V20.5161Z" fill="#D7D4E8"/>
    <path d="M22.6936 20.5161H3.23244C1.45001 20.5161 0 21.8363 0 23.4586V39.2184C0 40.8413 1.45001 42.1614 3.23244 42.1614H22.6936C23.2908 42.1614 23.7743 41.7208 23.7743 41.1774V21.5C23.7743 20.9567 23.2908 20.5161 22.6936 20.5161ZM21.6129 40.1935H3.23244C2.64136 40.1935 2.16124 39.756 2.16124 39.2182V23.4585C2.16124 22.9208 2.64136 22.4837 3.23244 22.4837H21.6129V40.1935Z" fill="#D7D4E8"/>
    <path d="M63.7676 20.5161H44.3064C43.7092 20.5161 43.2257 20.9567 43.2257 21.5V41.1774C43.2257 41.7208 43.709 42.1614 44.3064 42.1614H63.7676C65.5502 42.1614 67 40.8412 67 39.2188V23.4586C67 21.8363 65.5502 20.5161 63.7676 20.5161ZM64.8388 39.2188C64.8388 39.7565 64.3586 40.1935 63.7676 40.1935H45.3871V22.4838H63.7676C64.3586 22.4838 64.8388 22.9209 64.8388 23.4585V39.2188Z" fill="#D7D4E8"/>
    <path d="M44.3064 20.5161H22.6936C22.0963 20.5161 21.6129 20.9567 21.6129 21.5V41.1774C21.6129 41.7208 22.0961 42.1614 22.6936 42.1614H44.3064C44.9037 42.1614 45.3871 41.7208 45.3871 41.1774V21.5C45.3871 20.9567 44.9038 20.5161 44.3064 20.5161ZM43.2259 40.1935H23.7742V22.4838H43.2259V40.1935Z" fill="#D7D4E8"/>
    <path d="M39.7823 11.0897L34.3791 4.20258C33.9739 3.68475 33.0261 3.68475 32.6209 4.20258L27.2177 11.0897C26.9823 11.3894 26.9505 11.7838 27.1352 12.1116C27.3211 12.4391 27.6915 12.6452 28.0967 12.6452H30.258V18.5485C30.258 19.0918 30.7413 19.5324 31.3387 19.5324H35.6613C36.2586 19.5324 36.742 19.0918 36.742 18.5485V12.6452H38.9032C39.3085 12.6452 39.6789 12.4391 39.8647 12.1116C40.0493 11.7838 40.0177 11.3895 39.7823 11.0897ZM35.6613 10.6774C35.0641 10.6774 34.5806 11.118 34.5806 11.6613V17.5645H32.4194V11.6613C32.4194 11.118 31.9361 10.6774 31.3387 10.6774H30.1967L33.4999 6.46717L36.8031 10.6774H35.6613Z" fill="#D7D4E8"/>
    <path d="M19.4516 28.387H12.9678V26.4193C12.9678 26.0508 12.7419 25.7131 12.3821 25.5444C12.02 25.3755 11.5876 25.4047 11.2592 25.6184L3.69468 30.5378C3.41069 30.7227 3.24194 31.0211 3.24194 31.3386C3.24194 31.6561 3.41085 31.9545 3.69468 32.1395L11.2592 37.0588C11.4459 37.1799 11.6656 37.2419 11.8871 37.2419C12.056 37.2419 12.2258 37.206 12.3821 37.1329C12.7419 36.9641 12.9678 36.6265 12.9678 36.258V34.2903H19.4516C20.0489 34.2903 20.5323 33.8497 20.5323 33.3063V29.3709C20.5323 28.8276 20.0489 28.387 19.4516 28.387ZM18.3709 32.3226H11.8871C11.2898 32.3226 10.8064 32.7631 10.8064 33.3065V34.3462L6.18201 31.3388L10.8064 28.3314V29.3711C10.8064 29.9144 11.2896 30.355 11.8871 30.355H18.3709V32.3226Z" fill="#D7D4E8"/>
    <path d="M63.3053 30.5378L55.7408 25.6184C55.4106 25.4047 54.9789 25.3752 54.618 25.5444C54.2581 25.7131 54.0323 26.0508 54.0323 26.4193V28.387H47.5484C46.9511 28.387 46.4677 28.8276 46.4677 29.3709V33.3065C46.4677 33.8498 46.951 34.2904 47.5484 34.2904H54.0323V36.2581C54.0323 36.6266 54.2581 36.9643 54.618 37.1331C54.774 37.2061 54.9441 37.242 55.113 37.242C55.3344 37.242 55.5541 37.1801 55.7408 37.059L63.3053 32.1397C63.5893 31.9548 63.7581 31.6563 63.7581 31.3388C63.7581 31.0213 63.5893 30.7228 63.3053 30.5378ZM56.1937 34.3462V33.3065C56.1937 32.7631 55.7104 32.3226 55.113 32.3226H48.6291V30.3549H55.113C55.7102 30.3549 56.1937 29.9143 56.1937 29.3709V28.3313L60.818 31.3386L56.1937 34.3462Z" fill="#D7D4E8"/>
    <path d="M39.8647 30.8886C39.6789 30.561 39.3085 30.3549 38.9032 30.3549H36.742V24.4517C36.742 23.9084 36.2587 23.4678 35.6613 23.4678H31.3387C30.7414 23.4678 30.258 23.9084 30.258 24.4517V30.3549H28.0967C27.6915 30.3549 27.3211 30.561 27.1352 30.8886C26.9507 31.2162 26.9823 31.6105 27.2177 31.9103L32.6209 38.7974C32.8235 39.0564 33.1507 39.2096 33.4999 39.2096C33.8491 39.2096 34.1763 39.0564 34.3791 38.7974L39.7823 31.9103C40.0177 31.6108 40.0495 31.2162 39.8647 30.8886ZM33.5001 36.5329L30.1969 32.3226H31.3388C31.9361 32.3226 32.4195 31.882 32.4195 31.3387V25.4355H34.5808V31.3387C34.5808 31.882 35.064 32.3226 35.6615 32.3226H36.8034L33.5001 36.5329Z" fill="#D7D4E8"/>
</svg>
