<svg width="24" height="37" viewBox="0 0 24 37" fill="none" xmlns="http://www.w3.org/2000/svg">
<path d="M23.0487 23.8118L5.68156 0.281253C5.43177 -0.0557003 4.99464 -0.0958138 4.70322 0.193003C4.57139 0.321366 4.48813 0.497865 4.46731 0.69041L0.789883 31.3451C0.734375 31.7864 1.00498 32.1875 1.37966 32.2517C1.56006 32.2838 1.7474 32.2276 1.89311 32.0992L8.96348 25.8736L11.6418 36.4235C11.7528 36.8487 12.1344 37.0894 12.5021 36.969L16.3183 35.6693C16.6861 35.541 16.8942 35.0997 16.7902 34.6745L14.1674 24.3573L22.4659 25.1355C22.8475 25.1676 23.1806 24.8387 23.2153 24.3975C23.2291 24.1808 23.1736 23.9723 23.0487 23.8118ZM13.2723 22.6485C12.8907 22.6164 12.5576 22.9454 12.523 23.3866C12.516 23.4829 12.523 23.5791 12.5507 23.6754L15.2637 34.3456L12.7797 35.188L10.0112 24.2932C9.90019 23.868 9.51857 23.6273 9.15083 23.7476C9.06756 23.7717 8.99124 23.8198 8.92879 23.876L2.39269 29.6283L5.63299 2.67201L20.9117 23.3625L13.2723 22.6485Z" fill="#D7D4E8"/>
</svg>
