<svg width="31" height="36" viewBox="0 0 31 36" fill="none" xmlns="http://www.w3.org/2000/svg">
<path d="M30.1685 19.2716L27.2877 17.1773C27.3017 17.0612 27.2866 16.9432 27.2438 16.835C27.2011 16.7268 27.1321 16.6321 27.0438 16.5601L24.194 14.2454C24.231 14.1099 24.2265 13.9656 24.181 13.8329C24.1355 13.7002 24.0513 13.5858 23.9403 13.5058L21.0631 11.4282L22.6796 5.51365C22.8632 4.8417 22.7839 4.12102 22.4592 3.51017C22.1346 2.89931 21.5911 2.4483 20.9483 2.25637C20.3056 2.06443 19.6163 2.14729 19.032 2.48671C18.4477 2.82613 18.0163 3.39432 17.8327 4.06627L14.3625 16.7677L13.6437 13.8503C13.5533 13.506 13.3986 13.1839 13.1886 12.9024C12.9785 12.6209 12.7174 12.3856 12.42 12.21C12.1227 12.0344 11.7951 11.9221 11.456 11.8794C11.117 11.8367 10.7732 11.8645 10.4445 11.9612C10.1158 12.058 9.80867 12.2217 9.54072 12.443C9.27277 12.6643 9.04933 12.9389 8.88326 13.2508C8.71719 13.5627 8.61176 13.9059 8.57304 14.2606C8.53432 14.6153 8.56308 14.9745 8.65765 15.3176L9.68323 19.3557V19.3595V19.3632C9.8683 20.3158 9.92299 21.291 9.84565 22.2596C9.79873 23.8369 9.75439 25.3269 10.7155 26.0665C11.9783 27.0368 11.7401 28.137 11.1708 30.1553L10.7722 31.6927C10.6825 32.1999 10.7769 32.3978 11.1904 32.5223C11.2718 32.5469 11.357 32.5544 11.4412 32.5445C11.5254 32.5346 11.6069 32.5074 11.681 32.4646C11.7551 32.4217 11.8204 32.364 11.8732 32.2947C11.926 32.2255 11.9652 32.146 11.9886 32.0609V32.0512L12.4052 30.5364C12.9312 28.6718 13.5277 26.5587 11.4771 24.9808C11.061 24.6606 11.0986 23.4073 11.1311 22.3017C11.2149 21.2009 11.1454 20.0933 10.9249 19.0134V19.0102L9.89361 14.9575C9.82188 14.6986 9.82534 14.4232 9.90355 14.1663C9.98175 13.9095 10.1312 13.6827 10.3329 13.5147C10.5345 13.3468 10.7794 13.2453 11.0364 13.2231C11.2933 13.2008 11.5508 13.2589 11.7762 13.3899C11.9253 13.4752 12.0568 13.5906 12.163 13.7294C12.2693 13.8682 12.3481 14.0276 12.3949 14.1985L13.702 19.5061C13.7282 19.658 13.8042 19.7957 13.917 19.8954C14.0297 19.9952 14.1721 20.0508 14.3198 20.0527C14.4675 20.0546 14.6112 20.0027 14.7262 19.9059C14.8413 19.8091 14.9205 19.6735 14.9503 19.5223L19.0753 4.43391C19.1187 4.27017 19.1926 4.11702 19.2929 3.9833C19.3931 3.84959 19.5177 3.73795 19.6594 3.65483C19.8011 3.57171 19.9572 3.51876 20.1186 3.49903C20.28 3.4793 20.4436 3.49318 20.5998 3.53987C20.7561 3.58656 20.9019 3.66514 21.029 3.77107C21.156 3.877 21.2618 4.00819 21.3401 4.15706C21.4184 4.30593 21.4677 4.46954 21.4852 4.63845C21.5027 4.80735 21.488 4.97821 21.4421 5.14116L18.2127 16.9601C18.1841 17.0466 18.1727 17.1383 18.1791 17.2296C18.1856 17.3209 18.2097 17.4099 18.2501 17.4911C18.2906 17.5723 18.3464 17.644 18.4142 17.7019C18.482 17.7598 18.5604 17.8027 18.6446 17.8279C18.7287 17.8531 18.8169 17.8601 18.9038 17.8484C18.9906 17.8368 19.0743 17.8068 19.1497 17.7603C19.2251 17.7137 19.2906 17.6516 19.3423 17.5777C19.3939 17.5038 19.4307 17.4197 19.4502 17.3304L20.6877 12.7964L22.8255 14.3403L21.3209 19.8527C21.2923 19.9392 21.2809 20.0309 21.2873 20.1222C21.2938 20.2135 21.3179 20.3025 21.3583 20.3837C21.3987 20.4649 21.4546 20.5366 21.5224 20.5945C21.5902 20.6524 21.6686 20.6953 21.7527 20.7205C21.8369 20.7457 21.9251 20.7527 22.012 20.741C22.0988 20.7294 22.1825 20.6994 22.2579 20.6529C22.3333 20.6063 22.3988 20.5442 22.4505 20.4703C22.5021 20.3964 22.5388 20.3123 22.5584 20.2231L23.8103 15.641L25.9048 17.3434L24.5126 22.4467C24.4839 22.5333 24.4723 22.6251 24.4787 22.7165C24.485 22.8079 24.5091 22.897 24.5495 22.9783C24.5899 23.0596 24.6458 23.1315 24.7137 23.1895C24.7816 23.2475 24.8601 23.2904 24.9444 23.3156C25.0286 23.3407 25.117 23.3477 25.2039 23.336C25.2909 23.3243 25.3746 23.2941 25.45 23.2474C25.5254 23.2007 25.591 23.1384 25.6426 23.0643C25.6942 22.9902 25.7307 22.9059 25.7501 22.8165L26.9185 18.552L29.0542 20.1039L27.0237 27.5327C26.9038 27.9712 26.6836 28.3725 26.3822 28.7021C26.0808 29.0317 25.7073 29.2798 25.2938 29.4248C24.5048 29.7182 23.7958 30.2076 23.2279 30.8509C22.6599 31.4943 22.25 32.2723 22.0335 33.118L21.5436 34.9125C21.5149 34.9991 21.5033 35.0909 21.5097 35.1823C21.516 35.2737 21.5401 35.3628 21.5806 35.4441C21.621 35.5255 21.6768 35.5973 21.7447 35.6553C21.8126 35.7133 21.8911 35.7562 21.9754 35.7814C22.0597 35.8066 22.148 35.8135 22.2349 35.8018C22.3219 35.7901 22.4056 35.7599 22.4811 35.7132C22.5565 35.6665 22.622 35.6042 22.6736 35.5301C22.7252 35.456 22.7618 35.3717 22.7811 35.2823L23.271 33.4878C23.4302 32.8523 23.7347 32.2668 24.1583 31.7816C24.5819 31.2964 25.1119 30.926 25.7027 30.7024C26.3144 30.4877 26.867 30.1207 27.3128 29.6331C27.7586 29.1454 28.0843 28.5517 28.2617 27.9031L30.4206 20.0074C30.4569 19.8726 30.4521 19.7293 30.4069 19.5974C30.3618 19.4656 30.2784 19.3517 30.1685 19.2716Z" fill="#D7D4E8"/>
<path d="M2.19948 4.1444H13.1307L11.556 5.7907C11.4962 5.85328 11.4487 5.92757 11.4163 6.00933C11.3839 6.0911 11.3672 6.17873 11.3672 6.26723C11.3672 6.35573 11.3839 6.44336 11.4163 6.52513C11.4487 6.60689 11.4962 6.68118 11.556 6.74376C11.6159 6.80634 11.6869 6.85598 11.7651 6.88985C11.8433 6.92371 11.9272 6.94115 12.0118 6.94115C12.0965 6.94115 12.1803 6.92371 12.2585 6.88985C12.3367 6.85598 12.4078 6.80634 12.4676 6.74376L15.1422 3.9471C15.2021 3.88457 15.2497 3.81029 15.2821 3.72852C15.3145 3.64675 15.3312 3.5591 15.3312 3.47057C15.3312 3.38205 15.3145 3.2944 15.2821 3.21263C15.2497 3.13086 15.2021 3.05658 15.1422 2.99404L12.4676 0.197385C12.4078 0.134806 12.3367 0.0851665 12.2585 0.051299C12.1803 0.0174315 12.0965 1.74455e-09 12.0118 0C11.9272 -1.74454e-09 11.8433 0.0174315 11.7651 0.051299C11.6869 0.0851665 11.6159 0.134806 11.556 0.197385C11.4962 0.259964 11.4487 0.334257 11.4163 0.41602C11.3839 0.497784 11.3672 0.585416 11.3672 0.673917C11.3672 0.762417 11.3839 0.85005 11.4163 0.931813C11.4487 1.01358 11.4962 1.08787 11.556 1.15045L13.1307 2.79728H2.19948L3.77523 1.15045C3.89612 1.02406 3.96403 0.85265 3.96403 0.673917C3.96403 0.495183 3.89612 0.323769 3.77523 0.197385C3.65434 0.0710009 3.49038 0 3.31941 0C3.14845 0 2.98449 0.0710009 2.8636 0.197385L0.189054 2.99404C0.129124 3.05658 0.0815785 3.13086 0.0491385 3.21263C0.0166984 3.2944 0 3.38205 0 3.47057C0 3.5591 0.0166984 3.64675 0.0491385 3.72852C0.0815785 3.81029 0.129124 3.88457 0.189054 3.9471L2.8636 6.74376C2.98449 6.87014 3.14845 6.94115 3.31941 6.94115C3.49038 6.94115 3.65434 6.87014 3.77523 6.74376C3.89612 6.61738 3.96403 6.44596 3.96403 6.26723C3.96403 6.08849 3.89612 5.91708 3.77523 5.7907L2.19948 4.1444Z" fill="#D7D4E8"/>
</svg>
