<svg  viewBox="0 0 453.938 41.889"
    xmlns="http://www.w3.org/2000/svg">
    <g id="svgGroup" stroke-linecap="round" fill-rule="evenodd" font-size="9pt" stroke="#000" stroke-width="0.25mm" fill="black" style="stroke:#000;stroke-width:0.25mm;fill:black">
        <path d="M 178.242 25.611 L 179.789 21.621 A 70.491 70.491 0 0 0 180.182 20.524 Q 180.692 19.058 180.856 18.322 A 5.533 5.533 0 0 0 180.879 18.211 Q 181.035 17.43 180.905 17.057 A 0.607 0.607 0 0 0 180.826 16.901 A 2.913 2.913 0 0 0 180.255 16.304 A 15.413 15.413 0 0 0 179.938 16.062 A 12.201 12.201 0 0 0 179.64 15.847 A 0.783 0.783 0 0 1 179.478 15.699 A 0.559 0.559 0 0 1 179.35 15.337 A 0.773 0.773 0 0 1 179.454 14.954 A 1.137 1.137 0 0 1 179.604 14.748 A 1.949 1.949 0 0 1 179.922 14.469 Q 180.078 14.358 180.269 14.262 A 3.217 3.217 0 0 1 180.281 14.256 A 4.002 4.002 0 0 1 182.03 13.852 A 7.224 7.224 0 0 1 182.558 13.87 Q 183.079 13.908 183.429 14.027 A 2.038 2.038 0 0 1 183.454 14.036 A 3.352 3.352 0 0 1 183.873 14.216 Q 184.119 14.344 184.307 14.502 Q 184.957 15.082 184.957 15.899 A 5.857 5.857 0 0 1 184.897 16.71 Q 184.842 17.104 184.736 17.535 A 10.165 10.165 0 0 1 184.685 17.736 A 24.47 24.47 0 0 1 184.295 19.042 A 30.2 30.2 0 0 1 183.999 19.899 Q 183.586 21.041 183.076 22.272 L 182.109 24.697 Q 181.207 27.016 180.864 28.413 A 9.483 9.483 0 0 0 180.721 29.092 A 3.94 3.94 0 0 0 181.659 28.598 Q 183.022 27.662 184.919 25.275 A 39.598 39.598 0 0 0 185.098 25.049 A 43.099 43.099 0 0 0 188.858 19.297 A 51.079 51.079 0 0 0 190.354 16.348 A 2.496 2.496 0 0 1 190.512 16.036 Q 190.726 15.683 191.004 15.557 A 2.603 2.603 0 0 1 191.593 15.365 Q 191.961 15.289 192.404 15.289 A 5.501 5.501 0 0 1 192.604 15.293 A 3.935 3.935 0 0 1 193.145 15.346 Q 194.143 15.521 194.186 16.242 A 1.668 1.668 0 0 1 194.189 16.35 Q 194.189 16.785 193.968 17.29 A 3.718 3.718 0 0 1 193.896 17.446 A 180.583 180.583 0 0 0 193.74 17.762 Q 193.532 18.185 193.381 18.501 A 63.153 63.153 0 0 0 193.359 18.545 L 192.674 19.951 A 30.186 30.186 0 0 0 191.68 22.171 Q 190.785 24.427 190.644 26.109 A 7.299 7.299 0 0 0 190.617 26.719 A 5.18 5.18 0 0 0 190.686 27.594 Q 190.763 28.046 190.929 28.395 A 1.961 1.961 0 0 0 191.602 29.197 A 0.889 0.889 0 0 0 191.855 29.326 Q 192.085 29.403 192.418 29.408 A 3.094 3.094 0 0 0 192.463 29.408 Q 192.879 29.408 193.403 29.196 A 4.94 4.94 0 0 0 193.834 28.995 A 5.808 5.808 0 0 0 194.842 28.321 A 7.159 7.159 0 0 0 195.346 27.861 A 9.809 9.809 0 0 0 196.291 26.758 A 11.706 11.706 0 0 0 196.69 26.183 A 12.84 12.84 0 0 0 197.771 24.135 Q 198.509 22.379 198.684 20.929 A 7.281 7.281 0 0 0 198.738 20.057 Q 198.738 17.174 197.711 15.728 A 3.669 3.669 0 0 0 197.596 15.574 A 0.672 0.672 0 0 1 197.491 15.41 Q 197.326 15.031 197.771 14.557 A 2.38 2.38 0 0 1 197.824 14.502 Q 198.324 14.002 199.26 13.887 A 4.926 4.926 0 0 1 199.863 13.852 A 2.284 2.284 0 0 1 200.989 14.121 Q 201.799 14.57 202.184 15.768 A 3.503 3.503 0 0 1 202.308 16.259 Q 202.43 16.916 202.43 17.93 Q 202.43 19.278 201.984 20.911 A 16.521 16.521 0 0 1 201.92 21.138 A 17.389 17.389 0 0 1 200.54 24.53 A 19.405 19.405 0 0 1 198.536 27.563 A 18.082 18.082 0 0 1 196.933 29.313 A 15.434 15.434 0 0 1 196.154 30.006 Q 194.48 31.393 192.958 31.912 A 5.45 5.45 0 0 1 191.197 32.221 A 4.27 4.27 0 0 1 189.437 31.884 Q 187.277 30.916 187.277 27.158 A 12.092 12.092 0 0 1 187.488 24.891 A 30.18 30.18 0 0 1 184.911 28.162 A 24.633 24.633 0 0 1 183.015 30.032 A 18.023 18.023 0 0 1 182.015 30.858 Q 180.317 32.15 179.253 32.15 A 2.009 2.009 0 0 1 178.39 31.973 Q 177.703 31.651 177.363 30.744 Q 177.18 30.278 177.17 29.875 A 1.866 1.866 0 0 1 177.17 29.83 A 6.907 6.907 0 0 1 177.53 27.615 A 62.547 62.547 0 0 1 177.977 26.33 A 51.603 51.603 0 0 1 178.242 25.611 Z M 114.943 13.377 L 116.525 12.252 A 15.564 15.564 0 0 0 117.635 11.363 Q 118.7 10.418 119.113 9.598 A 2.196 2.196 0 0 0 119.373 8.613 A 1.762 1.762 0 0 0 119.27 7.985 Q 118.947 7.137 117.615 7.137 A 7.192 7.192 0 0 0 113.335 8.574 A 11.031 11.031 0 0 0 111.516 10.248 A 11.229 11.229 0 0 0 109.84 12.713 A 9.884 9.884 0 0 0 109.248 14.203 A 8.572 8.572 0 0 0 109.055 14.946 Q 108.932 15.537 108.932 16.031 A 5.565 5.565 0 0 0 108.95 16.494 Q 108.969 16.727 109.01 16.923 A 2.21 2.21 0 0 0 109.116 17.288 A 2.816 2.816 0 0 0 109.31 17.688 A 2.071 2.071 0 0 0 109.582 18.053 Q 110.173 18.678 110.952 18.548 A 1.758 1.758 0 0 0 110.971 18.545 A 5.736 5.736 0 0 1 111.576 18.334 Q 111.886 18.247 112.165 18.213 A 2.77 2.77 0 0 1 112.491 18.193 Q 113.15 18.193 113.546 18.36 Q 113.941 18.527 114.188 18.774 A 2.415 2.415 0 0 1 114.434 19.048 Q 114.697 19.394 114.697 19.723 Q 114.697 20.618 114.101 20.654 A 0.723 0.723 0 0 1 114.1 20.654 A 5.928 5.928 0 0 0 112.987 20.875 A 7.688 7.688 0 0 0 112.184 21.164 Q 111.182 21.586 110.162 22.263 Q 109.143 22.94 108.352 23.783 A 8.435 8.435 0 0 0 107.368 25.039 Q 106.877 25.817 106.677 26.598 A 4.309 4.309 0 0 0 106.541 27.668 A 3.15 3.15 0 0 0 106.583 28.2 Q 106.631 28.481 106.735 28.705 A 1.422 1.422 0 0 0 106.98 29.074 A 2.62 2.62 0 0 0 107.64 29.617 A 2.19 2.19 0 0 0 108.738 29.9 Q 109.758 29.9 110.733 29.505 A 8.894 8.894 0 0 0 112.093 28.818 A 7.927 7.927 0 0 0 112.5 28.547 A 11.643 11.643 0 0 0 113.822 27.428 A 15.076 15.076 0 0 0 114.82 26.35 Q 115.241 25.85 115.583 25.724 A 0.641 0.641 0 0 1 115.805 25.682 A 0.606 0.606 0 0 1 116.3 25.932 Q 116.382 26.036 116.446 26.183 Q 116.666 26.684 116.666 27.246 Q 116.666 28.361 116.26 28.916 A 1.41 1.41 0 0 1 116.227 28.96 A 6.787 6.787 0 0 1 115.698 29.548 A 9.133 9.133 0 0 1 115.128 30.067 A 7.636 7.636 0 0 1 114.309 30.663 A 10.014 10.014 0 0 1 113.555 31.096 Q 111.357 32.221 108.844 32.221 Q 106.17 32.221 104.561 31.115 A 4.935 4.935 0 0 1 103.043 29.443 A 4.624 4.624 0 0 1 102.553 28.093 A 4.177 4.177 0 0 1 102.48 27.316 A 6.426 6.426 0 0 1 102.621 25.954 A 5.58 5.58 0 0 1 102.806 25.295 Q 103.131 24.363 103.641 23.564 Q 104.15 22.764 104.783 22.122 A 13.7 13.7 0 0 1 105.49 21.453 A 10.963 10.963 0 0 1 106.031 21.006 A 9.698 9.698 0 0 1 106.646 20.56 Q 107.454 20.024 108.035 19.934 A 4.329 4.329 0 0 1 105.568 17.438 A 6.237 6.237 0 0 1 105.363 16.857 A 4.994 4.994 0 0 1 105.223 16.178 Q 105.174 15.832 105.159 15.435 A 9.717 9.717 0 0 1 105.152 15.065 A 6.486 6.486 0 0 1 105.252 13.964 Q 105.34 13.451 105.507 12.895 A 10.95 10.95 0 0 1 105.557 12.735 A 10.52 10.52 0 0 1 106.699 10.292 A 12.631 12.631 0 0 1 108.457 8.104 Q 109.477 7.084 110.707 6.328 A 10.858 10.858 0 0 1 114.623 4.846 A 10.338 10.338 0 0 1 116.297 4.711 Q 119.373 4.711 120.885 6.24 Q 122.098 7.471 122.098 9.387 Q 122.098 11.311 120.673 13.276 A 11.213 11.213 0 0 1 120.27 13.799 A 12.793 12.793 0 0 1 119.631 14.516 Q 118.899 15.276 118.274 15.609 Q 117.558 15.993 117.093 16.095 A 1.628 1.628 0 0 1 116.886 16.128 A 2.353 2.353 0 0 1 116.68 16.137 A 1.99 1.99 0 0 1 115.954 16.005 A 2.544 2.544 0 0 1 115.416 15.721 A 2.259 2.259 0 0 1 115.207 15.557 Q 114.611 15.019 114.508 14.565 A 0.838 0.838 0 0 1 114.486 14.379 A 1.476 1.476 0 0 1 114.545 13.95 A 1.115 1.115 0 0 1 114.943 13.377 Z M 24.082 24.135 L 25.453 19.494 L 23.625 19.986 A 1.169 1.169 0 0 1 22.751 19.598 A 1.948 1.948 0 0 1 22.5 19.266 Q 22.395 19.072 22.395 18.809 Q 22.395 18.545 22.816 18.185 Q 23.225 17.836 23.815 17.528 A 7.437 7.437 0 0 1 23.854 17.508 A 12.103 12.103 0 0 1 26.385 16.541 L 26.543 16.049 A 68.26 68.26 0 0 0 27.394 13.18 A 74.778 74.778 0 0 0 27.448 12.982 A 71.715 71.715 0 0 1 28.362 9.879 A 26.985 26.985 0 0 1 29.385 7.176 A 24.735 24.735 0 0 1 29.461 7.005 A 11.779 11.779 0 0 1 30.266 5.508 A 9.699 9.699 0 0 1 30.902 4.623 Q 32.73 2.408 35.49 2.408 Q 37.322 2.408 38.473 3.288 A 3.782 3.782 0 0 1 38.725 3.498 A 3.598 3.598 0 0 1 39.869 5.713 A 5.133 5.133 0 0 1 39.92 6.451 A 5.668 5.668 0 0 1 39.589 8.414 A 5.137 5.137 0 0 1 38.813 9.809 Q 38.144 10.654 37.367 10.892 A 2.129 2.129 0 0 1 36.738 10.986 A 2.384 2.384 0 0 1 35.955 10.866 Q 35.274 10.63 34.916 9.934 A 2.685 2.685 0 0 1 34.805 9.686 A 2.422 2.422 0 0 1 34.731 9.487 Q 34.698 9.387 34.682 9.298 A 0.955 0.955 0 0 1 34.664 9.123 A 0.601 0.601 0 0 1 34.787 8.766 Q 34.857 8.669 34.967 8.578 A 1.777 1.777 0 0 1 35.191 8.42 A 3.847 3.847 0 0 0 36.519 6.532 A 4.692 4.692 0 0 0 36.545 6.451 A 2.601 2.601 0 0 0 36.656 5.928 A 2.275 2.275 0 0 0 36.668 5.695 A 2.709 2.709 0 0 0 36.622 5.169 Q 36.456 4.339 35.703 4.262 A 1.575 1.575 0 0 0 35.543 4.254 A 1.617 1.617 0 0 0 34.509 4.667 Q 33.59 5.423 32.768 7.561 A 18.537 18.537 0 0 0 32.695 7.752 A 41.26 41.26 0 0 0 32.309 8.877 A 52.59 52.59 0 0 0 31.922 10.107 L 30.27 15.715 Q 31.475 15.529 32.187 15.484 A 6.509 6.509 0 0 1 32.599 15.469 Q 33.328 15.469 33.891 15.636 A 3.934 3.934 0 0 1 34.733 15.993 A 3.584 3.584 0 0 1 34.91 16.102 A 2.896 2.896 0 0 1 35.446 16.549 A 1.779 1.779 0 0 1 35.947 17.789 A 1.475 1.475 0 0 1 35.9 18.18 Q 35.777 18.626 35.334 18.747 A 1.418 1.418 0 0 1 34.963 18.791 L 32.73 18.703 A 37.024 37.024 0 0 0 30.763 18.753 A 29.023 29.023 0 0 0 29.355 18.861 L 27.914 23.959 Q 26.543 28.951 25.67 31.32 A 27.173 27.173 0 0 1 25.603 31.5 A 50.766 50.766 0 0 1 24.943 33.165 Q 24.398 34.469 23.871 35.49 Q 23.121 36.907 21.628 36.98 A 3.367 3.367 0 0 1 21.463 36.984 A 3.608 3.608 0 0 1 20.893 36.944 Q 19.894 36.783 19.848 35.99 A 1.346 1.346 0 0 1 19.846 35.912 A 0.922 0.922 0 0 1 19.874 35.707 Q 19.949 35.387 20.224 34.804 A 14.948 14.948 0 0 1 20.399 34.444 A 21.79 21.79 0 0 0 20.82 33.556 Q 21.008 33.138 21.206 32.659 A 47.27 47.27 0 0 0 21.612 31.641 A 67.234 67.234 0 0 0 22.794 28.32 A 73.469 73.469 0 0 0 22.869 28.09 Q 23.467 26.244 24.082 24.135 Z M 78.574 20.127 L 77.08 21.92 L 74.197 25.594 A 97.553 97.553 0 0 0 73.715 26.52 Q 73.033 27.848 72.598 28.811 L 71.648 30.85 A 10.486 10.486 0 0 1 71.47 31.2 Q 71.211 31.682 71.007 31.913 A 0.897 0.897 0 0 1 70.423 32.212 A 1.272 1.272 0 0 1 70.269 32.221 Q 69.803 32.221 69.372 32.054 Q 68.941 31.887 68.625 31.623 Q 68.13 31.206 68.002 30.732 A 1.294 1.294 0 0 1 67.957 30.393 A 0.672 0.672 0 0 1 67.978 30.244 Q 68.035 30 68.25 29.548 A 10.967 10.967 0 0 1 68.344 29.356 L 69.012 27.932 A 19.154 19.154 0 0 0 69.177 27.593 Q 69.417 27.089 69.708 26.412 A 53.823 53.823 0 0 0 69.75 26.315 L 70.734 23.906 A 89.212 89.212 0 0 0 71.439 22.091 Q 72.493 19.28 72.736 17.905 A 4.114 4.114 0 0 0 72.809 17.209 A 1.961 1.961 0 0 0 72.757 16.745 A 1.237 1.237 0 0 0 72.281 16.014 L 71.93 15.768 A 0.378 0.378 0 0 1 71.791 15.581 Q 71.767 15.515 71.759 15.432 A 0.93 0.93 0 0 1 71.754 15.337 A 0.825 0.825 0 0 1 71.865 14.929 A 1.16 1.16 0 0 1 71.991 14.748 A 1.924 1.924 0 0 1 72.321 14.443 A 2.548 2.548 0 0 1 72.615 14.256 A 3.733 3.733 0 0 1 73.533 13.924 A 3.205 3.205 0 0 1 74.206 13.852 A 5.886 5.886 0 0 1 74.66 13.868 Q 75.107 13.903 75.403 14.011 A 1.571 1.571 0 0 1 75.445 14.027 A 2.332 2.332 0 0 1 75.918 14.28 A 1.977 1.977 0 0 1 76.184 14.502 Q 76.834 15.117 76.834 15.785 Q 76.834 16.453 76.667 17.13 A 12.986 12.986 0 0 1 76.277 18.414 A 14.217 14.217 0 0 1 76.245 18.501 Q 75.99 19.195 75.709 19.863 A 46.307 46.307 0 0 1 75.505 20.34 Q 75.424 20.528 75.347 20.699 A 26.188 26.188 0 0 1 75.199 21.024 L 74.848 21.779 Q 74.708 22.058 74.776 21.957 A 0.801 0.801 0 0 0 74.777 21.955 A 373.081 373.081 0 0 1 75.567 20.863 Q 76.559 19.497 77.074 18.823 A 22.097 22.097 0 0 1 77.344 18.475 L 78.574 16.998 A 27.045 27.045 0 0 1 79.215 16.274 Q 79.842 15.592 80.313 15.199 A 4.355 4.355 0 0 1 80.701 14.906 A 11.225 11.225 0 0 1 81.442 14.445 Q 82.183 14.025 82.737 13.902 A 1.972 1.972 0 0 1 83.162 13.852 A 5.886 5.886 0 0 1 83.795 13.884 Q 84.119 13.919 84.396 13.993 A 3.029 3.029 0 0 1 84.674 14.08 Q 85.289 14.309 85.746 14.731 A 2.957 2.957 0 0 1 86.711 16.887 A 3.892 3.892 0 0 1 86.713 17.016 A 6.821 6.821 0 0 1 86.472 18.777 A 8.876 8.876 0 0 1 86.08 19.916 A 70.232 70.232 0 0 1 85.774 20.636 Q 85.393 21.519 85.082 22.164 A 23.12 23.12 0 0 1 84.981 22.368 A 43.422 43.422 0 0 0 84.094 24.275 Q 82.798 27.16 82.776 28.5 A 2.794 2.794 0 0 0 82.775 28.547 A 0.498 0.498 0 0 0 83.059 29.022 Q 83.294 29.145 83.725 29.145 A 2.981 2.981 0 0 0 84.657 29.002 A 2.715 2.715 0 0 0 85.069 28.828 A 9.175 9.175 0 0 1 85.282 28.721 Q 85.599 28.566 85.759 28.526 A 0.397 0.397 0 0 1 85.852 28.512 A 0.531 0.531 0 0 1 85.998 28.53 Q 86.221 28.594 86.221 28.881 A 2.794 2.794 0 0 1 85.358 30.904 A 4.547 4.547 0 0 1 84.621 31.5 A 5.415 5.415 0 0 1 83.936 31.895 Q 83.255 32.221 82.652 32.221 A 6.882 6.882 0 0 1 82.048 32.196 Q 81.544 32.151 81.167 32.027 A 2.824 2.824 0 0 1 80.121 31.412 Q 79.084 30.481 79.084 28.811 A 8.424 8.424 0 0 1 79.236 27.288 Q 79.516 25.769 80.315 23.838 A 27.529 27.529 0 0 1 80.367 23.713 A 214.443 214.443 0 0 1 80.786 22.777 Q 81.392 21.434 81.686 20.848 L 82.283 19.6 Q 82.739 18.658 82.814 18.049 A 1.858 1.858 0 0 0 82.828 17.824 Q 82.828 17.285 82.163 17.193 A 2.211 2.211 0 0 0 81.861 17.174 A 0.846 0.846 0 0 0 81.54 17.248 Q 81.098 17.432 80.454 18.077 A 9.844 9.844 0 0 0 80.314 18.22 Q 79.313 19.266 78.574 20.127 Z M 130.043 20.127 L 128.549 21.92 L 125.666 25.594 A 97.553 97.553 0 0 0 125.184 26.52 Q 124.501 27.848 124.066 28.811 L 123.117 30.85 A 10.486 10.486 0 0 1 122.939 31.2 Q 122.68 31.682 122.476 31.913 A 0.897 0.897 0 0 1 121.892 32.212 A 1.272 1.272 0 0 1 121.737 32.221 Q 121.271 32.221 120.841 32.054 Q 120.41 31.887 120.094 31.623 Q 119.599 31.206 119.471 30.732 A 1.294 1.294 0 0 1 119.426 30.393 A 0.672 0.672 0 0 1 119.446 30.244 Q 119.503 30 119.719 29.548 A 10.967 10.967 0 0 1 119.813 29.356 L 120.48 27.932 A 19.154 19.154 0 0 0 120.645 27.593 Q 120.885 27.089 121.177 26.412 A 53.823 53.823 0 0 0 121.219 26.315 L 122.203 23.906 A 89.212 89.212 0 0 0 122.908 22.091 Q 123.961 19.28 124.204 17.905 A 4.114 4.114 0 0 0 124.277 17.209 A 1.961 1.961 0 0 0 124.226 16.745 A 1.237 1.237 0 0 0 123.75 16.014 L 123.398 15.768 A 0.378 0.378 0 0 1 123.26 15.581 Q 123.236 15.515 123.227 15.432 A 0.93 0.93 0 0 1 123.223 15.337 A 0.825 0.825 0 0 1 123.334 14.929 A 1.16 1.16 0 0 1 123.46 14.748 A 1.924 1.924 0 0 1 123.789 14.443 A 2.548 2.548 0 0 1 124.084 14.256 A 3.733 3.733 0 0 1 125.002 13.924 A 3.205 3.205 0 0 1 125.675 13.852 A 5.886 5.886 0 0 1 126.129 13.868 Q 126.576 13.903 126.871 14.011 A 1.571 1.571 0 0 1 126.914 14.027 A 2.332 2.332 0 0 1 127.386 14.28 A 1.977 1.977 0 0 1 127.652 14.502 Q 128.303 15.117 128.303 15.785 Q 128.303 16.453 128.136 17.13 A 12.986 12.986 0 0 1 127.745 18.414 A 14.217 14.217 0 0 1 127.714 18.501 Q 127.459 19.195 127.178 19.863 A 46.307 46.307 0 0 1 126.974 20.34 Q 126.893 20.528 126.816 20.699 A 26.188 26.188 0 0 1 126.668 21.024 L 126.316 21.779 Q 126.177 22.058 126.245 21.957 A 0.801 0.801 0 0 0 126.246 21.955 A 373.081 373.081 0 0 1 127.036 20.863 Q 128.028 19.497 128.542 18.823 A 22.097 22.097 0 0 1 128.813 18.475 L 130.043 16.998 A 27.045 27.045 0 0 1 130.683 16.274 Q 131.311 15.592 131.782 15.199 A 4.355 4.355 0 0 1 132.17 14.906 A 11.225 11.225 0 0 1 132.91 14.445 Q 133.652 14.025 134.206 13.902 A 1.972 1.972 0 0 1 134.631 13.852 A 5.886 5.886 0 0 1 135.264 13.884 Q 135.588 13.919 135.865 13.993 A 3.029 3.029 0 0 1 136.143 14.08 Q 136.758 14.309 137.215 14.731 A 2.957 2.957 0 0 1 138.18 16.887 A 3.892 3.892 0 0 1 138.182 17.016 A 6.821 6.821 0 0 1 137.941 18.777 A 8.876 8.876 0 0 1 137.549 19.916 A 70.232 70.232 0 0 1 137.243 20.636 Q 136.862 21.519 136.55 22.164 A 23.12 23.12 0 0 1 136.45 22.368 A 43.422 43.422 0 0 0 135.562 24.275 Q 134.267 27.16 134.245 28.5 A 2.794 2.794 0 0 0 134.244 28.547 A 0.498 0.498 0 0 0 134.528 29.022 Q 134.763 29.145 135.193 29.145 A 2.981 2.981 0 0 0 136.126 29.002 A 2.715 2.715 0 0 0 136.538 28.828 A 9.175 9.175 0 0 1 136.75 28.721 Q 137.067 28.566 137.228 28.526 A 0.397 0.397 0 0 1 137.32 28.512 A 0.531 0.531 0 0 1 137.466 28.53 Q 137.689 28.594 137.689 28.881 A 2.794 2.794 0 0 1 136.827 30.904 A 4.547 4.547 0 0 1 136.09 31.5 A 5.415 5.415 0 0 1 135.405 31.895 Q 134.723 32.221 134.121 32.221 A 6.882 6.882 0 0 1 133.516 32.196 Q 133.013 32.151 132.636 32.027 A 2.824 2.824 0 0 1 131.59 31.412 Q 130.553 30.481 130.553 28.811 A 8.424 8.424 0 0 1 130.704 27.288 Q 130.985 25.769 131.784 23.838 A 27.529 27.529 0 0 1 131.836 23.713 A 214.443 214.443 0 0 1 132.255 22.777 Q 132.861 21.434 133.154 20.848 L 133.752 19.6 Q 134.208 18.658 134.282 18.049 A 1.858 1.858 0 0 0 134.297 17.824 Q 134.297 17.285 133.632 17.193 A 2.211 2.211 0 0 0 133.33 17.174 A 0.846 0.846 0 0 0 133.008 17.248 Q 132.566 17.432 131.923 18.077 A 9.844 9.844 0 0 0 131.783 18.22 Q 130.781 19.266 130.043 20.127 Z M 157.465 19.178 L 156.498 22.43 Q 155.25 26.772 155.25 27.949 A 2.373 2.373 0 0 0 155.284 28.372 Q 155.417 29.101 156.065 29.126 A 1.21 1.21 0 0 0 156.111 29.127 A 4.853 4.853 0 0 0 156.596 29.104 Q 156.838 29.08 157.041 29.03 A 2.043 2.043 0 0 0 157.377 28.916 L 158.045 28.6 Q 158.224 28.502 158.388 28.495 A 0.593 0.593 0 0 1 158.414 28.494 Q 158.783 28.494 158.783 28.881 A 2.772 2.772 0 0 1 158.048 30.755 Q 157.711 31.14 157.219 31.482 Q 156.448 32.032 155.739 32.172 A 2.461 2.461 0 0 1 155.259 32.221 A 6.565 6.565 0 0 1 154.694 32.198 Q 154.425 32.175 154.2 32.128 A 2.609 2.609 0 0 1 153.791 32.01 A 2.671 2.671 0 0 1 152.932 31.466 A 3.153 3.153 0 0 1 152.807 31.342 Q 151.872 30.341 151.825 28.627 A 6.7 6.7 0 0 1 151.822 28.441 Q 151.822 28.163 151.902 27.635 A 17.195 17.195 0 0 1 151.963 27.264 Q 150.539 29.461 149.52 30.357 A 9.344 9.344 0 0 1 148.243 31.34 Q 147.485 31.818 146.74 32.037 A 4.41 4.41 0 0 1 145.494 32.221 Q 142.63 32.221 141.583 29.837 A 5.567 5.567 0 0 1 141.416 29.408 Q 141.064 28.371 141.064 26.807 A 10.992 10.992 0 0 1 141.468 23.892 A 12.367 12.367 0 0 1 141.539 23.643 Q 142.014 22.043 142.831 20.602 Q 143.648 19.16 144.729 17.921 A 16.159 16.159 0 0 1 146.415 16.245 A 14.207 14.207 0 0 1 147.006 15.768 A 13.235 13.235 0 0 1 148.524 14.778 Q 149.312 14.344 150.047 14.113 A 5.339 5.339 0 0 1 151.646 13.852 Q 153.721 13.852 154.969 15.539 A 196.874 196.874 0 0 1 156.063 11.913 Q 158.294 4.785 159.548 3.214 A 2.873 2.873 0 0 1 159.574 3.182 A 2.921 2.921 0 0 1 159.964 2.793 Q 160.204 2.598 160.454 2.501 A 1.357 1.357 0 0 1 160.945 2.408 A 3.324 3.324 0 0 1 161.652 2.479 Q 162.102 2.577 162.437 2.811 A 1.862 1.862 0 0 1 162.756 3.094 A 0.985 0.985 0 0 1 162.866 3.251 Q 162.923 3.354 162.941 3.457 A 0.547 0.547 0 0 1 162.949 3.551 A 0.649 0.649 0 0 1 162.934 3.679 Q 162.883 3.924 162.668 4.395 A 18.491 18.491 0 0 0 162.511 4.749 Q 162.25 5.353 161.842 6.381 A 363.492 363.492 0 0 0 161.118 8.308 Q 160.119 10.991 159.645 12.428 A 967.262 967.262 0 0 0 158.944 14.559 Q 158.141 17.013 157.701 18.417 A 96.286 96.286 0 0 0 157.465 19.178 Z M 273.023 19.178 L 272.057 22.43 Q 270.809 26.772 270.809 27.949 A 2.373 2.373 0 0 0 270.843 28.372 Q 270.975 29.101 271.623 29.126 A 1.21 1.21 0 0 0 271.67 29.127 A 4.853 4.853 0 0 0 272.155 29.104 Q 272.397 29.08 272.599 29.03 A 2.043 2.043 0 0 0 272.936 28.916 L 273.604 28.6 Q 273.783 28.502 273.946 28.495 A 0.593 0.593 0 0 1 273.973 28.494 Q 274.342 28.494 274.342 28.881 A 2.772 2.772 0 0 1 273.607 30.755 Q 273.269 31.14 272.777 31.482 Q 272.006 32.032 271.298 32.172 A 2.461 2.461 0 0 1 270.817 32.221 A 6.565 6.565 0 0 1 270.252 32.198 Q 269.984 32.175 269.758 32.128 A 2.609 2.609 0 0 1 269.35 32.01 A 2.671 2.671 0 0 1 268.491 31.466 A 3.153 3.153 0 0 1 268.365 31.342 Q 267.431 30.341 267.383 28.627 A 6.7 6.7 0 0 1 267.381 28.441 Q 267.381 28.163 267.461 27.635 A 17.195 17.195 0 0 1 267.521 27.264 Q 266.098 29.461 265.078 30.357 A 9.344 9.344 0 0 1 263.801 31.34 Q 263.044 31.818 262.299 32.037 A 4.41 4.41 0 0 1 261.053 32.221 Q 258.188 32.221 257.142 29.837 A 5.567 5.567 0 0 1 256.975 29.408 Q 256.623 28.371 256.623 26.807 A 10.992 10.992 0 0 1 257.026 23.892 A 12.367 12.367 0 0 1 257.098 23.643 Q 257.572 22.043 258.39 20.602 Q 259.207 19.16 260.288 17.921 A 16.159 16.159 0 0 1 261.974 16.245 A 14.207 14.207 0 0 1 262.564 15.768 A 13.235 13.235 0 0 1 264.083 14.778 Q 264.87 14.344 265.606 14.113 A 5.339 5.339 0 0 1 267.205 13.852 Q 269.279 13.852 270.527 15.539 A 196.874 196.874 0 0 1 271.621 11.913 Q 273.852 4.785 275.107 3.214 A 2.873 2.873 0 0 1 275.133 3.182 A 2.921 2.921 0 0 1 275.523 2.793 Q 275.763 2.598 276.012 2.501 A 1.357 1.357 0 0 1 276.504 2.408 A 3.324 3.324 0 0 1 277.21 2.479 Q 277.66 2.577 277.995 2.811 A 1.862 1.862 0 0 1 278.314 3.094 A 0.985 0.985 0 0 1 278.425 3.251 Q 278.482 3.354 278.5 3.457 A 0.547 0.547 0 0 1 278.508 3.551 A 0.649 0.649 0 0 1 278.492 3.679 Q 278.442 3.924 278.227 4.395 A 18.491 18.491 0 0 0 278.069 4.749 Q 277.809 5.353 277.4 6.381 A 363.492 363.492 0 0 0 276.676 8.308 Q 275.678 10.991 275.203 12.428 A 967.262 967.262 0 0 0 274.503 14.559 Q 273.7 17.013 273.259 18.417 A 96.286 96.286 0 0 0 273.023 19.178 Z M 416.268 36.352 L 417.656 33.979 L 432.809 6.803 L 434.514 3.85 Q 435.234 2.602 435.709 1.828 A 5.033 5.033 0 0 1 436.447 0.904 A 2.994 2.994 0 0 1 438.592 0 A 1.525 1.525 0 0 1 438.9 0.028 Q 439.369 0.126 439.427 0.557 A 0.964 0.964 0 0 1 439.436 0.686 A 1.852 1.852 0 0 1 439.353 1.188 Q 439.13 1.965 438.301 3.266 A 22.504 22.504 0 0 1 438.117 3.551 A 17.2 17.2 0 0 0 437.948 3.816 Q 437.679 4.245 437.249 4.968 A 118.298 118.298 0 0 0 437.203 5.045 A 69963.191 69963.191 0 0 1 433.202 12.163 Q 422.009 32.071 420.012 35.586 A 62.201 62.201 0 0 1 419.599 36.308 A 5.964 5.964 0 0 1 419.166 36.943 Q 418.92 37.255 418.658 37.484 A 2.975 2.975 0 0 1 418.359 37.714 A 2.628 2.628 0 0 1 417.241 38.131 A 3.423 3.423 0 0 1 416.769 38.162 A 1.992 1.992 0 0 1 416.443 38.138 Q 415.866 38.042 415.846 37.564 A 0.833 0.833 0 0 1 415.846 37.529 A 1.589 1.589 0 0 1 415.921 37.063 Q 415.982 36.864 416.093 36.65 A 3.597 3.597 0 0 1 416.268 36.352 Z M 294.996 23.221 L 295.893 21.182 Q 297.633 17.156 297.176 16.436 A 1.26 1.26 0 0 0 296.99 16.211 Q 296.796 16.021 296.475 15.83 A 4.635 4.635 0 0 0 296.367 15.768 A 0.392 0.392 0 0 1 296.201 15.543 Q 296.18 15.473 296.175 15.386 A 0.909 0.909 0 0 1 296.174 15.337 A 0.773 0.773 0 0 1 296.278 14.954 A 1.137 1.137 0 0 1 296.429 14.748 A 1.949 1.949 0 0 1 296.747 14.469 Q 296.903 14.358 297.093 14.262 A 3.217 3.217 0 0 1 297.105 14.256 A 4.094 4.094 0 0 1 298.22 13.899 A 3.673 3.673 0 0 1 298.811 13.852 Q 299.574 13.852 300.013 13.997 A 1.599 1.599 0 0 1 300.12 14.036 A 2.764 2.764 0 0 1 300.531 14.245 A 2.142 2.142 0 0 1 300.867 14.502 Q 301.43 15.082 301.43 15.908 Q 301.43 16.623 301.193 17.496 A 9.232 9.232 0 0 1 301.113 17.772 A 22.127 22.127 0 0 1 300.656 19.109 A 26.955 26.955 0 0 1 300.322 19.951 A 54.792 54.792 0 0 1 299.424 21.991 A 60.429 60.429 0 0 1 299.285 22.289 L 298.248 24.592 Q 297.33 26.705 297.173 27.634 A 2.035 2.035 0 0 0 297.141 27.967 A 3.39 3.39 0 0 0 297.184 28.537 Q 297.364 29.584 298.283 29.584 A 5.266 5.266 0 0 0 301.169 28.687 Q 302.522 27.817 303.785 26.104 A 13.216 13.216 0 0 0 305.93 21.709 A 9.803 9.803 0 0 0 306.134 20.763 Q 306.216 20.255 306.227 19.796 A 5.838 5.838 0 0 0 306.229 19.661 Q 306.229 18.997 306.197 18.492 A 10.139 10.139 0 0 0 306.167 18.123 A 7.083 7.083 0 0 0 306.092 17.577 Q 306.043 17.304 305.974 17.065 A 4.279 4.279 0 0 0 305.965 17.033 A 3.648 3.648 0 0 0 305.422 15.865 A 3.44 3.44 0 0 0 305.191 15.574 Q 304.857 15.16 305.403 14.616 A 2.586 2.586 0 0 1 305.525 14.502 A 2.544 2.544 0 0 1 306.419 14.027 Q 306.789 13.912 307.235 13.872 A 5.517 5.517 0 0 1 307.723 13.852 A 1.783 1.783 0 0 1 308.877 14.278 A 2.721 2.721 0 0 1 309.27 14.678 Q 309.961 15.485 310.086 16.866 A 7.058 7.058 0 0 1 310.113 17.499 Q 310.113 19.336 309.568 21.103 Q 309.023 22.869 308.074 24.495 Q 307.125 26.121 305.833 27.527 Q 304.541 28.934 303.047 29.971 A 13.733 13.733 0 0 1 300.448 31.428 A 9.792 9.792 0 0 1 296.648 32.221 A 4.333 4.333 0 0 1 295.441 32.064 A 2.912 2.912 0 0 1 293.52 30.34 A 2.828 2.828 0 0 1 293.314 29.664 Q 293.259 29.36 293.256 29.015 A 4.689 4.689 0 0 1 293.256 28.969 A 5.985 5.985 0 0 1 293.317 28.136 Q 293.379 27.699 293.502 27.22 A 17.098 17.098 0 0 1 293.95 25.758 A 19.368 19.368 0 0 1 294.135 25.26 A 36.206 36.206 0 0 1 294.937 23.35 A 39.633 39.633 0 0 1 294.996 23.221 Z M 359.086 22.781 L 359.648 20.584 Q 360.12 18.698 360.256 17.858 A 6.422 6.422 0 0 0 360.29 17.622 Q 360.364 17.022 360.268 16.691 A 0.76 0.76 0 0 0 360.193 16.515 A 1.897 1.897 0 0 0 360.021 16.268 Q 359.914 16.14 359.794 16.051 A 1.123 1.123 0 0 0 359.754 16.023 A 9.261 9.261 0 0 0 359.517 15.867 A 6.894 6.894 0 0 0 359.297 15.732 Q 359.097 15.616 359.118 15.319 A 0.907 0.907 0 0 1 359.121 15.284 Q 359.156 14.959 359.411 14.687 A 2.065 2.065 0 0 1 359.792 14.37 A 2.609 2.609 0 0 1 360.053 14.221 A 3.915 3.915 0 0 1 361.095 13.895 A 3.484 3.484 0 0 1 361.644 13.852 A 5.384 5.384 0 0 1 362.11 13.871 Q 362.586 13.912 362.9 14.045 A 2.228 2.228 0 0 1 363.399 14.333 A 1.928 1.928 0 0 1 363.656 14.572 Q 364.289 15.258 364.219 15.908 Q 364.084 16.945 363.929 17.754 A 19.071 19.071 0 0 1 363.832 18.229 A 16.565 16.565 0 0 1 365.384 16.314 Q 367.571 14.023 369.869 13.864 A 4.974 4.974 0 0 1 370.213 13.852 A 4.387 4.387 0 0 1 371.962 14.183 Q 373.551 14.866 374.238 16.963 A 6.661 6.661 0 0 1 374.475 17.987 Q 374.554 18.494 374.579 19.075 A 12.832 12.832 0 0 1 374.59 19.617 Q 374.59 21.182 374.115 22.755 A 14.161 14.161 0 0 1 372.832 25.734 A 15.023 15.023 0 0 1 370.951 28.327 A 15.516 15.516 0 0 1 369.128 30.052 A 13.954 13.954 0 0 1 368.684 30.393 A 11.992 11.992 0 0 1 366.996 31.424 Q 366.041 31.897 365.129 32.089 A 5.937 5.937 0 0 1 363.902 32.221 A 4.327 4.327 0 0 1 362.43 31.982 Q 361.313 31.581 360.608 30.502 A 4.749 4.749 0 0 1 360.527 30.375 A 1.302 1.302 0 0 1 360.508 30.476 Q 360.401 30.953 359.763 33.152 A 191.526 191.526 0 0 1 359.413 34.344 Q 358.91 36.035 358.541 37.143 Q 357.579 40.012 356.909 41 A 2.474 2.474 0 0 1 356.713 41.256 A 1.977 1.977 0 0 1 356.104 41.715 A 1.835 1.835 0 0 1 355.307 41.889 A 1.574 1.574 0 0 1 354.036 41.294 A 2.349 2.349 0 0 1 353.777 40.904 A 1.244 1.244 0 0 1 353.619 40.312 A 1.467 1.467 0 0 1 353.619 40.28 Q 353.619 39.938 354.146 38.795 A 22.396 22.396 0 0 0 354.849 37.126 Q 356.079 33.896 357.855 27.369 A 557.801 557.801 0 0 0 358.257 25.906 Q 358.857 23.71 359.086 22.781 Z M 222.434 21.322 L 224.402 15.311 A 143.982 143.982 0 0 0 225.463 11.854 Q 226.555 8.115 227.074 5.43 A 33.745 33.745 0 0 0 227.338 3.885 Q 227.531 2.408 228.779 2.408 A 2.337 2.337 0 0 1 229.392 2.485 A 1.833 1.833 0 0 1 230.027 2.795 A 3.342 3.342 0 0 1 230.475 3.228 Q 230.933 3.769 230.933 4.357 A 1.516 1.516 0 0 1 230.933 4.403 A 9.221 9.221 0 0 1 230.86 5.289 Q 230.802 5.741 230.7 6.236 A 15.125 15.125 0 0 1 230.687 6.302 A 31.9 31.9 0 0 1 230.436 7.394 A 41.669 41.669 0 0 1 230.124 8.578 A 60.867 60.867 0 0 1 229.607 10.328 A 71.488 71.488 0 0 1 229.342 11.162 A 405.799 405.799 0 0 1 228.79 12.782 Q 228.019 15.029 227.584 16.19 L 226.582 18.809 A 38.172 38.172 0 0 1 227.312 17.716 Q 228.043 16.662 228.619 16.023 A 6.634 6.634 0 0 1 229.078 15.557 A 7.805 7.805 0 0 1 230.543 14.522 A 5.356 5.356 0 0 1 233.104 13.852 Q 236.18 13.852 237.199 17.068 A 6.994 6.994 0 0 1 237.412 18.037 Q 237.533 18.834 237.533 19.828 A 11.449 11.449 0 0 1 237.05 23.107 A 13.44 13.44 0 0 1 235.74 26.13 A 13.228 13.228 0 0 1 233.815 28.652 A 14.122 14.122 0 0 1 232.103 30.152 A 12.552 12.552 0 0 1 231.504 30.568 A 11.81 11.81 0 0 1 229.523 31.607 Q 228.235 32.125 226.989 32.206 A 7.099 7.099 0 0 1 226.529 32.221 Q 224.104 32.221 222.715 30.744 A 5.109 5.109 0 0 1 221.388 27.661 A 6.773 6.773 0 0 1 221.361 27.053 A 12.583 12.583 0 0 1 221.46 25.454 A 11.242 11.242 0 0 1 221.511 25.102 A 22.342 22.342 0 0 1 221.897 23.221 Q 222.135 22.272 222.434 21.322 Z M 92.426 14.484 L 93.814 14.484 A 73.211 73.211 0 0 1 94.488 12.951 Q 95.865 9.922 96.521 9.422 Q 96.908 9.141 97.383 9.141 A 3.028 3.028 0 0 1 97.717 9.158 Q 97.879 9.176 98.017 9.213 A 1.496 1.496 0 0 1 98.174 9.264 A 1.752 1.752 0 0 1 98.736 9.615 Q 99.299 10.143 99.299 10.793 A 1.43 1.43 0 0 1 99.264 11.096 Q 99.213 11.33 99.088 11.602 L 97.787 14.432 L 98.209 14.432 Q 99.184 14.432 99.821 14.418 A 34.342 34.342 0 0 0 99.967 14.414 L 100.969 14.397 Q 101.295 14.379 101.78 14.379 A 27.856 27.856 0 0 1 101.804 14.379 A 1.002 1.002 0 0 1 101.983 14.394 Q 102.29 14.45 102.304 14.722 A 0.516 0.516 0 0 1 102.305 14.748 A 1.724 1.724 0 0 1 101.329 16.293 Q 100.048 17.036 97.085 17.067 A 24.984 24.984 0 0 1 96.82 17.068 L 96.68 17.068 L 95.484 20.162 A 70.885 70.885 0 0 0 94.648 22.552 Q 93.463 26.162 93.463 27.844 Q 93.463 28.459 93.744 28.802 A 0.78 0.78 0 0 0 94.039 29.017 Q 94.296 29.131 94.699 29.143 A 3.276 3.276 0 0 0 94.799 29.145 Q 95.572 29.145 96.205 28.881 A 6.931 6.931 0 0 0 96.833 28.583 A 5.323 5.323 0 0 0 97.313 28.292 A 24.118 24.118 0 0 0 97.65 28.057 Q 97.916 27.868 98.13 27.703 A 1.979 1.979 0 0 1 98.31 27.579 Q 98.505 27.46 98.664 27.443 A 0.492 0.492 0 0 1 98.719 27.44 A 0.532 0.532 0 0 1 98.954 27.488 Q 99.178 27.597 99.219 27.953 A 1.502 1.502 0 0 1 99.229 28.125 A 1.967 1.967 0 0 1 99.014 29.01 A 2.475 2.475 0 0 1 98.877 29.25 A 3.414 3.414 0 0 1 98.335 30.061 Q 98.047 30.387 97.654 30.702 A 8.01 8.01 0 0 1 96.979 31.184 A 6.999 6.999 0 0 1 95.509 31.911 A 5.379 5.379 0 0 1 93.727 32.221 A 4.764 4.764 0 0 1 92.343 32.034 Q 90.833 31.577 90.243 29.997 A 4.827 4.827 0 0 1 90.141 29.69 Q 89.296 26.858 92.428 18.055 A 107.151 107.151 0 0 1 92.83 16.945 A 12.414 12.414 0 0 1 92.137 16.867 Q 91.145 16.724 90.8 16.458 A 0.465 0.465 0 0 1 90.633 16.242 A 1.036 1.036 0 0 1 90.583 15.99 A 1.227 1.227 0 0 1 90.58 15.899 Q 90.58 15.715 90.747 15.469 A 2.239 2.239 0 0 1 90.979 15.183 A 2.859 2.859 0 0 1 91.178 14.994 Q 91.793 14.484 92.426 14.484 Z M 17.086 14.063 L 4.852 21.182 L 17.42 28.477 Q 18.035 28.828 18.035 29.206 A 1.884 1.884 0 0 1 18.022 29.437 Q 17.995 29.656 17.912 29.804 A 1.312 1.312 0 0 1 17.596 30.182 Q 17.156 30.551 16.594 30.551 A 2.174 2.174 0 0 1 16.074 30.491 A 1.741 1.741 0 0 1 15.609 30.305 L 1.424 22.482 A 10.439 10.439 0 0 1 0.94 22.179 Q 0.232 21.705 0.057 21.369 A 0.448 0.448 0 0 1 0 21.164 A 0.548 0.548 0 0 1 0.102 20.863 Q 0.309 20.549 0.937 20.2 A 6.433 6.433 0 0 1 1.072 20.127 L 16.664 11.531 A 1.798 1.798 0 0 1 16.907 11.424 Q 17.104 11.356 17.279 11.356 A 0.822 0.822 0 0 1 17.633 11.426 Q 18.053 11.624 18.053 12.375 Q 18.053 13.412 17.231 13.971 A 2.432 2.432 0 0 1 17.086 14.063 Z M 436.852 27.791 L 449.068 20.672 L 436.518 13.377 Q 435.902 13.025 435.902 12.648 A 1.884 1.884 0 0 1 435.916 12.417 Q 435.943 12.198 436.025 12.05 Q 436.148 11.83 436.359 11.654 A 1.491 1.491 0 0 1 437.344 11.303 A 2.174 2.174 0 0 1 437.863 11.362 A 1.741 1.741 0 0 1 438.328 11.549 L 452.514 19.371 A 10.439 10.439 0 0 1 452.998 19.675 Q 453.706 20.149 453.88 20.485 A 0.448 0.448 0 0 1 453.938 20.69 A 0.548 0.548 0 0 1 453.835 20.991 Q 453.628 21.305 453.001 21.654 A 6.433 6.433 0 0 1 452.865 21.727 L 437.273 30.322 A 1.798 1.798 0 0 1 437.03 30.429 Q 436.834 30.498 436.658 30.498 A 0.822 0.822 0 0 1 436.304 30.427 Q 435.885 30.229 435.885 29.479 Q 435.885 28.441 436.706 27.882 A 2.432 2.432 0 0 1 436.852 27.791 Z M 330.223 22.395 L 331.699 18.018 Q 334.846 8.877 335.338 3.885 A 2.544 2.544 0 0 1 335.467 3.292 Q 335.787 2.408 336.779 2.408 Q 337.584 2.408 338.11 2.791 A 1.781 1.781 0 0 1 338.115 2.795 A 3.314 3.314 0 0 1 338.608 3.247 Q 339.101 3.81 339.101 4.455 A 1.704 1.704 0 0 1 339.1 4.518 A 9.264 9.264 0 0 1 339.036 5.288 Q 338.952 5.978 338.766 6.829 A 37.842 37.842 0 0 1 338.423 8.253 A 49.88 49.88 0 0 1 337.992 9.8 A 76.648 76.648 0 0 1 337.344 11.882 A 92.014 92.014 0 0 1 336.902 13.201 L 334.477 20.338 A 115.377 115.377 0 0 0 333.766 22.467 Q 332.703 25.764 332.458 27.378 A 5.596 5.596 0 0 0 332.385 28.195 A 1.711 1.711 0 0 0 332.417 28.542 Q 332.542 29.145 333.158 29.145 A 2.981 2.981 0 0 0 334.091 29.002 A 2.715 2.715 0 0 0 334.503 28.828 A 9.175 9.175 0 0 1 334.715 28.721 Q 335.032 28.566 335.193 28.526 A 0.397 0.397 0 0 1 335.285 28.512 A 0.531 0.531 0 0 1 335.431 28.53 Q 335.654 28.594 335.654 28.881 A 2.794 2.794 0 0 1 334.792 30.904 A 4.547 4.547 0 0 1 334.055 31.5 Q 333.309 32.001 332.652 32.154 A 2.46 2.46 0 0 1 332.095 32.221 A 6.108 6.108 0 0 1 331.531 32.196 Q 331.26 32.171 331.032 32.12 A 2.596 2.596 0 0 1 330.662 32.01 A 2.671 2.671 0 0 1 329.803 31.466 A 3.153 3.153 0 0 1 329.678 31.342 A 3.06 3.06 0 0 1 329.22 30.719 A 4.086 4.086 0 0 1 328.966 30.173 Q 328.693 29.461 328.693 28.521 A 5.591 5.591 0 0 1 328.735 27.87 Q 328.815 27.196 329.045 26.298 A 20.384 20.384 0 0 1 329.124 25.998 A 57.148 57.148 0 0 1 329.546 24.53 Q 329.772 23.781 330.039 22.954 A 98.695 98.695 0 0 1 330.223 22.395 Z M 204.293 25.893 Q 204.363 24.363 204.803 22.966 Q 205.242 21.568 205.98 20.259 A 15.824 15.824 0 0 1 207.712 17.78 Q 208.705 16.611 209.865 15.732 Q 212.379 13.852 214.945 13.852 A 5.577 5.577 0 0 1 216.478 14.048 A 3.655 3.655 0 0 1 218.953 16.33 Q 219.288 17.134 219.288 18.216 A 7.136 7.136 0 0 1 219.287 18.325 A 5.718 5.718 0 0 1 219.058 19.874 A 5.159 5.159 0 0 1 218.848 20.452 A 6.18 6.18 0 0 1 217.679 22.228 A 8.207 8.207 0 0 1 216.4 23.333 A 9.615 9.615 0 0 1 215.903 23.66 A 12.059 12.059 0 0 1 213.888 24.648 A 13.445 13.445 0 0 1 213.662 24.732 A 16.355 16.355 0 0 1 209.025 25.625 A 18.713 18.713 0 0 1 208.318 25.647 Q 208.26 25.851 208.238 26.226 A 6.94 6.94 0 0 0 208.23 26.385 A 3.498 3.498 0 0 0 208.228 26.51 Q 208.228 26.953 208.336 27.483 A 3.379 3.379 0 0 0 208.573 28.223 A 2.943 2.943 0 0 0 208.758 28.565 Q 209.391 29.619 210.586 29.619 A 7.193 7.193 0 0 0 213.769 28.86 A 8.997 8.997 0 0 0 214.559 28.424 A 7.028 7.028 0 0 0 215.101 28.072 Q 215.357 27.886 215.563 27.696 A 3.921 3.921 0 0 0 215.675 27.589 A 2.597 2.597 0 0 1 215.883 27.401 Q 216.104 27.223 216.291 27.175 A 0.532 0.532 0 0 1 216.422 27.158 Q 216.738 27.158 216.976 27.536 A 1.56 1.56 0 0 1 217.212 28.344 A 1.873 1.873 0 0 1 217.213 28.389 A 2.761 2.761 0 0 1 217.057 29.328 A 2.48 2.48 0 0 1 216.686 30.006 A 6.991 6.991 0 0 1 213.853 31.693 Q 212.231 32.221 210.094 32.221 Q 207.51 32.221 205.945 30.674 A 5.539 5.539 0 0 1 204.418 27.708 Q 204.287 27.014 204.287 26.231 A 9.702 9.702 0 0 1 204.293 25.893 Z M 276.539 25.893 Q 276.609 24.363 277.049 22.966 Q 277.488 21.568 278.227 20.259 A 15.824 15.824 0 0 1 279.958 17.78 Q 280.951 16.611 282.111 15.732 Q 284.625 13.852 287.191 13.852 A 5.577 5.577 0 0 1 288.724 14.048 A 3.655 3.655 0 0 1 291.199 16.33 Q 291.534 17.134 291.534 18.216 A 7.136 7.136 0 0 1 291.533 18.325 A 5.718 5.718 0 0 1 291.304 19.874 A 5.159 5.159 0 0 1 291.094 20.452 A 6.18 6.18 0 0 1 289.925 22.228 A 8.207 8.207 0 0 1 288.646 23.333 A 9.615 9.615 0 0 1 288.149 23.66 A 12.059 12.059 0 0 1 286.134 24.648 A 13.445 13.445 0 0 1 285.908 24.732 A 16.355 16.355 0 0 1 281.271 25.625 A 18.713 18.713 0 0 1 280.564 25.647 Q 280.506 25.851 280.484 26.226 A 6.94 6.94 0 0 0 280.477 26.385 A 3.498 3.498 0 0 0 280.474 26.51 Q 280.474 26.953 280.582 27.483 A 3.379 3.379 0 0 0 280.819 28.223 A 2.943 2.943 0 0 0 281.004 28.565 Q 281.637 29.619 282.832 29.619 A 7.193 7.193 0 0 0 286.015 28.86 A 8.997 8.997 0 0 0 286.805 28.424 A 7.028 7.028 0 0 0 287.347 28.072 Q 287.603 27.886 287.809 27.696 A 3.921 3.921 0 0 0 287.921 27.589 A 2.597 2.597 0 0 1 288.129 27.401 Q 288.35 27.223 288.537 27.175 A 0.532 0.532 0 0 1 288.668 27.158 Q 288.984 27.158 289.222 27.536 A 1.56 1.56 0 0 1 289.458 28.344 A 1.873 1.873 0 0 1 289.459 28.389 A 2.761 2.761 0 0 1 289.304 29.328 A 2.48 2.48 0 0 1 288.932 30.006 A 6.991 6.991 0 0 1 286.099 31.693 Q 284.477 32.221 282.34 32.221 Q 279.756 32.221 278.191 30.674 A 5.539 5.539 0 0 1 276.664 27.708 Q 276.533 27.014 276.533 26.231 A 9.702 9.702 0 0 1 276.539 25.893 Z M 311.906 25.893 Q 311.977 24.363 312.416 22.966 Q 312.855 21.568 313.594 20.259 A 15.824 15.824 0 0 1 315.325 17.78 Q 316.318 16.611 317.479 15.732 Q 319.992 13.852 322.559 13.852 A 5.577 5.577 0 0 1 324.091 14.048 A 3.655 3.655 0 0 1 326.566 16.33 Q 326.901 17.134 326.901 18.216 A 7.136 7.136 0 0 1 326.9 18.325 A 5.718 5.718 0 0 1 326.671 19.874 A 5.159 5.159 0 0 1 326.461 20.452 A 6.18 6.18 0 0 1 325.292 22.228 A 8.207 8.207 0 0 1 324.013 23.333 A 9.615 9.615 0 0 1 323.517 23.66 A 12.059 12.059 0 0 1 321.501 24.648 A 13.445 13.445 0 0 1 321.275 24.732 A 16.355 16.355 0 0 1 316.638 25.625 A 18.713 18.713 0 0 1 315.932 25.647 Q 315.873 25.851 315.851 26.226 A 6.94 6.94 0 0 0 315.844 26.385 A 3.498 3.498 0 0 0 315.842 26.51 Q 315.842 26.953 315.949 27.483 A 3.379 3.379 0 0 0 316.186 28.223 A 2.943 2.943 0 0 0 316.371 28.565 Q 317.004 29.619 318.199 29.619 A 7.193 7.193 0 0 0 321.382 28.86 A 8.997 8.997 0 0 0 322.172 28.424 A 7.028 7.028 0 0 0 322.714 28.072 Q 322.971 27.886 323.177 27.696 A 3.921 3.921 0 0 0 323.288 27.589 A 2.597 2.597 0 0 1 323.496 27.401 Q 323.717 27.223 323.904 27.175 A 0.532 0.532 0 0 1 324.035 27.158 Q 324.352 27.158 324.589 27.536 A 1.56 1.56 0 0 1 324.826 28.344 A 1.873 1.873 0 0 1 324.826 28.389 A 2.761 2.761 0 0 1 324.671 29.328 A 2.48 2.48 0 0 1 324.299 30.006 A 6.991 6.991 0 0 1 321.466 31.693 Q 319.844 32.221 317.707 32.221 Q 315.123 32.221 313.559 30.674 A 5.539 5.539 0 0 1 312.031 27.708 Q 311.9 27.014 311.9 26.231 A 9.702 9.702 0 0 1 311.906 25.893 Z M 377.279 25.893 Q 377.35 24.363 377.789 22.966 Q 378.229 21.568 378.967 20.259 A 15.824 15.824 0 0 1 380.698 17.78 Q 381.691 16.611 382.852 15.732 Q 385.365 13.852 387.932 13.852 A 5.577 5.577 0 0 1 389.464 14.048 A 3.655 3.655 0 0 1 391.939 16.33 Q 392.274 17.134 392.274 18.216 A 7.136 7.136 0 0 1 392.273 18.325 A 5.718 5.718 0 0 1 392.044 19.874 A 5.159 5.159 0 0 1 391.834 20.452 A 6.18 6.18 0 0 1 390.665 22.228 A 8.207 8.207 0 0 1 389.386 23.333 A 9.615 9.615 0 0 1 388.89 23.66 A 12.059 12.059 0 0 1 386.874 24.648 A 13.445 13.445 0 0 1 386.648 24.732 A 16.355 16.355 0 0 1 382.011 25.625 A 18.713 18.713 0 0 1 381.305 25.647 Q 381.246 25.851 381.224 26.226 A 6.94 6.94 0 0 0 381.217 26.385 A 3.498 3.498 0 0 0 381.215 26.51 Q 381.215 26.953 381.322 27.483 A 3.379 3.379 0 0 0 381.559 28.223 A 2.943 2.943 0 0 0 381.744 28.565 Q 382.377 29.619 383.572 29.619 A 7.193 7.193 0 0 0 386.755 28.86 A 8.997 8.997 0 0 0 387.545 28.424 A 7.028 7.028 0 0 0 388.087 28.072 Q 388.344 27.886 388.55 27.696 A 3.921 3.921 0 0 0 388.661 27.589 A 2.597 2.597 0 0 1 388.869 27.401 Q 389.09 27.223 389.277 27.175 A 0.532 0.532 0 0 1 389.408 27.158 Q 389.725 27.158 389.962 27.536 A 1.56 1.56 0 0 1 390.199 28.344 A 1.873 1.873 0 0 1 390.199 28.389 A 2.761 2.761 0 0 1 390.044 29.328 A 2.48 2.48 0 0 1 389.672 30.006 A 6.991 6.991 0 0 1 386.839 31.693 Q 385.217 32.221 383.08 32.221 Q 380.496 32.221 378.932 30.674 A 5.539 5.539 0 0 1 377.405 27.708 Q 377.273 27.014 377.273 26.231 A 9.702 9.702 0 0 1 377.279 25.893 Z M 38.672 16.014 L 38.32 15.768 A 0.378 0.378 0 0 1 38.206 15.613 Q 38.158 15.502 38.153 15.337 A 0.796 0.796 0 0 1 38.153 15.314 Q 38.153 15.019 38.373 14.748 Q 38.602 14.467 38.971 14.256 A 3.375 3.375 0 0 1 40.031 13.891 A 3.118 3.118 0 0 1 40.526 13.852 A 5.886 5.886 0 0 1 40.992 13.869 Q 41.433 13.904 41.73 14.011 A 1.653 1.653 0 0 1 41.774 14.027 A 2.492 2.492 0 0 1 42.283 14.295 A 2.158 2.158 0 0 1 42.539 14.502 A 2.684 2.684 0 0 1 42.906 14.925 Q 43.21 15.366 43.216 15.838 Q 43.225 16.541 43.058 17.262 A 16.276 16.276 0 0 1 42.662 18.677 Q 42.434 19.371 42.205 19.995 A 19.463 19.463 0 0 0 42.101 20.287 Q 42.005 20.56 41.95 20.751 A 3.516 3.516 0 0 0 41.906 20.918 A 9.288 9.288 0 0 0 41.862 21.119 Q 41.773 21.557 41.8 21.689 A 0.201 0.201 0 0 0 41.801 21.691 Q 42.223 21.322 42.311 20.971 L 42.996 19.67 Q 45.281 15.557 47.461 14.221 Q 48.094 13.852 48.981 13.852 A 2.047 2.047 0 0 1 49.669 13.963 A 1.756 1.756 0 0 1 50.414 14.476 A 2.394 2.394 0 0 1 50.825 15.122 A 2.062 2.062 0 0 1 50.985 15.856 Q 51.012 16.611 50.88 17.112 A 3.598 3.598 0 0 1 50.484 18.053 A 2.855 2.855 0 0 1 50.159 18.506 Q 49.944 18.747 49.702 18.878 A 1.287 1.287 0 0 1 49.078 19.037 A 0.638 0.638 0 0 1 48.705 18.916 A 0.818 0.818 0 0 1 48.656 18.879 L 48.27 18.545 Q 47.689 18.035 47.153 18.035 A 1.069 1.069 0 0 0 46.777 18.111 Q 46.458 18.231 46.076 18.544 A 5.161 5.161 0 0 0 45.853 18.738 Q 45.195 19.343 44.493 20.245 A 18.767 18.767 0 0 0 44.262 20.549 A 33.456 33.456 0 0 0 39.95 28.21 A 37.256 37.256 0 0 0 39.727 28.775 L 38.953 30.815 A 11.588 11.588 0 0 1 38.808 31.166 Q 38.597 31.652 38.426 31.896 A 0.742 0.742 0 0 1 37.884 32.213 A 1.105 1.105 0 0 1 37.749 32.221 A 2.531 2.531 0 0 1 36.923 32.079 A 2.884 2.884 0 0 1 36.853 32.054 A 3.271 3.271 0 0 1 36.24 31.753 A 2.91 2.91 0 0 1 36.053 31.623 A 2.511 2.511 0 0 1 35.687 31.291 A 2.086 2.086 0 0 1 35.49 31.034 A 2.117 2.117 0 0 1 35.38 30.844 Q 35.274 30.637 35.262 30.472 A 0.882 0.882 0 0 1 35.259 30.407 Q 35.259 30.241 35.317 30.029 A 2.517 2.517 0 0 1 35.358 29.892 Q 35.473 29.549 35.666 29.057 A 125.091 125.091 0 0 0 37.063 25.474 Q 38.883 20.565 39.19 18.105 A 7.318 7.318 0 0 0 39.252 17.209 A 2.233 2.233 0 0 0 39.179 16.751 Q 39.103 16.479 38.956 16.282 A 1.146 1.146 0 0 0 38.672 16.014 Z M 396.861 16.014 L 396.51 15.768 A 0.378 0.378 0 0 1 396.395 15.613 Q 396.347 15.502 396.343 15.337 A 0.796 0.796 0 0 1 396.342 15.314 Q 396.342 15.019 396.563 14.748 Q 396.791 14.467 397.16 14.256 A 3.375 3.375 0 0 1 398.22 13.891 A 3.118 3.118 0 0 1 398.716 13.852 A 5.886 5.886 0 0 1 399.181 13.869 Q 399.622 13.904 399.919 14.011 A 1.653 1.653 0 0 1 399.964 14.027 A 2.492 2.492 0 0 1 400.473 14.295 A 2.158 2.158 0 0 1 400.729 14.502 A 2.684 2.684 0 0 1 401.096 14.925 Q 401.399 15.366 401.405 15.838 Q 401.414 16.541 401.247 17.262 A 16.276 16.276 0 0 1 400.852 18.677 Q 400.623 19.371 400.395 19.995 A 19.463 19.463 0 0 0 400.29 20.287 Q 400.195 20.56 400.14 20.751 A 3.516 3.516 0 0 0 400.096 20.918 A 9.288 9.288 0 0 0 400.052 21.119 Q 399.962 21.557 399.99 21.689 A 0.201 0.201 0 0 0 399.99 21.691 Q 400.412 21.322 400.5 20.971 L 401.186 19.67 Q 403.471 15.557 405.65 14.221 Q 406.283 13.852 407.171 13.852 A 2.047 2.047 0 0 1 407.859 13.963 A 1.756 1.756 0 0 1 408.604 14.476 A 2.394 2.394 0 0 1 409.014 15.122 A 2.062 2.062 0 0 1 409.175 15.856 Q 409.201 16.611 409.069 17.112 A 3.598 3.598 0 0 1 408.674 18.053 A 2.855 2.855 0 0 1 408.348 18.506 Q 408.134 18.747 407.891 18.878 A 1.287 1.287 0 0 1 407.268 19.037 A 0.638 0.638 0 0 1 406.895 18.916 A 0.818 0.818 0 0 1 406.846 18.879 L 406.459 18.545 Q 405.879 18.035 405.343 18.035 A 1.069 1.069 0 0 0 404.966 18.111 Q 404.647 18.231 404.266 18.544 A 5.161 5.161 0 0 0 404.042 18.738 Q 403.385 19.343 402.682 20.245 A 18.767 18.767 0 0 0 402.451 20.549 A 33.456 33.456 0 0 0 398.14 28.21 A 37.256 37.256 0 0 0 397.916 28.775 L 397.143 30.815 A 11.588 11.588 0 0 1 396.998 31.166 Q 396.787 31.652 396.615 31.896 A 0.742 0.742 0 0 1 396.073 32.213 A 1.105 1.105 0 0 1 395.938 32.221 A 2.531 2.531 0 0 1 395.112 32.079 A 2.884 2.884 0 0 1 395.042 32.054 A 3.271 3.271 0 0 1 394.43 31.753 A 2.91 2.91 0 0 1 394.242 31.623 A 2.511 2.511 0 0 1 393.876 31.291 A 2.086 2.086 0 0 1 393.68 31.034 A 2.117 2.117 0 0 1 393.569 30.844 Q 393.463 30.637 393.451 30.472 A 0.882 0.882 0 0 1 393.449 30.407 Q 393.449 30.241 393.506 30.029 A 2.517 2.517 0 0 1 393.548 29.892 Q 393.662 29.549 393.855 29.057 A 125.091 125.091 0 0 0 395.253 25.474 Q 397.073 20.565 397.379 18.105 A 7.318 7.318 0 0 0 397.441 17.209 A 2.233 2.233 0 0 0 397.368 16.751 Q 397.293 16.479 397.145 16.282 A 1.146 1.146 0 0 0 396.861 16.014 Z M 51.413 29.674 A 4.579 4.579 0 0 0 52.295 30.85 Q 53.033 31.553 54.044 31.887 A 6.37 6.37 0 0 0 55.161 32.142 A 8.557 8.557 0 0 0 56.347 32.221 A 6.518 6.518 0 0 0 57.322 32.147 A 7.586 7.586 0 0 0 58.975 31.693 A 10.115 10.115 0 0 0 61.236 30.438 A 11.884 11.884 0 0 0 63.58 28.125 Q 65.549 25.611 66.287 22.606 Q 66.787 20.583 66.628 18.93 A 6.91 6.91 0 0 0 66.182 17.033 Q 65.279 14.796 63.221 14.132 A 6.311 6.311 0 0 0 61.277 13.852 A 7.847 7.847 0 0 0 58.151 14.51 A 10.321 10.321 0 0 0 55.951 15.82 Q 54.773 16.734 53.798 17.965 Q 52.822 19.195 52.128 20.602 Q 51.434 22.008 51.056 23.52 A 15.846 15.846 0 0 0 51.054 23.525 Q 50.695 24.967 50.695 26.377 A 11.032 11.032 0 0 0 50.695 26.508 A 10.403 10.403 0 0 0 50.699 26.691 Q 50.739 28.052 51.135 29.066 A 5.714 5.714 0 0 0 51.413 29.674 Z M 339.606 29.674 A 4.579 4.579 0 0 0 340.488 30.85 Q 341.227 31.553 342.237 31.887 A 6.37 6.37 0 0 0 343.354 32.142 A 8.557 8.557 0 0 0 344.54 32.221 A 6.518 6.518 0 0 0 345.515 32.147 A 7.586 7.586 0 0 0 347.168 31.693 A 10.115 10.115 0 0 0 349.429 30.438 A 11.884 11.884 0 0 0 351.773 28.125 Q 353.742 25.611 354.48 22.606 Q 354.981 20.583 354.822 18.93 A 6.91 6.91 0 0 0 354.375 17.033 Q 353.473 14.796 351.415 14.132 A 6.311 6.311 0 0 0 349.471 13.852 A 7.847 7.847 0 0 0 346.344 14.51 A 10.321 10.321 0 0 0 344.145 15.82 Q 342.967 16.734 341.991 17.965 Q 341.016 19.195 340.321 20.602 Q 339.627 22.008 339.249 23.52 A 15.846 15.846 0 0 0 339.248 23.525 Q 338.888 24.967 338.888 26.377 A 11.032 11.032 0 0 0 338.889 26.508 A 10.403 10.403 0 0 0 338.892 26.691 Q 338.933 28.052 339.328 29.066 A 5.714 5.714 0 0 0 339.606 29.674 Z M 55.652 22.324 Q 55.125 23.625 54.817 24.996 Q 54.51 26.367 54.527 27.589 Q 54.539 28.384 54.695 28.956 A 2.791 2.791 0 0 0 54.905 29.505 Q 55.266 30.199 56.074 30.199 A 2.503 2.503 0 0 0 57.149 29.949 A 3.4 3.4 0 0 0 57.665 29.646 A 6.69 6.69 0 0 0 58.484 28.956 A 9.115 9.115 0 0 0 59.186 28.178 A 12.837 12.837 0 0 0 60.053 26.959 A 16.025 16.025 0 0 0 60.574 26.068 A 20.092 20.092 0 0 0 61.717 23.572 Q 62.789 20.742 62.754 18.545 A 7.324 7.324 0 0 0 62.713 17.741 Q 62.575 16.492 61.963 16.084 A 1.105 1.105 0 0 0 61.664 15.947 Q 61.523 15.906 61.355 15.887 A 2.597 2.597 0 0 0 61.075 15.873 Q 60.667 15.873 60.174 16.138 A 4.02 4.02 0 0 0 59.766 16.392 Q 59.075 16.877 58.384 17.677 A 11.109 11.109 0 0 0 58.289 17.789 A 13.09 13.09 0 0 0 57.475 18.872 A 16.946 16.946 0 0 0 56.865 19.846 Q 56.18 21.024 55.652 22.324 Z M 343.846 22.324 Q 343.318 23.625 343.011 24.996 Q 342.703 26.367 342.721 27.589 Q 342.732 28.384 342.889 28.956 A 2.791 2.791 0 0 0 343.099 29.505 Q 343.459 30.199 344.268 30.199 A 2.503 2.503 0 0 0 345.342 29.949 A 3.4 3.4 0 0 0 345.858 29.646 A 6.69 6.69 0 0 0 346.677 28.956 A 9.115 9.115 0 0 0 347.379 28.178 A 12.837 12.837 0 0 0 348.246 26.959 A 16.025 16.025 0 0 0 348.768 26.068 A 20.092 20.092 0 0 0 349.91 23.572 Q 350.982 20.742 350.947 18.545 A 7.324 7.324 0 0 0 350.907 17.741 Q 350.768 16.492 350.156 16.084 A 1.105 1.105 0 0 0 349.857 15.947 Q 349.717 15.906 349.548 15.887 A 2.597 2.597 0 0 0 349.269 15.873 Q 348.861 15.873 348.367 16.138 A 4.02 4.02 0 0 0 347.959 16.392 Q 347.268 16.877 346.578 17.677 A 11.109 11.109 0 0 0 346.482 17.789 A 13.09 13.09 0 0 0 345.669 18.872 A 16.946 16.946 0 0 0 345.059 19.846 Q 344.373 21.024 343.846 22.324 Z M 226.283 29.936 A 4.129 4.129 0 0 0 227.988 29.549 Q 228.577 29.284 229.173 28.837 A 8.584 8.584 0 0 0 229.641 28.459 A 9.935 9.935 0 0 0 232.154 25.052 Q 232.762 23.735 233.116 22.129 A 17.543 17.543 0 0 0 233.139 22.025 A 13.341 13.341 0 0 0 233.437 19.262 A 14.725 14.725 0 0 0 233.438 19.169 A 10.467 10.467 0 0 0 233.417 18.482 Q 233.354 17.534 233.104 17.086 A 1.211 1.211 0 0 0 232.795 16.716 Q 232.504 16.488 232.075 16.488 A 1.953 1.953 0 0 0 231.368 16.628 Q 231.004 16.769 230.625 17.051 A 8.666 8.666 0 0 0 229.95 17.612 Q 229.618 17.916 229.274 18.284 A 15.465 15.465 0 0 0 229.043 18.536 A 17.492 17.492 0 0 0 228.119 19.663 A 22.169 22.169 0 0 0 227.408 20.663 A 23.581 23.581 0 0 0 225.949 23.15 A 18.267 18.267 0 0 0 225.198 24.836 Q 224.528 26.591 224.525 27.947 A 5.5 5.5 0 0 0 224.525 27.958 A 3.239 3.239 0 0 0 224.604 28.704 Q 224.843 29.713 225.818 29.895 A 2.534 2.534 0 0 0 226.283 29.936 Z M 363.243 22.878 A 16.423 16.423 0 0 0 362.363 24.886 A 14.696 14.696 0 0 0 362.206 25.348 A 9.096 9.096 0 0 0 361.936 26.384 Q 361.811 27.024 361.811 27.598 A 3.899 3.899 0 0 0 361.872 28.312 Q 361.975 28.864 362.25 29.276 A 1.414 1.414 0 0 0 363.28 29.918 A 2.005 2.005 0 0 0 363.551 29.936 A 3.378 3.378 0 0 0 364.838 29.674 A 4.222 4.222 0 0 0 365.265 29.47 A 6.848 6.848 0 0 0 366.31 28.76 A 8.59 8.59 0 0 0 366.917 28.213 A 10.588 10.588 0 0 0 367.956 27.012 A 12.759 12.759 0 0 0 368.411 26.358 A 14.595 14.595 0 0 0 369.615 24.1 A 14.845 14.845 0 0 0 370.41 21.719 A 11.06 11.06 0 0 0 370.723 19.16 A 7.746 7.746 0 0 0 370.69 18.424 Q 370.618 17.675 370.389 17.191 A 1.491 1.491 0 0 0 370.159 16.836 A 1.021 1.021 0 0 0 369.36 16.488 Q 368.751 16.488 368.095 16.901 A 3.98 3.98 0 0 0 367.91 17.024 A 8.385 8.385 0 0 0 367.235 17.561 Q 366.793 17.949 366.328 18.448 Q 365.502 19.336 364.693 20.487 A 20.777 20.777 0 0 0 363.243 22.878 Z M 150.421 26.15 A 23.389 23.389 0 0 0 150.486 26.051 A 23.456 23.456 0 0 0 153.896 18.088 A 2.529 2.529 0 0 0 153.738 17.318 A 1.96 1.96 0 0 0 152.895 16.33 Q 152.599 16.149 152.019 16.138 A 4.049 4.049 0 0 0 151.937 16.137 Q 151.295 16.137 150.442 16.603 A 6.848 6.848 0 0 0 149.397 17.312 A 8.59 8.59 0 0 0 148.79 17.859 A 10.588 10.588 0 0 0 147.752 19.061 A 12.759 12.759 0 0 0 147.296 19.714 A 14.595 14.595 0 0 0 146.092 21.973 A 14.091 14.091 0 0 0 145.181 24.948 A 11.784 11.784 0 0 0 144.984 27.079 Q 144.984 28.626 145.5 29.217 A 1.058 1.058 0 0 0 146.338 29.584 Q 148.123 29.584 150.421 26.15 Z M 265.979 26.15 A 23.389 23.389 0 0 0 266.045 26.051 A 23.456 23.456 0 0 0 269.455 18.088 A 2.529 2.529 0 0 0 269.296 17.318 A 1.96 1.96 0 0 0 268.453 16.33 Q 268.157 16.149 267.578 16.138 A 4.049 4.049 0 0 0 267.495 16.137 Q 266.854 16.137 266.001 16.603 A 6.848 6.848 0 0 0 264.956 17.312 A 8.59 8.59 0 0 0 264.349 17.859 A 10.588 10.588 0 0 0 263.31 19.061 A 12.759 12.759 0 0 0 262.854 19.714 A 14.595 14.595 0 0 0 261.65 21.973 A 14.091 14.091 0 0 0 260.74 24.948 A 11.784 11.784 0 0 0 260.543 27.079 Q 260.543 28.626 261.059 29.217 A 1.058 1.058 0 0 0 261.896 29.584 Q 263.682 29.584 265.979 26.15 Z M 171.422 22.553 L 163.652 22.553 Q 162.716 22.553 162.655 21.878 A 1.084 1.084 0 0 1 162.65 21.779 Q 162.65 21.076 163.16 20.461 Q 164.046 19.388 164.552 19.388 A 0.461 0.461 0 0 1 164.584 19.389 L 172.705 19.389 A 1.233 1.233 0 0 1 173.002 19.421 Q 173.389 19.518 173.462 19.9 A 1.028 1.028 0 0 1 173.479 20.092 A 2.041 2.041 0 0 1 173.06 21.329 A 2.605 2.605 0 0 1 172.969 21.445 A 6.305 6.305 0 0 1 172.588 21.877 Q 172.177 22.299 171.824 22.458 A 0.983 0.983 0 0 1 171.422 22.553 Z M 250.646 22.553 L 242.877 22.553 Q 241.941 22.553 241.879 21.878 A 1.084 1.084 0 0 1 241.875 21.779 Q 241.875 21.076 242.385 20.461 Q 243.271 19.388 243.777 19.388 A 0.461 0.461 0 0 1 243.809 19.389 L 251.93 19.389 A 1.233 1.233 0 0 1 252.226 19.421 Q 252.613 19.518 252.686 19.9 A 1.028 1.028 0 0 1 252.703 20.092 A 2.041 2.041 0 0 1 252.284 21.329 A 2.605 2.605 0 0 1 252.193 21.445 A 6.305 6.305 0 0 1 251.813 21.877 Q 251.401 22.299 251.049 22.458 A 0.983 0.983 0 0 1 250.646 22.553 Z M 214.559 16.19 A 2.98 2.98 0 0 0 212.971 16.674 Q 212.03 17.258 211.128 18.546 A 11.749 11.749 0 0 0 211.008 18.721 A 17.066 17.066 0 0 0 209.529 21.511 A 22.342 22.342 0 0 0 208.688 23.889 A 8.542 8.542 0 0 0 213.785 21.568 A 9.457 9.457 0 0 0 214.74 20.52 Q 215.771 19.184 215.771 17.93 A 3.697 3.697 0 0 0 215.725 17.316 Q 215.535 16.19 214.559 16.19 Z M 286.805 16.19 A 2.98 2.98 0 0 0 285.217 16.674 Q 284.276 17.258 283.374 18.546 A 11.749 11.749 0 0 0 283.254 18.721 A 17.066 17.066 0 0 0 281.775 21.511 A 22.342 22.342 0 0 0 280.934 23.889 A 8.542 8.542 0 0 0 286.031 21.568 A 9.457 9.457 0 0 0 286.986 20.52 Q 288.018 19.184 288.018 17.93 A 3.697 3.697 0 0 0 287.971 17.316 Q 287.781 16.19 286.805 16.19 Z M 322.172 16.19 A 2.98 2.98 0 0 0 320.584 16.674 Q 319.643 17.258 318.741 18.546 A 11.749 11.749 0 0 0 318.621 18.721 A 17.066 17.066 0 0 0 317.142 21.511 A 22.342 22.342 0 0 0 316.301 23.889 A 8.542 8.542 0 0 0 321.398 21.568 A 9.457 9.457 0 0 0 322.353 20.52 Q 323.385 19.184 323.385 17.93 A 3.697 3.697 0 0 0 323.338 17.316 Q 323.148 16.19 322.172 16.19 Z M 387.545 16.19 A 2.98 2.98 0 0 0 385.957 16.674 Q 385.016 17.258 384.114 18.546 A 11.749 11.749 0 0 0 383.994 18.721 A 17.066 17.066 0 0 0 382.516 21.511 A 22.342 22.342 0 0 0 381.674 23.889 A 8.542 8.542 0 0 0 386.771 21.568 A 9.457 9.457 0 0 0 387.726 20.52 Q 388.758 19.184 388.758 17.93 A 3.697 3.697 0 0 0 388.712 17.316 Q 388.521 16.19 387.545 16.19 Z" vector-effect="non-scaling-stroke"/>
    </g>
</svg>