<svg viewBox="0 0 168.701 94.434"
    xmlns="http://www.w3.org/2000/svg">
    <g id="svgGroup" stroke-linecap="round" fill-rule="evenodd" font-size="9pt" stroke="#000" stroke-width="0.25mm" fill="black" style="stroke:#000;stroke-width:0.25mm;fill:black">
        <path d="M 131.787 88.477 L 133.057 90.674 A 1.506 1.506 0 0 1 132.966 90.728 Q 132.691 90.881 131.738 91.358 A 18.588 18.588 0 0 1 130.846 91.772 Q 129.912 92.179 128.662 92.627 A 32.701 32.701 0 0 1 126.624 93.28 Q 125.537 93.591 124.317 93.872 A 22.587 22.587 0 0 1 119.238 94.434 Q 114.942 94.434 111.524 92.92 A 16.118 16.118 0 0 1 105.738 88.648 A 18.343 18.343 0 0 1 102.852 83.99 A 22.37 22.37 0 0 1 102.1 82.007 A 25.406 25.406 0 0 1 101.009 76.821 A 32.018 32.018 0 0 1 100.83 73.389 A 42.706 42.706 0 0 1 101.111 68.622 A 57.919 57.919 0 0 1 101.953 63.403 A 111.929 111.929 0 0 1 104.022 55.058 A 126.792 126.792 0 0 1 104.883 52.197 Q 106.69 46.436 108.96 40.674 A 278.16 278.16 0 0 1 112.393 32.347 A 245.037 245.037 0 0 1 113.55 29.712 A 365.455 365.455 0 0 1 115.814 24.732 A 283.343 283.343 0 0 1 117.969 20.191 A 397.91 397.91 0 0 1 118.982 18.12 Q 120.435 15.172 121.564 13.023 A 137.771 137.771 0 0 1 121.582 12.988 A 1065.505 1065.505 0 0 0 119.04 15.905 Q 117.742 17.399 116.306 19.063 A 1833.32 1833.32 0 0 0 115.332 20.191 A 412.101 412.101 0 0 0 111.701 24.463 A 519.088 519.088 0 0 0 107.837 29.126 A 546.105 546.105 0 0 0 103.778 34.143 A 639.025 639.025 0 0 0 99.561 39.478 A 495.52 495.52 0 0 0 91.03 50.718 A 536.806 536.806 0 0 0 90.894 50.903 Q 86.524 56.836 82.227 63.062 Q 77.93 69.287 74.024 75.586 L 71.68 74.805 Q 72.412 66.846 74.097 59.009 A 213.805 213.805 0 0 1 77.642 44.83 A 195.74 195.74 0 0 1 77.905 43.921 A 213.105 213.105 0 0 1 80.941 34.366 A 181.727 181.727 0 0 1 82.398 30.298 A 304.111 304.111 0 0 1 84.676 24.351 Q 85.787 21.541 86.846 19.057 A 185.561 185.561 0 0 1 86.914 18.897 Q 83.643 23.389 80.396 28.638 Q 77.149 33.887 73.828 39.429 A 605.684 605.684 0 0 1 66.992 50.562 A 172.674 172.674 0 0 1 59.668 61.304 Q 55.86 66.455 51.636 70.923 A 57.481 57.481 0 0 1 43.392 78.165 A 53.08 53.08 0 0 1 42.652 78.687 A 42.793 42.793 0 0 1 32.495 83.887 A 33.941 33.941 0 0 1 22.474 85.761 A 38.869 38.869 0 0 1 20.947 85.791 A 27.393 27.393 0 0 1 15.964 85.356 A 22.129 22.129 0 0 1 12.354 84.375 A 21.605 21.605 0 0 1 7.961 82.195 A 18.593 18.593 0 0 1 5.738 80.493 A 17.04 17.04 0 0 1 1.489 74.707 A 17.269 17.269 0 0 1 0.002 67.8 A 19.841 19.841 0 0 1 0 67.529 A 20.401 20.401 0 0 1 0.373 63.55 A 16.61 16.61 0 0 1 1.197 60.718 A 19.232 19.232 0 0 1 4.148 55.597 A 18.207 18.207 0 0 1 4.395 55.298 Q 6.397 52.93 9.058 51.196 A 29.688 29.688 0 0 1 14.649 48.34 Q 17.578 47.217 20.581 46.68 A 34.382 34.382 0 0 1 24.539 46.198 A 29.222 29.222 0 0 1 26.319 46.143 A 43.219 43.219 0 0 1 36.51 47.323 A 40.304 40.304 0 0 1 37.158 47.486 A 29.195 29.195 0 0 1 45.159 50.943 A 34.532 34.532 0 0 1 47.119 52.246 L 45.41 54.151 A 0.401 0.401 0 0 0 45.38 54.126 Q 45.209 53.995 44.141 53.247 Q 43.038 52.475 41.059 51.564 A 42.115 42.115 0 0 0 40.625 51.367 A 25.093 25.093 0 0 0 38.579 50.566 Q 37.562 50.215 36.393 49.891 A 49.046 49.046 0 0 0 34.937 49.512 Q 31.543 48.682 27.197 48.682 A 29.447 29.447 0 0 0 19.068 49.805 A 21.649 21.649 0 0 0 13.922 51.997 A 19.43 19.43 0 0 0 12.134 53.198 A 16.906 16.906 0 0 0 7.324 58.911 A 15.506 15.506 0 0 0 5.777 63.649 A 20.705 20.705 0 0 0 5.518 66.992 A 14.93 14.93 0 0 0 6.308 71.882 A 13.971 13.971 0 0 0 6.812 73.145 A 14.885 14.885 0 0 0 10.401 78.052 A 15.957 15.957 0 0 0 14.506 80.722 A 19.115 19.115 0 0 0 15.918 81.299 A 19.472 19.472 0 0 0 20.644 82.354 A 24.035 24.035 0 0 0 23.047 82.471 Q 28.906 82.471 34.278 79.981 A 43.707 43.707 0 0 0 42.114 75.257 A 51.392 51.392 0 0 0 44.629 73.242 A 72.503 72.503 0 0 0 51.304 66.732 A 85.743 85.743 0 0 0 54.224 63.33 A 170.139 170.139 0 0 0 63.111 51.367 Q 67.383 45.069 71.387 38.428 Q 75.391 31.787 79.151 25.611 A 390.657 390.657 0 0 1 84.228 17.487 A 329.966 329.966 0 0 1 86.475 14.038 Q 90.039 8.643 93.457 4.737 L 95.655 6.055 A 1335.583 1335.583 0 0 0 94.126 10.739 Q 92.92 14.456 91.944 17.554 Q 90.381 22.51 89.234 26.27 A 954.812 954.812 0 0 0 88.421 28.945 Q 88.103 30 87.817 30.955 A 507.064 507.064 0 0 0 87.28 32.764 Q 86.588 35.114 86.058 37.031 A 181.864 181.864 0 0 0 85.889 37.647 A 997.998 997.998 0 0 0 85.338 39.676 Q 85.077 40.64 84.846 41.501 A 553.124 553.124 0 0 0 84.839 41.528 A 1000.345 1000.345 0 0 1 83.911 44.971 A 103.158 103.158 0 0 1 83.417 46.729 A 123.102 123.102 0 0 1 82.862 48.584 A 176.281 176.281 0 0 1 82.388 50.098 Q 82.176 50.765 81.94 51.491 A 307.362 307.362 0 0 1 81.446 53.003 Q 80.732 55.164 79.802 57.902 A 909.498 909.498 0 0 1 79.492 58.814 A 388.097 388.097 0 0 1 78.581 61.454 Q 77.765 63.794 76.758 66.602 A 376.963 376.963 0 0 1 85.181 54.395 Q 89.502 48.389 93.799 42.774 A 573.658 573.658 0 0 1 100.148 34.625 A 514.752 514.752 0 0 1 102.222 32.031 Q 106.348 26.904 110.034 22.51 A 835.931 835.931 0 0 1 113.574 18.317 A 628.815 628.815 0 0 1 116.822 14.527 Q 118.953 12.059 120.704 10.088 A 262.602 262.602 0 0 1 122.217 8.399 A 1891.154 1891.154 0 0 1 123.302 7.199 Q 124.835 5.506 125.806 4.444 Q 126.935 3.208 127.116 3.013 A 1.974 1.974 0 0 1 127.149 2.979 L 129.199 4.492 A 2174.688 2174.688 0 0 0 123.487 18.775 A 1571.227 1571.227 0 0 0 118.206 32.29 A 1445.843 1445.843 0 0 0 118.042 32.715 Q 115.43 39.502 113.184 45.801 A 285.044 285.044 0 0 0 111.084 51.898 A 226.632 226.632 0 0 0 109.278 57.593 A 143.378 143.378 0 0 0 107.815 62.764 Q 107.17 65.23 106.696 67.459 A 87.161 87.161 0 0 0 106.665 67.603 Q 105.941 71.039 105.768 73.726 A 25.147 25.147 0 0 0 105.713 75.342 A 27.699 27.699 0 0 0 105.961 79.128 A 21.347 21.347 0 0 0 106.616 82.227 Q 107.52 85.303 109.229 87.451 A 11.331 11.331 0 0 0 113.452 90.747 A 12.683 12.683 0 0 0 117.21 91.781 A 15.986 15.986 0 0 0 119.141 91.895 Q 121.533 91.895 123.804 91.358 A 43.901 43.901 0 0 0 125.883 90.814 Q 126.926 90.513 127.832 90.186 A 41.029 41.029 0 0 0 128.96 89.761 Q 129.46 89.564 129.886 89.377 A 17.077 17.077 0 0 0 130.664 89.014 Q 131.644 88.524 131.771 88.481 A 0.065 0.065 0 0 1 131.787 88.477 Z M 137.012 42.432 L 130.615 56.69 Q 133.155 53.174 136.011 49.927 A 61.81 61.81 0 0 1 139.882 45.894 A 52.158 52.158 0 0 1 141.797 44.165 A 33.031 33.031 0 0 1 145.108 41.653 A 26.583 26.583 0 0 1 147.705 40.137 A 14.733 14.733 0 0 1 150.556 39.026 A 11.381 11.381 0 0 1 153.516 38.623 A 9.456 9.456 0 0 1 154.697 38.693 Q 155.677 38.816 156.397 39.16 A 5.667 5.667 0 0 1 157.397 39.765 A 4.417 4.417 0 0 1 158.179 40.528 A 4.966 4.966 0 0 1 159.107 42.407 A 8.39 8.39 0 0 1 159.374 44.354 A 7.847 7.847 0 0 1 159.375 44.483 A 8.841 8.841 0 0 1 159.217 46.108 A 12.095 12.095 0 0 1 158.814 47.656 A 13.286 13.286 0 0 1 157.883 49.802 A 16.604 16.604 0 0 1 157.105 51.099 Q 155.957 52.832 154.199 54.419 A 18.334 18.334 0 0 1 151.769 56.257 A 23.08 23.08 0 0 1 150 57.276 A 6.358 6.358 0 0 1 150.386 58.584 Q 150.537 59.392 150.537 60.352 A 9.148 9.148 0 0 1 150.247 62.613 A 10.273 10.273 0 0 1 150.244 62.622 Q 149.951 63.77 149.61 64.893 Q 149.268 66.016 148.975 67.163 A 9.34 9.34 0 0 0 148.682 69.483 A 8.494 8.494 0 0 0 148.73 70.403 A 7.575 7.575 0 0 0 148.755 70.606 A 3.265 3.265 0 0 0 148.92 71.283 A 2.841 2.841 0 0 0 149.048 71.582 A 1.646 1.646 0 0 0 149.613 72.216 A 2.033 2.033 0 0 0 149.732 72.29 A 1.723 1.723 0 0 0 150.14 72.456 Q 150.513 72.559 151.026 72.559 Q 152.002 72.559 153.272 71.753 A 15.158 15.158 0 0 0 154.411 70.95 Q 155.161 70.371 155.957 69.629 A 34.086 34.086 0 0 0 157.573 68.015 A 43.736 43.736 0 0 0 158.863 66.577 Q 160.352 64.844 161.768 62.94 A 168.038 168.038 0 0 0 164.502 59.155 A 128.559 128.559 0 0 0 165.759 57.331 A 102.764 102.764 0 0 0 166.895 55.615 L 168.701 56.983 Q 166.211 60.694 163.843 64.063 Q 161.475 67.432 159.107 69.971 A 27.562 27.562 0 0 1 156.72 72.254 A 20.688 20.688 0 0 1 154.297 74.024 A 10.267 10.267 0 0 1 151.603 75.221 A 8.785 8.785 0 0 1 149.268 75.537 A 7.905 7.905 0 0 1 147.705 75.376 A 9.322 9.322 0 0 1 147.144 75.244 Q 146.045 74.951 145.142 74.292 Q 144.238 73.633 143.653 72.559 A 4.576 4.576 0 0 1 143.2 71.3 Q 143.084 70.748 143.069 70.112 A 8.098 8.098 0 0 1 143.067 69.922 A 9.208 9.208 0 0 1 143.22 68.31 Q 143.36 67.525 143.627 66.654 A 19.402 19.402 0 0 1 143.994 65.576 A 63.623 63.623 0 0 0 144.513 64.054 Q 144.959 62.687 145.215 61.646 A 21.128 21.128 0 0 0 145.443 60.615 Q 145.622 59.69 145.655 58.985 A 32.768 32.768 0 0 1 144.083 59.317 A 37.994 37.994 0 0 1 143.482 59.424 A 13.936 13.936 0 0 1 142.095 59.592 A 11.527 11.527 0 0 1 141.309 59.619 A 5.497 5.497 0 0 1 140.692 59.583 A 7.265 7.265 0 0 1 140.137 59.497 A 4.027 4.027 0 0 1 139.016 59.109 A 3.805 3.805 0 0 1 138.965 59.082 Q 138.428 58.789 138.062 58.325 Q 137.696 57.862 137.696 57.129 Q 137.696 56.397 138.159 55.737 A 4.011 4.011 0 0 1 138.852 54.989 A 5.245 5.245 0 0 1 139.429 54.566 A 5.907 5.907 0 0 1 140.405 54.071 A 7.959 7.959 0 0 1 141.358 53.76 A 8.858 8.858 0 0 1 142.698 53.523 A 11.366 11.366 0 0 1 143.848 53.467 A 7.87 7.87 0 0 1 146.102 53.777 A 6.518 6.518 0 0 1 148.194 54.834 Q 149.951 53.467 151.099 51.856 A 18.793 18.793 0 0 0 152.118 50.269 A 14.181 14.181 0 0 0 152.881 48.731 Q 153.41 47.47 153.668 46.429 A 10.11 10.11 0 0 0 153.76 46.021 A 20.699 20.699 0 0 0 153.867 45.461 Q 153.966 44.897 153.993 44.512 A 3.842 3.842 0 0 0 154.004 44.238 A 6.973 6.973 0 0 0 153.968 43.495 Q 153.858 42.475 153.418 42.017 A 1.962 1.962 0 0 0 152.704 41.532 A 1.94 1.94 0 0 0 152.002 41.406 A 5.705 5.705 0 0 0 150.565 41.603 Q 149.929 41.768 149.243 42.074 A 11.689 11.689 0 0 0 148.511 42.432 Q 146.582 43.457 144.507 45.215 Q 142.432 46.973 140.259 49.268 A 88.317 88.317 0 0 0 136.011 54.102 A 145.431 145.431 0 0 0 132.007 59.229 Q 130.078 61.817 128.467 64.112 A 148.87 148.87 0 0 0 127.082 66.467 A 114.728 114.728 0 0 0 125.855 68.653 A 239.971 239.971 0 0 0 125.046 70.145 Q 124.73 70.732 124.45 71.263 A 122.919 122.919 0 0 0 123.926 72.266 A 149.933 149.933 0 0 1 123.557 72.977 Q 123.198 73.663 122.93 74.154 A 35.4 35.4 0 0 1 122.705 74.561 Q 122.271 75.333 122.218 75.103 A 0.199 0.199 0 0 1 122.217 75.098 L 117.383 73.828 A 3086.138 3086.138 0 0 1 129.053 47.559 A 955.33 955.33 0 0 1 141.504 20.996 A 144.899 144.899 0 0 1 142.548 18.952 A 191.693 191.693 0 0 1 143.726 16.724 A 84.998 84.998 0 0 1 146.411 12.085 A 64.907 64.907 0 0 1 149.488 7.569 A 34.619 34.619 0 0 1 151.57 5.022 A 28.701 28.701 0 0 1 152.857 3.687 A 18.756 18.756 0 0 1 154.774 2.049 A 14.801 14.801 0 0 1 156.397 1.001 Q 158.203 0 160.01 0 Q 161.914 0 163.111 1.074 A 3.266 3.266 0 0 1 163.989 2.413 Q 164.185 2.95 164.26 3.617 A 7.822 7.822 0 0 1 164.307 4.492 Q 164.307 6.815 163.406 9.861 A 36.327 36.327 0 0 1 162.573 12.329 A 41.729 41.729 0 0 1 160.459 17.007 Q 159.32 19.181 157.849 21.464 A 68.693 68.693 0 0 1 157.422 22.119 A 66.27 66.27 0 0 1 153.044 27.981 A 85.675 85.675 0 0 1 148.902 32.593 A 68.892 68.892 0 0 1 140.696 39.818 A 81.044 81.044 0 0 1 137.012 42.432 Z M 139.16 37.744 A 81.168 81.168 0 0 0 145.29 32.496 A 65.246 65.246 0 0 0 149.341 28.296 A 80.539 80.539 0 0 0 153.235 23.529 A 59.195 59.195 0 0 0 156.372 18.945 A 52.012 52.012 0 0 0 158.506 15.141 Q 159.469 13.229 160.129 11.453 A 29.05 29.05 0 0 0 160.425 10.62 Q 161.274 8.105 161.566 6.126 A 13.257 13.257 0 0 0 161.719 4.199 A 2.235 2.235 0 0 0 161.669 3.711 Q 161.587 3.347 161.374 3.081 A 1.414 1.414 0 0 0 161.328 3.028 A 1.205 1.205 0 0 0 160.809 2.691 Q 160.51 2.588 160.108 2.588 A 4.148 4.148 0 0 0 158.392 2.98 Q 157.408 3.423 156.397 4.37 A 14.156 14.156 0 0 0 155.173 5.691 Q 153.948 7.174 152.544 9.473 A 57.41 57.41 0 0 0 152.075 10.254 Q 150.451 13.01 148.508 16.956 A 196.444 196.444 0 0 0 146.533 21.094 A 444.188 444.188 0 0 0 144.032 26.594 Q 141.815 31.549 139.16 37.744 Z M 145.41 56.787 A 2.242 2.242 0 0 0 144.967 56.149 A 2.973 2.973 0 0 0 144.605 55.835 Q 144.043 55.42 143.36 55.42 A 5.797 5.797 0 0 0 142.029 55.567 A 4.618 4.618 0 0 0 140.869 56.006 A 4.9 4.9 0 0 0 140.464 56.251 Q 140.073 56.517 139.911 56.772 A 0.663 0.663 0 0 0 139.795 57.129 A 0.489 0.489 0 0 0 139.858 57.38 Q 139.965 57.565 140.259 57.642 A 3.967 3.967 0 0 0 140.691 57.731 A 2.908 2.908 0 0 0 141.113 57.764 A 9.646 9.646 0 0 0 142.552 57.661 A 7.932 7.932 0 0 0 143.457 57.471 A 15.047 15.047 0 0 0 144.604 57.11 A 12.074 12.074 0 0 0 145.41 56.787 Z" vector-effect="non-scaling-stroke"/>
    </g>
</svg>