<svg viewBox="0 0 678 520" fill="none"
    xmlns="http://www.w3.org/2000/svg">
    <g clip-path="url(#clip0)">
        <path d="M362.285 110.159C386.865 110.159 406.791 90.9069 406.791 67.1588C406.791 43.4107 386.865 24.1591 362.285 24.1591C337.705 24.1591 317.779 43.4107 317.779 67.1588C317.779 90.9069 337.705 110.159 362.285 110.159Z" fill="#FF6584"/>
        <path d="M228.277 274.104C228.277 357.154 177.175 386.152 114.138 386.152C51.1015 386.152 0 357.154 0 274.104C0 191.054 114.138 85.4016 114.138 85.4016C114.138 85.4016 228.277 191.054 228.277 274.104Z" fill="#F2F2F2"/>
        <path d="M109.981 373.448L111.149 303.943L159.798 217.955L111.333 293.039L111.858 261.787L145.387 199.575L111.997 253.516L112.943 197.308L148.845 147.779L113.091 188.469L113.681 85.4015L109.97 221.844L110.275 216.215L73.7724 162.233L109.69 227.021L106.289 289.796L106.187 288.13L64.1062 231.321L106.06 294.016L105.635 301.867L105.559 301.985L105.594 302.63L96.9642 461.897H108.493L109.877 379.632L151.728 317.091L109.981 373.448Z" fill="#3F3D56"/>
        <path d="M566.512 230.534C566.512 331.994 504.083 367.42 427.072 367.42C350.061 367.42 287.632 331.994 287.632 230.534C287.632 129.073 427.072 -4.57764e-05 427.072 -4.57764e-05C427.072 -4.57764e-05 566.512 129.073 566.512 230.534Z" fill="#F2F2F2"/>
        <path d="M421.992 351.9L423.42 266.987L482.853 161.937L423.644 253.666L424.287 215.486L465.248 139.484L424.456 205.382L425.611 136.713L469.473 76.2056L425.792 125.915L426.514 0L421.98 166.689L422.353 159.812L377.758 93.8631L421.638 173.012L417.482 249.704L417.359 247.668L365.949 178.267L417.203 254.86L416.683 264.451L416.591 264.595L416.633 265.382L406.091 459.956H420.175L421.866 359.454L472.994 283.049L421.992 351.9Z" fill="#3F3D56"/>
        <path d="M278.14 467.594C396.432 467.594 492.326 464.285 492.326 460.203C492.326 456.122 396.432 452.813 278.14 452.813C159.849 452.813 63.9546 456.122 63.9546 460.203C63.9546 464.285 159.849 467.594 278.14 467.594Z" fill="#3F3D56"/>
        <path d="M579.252 520C633.789 520 678 515.939 678 510.93C678 505.92 633.789 501.859 579.252 501.859C524.715 501.859 480.504 505.92 480.504 510.93C480.504 515.939 524.715 520 579.252 520Z" fill="#3F3D56"/>
        <path d="M290.658 233.111H265.623V460.203H290.658V233.111Z" fill="#2F2E41"/>
        <path d="M392.883 284.845H239.197V243.189H392.883L437.389 264.017L392.883 284.845Z" fill="#3F3D56"/>
        <path opacity="0.1" d="M392.883 281.486H239.197V284.845H392.883L437.389 264.017L433.8 262.337L392.883 281.486Z" fill="black"/>
        <path d="M164.093 339.939H317.779V298.283H164.093L119.587 319.111L164.093 339.939Z" fill="#3F3D56"/>
        <path opacity="0.1" d="M123.176 317.431L119.587 319.111L164.093 339.939H317.779V336.579H164.093L123.176 317.431Z" fill="black"/>
        <path d="M351.854 251.251H325.428V276.783H351.854V251.251Z" fill="#6C63FF"/>
        <path d="M219.031 331.876C226.328 331.876 232.243 326.161 232.243 319.11C232.243 312.06 226.328 306.345 219.031 306.345C211.733 306.345 205.818 312.06 205.818 319.11C205.818 326.161 211.733 331.876 219.031 331.876Z" fill="#6C63FF"/>
        <path d="M278.14 270.064C282.365 270.064 285.79 266.755 285.79 262.673C285.79 258.592 282.365 255.283 278.14 255.283C273.916 255.283 270.491 258.592 270.491 262.673C270.491 266.755 273.916 270.064 278.14 270.064Z" fill="#2F2E41"/>
        <path d="M278.14 325.157C282.365 325.157 285.79 321.848 285.79 317.767C285.79 313.685 282.365 310.376 278.14 310.376C273.916 310.376 270.491 313.685 270.491 317.767C270.491 321.848 273.916 325.157 278.14 325.157Z" fill="#2F2E41"/>
        <path d="M226.68 434.898C226.68 449.994 217.392 455.265 205.933 455.265C205.668 455.265 205.403 455.262 205.138 455.257C204.607 455.246 204.082 455.221 203.562 455.187C193.221 454.48 185.187 448.938 185.187 434.898C185.187 420.369 204.404 402.035 205.847 400.679L205.85 400.676C205.906 400.624 205.933 400.598 205.933 400.598C205.933 400.598 226.68 419.802 226.68 434.898Z" fill="#6C63FF"/>
        <path d="M205.177 452.956L212.766 442.712L205.159 454.08L205.138 455.257C204.607 455.246 204.082 455.221 203.562 455.187L204.38 440.084L204.374 439.966L204.387 439.944L204.465 438.518L196.839 427.121L204.489 437.448L204.506 437.751L205.124 426.34L198.596 414.563L205.204 424.337L205.847 400.678L205.85 400.598V400.676L205.743 419.332L212.242 411.936L205.716 420.939L205.544 431.156L211.613 421.351L205.519 432.66L205.423 438.34L214.233 424.692L205.39 440.322L205.177 452.956Z" fill="#3F3D56"/>
        <path d="M547.291 494.411C547.291 494.411 537.445 502.422 532.263 501.921C527.08 501.421 517.234 501.421 521.38 506.928C525.526 512.436 542.627 515.44 549.882 515.941C557.137 516.441 573.203 516.942 572.166 513.938C571.13 510.934 570.093 496.914 565.947 495.913C561.801 494.912 547.291 494.411 547.291 494.411Z" fill="#575A89"/>
        <path d="M603.804 486.546C603.804 486.546 596.548 496.819 591.417 497.682C586.286 498.545 576.802 501.102 582.328 505.331C587.853 509.559 605.161 508.012 612.289 506.61C619.416 505.209 635.029 501.52 633.195 498.895C631.361 496.271 626.463 483.036 622.191 483.148C617.92 483.26 603.804 486.546 603.804 486.546Z" fill="#575A89"/>
        <path d="M541.523 339.628C541.523 339.628 534.854 383.759 536.408 391.77C537.963 399.781 539 412.298 539 412.298C539 412.298 537.963 422.813 539 427.82C540.036 432.827 546.255 480.392 546.255 481.393C546.255 482.395 545.218 485.399 546.255 487.902C547.291 490.406 549.364 488.403 546.255 492.408C543.145 496.414 545.218 497.415 545.736 497.415C546.255 497.415 566.466 499.418 567.502 497.415C568.539 495.413 566.984 494.912 567.502 492.408C568.02 489.905 568.539 489.404 569.575 488.904C570.611 488.403 572.684 489.404 571.13 486.901C569.575 484.397 565.947 481.393 566.984 479.891C568.02 478.389 566.466 467.374 566.466 467.374C566.466 467.374 565.429 442.84 564.911 427.82C564.393 412.799 569.575 397.278 569.575 397.278C570.22 409.568 574.945 421.33 583.049 430.824C596.523 446.345 603.26 475.385 603.26 475.385C603.26 475.385 606.369 479.891 604.814 483.897C603.26 487.902 598.596 485.399 603.26 487.902C607.924 490.406 623.989 486.901 625.544 485.399C627.098 483.897 623.471 481.894 624.507 477.888C625.544 473.883 629.689 474.884 626.062 472.882C622.434 470.879 621.398 471.38 621.398 469.377C621.398 467.374 612.07 423.814 597.559 411.297L596.523 365.734C596.523 365.734 609.478 333.69 596.005 330.686C582.531 327.682 541.523 339.628 541.523 339.628Z" fill="#2F2E41"/>
        <path d="M550.919 221.036C550.919 221.036 559.729 242.065 557.656 245.069C555.583 248.073 583.049 235.055 583.049 235.055C583.049 235.055 574.239 214.026 574.239 211.523C574.239 209.019 550.919 221.036 550.919 221.036Z" fill="#A0616A"/>
        <path d="M557.397 226.293C567.986 226.293 576.571 217.999 576.571 207.768C576.571 197.536 567.986 189.242 557.397 189.242C546.807 189.242 538.222 197.536 538.222 207.768C538.222 217.999 546.807 226.293 557.397 226.293Z" fill="#A0616A"/>
        <path d="M583.049 226.543C583.049 226.543 569.575 225.041 562.838 233.052C556.101 241.063 555.065 243.066 555.065 243.066C555.065 243.066 538.999 268.1 542.109 280.617C542.867 281.748 543.559 282.918 544.182 284.122C545.218 286.125 545.218 314.164 544.182 318.67C543.145 323.176 542.109 324.678 543.145 331.187C544.182 337.696 534.854 348.21 545.736 350.213C556.619 352.216 564.911 350.714 568.538 346.208C572.166 341.701 569.057 338.697 580.458 338.697C591.859 338.697 599.114 331.187 599.114 331.187C599.114 331.187 593.413 325.179 595.486 324.177C597.559 323.176 595.486 320.672 594.45 318.169C593.413 315.666 593.413 313.663 594.968 313.663C596.523 313.663 595.486 312.661 594.45 310.158C593.413 307.655 612.588 264.595 601.187 252.078C589.786 239.561 584.085 232.552 584.085 232.552C584.085 232.552 586.158 225.041 583.049 226.543Z" fill="#6C63FF"/>
        <path d="M553.51 274.109V296.139L536.927 349.212C536.927 349.212 526.044 376.75 536.927 376.75C547.809 376.75 547.226 350.466 547.226 350.466L570.611 310.659C570.611 310.659 579.939 279.115 578.903 276.612C577.867 274.109 553.51 274.109 553.51 274.109Z" fill="#A0616A"/>
        <path d="M562.32 241.564C562.32 241.564 546.773 247.572 550.919 263.594C555.065 279.616 550.919 279.116 550.919 279.116C550.919 279.116 572.166 277.113 578.903 281.619L580.458 275.611C580.458 275.611 586.676 241.063 562.32 241.564Z" fill="#6C63FF"/>
        <path d="M550.849 193.86C549.653 194.27 548.369 194.386 547.115 194.198C545.86 194.009 544.674 193.522 543.663 192.78C541.71 191.225 540.881 188.356 542.03 186.177C543.022 184.295 545.145 183.263 547.18 182.493C551.669 180.797 556.398 179.765 561.207 179.433C563.499 179.276 565.907 179.301 567.953 180.312C568.965 180.813 569.844 181.536 570.847 182.054C572.69 183.008 574.835 183.22 576.827 183.834C578.865 184.476 580.737 185.534 582.315 186.935C583.894 188.337 585.142 190.05 585.976 191.958C586.517 193.254 586.896 194.608 587.102 195.991C587.698 199.778 587.282 203.649 585.893 207.237C583.684 212.919 579.051 217.887 578.789 223.952C575.954 221.964 574.902 218.377 572.63 215.8C570.939 213.896 568.63 212.602 566.079 212.13C565.373 212.088 564.695 211.849 564.127 211.442C563.731 210.985 563.483 210.426 563.414 209.835L561.474 200.983C561.079 199.182 560.58 197.218 559.047 196.123C558.093 195.534 557.011 195.165 555.885 195.047C553.209 194.595 550.499 194.356 547.783 194.333" fill="#2F2E41"/>
    </g>
    <defs>
        <clipPath id="clip0">
            <rect width="678" height="520" fill="white"/>
        </clipPath>
    </defs>
</svg>
