<svg viewBox="0 0 745 503" fill="none"
    xmlns="http://www.w3.org/2000/svg">
    <path opacity="0.1" d="M14.4252 160.375C8.81581 177.877 25.3081 193.618 38.2798 206.295C56.0353 223.686 70.0453 244.73 79.4009 268.061C85.0395 282.161 88.9617 297.33 87.91 312.544C84.93 355.694 45.5034 384.443 14.0016 413.026C9.5389 417.114 5.0762 421.39 2.47601 426.9C-5.87238 444.583 8.31914 464.961 23.9495 476.238C79.6127 516.377 159.956 504.438 213.946 461.943C241.906 439.931 265.936 410 299.819 400.214C321.482 393.988 344.475 396.939 366.891 398.859C400.501 401.729 434.266 402.142 467.933 400.093C479.751 399.341 492.109 398.166 502.006 391.474C527.066 374.551 522.837 334.428 540.921 309.811C553.922 292.121 576.133 285.3 595.467 275.522C625.225 260.387 650.056 236.639 666.921 207.183C682.442 179.955 690.483 149 698.328 118.482C704.244 95.5518 710.182 71.5378 705.172 48.3744C700.161 25.211 680.382 3.58332 657.448 5.61586C639.838 7.17413 625.829 21.5148 608.869 26.6488C568.245 38.9796 528.804 -3.84673 486.66 0.286094C460.125 2.88322 438.725 23.6226 422.546 45.4536C406.368 67.2845 392.673 91.8631 371.309 108.304C338.077 133.899 292.544 134.802 251.861 126.514C211.178 118.226 172.146 101.913 131.01 96.4778C106.776 93.2784 88.2021 108.161 66.378 116.344C46.3507 123.857 21.846 137.226 14.4252 160.375Z" fill="#6C63FF"/>
    <path opacity="0.1" d="M100.758 503C130.1 503 153.886 495.551 153.886 486.363C153.886 477.175 130.1 469.727 100.758 469.727C71.4154 469.727 47.6289 477.175 47.6289 486.363C47.6289 495.551 71.4154 503 100.758 503Z" fill="#6C63FF"/>
    <path opacity="0.1" d="M603.107 283.283C681.472 283.283 745 278.939 745 273.579C745 268.22 681.472 263.876 603.107 263.876C524.741 263.876 461.213 268.22 461.213 273.579C461.213 278.939 524.741 283.283 603.107 283.283Z" fill="#6C63FF"/>
    <g opacity="0.5">
        <path opacity="0.5" d="M517.322 51.4907C519.29 51.4907 521.178 52.2965 522.569 53.7309C523.961 55.1652 524.743 57.1106 524.743 59.1391V271.803H509.901V59.1316C509.903 57.1044 510.686 55.1609 512.077 53.7282C513.469 52.2955 515.355 51.4907 517.322 51.4907Z" fill="#6C63FF"/>
        <path opacity="0.5" d="M680.148 51.4908C682.117 51.4908 684.004 52.2966 685.396 53.731C686.787 55.1653 687.569 57.1107 687.569 59.1392V271.803H672.691V59.1316C672.692 58.1247 672.886 57.1279 673.262 56.1983C673.637 55.2688 674.187 54.4249 674.88 53.715C675.573 53.005 676.395 52.4431 677.299 52.0615C678.203 51.6798 679.172 51.4859 680.148 51.4908Z" fill="#6C63FF"/>
        <path opacity="0.5" d="M723.461 99.0296C727.559 99.0296 730.881 95.6053 730.881 91.3812C730.881 87.1572 727.559 83.7329 723.461 83.7329L474.017 83.7329C469.919 83.7329 466.596 87.1572 466.596 91.3812C466.596 95.6053 469.919 99.0296 474.017 99.0296L723.461 99.0296Z" fill="#6C63FF"/>
        <path opacity="0.5" d="M505.49 68.6394C505.49 65.33 502.887 62.6472 499.676 62.6472C496.465 62.6472 493.862 65.33 493.862 68.6394V114.108C493.862 117.417 496.465 120.1 499.676 120.1C502.887 120.1 505.49 117.417 505.49 114.108V68.6394Z" fill="#6C63FF"/>
        <path opacity="0.5" d="M493.862 74.0142C493.862 70.7048 491.259 68.022 488.048 68.022C484.837 68.022 482.234 70.7048 482.234 74.0142V108.74C482.234 112.05 484.837 114.733 488.048 114.733C491.259 114.733 493.862 112.05 493.862 108.74V74.0142Z" fill="#6C63FF"/>
        <path opacity="0.5" d="M691.981 114.108C691.981 117.417 694.584 120.1 697.795 120.1C701.006 120.1 703.609 117.417 703.609 114.108V68.6393C703.609 65.3299 701.006 62.6471 697.795 62.6471C694.584 62.6471 691.981 65.3299 691.981 68.6393V114.108Z" fill="#6C63FF"/>
        <path opacity="0.5" d="M703.609 108.733C703.609 112.043 706.212 114.725 709.423 114.725C712.633 114.725 715.236 112.043 715.236 108.733V74.0069C715.236 70.6975 712.633 68.0146 709.423 68.0146C706.212 68.0146 703.609 70.6975 703.609 74.0069V108.733Z" fill="#6C63FF"/>
    </g>
    <g opacity="0.5">
        <path opacity="0.5" d="M583.919 140.501H614.26C617.553 140.501 620.711 141.849 623.04 144.249C625.368 146.649 626.676 149.904 626.676 153.298V207.018H571.532V153.298C571.532 149.91 572.836 146.659 575.158 144.26C577.481 141.861 580.631 140.509 583.919 140.501Z" fill="#6C63FF"/>
        <path opacity="0.5" d="M603.107 202.192H595.036V229.917H603.107V202.192Z" fill="#6C63FF"/>
        <path opacity="0.5" d="M586.965 233.38H578.894V261.106H586.965V233.38Z" fill="#6C63FF"/>
        <path opacity="0.5" d="M620.592 233.38H612.521V261.106H620.592V233.38Z" fill="#6C63FF"/>
        <path opacity="0.5" d="M626.647 227.832H571.503V235.458H626.647V227.832Z" fill="#6C63FF"/>
    </g>
    <path opacity="0.1" d="M345.541 457.945C512.671 457.945 648.157 447.706 648.157 435.076C648.157 422.445 512.671 412.206 345.541 412.206C178.411 412.206 42.9251 422.445 42.9251 435.076C42.9251 447.706 178.411 457.945 345.541 457.945Z" fill="#6C63FF"/>
    <path d="M423.89 353.631C423.89 353.631 444.736 363.335 454.823 363.335C454.823 363.335 465.581 366.105 471.622 368.883C477.662 371.661 501.21 373.038 501.21 373.038C501.21 373.038 528.782 383.434 532.142 388.29C535.502 393.145 545.588 370.976 545.588 370.976L540.205 357.117L438.681 337.017L423.89 353.631Z" fill="#FFB9B9"/>
    <path opacity="0.05" d="M423.89 353.631C423.89 353.631 444.736 363.335 454.823 363.335C454.823 363.335 465.581 366.105 471.622 368.883C477.662 371.661 501.21 373.038 501.21 373.038C501.21 373.038 528.782 383.434 532.142 388.29C535.502 393.145 545.588 370.976 545.588 370.976L540.205 357.117L438.681 337.017L423.89 353.631Z" fill="black"/>
    <path d="M526.781 384.134C526.781 384.134 539.555 401.449 534.18 411.86C528.804 422.271 530.82 422.256 534.18 422.948C537.539 423.641 556.369 427.804 558.392 412.552C560.415 397.301 564.447 363.342 564.447 363.342L536.838 360.564C536.838 360.564 544.266 386.212 526.781 384.134Z" fill="#737A9D"/>
    <path d="M368.074 330.761L425.906 358.487C425.906 358.487 444.064 343.928 442.705 336.31L375.458 319.673L368.074 330.761Z" fill="#4C4C78"/>
    <path opacity="0.1" d="M368.074 330.761L425.906 358.487C425.906 358.487 444.064 343.928 442.705 336.31L375.458 319.673L368.074 330.761Z" fill="black"/>
    <path d="M610.842 366.805L604.765 382.049L590.668 385.497C586.718 382.099 582.493 379.057 578.04 376.403C570.451 371.886 560.466 367.467 551.015 368.167C551.015 368.167 513.356 361.927 511.34 359.134C511.34 359.134 487.128 353.586 481.752 354.278C479.159 354.61 473.586 352.69 468.517 350.605C463.076 348.346 458.211 345.96 458.211 345.96L475.697 317.542C477.736 318.447 479.836 319.202 481.978 319.801C488.662 321.818 500.691 324.438 518.067 324.438C546.311 324.438 585.314 354.241 585.314 354.241C585.314 354.241 585.701 354.376 586.366 354.58C589.288 355.49 597.614 357.636 601.456 354.241C606.13 350.168 610.842 366.805 610.842 366.805Z" fill="#FFB9B9"/>
    <path opacity="0.1" d="M610.842 366.805L604.765 382.049L590.668 385.497C586.718 382.099 582.493 379.057 578.04 376.403C598.549 377.992 586.3 354.655 586.3 354.655H586.344C589.266 355.566 597.592 357.711 601.434 354.316C606.131 350.168 610.842 366.805 610.842 366.805Z" fill="black"/>
    <path d="M578.12 376.99C578.12 376.99 594.386 400.5 587.542 413.742C580.698 426.983 583.262 426.976 587.542 427.864C591.822 428.752 615.801 434.044 618.365 414.63C620.337 399.702 618.606 371.051 617.7 358.615C617.642 357.83 617.433 357.064 617.086 356.363C616.738 355.662 616.259 355.039 615.676 354.531C615.093 354.022 614.418 353.638 613.689 353.401C612.961 353.164 612.194 353.078 611.433 353.15L587.644 355.408C587.644 355.408 600.382 379.64 578.12 376.99Z" fill="#737A9D"/>
    <path d="M191.881 400.071L192.553 434.037L199.952 439.577H225.509L230.212 432.652V400.071L222.813 393.138H198.608L191.881 400.071Z" fill="#6C63FF"/>
    <path opacity="0.2" d="M195.913 400.763C195.913 400.763 200.624 431.952 195.913 434.729L192.553 434.037L191.881 400.771L195.913 400.763Z" fill="white"/>
    <path d="M251.058 397.993L256.441 392.445H282.004L287.387 397.993C287.387 397.993 294.114 418.093 288.731 431.259L282.662 437.5H257.098L251.043 431.952L251.058 397.993Z" fill="#6C63FF"/>
    <path opacity="0.1" d="M191.881 400.071L192.553 434.037L199.952 439.577H225.509L230.212 432.652V400.071L222.813 393.138H198.608L191.881 400.071Z" fill="black"/>
    <path opacity="0.1" d="M251.058 397.993L256.441 392.445H282.004L287.387 397.993C287.387 397.993 294.114 418.093 288.731 431.259L282.662 437.5H257.098L251.043 431.952L251.058 397.993Z" fill="black"/>
    <path opacity="0.2" d="M257.098 399.378C257.098 399.378 262.481 423.641 257.098 431.952H251.043V397.993L257.098 399.378Z" fill="white"/>
    <path d="M230.212 282.937C230.212 282.937 232.9 309.969 232.9 313.432C232.9 316.895 231.556 339.78 235.588 361.949C239.62 384.119 232.9 411.844 232.9 411.844H255.089L264.504 336.987L257.777 297.48L255.089 285.007L230.212 282.937Z" fill="#FFB9B9"/>
    <path opacity="0.05" d="M230.212 282.937C230.212 282.937 232.9 309.969 232.9 313.432C232.9 316.895 231.556 339.78 235.588 361.949C239.62 384.119 232.9 411.844 232.9 411.844H255.089L264.504 336.987L257.777 297.48L255.089 285.007L230.212 282.937Z" fill="black"/>
    <path d="M226.181 214.32C226.181 214.32 196.592 215.012 220.126 265.607C220.126 265.607 226.181 286.399 226.181 289.87C226.181 293.34 256.441 293.333 259.779 289.87C263.116 286.407 254.396 257.989 254.396 244.815C254.396 231.641 245.682 210.164 226.181 214.32Z" fill="#CBCDDA"/>
    <path opacity="0.05" d="M226.181 214.32C226.181 214.32 196.592 215.012 220.126 265.607C220.126 265.607 226.181 286.399 226.181 289.87C226.181 293.34 256.441 293.333 259.779 289.87C263.116 286.407 254.396 257.989 254.396 244.815C254.396 231.641 245.682 210.164 226.181 214.32Z" fill="black"/>
    <path d="M190.537 184.501C190.537 184.501 216.101 212.919 237.611 192.127L234.923 265.6C234.923 265.6 199.952 221.938 175.762 225.401L190.537 184.501Z" fill="#FFB9B9"/>
    <path opacity="0.1" d="M481.949 319.884C480.927 328.006 477.713 345.11 468.488 350.65C463.047 348.392 458.182 346.006 458.182 346.006L475.668 317.588C477.706 318.505 479.805 319.273 481.949 319.884Z" fill="black"/>
    <path d="M480.379 315.487C480.379 315.487 478.363 349.453 462.221 352.223L364.729 334.096C359.997 333.21 355.548 331.142 351.771 328.074C347.835 324.882 343.007 320.546 340.151 316.571C338.603 314.403 337.668 312.333 337.821 310.624C338.493 302.998 368.081 284.977 357.994 253.096C359.429 251.925 361.024 250.982 362.727 250.295C371.149 246.69 390.533 244.04 418.515 273.888C418.515 273.926 470.292 316.902 480.379 315.487Z" fill="#4C4C78"/>
    <path d="M216.766 402.841L217.438 436.807L224.829 442.355H250.386L255.097 435.422V402.841L247.698 395.916H223.485L216.766 402.841Z" fill="#6C63FF"/>
    <path opacity="0.2" d="M220.798 403.564C220.798 403.564 225.509 434.752 220.798 437.53L217.438 436.837L216.766 403.564H220.798Z" fill="white"/>
    <path d="M290.74 400.071L296.123 394.523H321.687L327.07 400.071C327.07 400.071 333.797 420.17 328.414 433.337L322.359 439.577H296.795L290.74 434.029V400.071Z" fill="#6C63FF"/>
    <path opacity="0.2" d="M296.788 401.456C296.788 401.456 302.17 425.718 296.788 434.029H290.733V400.071L296.788 401.456Z" fill="white"/>
    <path d="M254.907 413.245H291.288C294.136 413.245 296.444 415.879 296.444 419.139C296.444 422.391 294.136 425.033 291.288 425.033H254.907C251.817 425.033 249.422 421.954 249.794 418.454C250.094 415.48 252.299 413.245 254.907 413.245Z" fill="#6C63FF"/>
    <path opacity="0.1" d="M360.003 305.114C352.809 310.308 345.227 313.711 340.144 316.609C338.595 314.441 337.66 312.371 337.814 310.662C338.486 303.036 368.074 285.014 357.987 253.133C359.421 251.963 361.016 251.019 362.72 250.333C364.3 250.299 365.871 250.076 367.402 249.671C367.402 249.671 373.45 295.41 360.003 305.114Z" fill="black"/>
    <path d="M209.031 238.228C209.031 238.228 219.118 248.624 228.868 255.211C237.867 261.286 221.805 200.107 221.805 200.107C221.805 200.107 231.768 191.826 237.618 186.911C241.526 183.598 246.504 181.93 251.554 182.243C265.015 183.139 289.674 188.973 309.569 217.098C338.486 257.989 364.714 249.671 364.714 249.671C364.714 249.671 370.769 295.418 357.315 305.121C343.861 314.825 329.071 318.288 331.751 323.836C334.432 329.384 319.649 296.803 286.022 291.263C252.394 285.722 215.407 261.46 216.087 249.678C216.094 249.671 206.343 241.714 209.031 238.228Z" fill="#CBCDDA"/>
    <path opacity="0.1" d="M201.968 202.569C201.965 200.565 201.794 198.565 201.457 196.591C192.648 192.075 193.897 185.932 193.897 185.932L179.099 226.824C184.512 226.071 190.464 227.637 196.439 230.587C204.305 224.181 201.968 213.627 201.968 202.569Z" fill="black"/>
    <path d="M172.38 236.504C190.952 236.504 206.007 220.987 206.007 201.846C206.007 182.704 190.952 167.187 172.38 167.187C153.808 167.187 138.753 182.704 138.753 201.846C138.753 220.987 153.808 236.504 172.38 236.504Z" fill="#FFB9B9"/>
    <path opacity="0.1" d="M141.828 209.66C141.207 211.715 140.25 213.83 138.446 214.929C136.255 216.269 133.231 215.607 131.281 213.876C129.331 212.144 128.279 209.555 127.731 206.965C126.942 203.215 127.067 199.323 128.096 195.635C128.973 192.511 130.485 189.613 131.12 186.414C131.799 183.011 131.456 179.45 132.216 176.063C133.245 171.471 136.182 167.624 139.045 163.943C139.942 162.538 141.105 161.334 142.464 160.402C143.823 159.471 145.351 158.832 146.955 158.523L161.03 154.149C163.698 153.228 166.44 152.553 169.225 152.132C172.804 151.754 176.42 152.081 179.881 153.095C182.637 153.81 185.252 155.012 187.609 156.648C189.944 158.436 192 160.582 193.707 163.009C201.15 173.037 205.394 189.44 213.07 199.309C210.039 200.273 207.008 197.051 203.977 198.029C203.546 198.221 203.066 198.26 202.611 198.142C202.16 197.89 201.807 197.486 201.61 196.998C198.939 192.189 194.735 188.481 189.712 186.504C185.987 185.051 180.947 185.059 178.91 188.582C177.529 190.961 178.084 193.964 178.449 196.712C178.815 199.46 178.749 202.734 176.638 204.428C175.472 205.241 174.114 205.714 172.709 205.798C166.157 206.683 159.497 206.011 153.236 203.833C151.045 203.081 148.817 200.724 146.502 201.477C143.376 202.493 142.653 206.927 141.828 209.66Z" fill="black"/>
    <path d="M141.09 208.899C140.469 210.955 139.512 213.07 137.708 214.169C135.517 215.509 132.493 214.847 130.543 213.115C128.593 211.384 127.541 208.794 126.993 206.204C126.204 202.455 126.33 198.562 127.358 194.875C128.235 191.751 129.747 188.853 130.382 185.653C131.062 182.251 130.718 178.69 131.478 175.302C132.508 170.71 135.444 166.864 138.307 163.182C139.204 161.777 140.367 160.573 141.726 159.642C143.086 158.711 144.613 158.071 146.217 157.762L160.292 153.389C162.96 152.47 165.703 151.798 168.487 151.379C172.066 151.001 175.682 151.328 179.143 152.342C181.899 153.057 184.514 154.259 186.871 155.895C189.206 157.684 191.263 159.829 192.97 162.257C200.412 172.284 204.656 188.687 212.332 198.556C209.301 199.52 206.27 196.298 203.239 197.276C202.808 197.468 202.328 197.508 201.873 197.389C201.417 197.14 201.058 196.736 200.858 196.245C198.187 191.436 193.983 187.728 188.96 185.751C185.235 184.298 180.195 184.306 178.157 187.829C176.777 190.208 177.332 193.211 177.697 195.959C178.062 198.707 177.997 201.981 175.886 203.675C174.719 204.488 173.362 204.961 171.956 205.045C165.405 205.93 158.744 205.258 152.484 203.08C150.293 202.328 148.065 199.971 145.75 200.724C142.638 201.733 141.915 206.167 141.09 208.899Z" fill="#B96B6B"/>
    <g opacity="0.1">
        <path opacity="0.1" d="M224.084 198.218L221.805 200.115C221.805 200.115 231.22 235.97 231.593 250.055C236.399 248.715 227.152 210.353 224.084 198.218Z" fill="black"/>
        <path opacity="0.1" d="M358.623 299.573C345.176 309.277 330.378 312.74 333.059 318.288C335.739 323.836 320.956 291.255 287.329 285.714C255.783 280.513 221.28 258.84 217.686 246.449C212.646 242.007 208.98 238.236 208.98 238.236C206.292 241.699 216.043 249.671 216.043 249.671C215.371 261.452 252.358 285.714 285.978 291.255C319.598 296.795 334.395 329.376 331.708 323.828C329.02 318.28 343.81 314.795 357.271 305.114C361.12 302.336 363.37 296.607 364.626 289.84C363.326 294.123 361.398 297.593 358.623 299.573Z" fill="black"/>
    </g>
    <path d="M290.74 366.113C288.724 368.883 287.38 397.301 287.38 397.301C287.38 397.301 295.414 438.192 270.581 434.037C245.748 429.881 267.221 400.771 267.221 400.771L263.861 360.572C251.087 325.944 253.775 300.966 253.775 300.966L251.386 278.33L250.408 269.085L279.324 262.152C278.535 263.236 278.871 269.996 279.579 277.848C280.682 290.148 282.684 305.121 282.684 305.121C288.717 312.047 292.756 363.335 290.74 366.113Z" fill="#FFB9B9"/>
    <path opacity="0.1" d="M249.714 199.768C249.714 199.768 220.126 200.461 243.659 251.056C243.659 251.056 249.714 271.848 249.714 275.318C249.714 278.789 279.974 278.781 283.312 275.318C286.65 271.856 277.929 243.438 277.929 230.264C277.929 217.09 269.215 195.605 249.714 199.768Z" fill="black"/>
    <path opacity="0.1" d="M279.558 277.848C273.276 279.617 257.88 279.775 251.357 278.33L250.378 269.085L279.295 262.152C278.52 263.229 278.856 269.989 279.558 277.848Z" fill="black"/>
    <path d="M248.37 199.768C248.37 199.768 218.782 200.461 242.315 251.056C242.315 251.056 248.37 271.848 248.37 275.318C248.37 278.789 278.63 278.781 281.968 275.318C285.306 271.856 276.585 243.438 276.585 230.264C276.585 217.09 267.871 195.605 248.37 199.768Z" fill="#CBCDDA"/>
    <g opacity="0.5">
        <path opacity="0.5" d="M54.8086 308.268L33.3935 308.72L29.9023 313.673V330.792L34.27 333.946H54.8086L59.1837 328.992V312.777L54.8086 308.268Z" fill="#6C63FF"/>
        <path opacity="0.2" d="M54.3777 310.97C54.3777 310.97 34.7083 314.125 32.9626 310.97L33.4009 308.712L54.3777 308.26V310.97Z" fill="white"/>
        <path opacity="0.5" d="M56.5616 357.817L60.0602 361.423V378.541L56.5616 382.147C56.5616 382.147 43.8893 386.664 35.5848 383.05L31.6479 378.993V361.874L35.1465 357.817H56.5616Z" fill="#6C63FF"/>
        <path opacity="0.2" d="M55.6851 361.874C55.6851 361.874 40.3907 365.48 35.1465 361.874V357.817H56.5616L55.6851 361.874Z" fill="white"/>
        <path opacity="0.5" d="M48.257 333.825V358.193C48.206 359.158 47.7864 360.064 47.0898 360.711C46.3932 361.359 45.4762 361.695 44.5393 361.648C43.6024 361.695 42.6855 361.359 41.9889 360.711C41.2923 360.064 40.8726 359.158 40.8216 358.193V333.825C40.8216 331.755 42.7645 330.152 44.9703 330.392C45.8327 330.445 46.6456 330.825 47.2524 331.459C47.8592 332.093 48.2171 332.936 48.257 333.825Z" fill="#6C63FF"/>
        <path opacity="0.5" d="M89.1079 308.961L67.6928 309.412L64.1942 314.366V331.484L68.5692 334.638H89.1079L93.4756 329.685V313.47L89.1079 308.961Z" fill="#6C63FF"/>
        <path opacity="0.2" d="M88.6696 311.671C88.6696 311.671 69.0002 314.825 67.2546 311.671L67.6928 309.412L88.6696 308.961V311.671Z" fill="white"/>
        <path opacity="0.5" d="M90.8535 358.517L94.3521 362.123V379.241L90.8535 382.847C90.8535 382.847 78.1812 387.364 69.8766 383.75L65.9398 379.693V362.567L69.4384 358.509L90.8535 358.517Z" fill="#6C63FF"/>
        <path opacity="0.2" d="M89.9844 362.567C89.9844 362.567 74.6899 366.173 69.4457 362.567V358.509H90.8608L89.9844 362.567Z" fill="white"/>
        <path opacity="0.5" d="M82.5343 334.518V358.886C82.4833 359.851 82.0637 360.756 81.367 361.404C80.6704 362.051 79.7535 362.388 78.8166 362.341C77.8797 362.388 76.9628 362.051 76.2662 361.404C75.5695 360.756 75.1499 359.851 75.0989 358.886V334.518C75.0989 332.448 77.0417 330.844 79.2475 331.085C80.1099 331.138 80.9228 331.518 81.5297 332.152C82.1365 332.786 82.4943 333.628 82.5343 334.518Z" fill="#6C63FF"/>
        <path opacity="0.5" d="M132.771 321.999L115.139 322.368L112.261 326.448V340.54L115.862 343.13H132.771L136.364 339.05V325.703L132.771 321.999Z" fill="#6C63FF"/>
        <path opacity="0.2" d="M132.406 324.22C132.406 324.22 116.213 326.817 114.774 324.22L115.132 322.368L132.398 321.999L132.406 324.22Z" fill="white"/>
        <path opacity="0.5" d="M134.21 362.785L137.087 365.751V379.843L134.21 382.809C134.21 382.809 123.78 386.521 116.943 383.562L113.7 380.227V366.12L116.578 362.785H134.21Z" fill="#6C63FF"/>
        <path opacity="0.2" d="M133.487 366.12C133.487 366.12 120.895 369.086 116.578 366.12V362.785H134.21L133.487 366.12Z" fill="white"/>
        <path opacity="0.5" d="M127.373 343.032V363.094C127.328 363.886 126.981 364.628 126.408 365.158C125.835 365.688 125.082 365.963 124.313 365.924C123.541 365.963 122.786 365.686 122.213 365.152C121.639 364.619 121.294 363.874 121.252 363.079V343.032C121.278 342.608 121.389 342.193 121.579 341.816C121.769 341.439 122.033 341.106 122.355 340.84C122.677 340.575 123.049 340.381 123.448 340.272C123.847 340.164 124.263 340.142 124.671 340.209C125.38 340.253 126.048 340.565 126.547 341.086C127.046 341.608 127.34 342.301 127.373 343.032Z" fill="#6C63FF"/>
        <path opacity="0.5" d="M161 322.563L143.369 322.94L140.491 327.012V341.105L144.092 343.702H161L164.601 339.622V326.275L161 322.563Z" fill="#6C63FF"/>
        <path opacity="0.2" d="M160.643 324.792C160.643 324.792 144.45 327.389 143.011 324.792L143.369 322.94L160.635 322.571L160.643 324.792Z" fill="white"/>
        <path opacity="0.5" d="M162.439 363.357L165.317 366.323V380.416L162.439 383.382C162.439 383.382 152.009 387.093 145.173 384.134L141.937 380.8V366.677L144.815 363.342L162.439 363.357Z" fill="#6C63FF"/>
        <path opacity="0.2" d="M161.723 366.677C161.723 366.677 149.131 369.643 144.815 366.677V363.342H162.439L161.723 366.677Z" fill="white"/>
        <path opacity="0.5" d="M155.574 343.604V363.666C155.532 364.461 155.187 365.206 154.613 365.74C154.04 366.273 153.285 366.55 152.513 366.511C151.742 366.55 150.987 366.273 150.413 365.74C149.84 365.206 149.494 364.461 149.453 363.666V343.604C149.478 343.18 149.59 342.765 149.779 342.388C149.969 342.011 150.234 341.678 150.556 341.413C150.878 341.147 151.25 340.953 151.649 340.844C152.047 340.736 152.464 340.714 152.871 340.781C153.58 340.825 154.248 341.137 154.747 341.658C155.246 342.18 155.541 342.873 155.574 343.604Z" fill="#6C63FF"/>
    </g>
    <g opacity="0.8">
        <path opacity="0.8" d="M85.5874 443.462C85.5874 443.462 75.2377 439.848 70.2491 449.251C68.9348 451.799 68.2659 454.648 68.3042 457.534C68.3425 460.42 69.0868 463.249 70.4682 465.759C73.7404 471.857 80.4819 479.769 93.2565 479.069C104.096 478.474 107.696 469.945 108.675 462.018C109.049 459.045 108.677 456.022 107.594 453.24C106.51 450.457 104.752 448.008 102.487 446.126C100.222 444.244 97.5269 442.993 94.6587 442.492C91.7905 441.992 88.8457 442.258 86.1059 443.266L85.5874 443.462Z" fill="#6C63FF"/>
        <path opacity="0.1" d="M72.6667 466.595C71.2853 464.085 70.541 461.256 70.5027 458.37C70.4644 455.484 71.1333 452.635 72.4476 450.086C77.4289 440.684 87.7859 444.297 87.7859 444.297L88.319 444.102C92.2648 442.63 96.6016 442.729 100.48 444.38C98.3376 443.063 95.9381 442.253 93.4548 442.008C90.9714 441.763 88.4664 442.09 86.1206 442.965L85.5874 443.161C85.5874 443.161 75.2377 439.547 70.2491 448.95C68.9348 451.498 68.2659 454.347 68.3042 457.233C68.3425 460.119 69.0868 462.948 70.4682 465.458C72.6594 469.471 76.3114 474.266 82.1545 476.878C78.1421 474.405 74.8613 470.85 72.6667 466.595Z" fill="white"/>
        <path opacity="0.2" d="M80.2409 447.979C80.2409 447.979 84.0755 451.088 93.388 447.979H80.2409Z" fill="black"/>
        <path opacity="0.8" d="M79.4229 425.395C79.4229 425.395 85.9964 443.763 85.4559 448.566L90.6636 448.001C90.6636 448.001 81.8989 431.899 84.0901 425.417L79.4229 425.395Z" fill="#6C63FF"/>
        <path opacity="0.2" d="M79.4229 425.395C79.4229 425.395 85.9964 443.763 85.4559 448.566L90.6636 448.001C90.6636 448.001 81.8989 431.899 84.0901 425.417L79.4229 425.395Z" fill="black"/>
        <path opacity="0.8" d="M106.272 426.9C106.272 426.9 95.9151 421.443 91.2844 425.952C86.6537 430.461 85.938 441.986 85.938 441.986C85.938 441.986 102.825 444.388 106.272 426.9Z" fill="#6C63FF"/>
        <path opacity="0.1" d="M106.272 426.9C106.272 426.9 95.9151 421.443 91.2844 425.952C86.6537 430.461 85.938 441.986 85.938 441.986C85.938 441.986 102.825 444.388 106.272 426.9Z" fill="white"/>
        <path opacity="0.8" d="M85.938 441.956C85.938 441.956 88.655 428.579 106.272 426.9" stroke="#6C63FF" stroke-miterlimit="10"/>
    </g>
    <path d="M129.279 460.091C129.279 460.091 118.93 456.478 113.941 465.88C112.627 468.428 111.958 471.277 111.996 474.163C112.035 477.049 112.779 479.878 114.16 482.389C117.432 488.486 124.174 496.398 136.949 495.698C147.788 495.103 151.388 486.574 152.367 478.647C152.741 475.674 152.369 472.651 151.286 469.869C150.202 467.086 148.444 464.637 146.179 462.755C143.914 460.873 141.219 459.622 138.351 459.122C135.483 458.621 132.538 458.887 129.798 459.895L129.279 460.091Z" fill="#6C63FF"/>
    <path opacity="0.1" d="M116.381 483.232C114.999 480.721 114.255 477.892 114.217 475.006C114.178 472.121 114.847 469.272 116.162 466.723C121.143 457.321 131.5 460.934 131.5 460.934L132.033 460.738C135.979 459.267 140.316 459.366 144.194 461.017C142.052 459.7 139.652 458.889 137.169 458.645C134.685 458.4 132.18 458.727 129.835 459.602L129.301 459.797C129.301 459.797 118.952 456.184 113.963 465.586C112.649 468.135 111.98 470.984 112.018 473.87C112.056 476.756 112.801 479.585 114.182 482.095C116.373 486.107 120.025 490.903 125.868 493.515C121.856 491.042 118.575 487.486 116.381 483.232Z" fill="white"/>
    <path opacity="0.2" d="M123.955 464.608C123.955 464.608 127.789 467.717 137.102 464.608H123.955Z" fill="black"/>
    <path d="M123.129 442.009C123.129 442.009 129.703 460.377 129.163 465.18L134.37 464.615C134.37 464.615 125.606 448.513 127.797 442.031L123.129 442.009Z" fill="#6C63FF"/>
    <path opacity="0.2" d="M123.129 442.009C123.129 442.009 129.703 460.377 129.163 465.18L134.37 464.615C134.37 464.615 125.606 448.513 127.797 442.031L123.129 442.009Z" fill="black"/>
    <path d="M149.986 443.537C149.986 443.537 139.629 438.079 134.998 442.589C130.368 447.098 129.652 458.623 129.652 458.623C129.652 458.623 146.539 461.017 149.986 443.537Z" fill="#6C63FF"/>
    <path opacity="0.1" d="M149.986 443.537C149.986 443.537 139.629 438.079 134.998 442.589C130.368 447.098 129.652 458.623 129.652 458.623C129.652 458.623 146.539 461.017 149.986 443.537Z" fill="white"/>
    <path d="M129.652 458.623C129.652 458.623 132.369 445.246 149.986 443.567" stroke="#6C63FF" stroke-miterlimit="10"/>
    <path d="M46.0147 416.489C46.0147 416.489 47.03 415.322 45.1236 414.856V412.936H46.2704C46.2694 410.616 45.4957 408.366 44.0785 406.563C42.6614 404.759 40.6866 403.512 38.4844 403.029V400.703H38.7838V397.692H31.4069V400.703H31.6187V403.06C29.4456 403.568 27.5047 404.822 26.1139 406.617C24.7232 408.411 23.9652 410.639 23.9642 412.936H24.9867V414.781C24.9867 414.781 22.5618 415.962 24.9867 418.07C27.4116 420.178 27.0318 421.751 27.0318 421.751C27.0318 421.751 26.0093 425.696 23.9715 426.223V462.921C23.9715 465.084 24.8049 467.157 26.2883 468.686C27.7718 470.215 29.7837 471.074 31.8816 471.074H38.1338C40.2254 471.066 42.2287 470.205 43.7057 468.678C45.1826 467.152 46.0128 465.085 46.0147 462.929V426.223C46.0147 426.223 42.4431 423.46 43.0932 421.751C43.9409 419.926 44.9174 418.167 46.0147 416.489Z" fill="#6C63FF"/>
</svg>
