<svg viewBox="0 0 887 492" fill="none"
    xmlns="http://www.w3.org/2000/svg">
    <g id="journey" clip-path="url(#clip0)">

        <path id="Vector" d="M232.396 154.009C260.431 154.009 283.159 131.282 283.159 103.246C283.159 75.2109 260.431 52.4836 232.396 52.4836C204.361 52.4836 181.633 75.2109 181.633 103.246C181.633 131.282 204.361 154.009 232.396 154.009Z" fill="#FF6584"/>
        <path id="Vector_2" d="M391.582 259.678H142.556C142.244 259.682 141.932 259.658 141.625 259.605L259.403 55.596C260.122 54.3254 261.165 53.2685 262.426 52.5331C263.687 51.7977 265.121 51.4102 266.58 51.4102C268.04 51.4102 269.474 51.7977 270.735 52.5331C271.996 53.2685 273.039 54.3254 273.758 55.596L352.802 192.502L356.589 199.052L391.582 259.678Z" fill="#3F3D56"/>
        <path id="Vector_3" opacity="0.2" d="M391.582 259.678H306.558L348.296 199.052L351.3 194.685L352.802 192.502L356.589 199.052L391.582 259.678Z" fill="black"/>
        <path id="Vector_4" d="M530.238 259.678H314.851L356.588 199.053L359.592 194.685L413.98 115.678C417.546 110.5 426.124 110.178 430.316 114.702C430.598 115.01 430.859 115.336 431.099 115.678L530.238 259.678Z" fill="#3F3D56"/>
        <path id="Vector_5" d="M593.464 226.116C601.912 226.116 608.76 219.268 608.76 210.82C608.76 202.372 601.912 195.523 593.464 195.523C585.015 195.523 578.167 202.372 578.167 210.82C578.167 219.268 585.015 226.116 593.464 226.116Z" fill="#6C63FF"/>
        <path id="Vector_6" d="M594.938 256.894H591.805L593.233 208.516L594.938 256.894Z" fill="#3F3D56"/>
        <path id="Vector_7" d="M593.509 217.685L596.873 213.031L593.463 218.837L593.095 218.192L593.509 217.685Z" fill="#3F3D56"/>
        <path id="Vector_8" d="M593.141 222.384L589.777 217.731L593.187 223.536L593.555 222.891L593.141 222.384Z" fill="#3F3D56"/>
        <path id="Vector_9" d="M733.78 226.116C742.228 226.116 749.076 219.268 749.076 210.82C749.076 202.372 742.228 195.523 733.78 195.523C725.332 195.523 718.483 202.372 718.483 210.82C718.483 219.268 725.332 226.116 733.78 226.116Z" fill="#6C63FF"/>
        <path id="Vector_10" d="M735.254 256.894H732.121L733.55 208.516L735.254 256.894Z" fill="#3F3D56"/>
        <path id="Vector_11" d="M733.826 217.685L737.19 213.031L733.78 218.837L733.411 218.192L733.826 217.685Z" fill="#3F3D56"/>
        <path id="Vector_12" d="M733.458 222.384L730.094 217.731L733.504 223.536L733.872 222.891L733.458 222.384Z" fill="#3F3D56"/>
        <path id="Vector_13" d="M637.775 211.438C650.252 211.438 660.366 201.324 660.366 188.847C660.366 176.37 650.252 166.255 637.775 166.255C625.298 166.255 615.183 176.37 615.183 188.847C615.183 201.324 625.298 211.438 637.775 211.438Z" fill="#6C63FF"/>
        <path id="Vector_14" d="M639.952 256.894H635.325L637.434 185.444L639.952 256.894Z" fill="#3F3D56"/>
        <path id="Vector_15" d="M637.843 198.985L642.81 192.113L637.775 200.687L637.23 199.734L637.843 198.985Z" fill="#3F3D56"/>
        <path id="Vector_16" d="M637.298 205.926L632.331 199.054L637.366 207.627L637.911 206.675L637.298 205.926Z" fill="#3F3D56"/>
        <path id="Vector_17" d="M692.868 211.438C705.345 211.438 715.46 201.324 715.46 188.847C715.46 176.37 705.345 166.255 692.868 166.255C680.391 166.255 670.276 176.37 670.276 188.847C670.276 201.324 680.391 211.438 692.868 211.438Z" fill="#6C63FF"/>
        <path id="Vector_18" d="M695.046 256.894H690.419L692.528 185.444L695.046 256.894Z" fill="#3F3D56"/>
        <path id="Vector_19" d="M692.936 198.985L697.904 192.113L692.868 200.687L692.324 199.734L692.936 198.985Z" fill="#3F3D56"/>
        <path id="Vector_20" d="M692.392 205.926L687.424 199.054L692.46 207.627L693.004 206.675L692.392 205.926Z" fill="#3F3D56"/>
        <path id="Vector_21" d="M549.969 211.438C562.446 211.438 572.561 201.324 572.561 188.847C572.561 176.37 562.446 166.255 549.969 166.255C537.492 166.255 527.377 176.37 527.377 188.847C527.377 201.324 537.492 211.438 549.969 211.438Z" fill="#6C63FF"/>
        <path id="Vector_22" d="M552.146 256.894H547.519L549.629 185.444L552.146 256.894Z" fill="#3F3D56"/>
        <path id="Vector_23" d="M550.037 198.985L555.004 192.113L549.969 200.687L549.425 199.734L550.037 198.985Z" fill="#3F3D56"/>
        <path id="Vector_24" d="M549.493 205.926L544.525 199.054L549.561 207.627L550.105 206.675L549.493 205.926Z" fill="#3F3D56"/>
        <path id="Vector_25" d="M817.25 491.631H79.984C70.6951 491.631 61.4971 489.802 52.9153 486.247C44.3334 482.692 36.5358 477.482 29.9675 470.914C23.3993 464.346 18.189 456.548 14.6343 447.966C11.0796 439.384 9.25 430.186 9.25 420.897C9.25 411.608 11.0796 402.41 14.6343 393.828C18.189 385.247 23.3993 377.449 29.9675 370.881C36.5358 364.312 44.3334 359.102 52.9153 355.548C61.4971 351.993 70.6951 350.163 79.984 350.163H815.617C822.833 350.163 829.753 347.297 834.855 342.195C839.957 337.093 842.823 330.173 842.823 322.958C842.823 315.743 839.957 308.823 834.855 303.721C829.753 298.619 822.833 295.752 815.617 295.752H55.4992V252.224H815.617C834.377 252.224 852.369 259.676 865.634 272.941C878.899 286.207 886.351 304.198 886.351 322.958C886.351 341.718 878.899 359.709 865.634 372.974C852.369 386.24 834.377 393.692 815.617 393.692H79.984C72.7687 393.692 65.8489 396.558 60.7469 401.66C55.6449 406.762 52.7786 413.682 52.7786 420.897C52.7786 428.113 55.6449 435.032 60.7469 440.134C65.8489 445.236 72.7687 448.103 79.984 448.103H817.25V491.631Z" fill="#E6E6E6"/>
        <path id="Vector_26" d="M116.439 272.9H82.7046V275.076H116.439V272.9Z" fill="white"/>
        <path id="Vector_27" d="M212.202 272.9H178.467V275.076H212.202V272.9Z" fill="white"/>
        <path id="Vector_28" d="M307.965 272.9H274.23V275.076H307.965V272.9Z" fill="white"/>
        <path id="Vector_29" d="M403.728 272.9H369.993V275.076H403.728V272.9Z" fill="white"/>
        <path id="Vector_30" d="M499.491 272.9H465.756V275.076H499.491V272.9Z" fill="white"/>
        <path id="Vector_31" d="M595.254 272.9H561.519V275.076H595.254V272.9Z" fill="white"/>
        <path id="Vector_32" d="M691.017 272.9H657.282V275.076H691.017V272.9Z" fill="white"/>
        <path id="Vector_33" d="M786.78 272.9H753.045V275.076H786.78V272.9Z" fill="white"/>
        <path id="Vector_34" d="M116.439 370.839H82.7046V373.016H116.439V370.839Z" fill="white"/>
        <path id="Vector_35" d="M212.202 370.839H178.467V373.016H212.202V370.839Z" fill="white"/>
        <path id="Vector_36" d="M307.965 370.839H274.23V373.016H307.965V370.839Z" fill="white"/>
        <path id="Vector_37" d="M403.728 370.839H369.993V373.016H403.728V370.839Z" fill="white"/>
        <path id="Vector_38" d="M499.491 370.839H465.756V373.016H499.491V370.839Z" fill="white"/>
        <path id="Vector_39" d="M595.254 370.839H561.519V373.016H595.254V370.839Z" fill="white"/>
        <path id="Vector_40" d="M691.017 370.839H657.282V373.016H691.017V370.839Z" fill="white"/>
        <path id="Vector_41" d="M786.78 370.839H753.045V373.016H786.78V370.839Z" fill="white"/>
        <path id="Vector_42" d="M116.439 468.779H82.7046V470.955H116.439V468.779Z" fill="white"/>
        <path id="Vector_43" d="M212.202 468.779H178.467V470.955H212.202V468.779Z" fill="white"/>
        <path id="Vector_44" d="M307.965 468.779H274.23V470.955H307.965V468.779Z" fill="white"/>
        <path id="Vector_45" d="M403.728 468.779H369.993V470.955H403.728V468.779Z" fill="white"/>
        <path id="Vector_46" d="M499.491 468.779H465.756V470.955H499.491V468.779Z" fill="white"/>
        <path id="Vector_47" d="M595.254 468.779H561.519V470.955H595.254V468.779Z" fill="white"/>
        <path id="Vector_48" d="M691.017 468.779H657.282V470.955H691.017V468.779Z" fill="white"/>
        <path id="Vector_49" d="M786.78 468.779H753.045V470.955H786.78V468.779Z" fill="white"/>
        <path id="Vector_50" d="M591.868 86.374C595.412 86.3707 598.898 87.2716 601.997 88.9914H581.765C584.854 87.2721 588.332 86.3711 591.868 86.374Z" fill="#E6E6E6"/>
        <path id="Vector_51" d="M552.607 83.7566C558.527 83.7497 564.304 85.5786 569.141 88.9914H536.095C540.926 85.5826 546.694 83.7539 552.607 83.7566Z" fill="#E6E6E6"/>
        <path id="Vector_52" d="M330.212 50.6231C330.93 37.9273 336.133 25.8992 344.895 16.6832C353.656 7.46721 365.406 1.66244 378.049 0.303818C390.693 -1.05481 403.407 2.12103 413.927 9.26511C424.446 16.4092 432.087 27.0571 435.486 39.3105C436.136 39.2872 436.785 39.261 437.441 39.261C449.033 39.2632 460.313 43.0186 469.594 49.9655C478.874 56.9124 485.655 66.6773 488.923 77.7994C496.605 74.4242 505.189 73.692 513.331 75.7173C521.473 77.7426 528.714 82.4111 533.919 88.9916H366.547C361.664 89.0054 356.829 88.0338 352.33 86.1349C347.832 84.2361 343.763 81.449 340.367 77.9406C336.971 74.4321 334.317 70.2745 332.566 65.7166C330.815 61.1587 330.001 56.2942 330.174 51.4145C330.184 51.151 330.197 50.8872 330.212 50.6231Z" fill="#E6E6E6"/>
        <path id="Vector_53" d="M604.081 125.55C600.537 125.546 597.05 126.447 593.952 128.167H614.184C611.094 126.448 607.617 125.547 604.081 125.55Z" fill="#E6E6E6"/>
        <path id="Vector_54" d="M643.342 122.932C637.422 122.925 631.645 124.754 626.808 128.167H659.853C655.022 124.758 649.254 122.93 643.342 122.932Z" fill="#E6E6E6"/>
        <path id="Vector_55" d="M865.737 89.7989C865.019 77.1031 859.815 65.075 851.054 55.859C842.292 46.643 830.542 40.8382 817.899 39.4796C805.256 38.121 792.541 41.2968 782.022 48.4409C771.502 55.585 763.862 66.2329 760.463 78.4863C759.813 78.4629 759.163 78.4368 758.507 78.4368C746.915 78.439 735.635 82.1944 726.355 89.1413C717.075 96.0882 710.293 105.853 707.025 116.975C699.344 113.6 690.76 112.868 682.618 114.893C674.475 116.918 667.235 121.587 662.03 128.167H829.402C834.285 128.181 839.12 127.21 843.618 125.311C848.117 123.412 852.186 120.625 855.582 117.116C858.978 113.608 861.631 109.45 863.383 104.892C865.134 100.334 865.948 95.4699 865.775 90.5902C865.764 90.3268 865.752 90.063 865.737 89.7989Z" fill="#E6E6E6"/>
        <g id="car">
            <g id="upper-body">
                <path id="Vector_56" d="M754.152 461.213L773.604 461.223L773.606 458.135L754.154 458.125L754.152 461.213Z" fill="#3F3D56"/>
                <path id="Vector_57" d="M613.507 458.822L617.521 459.75L770.054 459.832L771.426 456.636C773.818 451.154 774.639 445.115 773.797 439.194C773.14 434.78 771.494 430.395 767.755 428.49L760.986 383.406L676.597 383.255L643.948 409.589C643.948 409.589 628.546 409.312 620.179 419.728C617.161 423.602 615.379 428.294 615.065 433.194L614.735 438.613L613.507 458.822Z" fill="#6C63FF"/>
                <path id="Vector_58" d="M656.92 406.511L702.483 406.53H708.045L717.435 406.537V405.852L717.442 397.594L717.449 388.322H711.201L705.639 388.316L695.787 388.309H690.225L678.851 388.302L656.92 406.511Z" fill="white"/>
                <path id="Vector_59" d="M724.849 406.544L748.929 406.557L748.935 401.832V393.574L748.942 388.342H745.416L739.854 388.335L724.856 388.329L724.849 406.544Z" fill="white"/>
                <path id="Vector_60" d="M714.339 425.991L717.427 425.993L717.43 420.126L714.342 420.125L714.339 425.991Z" fill="#3F3D56"/>
                <path id="Vector_61" d="M669.264 414.851L669.266 411.763L663.399 411.76L663.397 414.848L669.264 414.851Z" fill="#3F3D56"/>
                <path id="Vector_62" d="M667.104 413.121L666.764 413.121C665.916 413.12 665.077 412.953 664.295 412.628C663.512 412.304 662.801 411.828 662.202 411.228C661.603 410.629 661.128 409.917 660.804 409.134C660.48 408.351 660.313 407.512 660.314 406.664C660.314 405.817 660.482 404.978 660.807 404.195C661.131 403.412 661.607 402.701 662.207 402.102C662.806 401.503 663.518 401.028 664.301 400.704C665.084 400.38 665.923 400.214 666.771 400.214L667.11 400.214L667.104 413.121Z" fill="#3F3D56"/>
                <path id="Vector_63" d="M614.734 438.613C617.069 438.867 619.419 438.289 621.37 436.98C623.32 435.672 624.746 433.717 625.397 431.46C626.048 429.203 625.881 426.789 624.927 424.643C623.972 422.497 622.291 420.756 620.179 419.728C617.161 423.601 615.378 428.294 615.065 433.194L614.734 438.613Z" fill="#3F3D56"/>
                <path id="Vector_64" d="M705.639 388.316L717.435 405.852L717.442 397.594L711.201 388.322L705.639 388.316Z" fill="#F2F2F2"/>
                <path id="Vector_65" d="M739.854 388.335L748.935 401.832V393.574L745.416 388.342L739.854 388.335Z" fill="#F2F2F2"/>
                <path id="Vector_66" d="M690.225 388.309L702.483 406.53H708.045L695.787 388.309H690.225Z" fill="#F2F2F2"/>
            </g>
            <g id="back-wheel">
                <path id="Vector_67" d="M739.95 476.952C750.352 476.952 758.785 468.52 758.785 458.117C758.785 447.715 750.352 439.282 739.95 439.282C729.547 439.282 721.115 447.715 721.115 458.117C721.115 468.52 729.547 476.952 739.95 476.952Z" fill="#3F3D56"/>
                <path id="Vector_68" d="M739.95 468.031C745.425 468.031 749.863 463.592 749.863 458.117C749.863 452.642 745.425 448.204 739.95 448.204C734.475 448.204 730.037 452.642 730.037 458.117C730.037 463.592 734.475 468.031 739.95 468.031Z" fill="#CCCCCC"/>
            </g>
            <g id="front-wheel">
                <path id="Vector_69" d="M647.009 476.903C657.412 476.903 665.844 468.47 665.844 458.068C665.844 447.665 657.412 439.232 647.009 439.232C636.607 439.232 628.174 447.665 628.174 458.068C628.174 468.47 636.607 476.903 647.009 476.903Z" fill="#3F3D56"/>
                <path id="Vector_70" d="M647.009 467.981C652.484 467.981 656.923 463.542 656.923 458.068C656.923 452.593 652.484 448.154 647.009 448.154C641.534 448.154 637.096 452.593 637.096 458.068C637.096 463.542 641.534 467.981 647.009 467.981Z" fill="#CCCCCC"/>
            </g>
        </g>
        <g id="Ellipse 3">
            <path d="M648.398 458.518C648.398 459.346 647.726 460.018 646.898 460.018C646.07 460.018 645.398 459.346 645.398 458.518C645.398 457.689 646.07 457.018 646.898 457.018C647.726 457.018 648.398 457.689 648.398 458.518Z" fill="white"/>
            <path d="M741.5 458.518C741.5 459.346 740.828 460.018 740 460.018C739.172 460.018 738.5 459.346 738.5 458.518C738.5 457.689 739.172 457.018 740 457.018C740.828 457.018 741.5 457.689 741.5 458.518Z" fill="white"/>
        </g>

    </g>
    <defs>
        <clipPath id="clip0">
            <rect width="886.351" height="491.631" fill="white"/>
        </clipPath>
    </defs>
</svg>
