<svg viewBox="0 0 546 415" fill="none"
    xmlns="http://www.w3.org/2000/svg">
    <g id="tiding" clip-path="url(#clip0)">
        <path id="Vector" d="M517.006 339.364C526.555 371.055 434.642 443.46 272.931 403.04C142.731 370.497 28.8565 356.713 28.8565 339.364C28.8565 322.015 138.132 340.213 272.931 340.213C407.73 340.213 511.973 322.661 517.006 339.364Z" fill="#3F3D56"/>
        <path id="Vector_2" opacity="0.1" d="M517.006 339.364C526.555 371.055 434.642 443.46 272.931 403.04C142.731 370.497 28.8565 356.713 28.8565 339.364C28.8565 322.015 138.132 340.213 272.931 340.213C407.73 340.213 511.973 322.661 517.006 339.364Z" fill="black"/>
        <path id="Vector_3" d="M517.006 339.364C526.555 371.055 434.642 411.197 272.931 370.778C142.731 338.234 28.8565 356.713 28.8565 339.364C28.8565 322.015 138.132 307.95 272.931 307.95C407.73 307.95 511.973 322.661 517.006 339.364Z" fill="#3F3D56"/>
        <path id="Vector_4" opacity="0.1" d="M351.415 362.123C361.841 362.123 370.293 359.395 370.293 356.031C370.293 352.667 361.841 349.939 351.415 349.939C340.989 349.939 332.537 352.667 332.537 356.031C332.537 359.395 340.989 362.123 351.415 362.123Z" fill="black"/>
        <path id="Vector_5" opacity="0.1" d="M428.378 362.123C438.804 362.123 447.255 359.395 447.255 356.031C447.255 352.667 438.804 349.939 428.378 349.939C417.952 349.939 409.5 352.667 409.5 356.031C409.5 359.395 417.952 362.123 428.378 362.123Z" fill="black"/>
        <path id="Vector_6" opacity="0.1" d="M273 344.524C307.084 344.524 334.715 337.554 334.715 328.956C334.715 320.358 307.084 313.388 273 313.388C238.916 313.388 211.285 320.358 211.285 328.956C211.285 337.554 238.916 344.524 273 344.524Z" fill="black"/>
        <path id="Vector_7" d="M546 281.576V0H0V281.576H251.944V319.216C239.361 320.62 230.888 323.243 230.888 326.249C230.888 330.735 249.742 334.371 273 334.371C296.258 334.371 315.112 330.735 315.112 326.249C315.112 323.243 306.639 320.62 294.056 319.216V281.576H546Z" fill="#3F3D56"/>
        <path id="Vector_8" d="M517.684 9.86493H28.3165V262.235H517.684V9.86493Z" fill="#F2F2F2"/>
        <path id="Vector_9" opacity="0.1" d="M517.684 10.153C517.684 10.153 314.386 29.782 277.356 105.591C240.327 181.4 28.3165 261.947 28.3165 261.947H517.684V10.153Z" fill="black"/>
        <path id="Vector_10" d="M426.378 130.635V149.349H351.236V131.779H349.058V356.031H351.236V315.884H426.378V356.031H428.556V130.635H426.378ZM426.378 151.38V182.25H351.236V151.38L426.378 151.38ZM351.236 248.052V217.182H426.378V248.052H351.236ZM426.378 250.082V280.952H351.236V250.082H426.378ZM351.236 215.151V184.28H426.378V215.151H351.236ZM351.236 313.854V282.983H426.378V313.854H351.236Z" fill="#2F2E41"/>
        <path id="Vector_11" d="M327.543 135.091V137.896C327.543 137.896 325.393 138.697 325.393 141.903C325.393 145.109 323.674 157.131 323.674 157.131C323.674 157.131 326.683 159.535 329.262 158.733C330.69 158.329 332.008 157.646 333.131 156.73L333.561 144.308L331.841 141.102V135.492L327.543 135.091Z" fill="#6C63FF"/>
        <path id="Vector_12" d="M333.131 131.484C333.131 131.484 328.402 129.08 327.543 131.484C326.683 133.889 324.104 139.098 327.543 139.499C330.981 139.9 334.42 137.095 334.42 137.095L333.131 131.484Z" fill="#FFB8B8"/>
        <path id="Vector_13" d="M356.402 147.716C356.402 147.716 353.814 150.903 357.569 181.993C361.324 213.082 359.16 235.72 366.29 235.41C366.29 235.41 364.429 242.151 370.487 242.4C376.545 242.648 379.312 243.04 379.784 241.483C380.255 239.925 380.994 232.72 379.349 232.792C379.349 232.792 379.451 234.837 380.138 226.609C380.825 218.382 378.879 179.528 381.365 174.297L391.087 192.83C391.087 192.83 391.522 201.521 393.372 205.539C395.222 209.558 399.142 232.955 399.142 232.955L398.773 236.557C398.773 236.557 412.036 238.03 412.482 235.961C412.928 233.892 412.775 230.825 412.175 229.826C411.576 228.827 411.576 228.827 412.57 226.735C413.01 225.948 413.264 225.082 413.315 224.196C413.365 223.31 413.211 222.424 412.862 221.599C412.237 220.089 410.573 186.859 410.573 186.859C410.573 186.859 407.454 146.519 400.77 144.761C394.087 143.002 356.402 147.716 356.402 147.716Z" fill="#2F2E41"/>
        <path id="Vector_14" d="M368.088 238.405L364.06 245.753C364.06 245.753 357.09 243.751 358.755 249.571C365.446 249.765 372.141 249.388 378.758 248.444C378.758 248.444 381.552 249.347 382.023 247.79C382.495 246.232 380.307 240.948 378.661 241.019C377.016 241.091 368.088 238.405 368.088 238.405Z" fill="#2F2E41"/>
        <path id="Vector_15" d="M399.793 234.976C399.793 234.976 395.866 244.369 397.537 244.809C399.208 245.248 414.117 246.649 415.239 247.112C416.362 247.576 421.871 247.848 422.266 244.757C422.661 241.666 419.319 240.787 419.319 240.787C419.319 240.787 413.236 240.027 411.334 234.986C409.433 229.945 399.793 234.976 399.793 234.976Z" fill="#2F2E41"/>
        <path id="Vector_16" d="M362.565 71.5035C368.906 71.5035 374.047 66.7111 374.047 60.7993C374.047 54.8875 368.906 50.095 362.565 50.095C356.223 50.095 351.083 54.8875 351.083 60.7993C351.083 66.7111 356.223 71.5035 362.565 71.5035Z" fill="#FFB8B8"/>
        <path id="Vector_17" d="M356.522 65.8697C356.522 65.8697 359.543 80.5176 358.335 83.3345C357.126 86.1514 375.256 82.2078 375.256 82.2078C375.256 82.2078 371.63 67.5598 372.234 64.1796C372.838 60.7993 356.522 65.8697 356.522 65.8697Z" fill="#FFB8B8"/>
        <path id="Vector_18" d="M362.216 47.578C361.261 47.4167 360.28 47.4571 359.344 47.6962C358.595 48.0054 357.905 48.4271 357.303 48.9445C356.209 49.7569 355.041 50.4782 353.812 51.1001C352.786 51.5118 351.862 52.1158 351.097 52.8747C350.774 53.2893 350.516 53.7447 350.33 54.2272C349.153 57.0311 348.836 60.0855 349.416 63.0478C349.482 63.4687 349.617 63.8774 349.819 64.259C350.447 65.3378 351.834 65.763 353.003 66.3285C355.222 67.4022 356.904 69.2102 358.723 70.808C359.399 71.437 360.159 71.9827 360.984 72.4318C363.58 73.7514 366.753 73.3209 369.667 72.8543C369.874 72.8539 370.078 72.8154 370.269 72.7411C370.459 72.6667 370.632 72.5579 370.777 72.421C370.922 72.2841 371.037 72.1218 371.115 71.9433C371.192 71.7649 371.231 71.5739 371.229 71.3814L373.53 61.736C373.947 60.307 374.145 58.8302 374.119 57.3493C373.959 55.0079 372.599 51.7645 370.756 50.1013C368.608 48.1634 365.024 47.8551 362.216 47.578Z" fill="#2F2E41"/>
        <path id="Vector_19" d="M353.763 84.1993C353.763 84.1993 354.623 78.5892 359.781 78.1884C362.699 77.9317 365.579 77.3945 368.378 76.5855C368.808 76.5855 374.396 76.9863 376.975 79.3906C376.975 79.3906 378.695 81.7949 379.554 80.1921C380.414 78.5892 380.414 77.7877 382.133 78.5892C383.853 79.3906 383.853 76.1848 386.862 76.5855C389.871 76.9863 397.608 95.0188 397.608 95.0188L395.029 97.8238C395.029 97.8238 391.59 119.463 397.608 128.679C403.626 137.896 406.205 147.914 400.187 149.918C394.169 151.921 352.044 169.954 353.763 158.734C355.483 147.513 354.193 129.882 352.474 129.481C350.754 129.08 341.298 97.4231 341.298 97.4231C341.678 95.4132 342.583 93.5213 343.932 91.9141C345.281 90.3069 347.034 89.0336 349.035 88.2065C355.913 85.4014 353.763 84.1993 353.763 84.1993Z" fill="#575A88"/>
        <g id="right_hand">
            <path id="Vector_20" d="M409.775 23.6902C409.775 23.6902 402.299 24.4917 402.299 27.6975C402.299 30.9032 396.318 42.9249 396.318 42.9249C396.318 42.9249 406.784 45.3292 415.755 44.5278C424.726 43.7263 429.211 42.5242 429.211 42.5242L430.706 30.1018L424.726 26.896L409.775 23.6902Z" fill="#6C63FF"/>
            <path id="Vector_21" d="M410.503 51.7407V44.127C410.503 44.127 401.477 27.2967 408.784 27.2967C416.091 27.2967 416.951 42.5241 416.951 42.5241V53.3436L410.503 51.7407Z" fill="#FFB8B8"/>
            <path id="Vector_22" d="M384.713 78.1884L386.862 76.5855C386.862 76.5855 390.73 76.5855 391.16 75.7841C391.59 74.9826 393.739 74.9826 395.459 74.1812C397.178 73.3797 395.029 72.1776 397.178 71.3761C399.327 70.5747 399.327 71.3761 399.327 69.3725C399.327 67.3689 404.915 65.3653 405.345 62.961C405.775 60.5566 410.074 49.3364 410.074 49.3364L418.241 51.7408L416.091 66.1667C416.091 66.1667 416.091 73.3797 412.223 78.1884C408.354 82.997 399.757 95.0187 395.459 95.4194C391.16 95.8202 384.713 78.1884 384.713 78.1884Z" fill="#575A88"/>
        </g>
        <path id="Vector_23" d="M343.877 95.4195L341.298 97.4231C341.298 97.4231 340.438 106.239 340.438 106.64C340.438 107.04 341.298 111.849 340.438 112.25C339.578 112.651 337.859 120.665 338.289 121.066V122.268L332.271 131.084V139.499L346.456 131.084C346.456 131.084 354.623 130.282 353.334 123.47C352.044 116.658 343.877 95.4195 343.877 95.4195Z" fill="#575A88"/>
        <path id="Vector_24" d="M273 281.576C277.411 281.576 280.987 278.242 280.987 274.13C280.987 270.018 277.411 266.685 273 266.685C268.589 266.685 265.013 270.018 265.013 274.13C265.013 278.242 268.589 281.576 273 281.576Z" fill="#6C63FF"/>
    </g>
    <defs>
        <clipPath id="clip0">
            <rect width="546" height="415" fill="white"/>
        </clipPath>
    </defs>
</svg>
