<svg viewBox="0 0 685 509" fill="none"
    xmlns="http://www.w3.org/2000/svg">
    <path opacity="0.1" d="M108.451 481.458C141.697 481.458 168.649 476.71 168.649 470.853C168.649 464.997 141.697 460.249 108.451 460.249C75.2043 460.249 48.2526 464.997 48.2526 470.853C48.2526 476.71 75.2043 481.458 108.451 481.458Z" fill="black"/>
    <path opacity="0.1" d="M327.72 507.427C360.966 507.427 387.918 502.68 387.918 496.823C387.918 490.966 360.966 486.219 327.72 486.219C294.473 486.219 267.522 490.966 267.522 496.823C267.522 502.68 294.473 507.427 327.72 507.427Z" fill="black"/>
    <path d="M50.2419 266.95C54.5965 273.011 59.2944 279.946 63.9309 287.505L64.5928 252.638L64.9582 252.882C60.0126 249.106 54.5819 246.077 48.8261 243.883L49.1913 244.095L50.2419 266.95Z" fill="#E6E6E6"/>
    <path d="M48.4587 243.749C42.4873 241.624 36.6933 240.919 31.3972 241.905C31.1217 241.956 30.8508 242.015 30.5806 242.075C31.9263 243.581 39.7682 252.479 49.4762 265.888L48.4587 243.749Z" fill="#E6E6E6"/>
    <path d="M83.3999 325.615C84.1139 327.394 84.7929 329.161 85.4369 330.916L97.6922 293.154L98.0447 293.505C96.5974 290.665 95.0633 287.903 93.4424 285.22L83.567 325.769L83.3999 325.615Z" fill="#E6E6E6"/>
    <path d="M76.2436 309.691L82.6481 270.101L83.0117 270.405C77.7906 263.95 71.8553 258.162 65.3296 253.164L64.6547 288.695C68.9693 295.8 72.8323 302.799 76.2436 309.691Z" fill="#E6E6E6"/>
    <path d="M11.1615 281.677L11.0118 281.194C11.5666 287.183 12.6999 293.098 14.3942 298.849L73.2835 305.188C70.2092 299.272 67.0357 293.722 63.9548 288.663L11.1615 281.677Z" fill="#E6E6E6"/>
    <path d="M14.6887 299.815L14.5333 299.332C15.1291 301.359 15.7969 303.409 16.5368 305.481L16.3782 304.999L75.9795 310.528C75.2596 309.058 74.5316 307.608 73.7953 306.177L14.6887 299.815Z" fill="#E6E6E6"/>
    <path d="M82.9781 324.586L92.7712 284.375L93.1296 284.704C90.1746 279.855 86.9094 275.218 83.3562 270.827L76.8652 310.953C79.1149 315.562 81.1525 320.106 82.9781 324.586Z" fill="#E6E6E6"/>
    <path d="M85.4703 332.935L27.4703 327.106C30.624 331.539 34.0588 335.747 37.7516 339.701L37.6078 339.165L90.625 350.546C89.2457 344.574 87.5244 338.692 85.4703 332.935Z" fill="#E6E6E6"/>
    <path d="M30.1022 242.457L30.2388 242.152C22.2656 244.041 16.6362 249.702 13.5387 257.895L49.0186 266.261C38.5117 251.756 30.2215 242.589 30.1022 242.457Z" fill="#E6E6E6"/>
    <path d="M86.5112 333.912C88.332 339.117 89.8799 344.422 91.148 349.803L104.96 313.655L105.297 314.008C104.423 308.978 102.941 304.084 100.888 299.442C100.073 297.622 99.2199 295.83 98.3289 294.065L85.9273 332.276C86.1231 332.822 86.3222 333.369 86.5112 333.912Z" fill="#E6E6E6"/>
    <path d="M63.3378 287.655C58.749 280.185 54.1042 273.333 49.7994 267.343L13.5055 258.785L13.3825 258.307C11.1168 264.534 10.2883 272.183 10.9746 280.727L63.3378 287.655Z" fill="#E6E6E6"/>
    <path d="M26.766 326.1L85.0974 331.961L85.1091 331.925C82.5787 324.963 79.6907 318.149 76.4578 311.511L16.7098 305.969C17.7242 308.772 18.8706 311.605 20.1491 314.468C22.0113 318.547 24.2261 322.441 26.766 326.1Z" fill="#E6E6E6"/>
    <path d="M167.74 337.907L167.873 338.337C166.371 332.138 164.04 326.19 160.948 320.669L161.1 321.076L147.94 339.377C147.589 346.944 146.968 355.412 145.919 364.32L167.74 337.907Z" fill="#E6E6E6"/>
    <path d="M160.747 320.322C157.446 314.71 153.415 310.311 148.734 307.545C148.49 307.401 148.245 307.267 148.001 307.133C148.116 309.189 148.718 321.261 147.999 338.05L160.747 320.322Z" fill="#E6E6E6"/>
    <path d="M137.621 406.63C137.084 408.476 136.527 410.288 135.95 412.068L168.469 391.142L168.526 391.647C169.148 388.496 169.654 385.348 170.045 382.202L137.656 406.86L137.621 406.63Z" fill="#E6E6E6"/>
    <path d="M141.842 389.603L170.972 363.374L171.067 363.85C170.991 355.403 169.957 346.995 167.986 338.802L145.75 365.718C144.73 374.062 143.427 382.024 141.842 389.603Z" fill="#E6E6E6"/>
    <path d="M171.074 364.404L141.55 390.988C140.466 396.035 139.257 400.892 137.926 405.557L170.045 381.105L170.12 381.597C170.808 375.895 171.127 370.151 171.074 364.404Z" fill="#E6E6E6"/>
    <path d="M114.093 454.176C114.119 453.761 114.144 453.335 114.168 452.898C119.429 446.356 123.917 439.177 127.533 431.515L109.701 408.327C109.468 407.536 109.223 406.747 108.968 405.96L127.948 430.641C130.536 425.123 132.805 419.448 134.742 413.646L97.204 374.296C97.3212 373.987 97.44 373.671 97.5599 373.349L135.05 412.648L135.081 412.628C137.387 405.581 139.328 398.411 140.895 391.147L103.667 352.691C103.745 352.334 103.822 351.975 103.898 351.614L141.128 390.071C141.471 388.46 141.797 386.858 142.104 385.267L104.985 345.824C105.047 345.448 105.108 345.07 105.166 344.691L142.315 384.164C143.563 377.562 144.511 371.175 145.23 365.228L108.839 324.709L109.019 324.238C108.157 325.548 107.319 326.923 106.502 328.347C106.524 323.844 106.174 319.348 105.455 314.908L91.5108 351.402C92.6375 356.434 93.4448 361.538 93.9275 366.681C93.843 367.55 93.7668 368.425 93.7062 369.309L94.1644 369.789C94.1934 370.258 94.2203 370.726 94.2428 371.192L93.6332 370.553C93.6045 371.065 93.5828 371.581 93.5616 372.097C93.2762 365.156 92.3649 358.259 90.8398 351.496L38.2106 340.198C40.8617 343.037 43.6401 345.797 46.4796 348.459C40.9678 346.656 35.2485 345.636 29.4759 345.426L29.8861 345.51L37.6547 366.907C43.5914 371.266 50.1135 376.347 56.762 382.04L47.1981 349.129C47.5525 349.458 47.9077 349.785 48.2637 350.111L57.8029 382.938C64.0108 388.304 69.7577 393.714 75.0433 399.168L70.6595 368.274C70.9669 368.498 71.2727 368.719 71.5768 368.939L76.0081 400.167C79.5129 403.825 82.7968 407.49 85.8598 411.161L83.735 377.29C84.0365 377.487 84.3326 377.68 84.6231 377.868L86.7703 412.097L86.5659 412.004C87.7718 413.466 88.9408 414.927 90.073 416.388L90.4837 381.562C90.8 381.756 91.0923 381.934 91.3607 382.096L90.9427 417.524C91.2905 417.98 91.6419 418.436 91.9825 418.891C95.256 423.254 98.2994 427.8 101.099 432.509L101.297 429.34C101.541 430.279 101.786 431.203 102.03 432.11L101.918 433.912C102.326 434.621 102.722 435.328 103.113 436.036C103.417 437.115 103.719 438.165 104.017 439.184C103.152 437.512 102.249 435.857 101.307 434.218L47.9087 440.448C75.9856 455.861 110.827 463.167 113.047 463.622C112.521 461.192 111.88 458.782 111.143 456.395C111.335 456.186 111.524 455.974 111.714 455.763C111.805 456.048 111.898 456.333 111.986 456.618C111.887 456.728 111.789 456.842 111.69 456.952C111.8 456.897 111.915 456.841 112.035 456.781C112.548 458.459 113.008 460.132 113.414 461.799C113.577 460.444 113.795 458.387 113.984 455.786C123.601 450.762 148.507 436.081 161.152 413.063L128.107 431.89C124.341 439.897 119.633 447.383 114.093 454.176ZM103.144 399.8L103.226 398.493L104.064 399.583L103.982 400.89L103.144 399.8Z" fill="#E6E6E6"/>
    <path d="M147.398 307.109L147.69 306.965C140.395 303.113 132.599 303.726 125.206 307.975L147.418 338.033C148.192 319.868 147.41 307.289 147.398 307.109Z" fill="#E6E6E6"/>
    <path d="M134.946 415.091C133.167 420.312 131.117 425.429 128.805 430.417L161.536 411.769L161.58 412.265C163.981 407.809 165.832 403.053 167.087 398.112C167.572 396.168 168.01 394.22 168.403 392.267L135.496 413.443C135.314 413.994 135.133 414.547 134.946 415.091Z" fill="#E6E6E6"/>
    <path d="M147.358 339.386L124.636 308.638L124.833 308.188C119.283 311.476 113.969 316.816 109.276 323.852L145.371 364.041C146.402 355.233 147.013 346.864 147.358 339.386Z" fill="#E6E6E6"/>
    <path d="M29.0869 345.418C22.7784 345.323 17.0594 346.521 12.3145 349.167C12.0677 349.304 11.8275 349.448 11.5883 349.592C13.3143 350.591 23.4077 356.523 36.612 366.144L29.0869 345.418Z" fill="#E6E6E6"/>
    <path d="M57.1278 383.134L4.85064 393.519L4.56509 393.107C6.86666 398.624 9.69645 403.884 13.0113 408.807L70.8944 395.84C66.2183 391.206 61.5561 386.951 57.1278 383.134Z" fill="#E6E6E6"/>
    <path d="M75.0399 400.049C73.9198 398.883 72.7978 397.739 71.6739 396.616L13.5773 409.63L13.2865 409.221C14.4535 410.957 15.6957 412.691 17.0133 414.423L16.7196 414.016L75.0399 400.049Z" fill="#E6E6E6"/>
    <path d="M100.822 433.384C97.741 428.149 94.3619 423.111 90.703 418.298L33.8169 431.463C38.1292 434.661 42.6421 437.555 47.3251 440.124L47.0296 439.661L100.822 433.384Z" fill="#E6E6E6"/>
    <path d="M11.2467 350.11L11.286 349.775C4.26288 354.143 0.585805 361.343 0.0669785 370.134L36.2874 366.646C21.9988 356.241 11.3989 350.196 11.2467 350.11Z" fill="#E6E6E6"/>
    <path d="M37.3506 367.424L0.299057 370.991L0.0404927 370.577C-0.270015 377.229 1.20784 384.771 4.39106 392.675L56.2424 382.374C49.6656 376.75 43.2188 371.732 37.3506 367.424Z" fill="#E6E6E6"/>
    <path d="M90.0604 417.454C85.5917 411.649 80.8266 406.1 75.7859 400.83L17.3222 414.831C19.1172 417.169 21.0466 419.494 23.1106 421.805C26.0898 425.083 29.3494 428.072 32.8488 430.732L90.06 417.492L90.0604 417.454Z" fill="#E6E6E6"/>
    <path d="M50.2419 266.95C54.5965 273.011 59.2944 279.946 63.9309 287.505L64.5928 252.638L64.9582 252.882C60.0126 249.106 54.5819 246.077 48.8261 243.883L49.1913 244.095L50.2419 266.95Z" fill="#6C63FF"/>
    <path d="M48.4587 243.749C42.4873 241.624 36.6933 240.919 31.3972 241.905C31.1217 241.956 30.8508 242.015 30.5806 242.075C31.9263 243.581 39.7682 252.479 49.4762 265.888L48.4587 243.749Z" fill="#6C63FF"/>
    <path d="M83.3999 325.615C84.1139 327.394 84.7929 329.161 85.4369 330.916L97.6922 293.154L98.0447 293.505C96.5974 290.665 95.0633 287.903 93.4424 285.22L83.567 325.769L83.3999 325.615Z" fill="#6C63FF"/>
    <path d="M76.2436 309.691L82.6481 270.101L83.0117 270.405C77.7906 263.95 71.8553 258.162 65.3296 253.164L64.6547 288.695C68.9693 295.8 72.8323 302.799 76.2436 309.691Z" fill="#6C63FF"/>
    <path d="M11.1615 281.677L11.0118 281.194C11.5666 287.183 12.6999 293.098 14.3942 298.849L73.2835 305.188C70.2092 299.272 67.0357 293.722 63.9548 288.663L11.1615 281.677Z" fill="#6C63FF"/>
    <path d="M14.6887 299.815L14.5333 299.332C15.1291 301.359 15.7969 303.409 16.5368 305.481L16.3782 304.999L75.9795 310.528C75.2596 309.058 74.5316 307.608 73.7953 306.177L14.6887 299.815Z" fill="#6C63FF"/>
    <path d="M82.9781 324.586L92.7712 284.375L93.1296 284.704C90.1746 279.855 86.9094 275.218 83.3562 270.827L76.8652 310.953C79.1149 315.562 81.1525 320.106 82.9781 324.586Z" fill="#6C63FF"/>
    <path d="M85.4703 332.935L27.4703 327.106C30.624 331.539 34.0588 335.747 37.7516 339.701L37.6078 339.165L90.625 350.546C89.2457 344.574 87.5244 338.692 85.4703 332.935Z" fill="#6C63FF"/>
    <path d="M30.1022 242.457L30.2388 242.152C22.2656 244.041 16.6362 249.702 13.5387 257.895L49.0186 266.261C38.5117 251.756 30.2215 242.589 30.1022 242.457Z" fill="#6C63FF"/>
    <path d="M86.5112 333.912C88.332 339.117 89.8799 344.422 91.148 349.803L104.96 313.655L105.297 314.008C104.423 308.978 102.941 304.084 100.888 299.442C100.073 297.622 99.2199 295.83 98.3289 294.065L85.9273 332.276C86.1231 332.822 86.3222 333.369 86.5112 333.912Z" fill="#6C63FF"/>
    <path d="M63.3378 287.655C58.749 280.185 54.1042 273.333 49.7994 267.343L13.5055 258.785L13.3825 258.307C11.1168 264.534 10.2883 272.183 10.9746 280.727L63.3378 287.655Z" fill="#6C63FF"/>
    <path d="M26.766 326.1L85.0974 331.961L85.1091 331.925C82.5787 324.963 79.6907 318.149 76.4578 311.511L16.7098 305.969C17.7242 308.772 18.8706 311.605 20.1491 314.468C22.0113 318.547 24.2261 322.441 26.766 326.1Z" fill="#6C63FF"/>
    <path d="M167.74 337.907L167.873 338.337C166.371 332.138 164.04 326.19 160.948 320.669L161.1 321.076L147.94 339.377C147.589 346.944 146.968 355.412 145.919 364.32L167.74 337.907Z" fill="#6C63FF"/>
    <path d="M160.747 320.322C157.446 314.71 153.415 310.311 148.734 307.545C148.49 307.401 148.245 307.267 148.001 307.133C148.116 309.189 148.718 321.261 147.999 338.05L160.747 320.322Z" fill="#6C63FF"/>
    <path d="M137.621 406.63C137.084 408.476 136.527 410.288 135.95 412.068L168.469 391.142L168.526 391.647C169.148 388.496 169.654 385.348 170.045 382.202L137.656 406.86L137.621 406.63Z" fill="#6C63FF"/>
    <path d="M141.842 389.603L170.972 363.374L171.067 363.85C170.991 355.403 169.957 346.995 167.986 338.802L145.75 365.718C144.73 374.062 143.427 382.024 141.842 389.603Z" fill="#6C63FF"/>
    <path d="M171.074 364.404L141.55 390.988C140.466 396.035 139.257 400.892 137.926 405.557L170.045 381.105L170.12 381.597C170.808 375.895 171.127 370.151 171.074 364.404Z" fill="#6C63FF"/>
    <path d="M114.093 454.176C114.119 453.761 114.144 453.335 114.168 452.898C119.429 446.356 123.917 439.177 127.533 431.515L109.701 408.327C109.468 407.536 109.223 406.747 108.968 405.96L127.948 430.641C130.536 425.123 132.805 419.448 134.742 413.646L97.204 374.296C97.3212 373.987 97.44 373.671 97.5599 373.349L135.05 412.648L135.081 412.628C137.387 405.581 139.328 398.411 140.895 391.147L103.667 352.691C103.745 352.334 103.822 351.975 103.898 351.614L141.128 390.071C141.471 388.46 141.797 386.858 142.104 385.267L104.985 345.824C105.047 345.448 105.108 345.07 105.166 344.691L142.315 384.164C143.563 377.562 144.511 371.175 145.23 365.228L108.839 324.709L109.019 324.238C108.157 325.548 107.319 326.923 106.502 328.347C106.524 323.844 106.174 319.348 105.455 314.908L91.5108 351.402C92.6375 356.434 93.4448 361.538 93.9275 366.681C93.843 367.55 93.7668 368.425 93.7062 369.309L94.1644 369.789C94.1934 370.258 94.2203 370.726 94.2428 371.192L93.6332 370.553C93.6045 371.065 93.5828 371.581 93.5616 372.097C93.2762 365.156 92.3649 358.259 90.8398 351.496L38.2106 340.198C40.8617 343.037 43.6401 345.797 46.4796 348.459C40.9678 346.656 35.2485 345.636 29.4759 345.426L29.8861 345.51L37.6547 366.907C43.5914 371.266 50.1135 376.347 56.762 382.04L47.1981 349.129C47.5525 349.458 47.9077 349.785 48.2637 350.111L57.8029 382.938C64.0108 388.304 69.7577 393.714 75.0433 399.168L70.6595 368.274C70.9669 368.498 71.2727 368.719 71.5768 368.939L76.0081 400.167C79.5129 403.825 82.7968 407.49 85.8598 411.161L83.735 377.29C84.0365 377.487 84.3326 377.68 84.6231 377.868L86.7703 412.097L86.5659 412.004C87.7718 413.466 88.9408 414.927 90.073 416.388L90.4837 381.562C90.8 381.756 91.0923 381.934 91.3607 382.096L90.9427 417.524C91.2905 417.98 91.6419 418.436 91.9825 418.891C95.256 423.254 98.2994 427.8 101.099 432.509L101.297 429.34C101.541 430.279 101.786 431.203 102.03 432.11L101.918 433.912C102.326 434.621 102.722 435.328 103.113 436.036C103.417 437.115 103.719 438.165 104.017 439.184C103.152 437.512 102.249 435.857 101.307 434.218L47.9087 440.448C75.9856 455.861 110.827 463.167 113.047 463.622C112.521 461.192 111.88 458.782 111.143 456.395C111.335 456.186 111.524 455.974 111.714 455.763C111.805 456.048 111.898 456.333 111.986 456.618C111.887 456.728 111.789 456.842 111.69 456.952C111.8 456.897 111.915 456.841 112.035 456.781C112.548 458.459 113.008 460.132 113.414 461.799C113.577 460.444 113.795 458.387 113.984 455.786C123.601 450.762 148.507 436.081 161.152 413.063L128.107 431.89C124.341 439.897 119.633 447.383 114.093 454.176ZM103.144 399.8L103.226 398.493L104.064 399.583L103.982 400.89L103.144 399.8Z" fill="#6C63FF"/>
    <path d="M147.398 307.109L147.69 306.965C140.395 303.113 132.599 303.726 125.206 307.975L147.418 338.033C148.192 319.868 147.41 307.289 147.398 307.109Z" fill="#6C63FF"/>
    <path d="M134.946 415.091C133.167 420.312 131.117 425.429 128.805 430.417L161.536 411.769L161.58 412.265C163.981 407.809 165.832 403.053 167.087 398.112C167.572 396.168 168.01 394.22 168.403 392.267L135.496 413.443C135.314 413.994 135.133 414.547 134.946 415.091Z" fill="#6C63FF"/>
    <path d="M147.358 339.386L124.636 308.638L124.833 308.188C119.283 311.476 113.969 316.816 109.276 323.852L145.371 364.041C146.402 355.233 147.013 346.864 147.358 339.386Z" fill="#6C63FF"/>
    <path d="M29.0869 345.418C22.7784 345.323 17.0594 346.521 12.3145 349.167C12.0677 349.304 11.8275 349.448 11.5883 349.592C13.3143 350.591 23.4077 356.523 36.612 366.144L29.0869 345.418Z" fill="#6C63FF"/>
    <path d="M57.1278 383.134L4.85064 393.519L4.56509 393.107C6.86666 398.624 9.69645 403.884 13.0113 408.807L70.8944 395.84C66.2183 391.206 61.5561 386.951 57.1278 383.134Z" fill="#6C63FF"/>
    <path d="M75.0399 400.049C73.9198 398.883 72.7978 397.739 71.6739 396.616L13.5773 409.63L13.2865 409.221C14.4535 410.957 15.6957 412.691 17.0133 414.423L16.7196 414.016L75.0399 400.049Z" fill="#6C63FF"/>
    <path d="M100.822 433.384C97.741 428.149 94.3619 423.111 90.703 418.298L33.8169 431.463C38.1292 434.661 42.6421 437.555 47.3251 440.124L47.0296 439.661L100.822 433.384Z" fill="#6C63FF"/>
    <path d="M11.2467 350.11L11.286 349.775C4.26288 354.143 0.585805 361.343 0.0669785 370.134L36.2874 366.646C21.9988 356.241 11.3989 350.196 11.2467 350.11Z" fill="#6C63FF"/>
    <path d="M37.3506 367.424L0.299057 370.991L0.0404927 370.577C-0.270015 377.229 1.20784 384.771 4.39106 392.675L56.2424 382.374C49.6656 376.75 43.2188 371.732 37.3506 367.424Z" fill="#6C63FF"/>
    <path d="M90.0604 417.454C85.5917 411.649 80.8266 406.1 75.7859 400.83L17.3222 414.831C19.1172 417.169 21.0466 419.494 23.1106 421.805C26.0898 425.083 29.3494 428.072 32.8488 430.732L90.06 417.492L90.0604 417.454Z" fill="#6C63FF"/>
    <path d="M332.452 291.283H322.363V368.491H332.452V291.283Z" fill="#3F3D56"/>
    <path d="M451.503 291.283H441.414V368.491H451.503V291.283Z" fill="#3F3D56"/>
    <path d="M570.554 279.351H203.312V296.898H570.554V279.351Z" fill="#E6E6E6"/>
    <path d="M570.554 334.8H203.312V352.347H570.554V334.8Z" fill="#E6E6E6"/>
    <path d="M570.554 302.513H203.312V313.042H570.554V302.513Z" fill="#E6E6E6"/>
    <path d="M570.554 318.657H203.312V329.185H570.554V318.657Z" fill="#E6E6E6"/>
    <path d="M213.738 276.192H202.303V368.841H213.738V276.192Z" fill="#3F3D56"/>
    <path d="M570.554 275.842H559.12V368.491H570.554V275.842Z" fill="#3F3D56"/>
    <path d="M182.462 393.057H171.027V489.215H182.462V393.057Z" fill="#3F3D56"/>
    <path d="M220.127 389.547H208.693V440.785H220.127V389.547Z" fill="#3F3D56"/>
    <path d="M567.864 389.547H556.43V440.785H567.864V389.547Z" fill="#3F3D56"/>
    <path d="M600.149 393.057H588.715V489.215H600.149V393.057Z" fill="#3F3D56"/>
    <path d="M600.149 393.057H171.027V405.691H600.149V393.057Z" fill="#3F3D56"/>
    <path d="M201.967 364.981L171.027 393.057H600.149L570.554 364.981H201.967Z" fill="#E6E6E6"/>
    <path opacity="0.1" d="M134.357 19.4704L134.27 18.9651L125.99 14.3887H124.691L124.194 13.3948H107.13L103.173 14.3887H88.5997L84.6516 19.1967L84.6112 19.4915C84.3556 21.2111 78.6452 61.6468 93.7116 74.5124L99.9937 77.5586H104.056L103.262 75.9039L106.794 77.5586H118.228L118.431 77.2405L125.216 74.5896L125.391 74.379C126.003 73.621 140.424 55.3368 134.357 19.4704Z" fill="#6C63FF"/>
    <path d="M113.856 59.6604H107.13V77.9095H113.856V59.6604Z" fill="#E6E6E6"/>
    <path d="M116.21 101.423H104.103V452.366H116.21V101.423Z" fill="#3F3D56"/>
    <path d="M119.237 95.4565H101.076V107.389H119.237V95.4565Z" fill="#3F3D56"/>
    <path d="M94.3503 73.6982L105.785 86.3322L101.076 95.4567L110.493 97.5624L119.237 95.4567L113.856 85.6303L124.618 73.6982H94.3503Z" fill="#3F3D56"/>
    <path d="M85.6065 19.6528L80.2257 14.0377L84.2613 9.82642H135.379L139.415 14.7396L133.361 19.6528C133.361 19.6528 101.076 18.2491 85.6065 19.6528Z" fill="#3F3D56"/>
    <path d="M134.357 19.4704L134.27 18.9651L125.99 14.3888L122.21 12.2971L100.989 10.8723L89.0907 13.7922L88.5997 14.3888L84.6516 19.1967L84.6112 19.4915C84.3556 21.2111 78.6452 61.6468 93.7115 74.5124L99.9936 77.5586L105.28 80.1205L104.056 77.5586L102.045 73.3683C99.9399 60.58 95.3123 26.9806 98.2651 19.9617L110.466 15.8557L121.295 20.053C122.042 25.0996 126.871 60.4817 118.41 73.0946L118.228 73.3683V77.32L125.216 74.5896L125.391 74.3791C126.003 73.621 140.424 55.3369 134.357 19.4704ZM123.999 72.8138L120.246 74.2878V74.0211C129.528 59.5692 123.461 20.7619 123.198 19.1054L123.104 18.5018L112.491 14.3888L110.52 13.6237L108.246 14.3888L96.866 18.2211L96.671 18.579C92.3462 26.6718 99.765 71.9505 100.081 73.8737L100.108 74.0281L100.908 75.6986L94.8886 72.7998C81.4701 61.1415 86.0707 23.8081 86.5617 20.1091L90.1938 15.6873L95.4804 14.3888L101.164 12.992L110.52 13.6237L121.645 14.3747L121.672 14.3888L132.453 20.3408C137.794 52.8732 125.539 70.7363 123.999 72.8138Z" fill="#3F3D56"/>
    <path d="M110.493 19.6528C120.523 19.6528 128.653 15.2534 128.653 9.82642C128.653 4.39944 120.523 0 110.493 0C100.463 0 92.3326 4.39944 92.3326 9.82642C92.3326 15.2534 100.463 19.6528 110.493 19.6528Z" fill="#3F3D56"/>
    <path d="M101.076 434.468L90.3147 470.264C90.3147 470.264 107.13 480.091 129.998 470.264L119.237 434.468H101.076Z" fill="#3F3D56"/>
    <path d="M110.493 61.7661C113.465 61.7661 115.874 59.2521 115.874 56.151C115.874 53.0499 113.465 50.5359 110.493 50.5359C107.521 50.5359 105.112 53.0499 105.112 56.151C105.112 59.2521 107.521 61.7661 110.493 61.7661Z" fill="#6C63FF"/>
    <path d="M291.632 252.201C293.536 250.787 295.638 249.687 297.863 248.941C311.97 243.463 326.751 240.105 341.763 238.968C354.816 238.002 368.964 239.15 379.159 247.711C380.745 248.925 382.043 250.503 382.953 252.322C384.235 255.211 383.847 258.568 383.431 261.722C383.338 262.946 383.043 264.143 382.558 265.261C381.186 267.987 377.808 268.942 374.874 268.615C371.94 268.288 369.187 266.993 366.293 266.392C364.502 266.066 362.691 265.874 360.874 265.816L342.724 264.791C331.437 264.153 320.002 263.526 308.932 265.903C305.523 266.542 302.23 267.726 299.168 269.414C296.64 270.895 294.937 273.021 292.591 270.285C288.468 265.477 286.187 256.642 291.632 252.201Z" fill="#2F2E41"/>
    <path d="M319.757 260.577C319.757 260.577 344.17 249.157 353.43 262.333C362.69 275.51 348.379 270.24 348.379 270.24L332.385 275.51L314.707 271.997L319.757 260.577Z" fill="#F2F2F2"/>
    <path d="M321.02 252.231C321.02 252.231 324.387 268.922 321.862 273.314C319.337 277.707 336.173 283.856 336.173 283.856L352.167 276.828C352.167 276.828 347.958 249.596 352.167 244.325L321.02 252.231Z" fill="#FFB9B9"/>
    <path opacity="0.1" d="M321.02 252.231C321.02 252.231 324.387 268.922 321.862 273.314C319.337 277.707 336.173 283.856 336.173 283.856L352.167 276.828C352.167 276.828 347.958 249.596 352.167 244.325L321.02 252.231Z" fill="black"/>
    <path d="M305.246 452.925C307.655 457.744 309.216 462.964 310.809 468.138C310.833 468.311 310.891 468.476 310.98 468.624C311.069 468.771 311.187 468.897 311.326 468.994C311.465 469.09 311.622 469.155 311.787 469.184C311.952 469.213 312.121 469.205 312.282 469.161L327.256 469.143C329.104 469.141 331.583 468.522 331.564 466.594C331.55 465.239 330.223 464.394 329.235 463.515C326.494 461.074 325.781 457.05 324.646 453.481C322.439 446.607 318.187 440.647 312.508 436.47C311.741 435.843 310.857 435.387 309.914 435.132C308.965 434.988 307.998 435.043 307.069 435.293C304.44 435.846 294.625 437.74 296.479 441.729C297.277 443.447 300.236 445.235 301.477 446.84C302.922 448.734 304.185 450.772 305.246 452.925Z" fill="#575A89"/>
    <path d="M357.315 434.803C356.787 435.961 356.199 437.088 355.554 438.18C353.385 441.913 350.825 445.396 348.805 449.22C347.545 451.605 346.484 454.182 346.345 456.902C346.206 459.621 347.124 462.516 349.203 464.162C351.376 465.883 354.356 465.963 357.058 465.562C359.759 465.161 362.445 464.353 365.166 464.566C364.249 459.149 368.627 454.381 369.722 448.999C370.029 447.488 370.075 445.921 370.487 444.437C370.931 443.079 371.498 441.77 372.182 440.526C374.362 436.095 375.903 431.353 376.755 426.452C376.858 425.858 363.445 425.76 362.187 426.044C358.26 426.931 358.834 431.405 357.315 434.803Z" fill="#575A89"/>
    <path d="M253.932 349.695C250.103 355.948 250.985 364.235 253.674 371.104C256.364 377.974 260.644 384.047 263.574 390.809C265.441 395.119 266.751 399.69 268.854 403.881C271.458 409.071 275.261 413.645 277.008 419.212C278.122 422.761 278.378 426.651 280.183 429.875C281.273 431.599 282.518 433.211 283.901 434.689C287.787 439.336 290.706 444.775 292.47 450.662C294.119 445.535 299.058 442.173 304.13 441.064C309.203 439.956 314.459 440.709 319.59 441.465C316.728 436.838 313.838 432.151 312.131 426.939C310.481 421.898 309.994 416.535 308.882 411.336C306.603 400.673 301.733 390.839 296.912 381.143L321.692 379.092C325.736 378.667 329.803 378.51 333.867 378.62C340.263 378.935 346.529 380.571 352.891 381.327C359.253 382.084 365.983 381.886 371.652 378.78C360.811 395.013 355.165 414.407 355.521 434.189C357.944 432.23 360.756 430.861 363.752 430.183C366.748 429.504 369.851 429.533 372.834 430.268C375.817 431.003 378.606 432.424 380.995 434.429C383.383 436.433 385.312 438.97 386.64 441.853C396.352 428.005 395.197 408.726 402.892 393.56C404.474 390.442 406.414 387.537 408.121 384.492C411.499 378.468 413.949 371.938 416.384 365.438C418.536 359.693 420.705 353.3 418.64 347.52C417.783 345.327 416.535 343.324 414.962 341.617C410.522 336.509 404.342 332.73 397.735 332.573C387.593 332.331 379.215 340.176 370.318 345.263C359.839 351.255 347.613 353.637 335.694 352.756C323.473 351.853 311.802 347.679 300.159 344.003C294.334 342.078 288.414 340.484 282.424 339.229C277.431 338.251 272.676 339.334 267.756 340.666C262.399 342.117 257.015 344.66 253.932 349.695Z" fill="#2F2E41"/>
    <path d="M359.743 235.541C359.738 242.528 357.075 249.228 352.341 254.169C347.606 259.11 341.185 261.889 334.489 261.894C332.984 261.897 331.482 261.756 330.002 261.473C325.276 260.582 320.891 258.304 317.362 254.904C313.833 251.505 311.306 247.126 310.077 242.281C308.849 237.436 308.969 232.326 310.426 227.55C311.882 222.774 314.613 218.531 318.298 215.317C321.984 212.104 326.471 210.053 331.233 209.407C335.996 208.761 340.836 209.545 345.187 211.668C349.538 213.791 353.218 217.164 355.796 221.393C358.374 225.621 359.744 230.529 359.743 235.541V235.541Z" fill="#FFB9B9"/>
    <path d="M319.757 260.577C319.757 260.577 324.387 262.773 326.071 264.53C327.755 266.287 332.805 275.95 341.224 269.8C349.642 263.651 350.483 260.137 353.009 260.137C355.534 260.137 358.901 265.408 358.901 265.408L382.051 337.881C375.812 345.23 368.581 351.592 360.585 356.768C347.116 365.552 331.122 369.944 323.546 366.431C315.969 362.917 301.659 360.281 299.133 353.254C296.608 346.226 292.399 325.143 292.399 325.143L304.184 271.557L319.757 260.577Z" fill="#F2F2F2"/>
    <path d="M316.507 333.873C318.342 329.737 318.609 325.054 318.765 320.498C319.012 315.986 318.897 311.46 318.422 306.968C317.676 301.092 315.842 295.431 314.684 289.628C313.669 284.538 313.176 279.35 313.212 274.152C313.229 271.78 313.393 269.283 314.632 267.294C315.496 265.906 316.848 264.831 317.388 263.275C318.447 260.224 315.831 257.03 312.964 255.773C309.553 254.279 305.655 254.379 302.067 255.317C298.478 256.255 295.131 257.98 291.816 259.693C289.421 260.93 286.976 262.205 285.119 264.211C282.506 267.032 281.357 270.962 280.429 274.765C279.686 277.809 279.026 280.982 279.591 284.067C280.509 289.077 284.422 292.844 286.508 297.456C288.931 302.812 288.768 309.053 287.804 314.89C286.841 320.726 285.13 326.433 284.603 332.329C284.075 338.226 284.885 344.565 288.425 349.194C289.868 351.08 293.782 355.55 296.423 355.044C298.497 354.647 301.506 349.881 303.177 348.37C308.005 344.005 313.734 340.123 316.507 333.873Z" fill="#2F2E41"/>
    <path d="M360.612 257.712C360.686 262.611 358.616 267.268 356.182 271.459C353.748 275.649 350.889 279.612 349.096 284.141C346.867 289.81 346.412 296.068 347.796 302.023C348.31 304.051 348.93 306.049 349.653 308.007L354.265 321.209C354.886 323.285 355.786 325.258 356.94 327.069C357.982 328.456 359.206 329.684 360.575 330.718C364.078 333.67 368.11 335.865 372.434 337.174C376.774 338.371 381.522 338.296 385.622 336.389C386.067 318.492 388.822 300.739 393.814 283.61C394.736 280.448 395.744 277.119 395.032 273.898C394.236 270.291 391.459 267.582 388.819 265.108C380.746 257.543 371.869 249.597 361.063 248.577C354.809 247.987 360.559 254.17 360.612 257.712Z" fill="#2F2E41"/>
    <path d="M305.369 359.845C306.009 361.153 306.407 362.577 307.04 363.889C307.975 365.648 309.13 367.269 310.475 368.709C316.104 375.222 322.984 381.71 331.38 382.102C332.214 382.184 333.055 382.073 333.844 381.779C335.313 381.142 336.18 379.499 336.466 377.866C337.061 374.465 335.622 371.07 334.181 367.956C331.059 361.206 327.545 354.285 321.698 349.932C315.934 345.641 308.212 344.599 301.49 346.76C298.444 347.739 293.394 349.448 297.427 352.348C300.486 354.548 303.595 356.222 305.369 359.845Z" fill="#FFB9B9"/>
    <path d="M341.662 273.913C340.634 271.516 339.559 269.05 337.712 267.266C335.966 265.726 333.899 264.634 331.677 264.076C328.797 263.217 325.819 262.772 322.824 262.752C319.259 262.729 315.125 263.727 313.611 267.095C312.409 269.77 313.341 272.937 314.552 275.608C315.069 276.991 315.93 278.206 317.047 279.126C318.585 280.21 320.573 280.175 322.396 280.538C325.253 281.108 327.811 282.706 330.3 284.276L336.545 288.215L347.27 294.981C346.988 294.802 347.088 287.127 346.759 285.869C345.697 281.817 343.309 277.751 341.662 273.913Z" fill="#FFB9B9"/>
    <path d="M310.419 466.149C307.909 469.708 308.412 474.796 306.189 478.556C304.262 481.816 300.631 483.525 298.22 486.414C297.451 487.374 296.766 488.403 296.172 489.49C293.936 493.398 292.118 498.407 294.32 502.336C296.092 505.497 299.815 506.732 303.23 507.574C307.546 508.638 312.031 509.49 316.397 508.677C320.763 507.863 325.03 505.074 326.586 500.74C326.892 499.65 327.256 498.579 327.676 497.532C330.042 492.67 337.465 492.617 339.887 487.786C341.582 484.404 340.024 480.317 338.466 476.865L333.71 466.32C332.131 462.82 325.733 464.833 322.397 463.994C318.046 462.9 313.549 461.695 310.419 466.149Z" fill="#2F2E41"/>
    <path d="M347.209 457.09C345.191 458.567 343.886 460.883 342.906 463.243C340.552 468.91 339.743 475.123 338.958 481.245C338.644 483.698 338.331 486.208 338.822 488.629C339.836 493.629 344.178 497.311 348.851 498.839C353.525 500.368 358.537 500.133 363.429 499.882C365 499.802 366.633 499.704 368.011 498.911C370.469 497.497 371.43 494.171 371.008 491.275C370.586 488.379 369.07 485.802 367.586 483.315C366.102 480.829 364.584 478.253 364.159 475.358C363.444 470.487 365.462 463.337 362.594 458.93C359.72 454.513 351.045 454.285 347.209 457.09Z" fill="#2F2E41"/>
    <path d="M359.108 221.807C358.659 220.231 357.669 218.883 356.328 218.02C356.397 216.331 356.199 214.643 355.741 213.022C354.211 208.304 350.588 208.574 347.17 206.488C345.687 205.583 345.778 204.783 345.006 203.297C343.995 201.348 342.479 199.735 340.633 198.64C338.439 197.182 336.124 195.68 333.53 195.496C328.078 195.108 323.897 200.459 318.686 202.177C316.389 202.934 313.921 202.965 311.612 203.681C309.303 204.397 306.999 206.105 306.655 208.593C306.496 209.742 306.776 210.92 306.615 212.068C306.295 214.351 304.376 215.949 303.091 217.826C300.251 221.977 300.576 227.841 302.847 232.358C303.326 233.292 303.874 234.187 304.485 235.032C304.675 237.167 305.262 239.243 306.215 241.142C308.486 245.659 312.395 249.034 316.478 251.838C316.143 250.34 315.941 248.813 315.872 247.277C315.814 246.765 315.878 246.246 316.058 245.766C316.513 244.774 317.714 244.51 318.63 243.967C320.528 242.842 321.272 240.352 321.327 238.075C321.382 235.798 320.919 233.518 321.148 231.253C321.157 230.732 321.27 230.219 321.481 229.746C321.691 229.274 321.995 228.853 322.371 228.511C323.071 228.094 323.871 227.895 324.676 227.937C328.564 227.772 332.626 227.697 336.055 225.778C337.225 225.124 338.312 224.258 339.597 223.909C342.511 223.116 345.49 225.247 347.169 227.856C348.849 230.465 349.686 233.569 351.236 236.264C352.785 238.959 355.462 241.362 358.459 241.043C358.627 241.044 358.794 241.007 358.948 240.935C359.103 240.864 359.241 240.759 359.353 240.628C359.483 240.386 359.54 240.109 359.518 239.832L359.686 227.881C359.825 225.837 359.629 223.783 359.108 221.807Z" fill="#2F2E41"/>
    <path d="M279.186 284.322C276.777 288.032 273.998 291.598 272.674 295.861C271.895 298.367 271.654 301.016 271.09 303.583C269.213 312.135 263.79 319.731 263.245 328.486C263.054 330.431 263.327 332.396 264.041 334.204C265.597 337.735 269.32 339.596 272.872 340.767C276.423 341.937 280.237 342.781 283.072 345.302C284.499 346.729 285.794 348.295 286.937 349.978C291.562 355.981 297.784 360.423 304.822 362.747C304.266 358.75 304.005 353.932 307.067 351.461C308.724 350.124 310.939 349.886 313.026 349.697L322.89 348.808C316.312 342.15 309.063 336.257 301.268 331.231C298.541 329.473 295.572 327.618 294.327 324.536C293.548 322.608 293.559 320.45 293.54 318.359C293.473 310.704 292.851 303.065 291.682 295.508C290.87 290.26 289.795 285.06 288.566 279.901C288.22 278.453 286.18 271.958 283.669 273.478C283.077 273.836 282.524 277.956 282.178 278.811C281.356 280.746 280.354 282.592 279.186 284.322Z" fill="#2F2E41"/>
    <path d="M392.789 270.304L396.816 279.046C398.757 282.64 399.64 286.751 399.356 290.866L399.595 317.088C399.627 320.593 399.653 324.149 398.769 327.53C398.518 328.659 398.045 329.72 397.38 330.648C396.696 331.448 395.891 332.124 394.997 332.651C387.374 337.621 377.489 340.446 369.435 336.281C367.59 335.255 365.837 334.06 364.194 332.711C360.984 330.23 357.727 327.701 355.326 324.371C352.812 320.885 351.372 316.711 349.681 312.721C346.647 305.564 342.726 298.854 338.019 292.761C337.335 291.876 336.6 290.91 336.575 289.773C336.525 287.475 339.138 286.343 341.176 285.469C344.657 283.975 347.939 281.092 348.522 277.212C355.924 287.341 364.093 298.044 375.773 301.746C375.957 301.868 376.168 301.936 376.385 301.943C376.603 301.95 376.818 301.895 377.008 301.785C377.198 301.675 377.355 301.513 377.465 301.317C377.574 301.121 377.63 300.898 377.627 300.671C378.29 297.776 378.525 294.795 379.01 291.861C379.899 286.52 381.612 281.365 384.082 276.596C385.466 273.921 389.945 264.134 392.789 270.304Z" fill="#2F2E41"/>
    <path opacity="0.1" d="M292.835 295.583C292.947 301.789 291.683 307.937 289.144 313.549C288.484 314.79 287.997 316.123 287.699 317.507C287.257 320.461 288.868 323.32 290.708 325.61C294.34 330.114 299.05 333.533 304.359 335.52" fill="black"/>
    <path opacity="0.1" d="M380.301 290.353C379.707 292.019 380.246 293.861 380.704 295.572C382.029 300.537 382.648 305.678 382.54 310.83C382.56 310.92 382.557 311.014 382.533 311.103C382.509 311.191 382.464 311.273 382.402 311.339C382.34 311.405 382.263 311.454 382.179 311.481C382.094 311.508 382.005 311.513 381.918 311.496C379.975 311.62 377.75 311.633 376.432 310.138" fill="black"/>
    <path d="M498.638 377.501L464.443 377.292L461.046 367.277L473.06 366.181L470.966 355.202L494.729 351.331L471.974 341.391L473.984 340.791L510.574 348.292L508.559 365.427L505.679 374.844L498.638 377.501Z" fill="#6C63FF"/>
    <path d="M518.078 369.724C518.078 369.724 515.821 373.186 517.613 378.421L499.592 388.246L497.863 388.701L497.066 384.321L497.599 378.793V375.772L518.078 369.724Z" fill="#D5D6DB"/>
    <path d="M461.046 367.336L486.092 361.635L519.279 368.236L498.666 377.501L461.046 367.336Z" fill="#6C63FF"/>
    <path d="M461.046 367.336L486.092 361.635L519.279 368.236L498.666 377.501L461.046 367.336Z" fill="#6C63FF"/>
    <path d="M461.085 367.235C461.085 367.235 458.75 372.896 461.44 378.124L498.448 388.39C498.448 388.39 496.151 383.881 498.567 377.622L461.085 367.235Z" fill="#6C63FF"/>
    <path opacity="0.1" d="M461.085 367.235C461.085 367.235 458.75 372.896 461.44 378.124L498.448 388.39C498.448 388.39 496.151 383.881 498.567 377.622L461.085 367.235Z" fill="black"/>
    <path opacity="0.1" d="M462.246 369.413C462.246 369.413 460.895 373.379 462.246 375.946V369.413Z" fill="black"/>
    <path d="M498.593 388.26L519.22 377.19C519.22 377.19 520.374 377.503 519.628 378.566C518.882 379.63 498.991 389.324 498.991 389.324L461.646 378.191L498.593 388.26Z" fill="#6C63FF"/>
    <path opacity="0.1" d="M498.593 388.26L519.22 377.19C519.22 377.19 520.374 377.503 519.628 378.566C518.882 379.63 498.991 389.324 498.991 389.324L461.646 378.191L498.593 388.26Z" fill="black"/>
    <path opacity="0.1" d="M496.766 378.746C496.766 378.746 494.74 381.732 496.766 386.212V378.746Z" fill="black"/>
    <path opacity="0.1" d="M506.491 378.69L497.559 382.471L497.59 382.591L506.523 378.81L506.491 378.69Z" fill="black"/>
    <path opacity="0.1" d="M508.281 378.314L497.556 383.488L497.591 383.606L508.316 378.432L508.281 378.314Z" fill="black"/>
    <path opacity="0.1" d="M509.924 378.296L497.616 384.688L497.653 384.804L509.961 378.413L509.924 378.296Z" fill="black"/>
    <path opacity="0.1" d="M511.71 377.748L497.759 385.744L497.8 385.859L511.751 377.863L511.71 377.748Z" fill="black"/>
    <path opacity="0.1" d="M513.212 377.751L497.87 386.259L497.91 386.375L513.251 377.867L513.212 377.751Z" fill="black"/>
    <path opacity="0.1" d="M516.495 377.044L498.101 387.123L498.141 387.239L516.535 377.16L516.495 377.044Z" fill="black"/>
    <path opacity="0.3" d="M470.351 367.829L487.885 363.19L498.567 365.761L484.199 371.59L470.351 367.829Z" fill="white"/>
    <path d="M519.331 368.168C519.331 368.168 520.248 368.629 519.71 369.342C519.172 370.055 498.567 377.501 498.567 377.501L519.331 368.168Z" fill="#6C63FF"/>
    <path d="M527.984 357.279C527.984 357.279 525.727 360.797 527.52 366.119L509.498 376.102L507.768 376.568L506.972 372.117L507.512 366.5V363.426L527.984 357.279Z" fill="#D5D6DB"/>
    <path d="M470.951 355.201L495.996 349.502L529.184 356.102L508.571 365.368L470.951 355.201Z" fill="#3A3768"/>
    <path d="M470.991 355.102C470.991 355.102 468.656 360.762 471.345 365.991L508.35 376.257C508.35 376.257 506.054 371.744 508.473 365.487L470.991 355.102Z" fill="#3A3768"/>
    <path opacity="0.1" d="M470.991 355.102C470.991 355.102 468.656 360.762 471.345 365.991L508.35 376.257C508.35 376.257 506.054 371.744 508.473 365.487L496.77 362.244L470.991 355.102Z" fill="black"/>
    <path opacity="0.1" d="M472.152 356.968C472.152 356.968 470.801 361.122 472.152 363.813V356.968Z" fill="black"/>
    <path d="M508.499 376.127L529.127 365.057C529.127 365.057 530.279 365.37 529.533 366.433C528.788 367.496 508.897 377.19 508.897 377.19L471.551 366.058L508.499 376.127Z" fill="#3A3768"/>
    <path opacity="0.1" d="M508.499 376.127L529.127 365.057C529.127 365.057 530.279 365.37 529.533 366.433C528.788 367.496 508.897 377.19 508.897 377.19L471.551 366.058L508.499 376.127Z" fill="black"/>
    <path opacity="0.1" d="M506.672 366.613C506.672 366.613 504.645 369.599 506.672 374.079V366.613Z" fill="black"/>
    <path opacity="0.1" d="M516.379 366.54L507.446 370.322L507.477 370.441L516.41 366.66L516.379 366.54Z" fill="black"/>
    <path opacity="0.1" d="M518.169 366.164L507.445 371.338L507.48 371.456L518.205 366.282L518.169 366.164Z" fill="black"/>
    <path opacity="0.1" d="M519.811 366.144L507.503 372.536L507.541 372.653L519.849 366.261L519.811 366.144Z" fill="black"/>
    <path opacity="0.1" d="M521.599 365.597L507.648 373.593L507.689 373.708L521.64 365.712L521.599 365.597Z" fill="black"/>
    <path opacity="0.1" d="M523.099 365.598L507.757 374.106L507.797 374.222L523.138 365.714L523.099 365.598Z" fill="black"/>
    <path opacity="0.1" d="M526.383 364.89L507.989 374.97L508.028 375.086L526.422 365.006L526.383 364.89Z" fill="black"/>
    <path opacity="0.45" d="M480.257 355.696L497.791 351.057L508.473 353.627L494.105 359.457L480.257 355.696Z" fill="white"/>
    <path d="M528.945 356.035C528.945 356.035 529.847 356.496 529.318 357.208C528.789 357.92 508.473 365.368 508.473 365.368L528.945 356.035Z" fill="#3A3768"/>
    <path d="M528.884 343.591C528.884 343.591 526.627 349.806 528.419 355.04L510.395 362.109L508.669 362.568L507.872 358.189L508.405 352.662V349.638L528.884 343.591Z" fill="#D5D6DB"/>
    <path d="M472.152 341.314L497.068 335.502L530.085 342.232L509.577 351.68L472.152 341.314Z" fill="#6C63FF"/>
    <path d="M471.893 341.413C471.893 341.413 469.555 346.99 472.245 352.142L509.251 362.257C509.251 362.257 506.954 357.81 509.373 351.647L471.893 341.413Z" fill="#6C63FF"/>
    <path opacity="0.1" d="M471.893 341.413C471.893 341.413 469.555 346.99 472.245 352.142L509.251 362.257C509.251 362.257 506.954 357.81 509.373 351.647L471.893 341.413Z" fill="black"/>
    <path opacity="0.1" d="M473.052 343.28C473.052 343.28 471.702 347.435 473.052 350.124V343.28Z" fill="black"/>
    <path d="M509.399 362.121L530.026 353.752C530.026 353.752 531.18 354.067 530.434 355.136C529.688 356.206 509.797 363.19 509.797 363.19L472.452 351.99L509.399 362.121Z" fill="#6C63FF"/>
    <path opacity="0.1" d="M509.399 362.121L530.026 353.752C530.026 353.752 531.18 354.067 530.434 355.136C529.688 356.206 509.797 363.19 509.797 363.19L472.452 351.99L509.399 362.121Z" fill="black"/>
    <path opacity="0.1" d="M507.572 352.613C507.572 352.613 505.546 355.724 507.572 360.39V352.613Z" fill="black"/>
    <path opacity="0.1" d="M517.319 352.64L508.386 356.421L508.418 356.541L517.35 352.76L517.319 352.64Z" fill="black"/>
    <path opacity="0.1" d="M520.75 352.244L508.442 358.636L508.479 358.753L520.787 352.361L520.75 352.244Z" fill="black"/>
    <path opacity="0.1" d="M522.539 351.696L508.588 359.692L508.629 359.807L522.58 351.811L522.539 351.696Z" fill="black"/>
    <path opacity="0.1" d="M527.323 350.992L508.929 361.071L508.968 361.187L527.362 351.108L527.323 350.992Z" fill="black"/>
    <path opacity="0.3" d="M481.157 342.007L498.691 337.369L509.373 339.939L495.005 345.769L481.157 342.007Z" fill="white"/>
    <path d="M530.137 342.035C530.137 342.035 531.054 342.512 530.516 343.249C529.978 343.985 509.373 351.68 509.373 351.68L530.137 342.035Z" fill="#6C63FF"/>
    <path opacity="0.1" d="M475.304 389.323C476.547 389.323 477.555 389.184 477.555 389.012C477.555 388.84 476.547 388.701 475.304 388.701C474.06 388.701 473.052 388.84 473.052 389.012C473.052 389.184 474.06 389.323 475.304 389.323Z" fill="#6C63FF"/>
    <path opacity="0.1" d="M460.295 384.035C461.538 384.035 462.546 383.895 462.546 383.723C462.546 383.552 461.538 383.412 460.295 383.412C459.052 383.412 458.044 383.552 458.044 383.723C458.044 383.895 459.052 384.035 460.295 384.035Z" fill="#6C63FF"/>
    <path opacity="0.1" d="M486.86 393.057C488.186 393.057 489.262 392.917 489.262 392.745C489.262 392.574 488.186 392.434 486.86 392.434C485.534 392.434 484.459 392.574 484.459 392.745C484.459 392.917 485.534 393.057 486.86 393.057Z" fill="#6C63FF"/>
    <path opacity="0.1" d="M526.333 383.412C527.576 383.412 528.584 383.273 528.584 383.101C528.584 382.929 527.576 382.79 526.333 382.79C525.089 382.79 524.081 382.929 524.081 383.101C524.081 383.273 525.089 383.412 526.333 383.412Z" fill="#6C63FF"/>
    <path opacity="0.1" d="M514.176 391.19C515.668 391.19 516.877 390.911 516.877 390.568C516.877 390.224 515.668 389.946 514.176 389.946C512.684 389.946 511.474 390.224 511.474 390.568C511.474 390.911 512.684 391.19 514.176 391.19Z" fill="#6C63FF"/>
    <path d="M515.32 384.657C515.32 384.657 511.607 387.103 513.525 389.984C513.525 389.984 513.706 390.609 514.228 390.566C514.228 390.566 514.124 390.323 514.522 390.129C514.664 390.059 514.798 389.968 514.923 389.858C515.092 389.709 515.218 389.494 515.282 389.246C515.282 389.246 516.041 387.951 515.453 385.553C515.453 385.553 515.529 384.876 515.463 384.766L515.011 385.555C515.011 385.555 515.477 385.954 515.531 386.54C515.531 386.54 515.041 385.556 514.943 385.665C514.921 385.687 514.719 386.096 514.719 386.096C514.719 386.096 515.527 386.795 515.587 387.703C515.587 387.703 515.132 386.431 514.641 386.25L514.359 386.89C514.359 386.89 515.242 387.576 515.34 388.606C515.34 388.606 514.827 387.299 514.303 387.035L514.096 387.712C514.096 387.712 514.948 388.402 515.026 389.26C515.026 389.26 514.314 387.826 514.058 387.871C514.058 387.871 513.897 388.506 513.919 388.702C513.919 388.702 514.52 389.215 514.531 389.719C514.531 389.719 513.976 388.825 513.89 388.884C513.89 388.884 513.855 389.783 514.026 390.25C514.026 390.25 513.731 389.583 513.779 388.884C513.607 389.078 513.484 389.331 513.423 389.614C513.423 389.614 513.263 389.12 513.79 388.665C513.79 388.665 513.84 387.966 513.901 387.879C513.901 387.879 513.331 388.235 513.089 388.67C513.089 388.67 513.178 388.021 513.951 387.698L514.147 387.013C514.147 387.013 513.374 387.43 513.136 387.798C513.136 387.798 513.308 387.154 514.208 386.845L514.475 386.22C514.475 386.22 513.788 386.515 513.453 386.845C513.453 386.845 513.713 386.291 514.557 386.036L514.774 385.642C514.774 385.642 514.276 385.869 514.136 385.95C513.997 386.031 513.97 385.991 513.97 385.991C514.224 385.717 514.534 385.537 514.863 385.473C514.863 385.473 515.355 384.699 515.32 384.657Z" fill="#6C63FF"/>
    <path opacity="0.1" d="M516.277 352.924C516.277 352.924 518.257 350.869 520.78 352.857" stroke="black" stroke-miterlimit="10"/>
    <path opacity="0.1" d="M502.469 352.613C502.469 352.613 503.287 349.645 505.471 351.908" stroke="black" stroke-miterlimit="10"/>
    <path opacity="0.1" d="M511.174 343.28C511.554 342.943 511.959 342.646 512.384 342.393C513.016 342.034 514.176 341.102 514.176 341.102" fill="black"/>
    <path d="M531.3 379.331L558.175 367.282C558.489 367.141 558.824 367.075 559.159 367.089C559.495 367.103 559.825 367.196 560.13 367.363C560.435 367.53 560.71 367.767 560.939 368.062C561.168 368.357 561.346 368.703 561.464 369.081C561.581 369.458 561.635 369.86 561.623 370.262C561.611 370.665 561.533 371.061 561.394 371.428C561.255 371.794 561.056 372.124 560.811 372.399C560.565 372.674 560.277 372.887 559.962 373.028L533.087 385.081L527.329 384.388L531.3 379.331Z" fill="#5C5C8E"/>
    <path opacity="0.1" d="M560.647 368.113C560.884 368.876 560.859 369.721 560.578 370.462C560.296 371.203 559.781 371.779 559.146 372.065L532.27 384.114L527.944 383.593L527.322 384.4L533.08 385.093L559.955 373.041C560.27 372.9 560.558 372.686 560.804 372.411C561.049 372.137 561.248 371.807 561.387 371.44C561.527 371.073 561.605 370.677 561.616 370.275C561.628 369.872 561.574 369.47 561.457 369.093C561.26 368.457 560.892 367.918 560.412 367.561C560.505 367.736 560.583 367.92 560.647 368.113Z" fill="white"/>
    <path d="M531.3 379.331L533.09 385.081L528.364 384.513L527.329 384.388L528.743 382.589L531.3 379.331Z" fill="#EFC8C4"/>
    <path d="M528.74 382.589C528.851 382.687 528.945 382.81 529.015 382.952C529.06 383.036 529.083 383.133 529.083 383.233C529.083 383.332 529.06 383.429 529.015 383.513C528.938 383.602 528.849 383.677 528.753 383.735C528.644 383.821 528.553 383.936 528.487 384.07C528.42 384.205 528.38 384.357 528.37 384.513L527.336 384.388L528.74 382.589Z" fill="#727A9C"/>
</svg>
