<svg width="27" height="27" viewBox="0 0 27 27" fill="none" xmlns="http://www.w3.org/2000/svg">
<path d="M18.2672 12.2028C18.0985 11.8231 17.9244 11.4381 17.9244 11.011C17.9244 10.6524 18.0879 10.3571 18.1248 10.0143C18.1406 9.87717 18.1354 9.78752 17.9877 9.75061C17.8401 9.71897 17.7029 9.72424 17.5606 9.7717C17.2811 9.86135 16.9594 10.0406 16.7695 10.2832C16.759 10.4678 16.5533 10.6418 16.3635 10.4942C15.6938 9.97737 14.6971 9.96155 13.8902 9.99319C13.1309 10.0248 12.3188 10.1145 11.5963 10.3623C11.5541 10.3781 11.5067 10.3834 11.4697 10.3781C11.4065 10.3781 11.3379 10.3518 11.2799 10.299C11.0795 10.1039 10.8738 9.91409 10.6524 9.74534C10.4203 9.57131 10.1197 9.33401 9.81915 9.31819C9.22853 9.28655 9.60294 10.3623 9.74005 10.8422C9.85079 10.916 9.9088 11.0637 9.81915 11.2061C9.56603 11.5858 9.10724 11.8811 8.94904 12.324C8.79611 12.7565 8.81193 13.2047 8.9174 13.6477C9.00704 14.0485 9.16525 14.4071 9.41837 14.734C9.61349 14.9871 9.94044 15.3985 10.3096 15.3299C10.3887 15.3141 10.4572 15.3352 10.51 15.3721C11.185 15.4723 11.7387 16.0049 11.8969 16.6694C12.0762 17.4393 11.6385 18.109 10.9055 18.3621C10.1356 18.6311 9.42365 18.3832 9.05978 17.6555C8.93849 17.4182 8.86993 17.1387 8.717 16.9172C8.61681 16.7748 8.49025 16.7168 8.34259 16.7063C8.45861 17.2758 8.39533 17.9139 8.83829 18.3463C9.33927 18.8315 10.0248 18.7155 10.6576 18.7682C11.1322 18.8104 11.4803 19.0688 11.3854 19.5856C11.3274 19.9125 11.1955 20.2342 11.0848 20.5506C10.974 20.8723 10.9529 21.1465 10.9477 21.4735C11.0268 21.484 11.1111 21.4998 11.1902 21.5104C12.7406 21.7055 14.3121 21.4524 15.7465 20.8512C15.7149 20.7721 15.7149 20.6772 15.7834 20.5875C15.8783 20.461 15.8731 20.2448 15.8678 20.0971C15.8572 19.844 15.8203 19.5856 15.757 19.3377C15.6568 18.9264 15.5408 18.4729 15.3035 18.1196C15.024 17.6977 14.6233 17.2969 14.5547 16.7748C14.4967 16.3319 14.734 15.641 15.2455 15.5936C15.3088 15.5883 15.3668 15.6041 15.409 15.6305C15.9047 15.5672 16.411 15.4828 16.8803 15.3088C17.3285 15.1401 17.6924 14.908 18.0246 14.5653C18.3094 14.2699 18.5467 13.9008 18.5731 13.4842C18.5994 13.0201 18.4518 12.6088 18.2672 12.2028Z" fill="#283D5B"/>
<path d="M21.4049 11.744C20.8248 9.15998 18.7154 7.08225 16.2158 6.30705C15.0346 5.94318 13.7742 5.81662 12.5561 6.03811C11.475 6.23322 10.4941 6.71838 9.58184 7.31955C8.60625 7.96818 7.67812 8.74338 6.98203 9.69787C6.4916 10.3729 6.10137 11.1903 6.12773 12.0287C6.12773 12.034 6.12246 12.0446 6.12246 12.0498C6.10664 12.3451 6.075 12.6352 6.04863 12.9305C6.02227 12.941 6.00117 12.9463 5.97481 12.9516C5.94316 13.2996 5.89043 13.653 5.87988 14.0063C5.86934 14.3754 5.86934 14.7446 5.89043 15.119C5.92734 15.8467 6.02227 16.5744 6.21738 17.2758C6.5127 18.3199 7.0084 19.3272 7.81523 20.0707C8.54824 20.7457 9.45527 21.157 10.4098 21.3733V21.3363C10.4098 21.3258 10.4098 21.31 10.4098 21.2994C10.415 21.041 10.4361 20.7985 10.5258 20.5348C10.6312 20.2078 10.7789 19.8756 10.8422 19.5381C10.8738 19.3588 10.8738 19.3324 10.6945 19.3061C10.4256 19.2692 10.1461 19.2903 9.87187 19.2744C9.55019 19.2533 9.21797 19.2059 8.92793 19.0635C8.63262 18.9158 8.4375 18.7154 8.23711 18.4571C7.81523 17.9086 7.97344 17.1914 7.73086 16.5797C7.6834 16.4584 7.75723 16.2738 7.89434 16.2422C8.42695 16.1209 8.92793 16.2211 9.19687 16.7379C9.40254 17.1229 9.51328 17.7293 9.9668 17.9086C10.5469 18.1354 11.4328 17.6766 11.3906 17.0016C11.3537 16.4057 10.8949 15.9363 10.3043 15.8783C10.2779 15.8783 10.2568 15.8731 10.2357 15.8625C9.79277 15.8731 9.40254 15.5619 9.12305 15.2297C8.80664 14.8553 8.56406 14.4334 8.4375 13.9588C8.28984 13.3998 8.24238 12.8356 8.40059 12.2766C8.54297 11.7756 8.94375 11.4645 9.24961 11.0795C9.17578 10.5996 8.94375 10.1461 8.95957 9.65041C8.97012 9.27072 9.23906 8.83303 9.65039 8.79611C10.3781 8.73283 11.0426 9.334 11.5488 9.82971C12.3346 9.58713 13.1783 9.48693 13.9957 9.46584C14.7814 9.44475 15.699 9.48693 16.4057 9.88771C16.6588 9.59768 17.0437 9.38674 17.3971 9.27072C17.7662 9.14943 18.2777 9.15998 18.5309 9.49748C18.7734 9.81389 18.6205 10.2516 18.515 10.5891C18.3621 11.0848 18.5361 11.5225 18.7418 11.9707C18.958 12.4506 19.1479 12.9779 19.0951 13.5158C19.0424 14.0063 18.8314 14.4334 18.5098 14.8026C18.1459 15.2192 17.7135 15.5514 17.1914 15.7465C16.6008 15.968 15.9891 16.0893 15.3668 16.1631C15.3193 16.1684 15.2771 16.1631 15.2402 16.1526C15.1875 16.2158 15.1137 16.3582 15.0979 16.411C15.0609 16.5164 15.0557 16.6272 15.0768 16.7379C15.1242 16.9805 15.2824 17.202 15.4248 17.3971C15.6779 17.7451 15.8994 18.0774 16.0471 18.4887C16.2053 18.9317 16.3318 19.4063 16.374 19.8756C16.3951 20.1076 16.4004 20.3502 16.3424 20.577C17.1703 20.1656 17.935 19.633 18.61 19.0055C20.577 17.1756 22.0219 14.4914 21.4049 11.744Z" fill="#D6E5E5"/>
<path d="M25.1649 9.0756C24.0416 6.78693 21.9164 4.98868 19.6699 3.8549C17.4182 2.71056 14.8078 2.10939 12.2819 2.51017C8.12111 3.16408 4.0922 6.2174 2.90041 10.3096C2.90041 10.357 2.88986 10.3992 2.86349 10.4467C2.8424 10.5205 2.8213 10.5996 2.80548 10.6734C2.77912 10.7262 2.75275 10.7789 2.73166 10.8369C2.72638 10.8844 2.71584 10.9371 2.71056 10.9793C2.6631 11.1955 2.60509 11.4117 2.56818 11.6279C2.49435 12.034 2.51017 12.4559 2.36779 12.8408C2.35724 12.9516 2.34142 13.0623 2.3256 13.1731C2.3256 13.1889 2.3256 13.1994 2.3256 13.21C2.29923 13.442 2.27814 13.674 2.25705 13.9061C2.21486 14.3912 2.19377 14.8764 2.19904 15.3615C2.21486 16.316 2.3256 17.2705 2.56291 18.1934C3.02169 19.9494 3.90763 21.6106 5.30509 22.7971C6.26486 23.6145 7.3881 24.1524 8.59572 24.5004C9.91408 24.8854 11.2852 25.1016 12.6615 25.1068C15.3774 25.1121 18.1037 24.3738 20.3397 22.8024C24.474 19.8914 27.5906 14.0063 25.1649 9.0756ZM13.094 22.0588C10.6576 22.2803 7.984 21.5736 6.59709 19.4168C5.99591 18.4834 5.64787 17.4076 5.48439 16.316C5.40002 15.7465 5.35255 15.1717 5.35255 14.5969C5.35255 14.2963 5.35783 13.9957 5.37365 13.6951C5.39474 13.3629 5.45802 13.036 5.46857 12.709C5.47384 12.5824 5.55294 12.4928 5.65314 12.4559C5.46857 11.3379 5.92209 10.2463 6.59181 9.34454C7.38283 8.27404 8.44806 7.39337 9.57658 6.69728C10.51 6.12247 11.5014 5.66896 12.593 5.49493C13.8059 5.29982 15.0768 5.40001 16.2527 5.76388C18.7102 6.52853 20.8986 8.3795 21.716 10.8738C23.4879 16.2738 18.2567 21.5895 13.094 22.0588Z" fill="#D6E5E5"/>
<path d="M12.0234 2.01972C11.5699 2.09882 11.1217 2.20429 10.6787 2.33085H17.2283C15.5355 1.86151 13.7531 1.71913 12.0234 2.01972Z" fill="black"/>
<path d="M25.149 7.97345C23.8201 5.84298 21.6738 4.19767 19.4168 3.14298C18.7102 2.81603 17.9772 2.54181 17.2231 2.33087H10.6787C6.87658 3.44357 3.45939 6.40197 2.37834 10.2252C2.20431 10.5152 2.17795 10.916 2.10412 11.2377C2.05138 11.4645 2.01447 11.6965 1.98283 11.9285C1.97755 11.9496 1.97755 11.976 1.97228 11.9971C1.96701 12.0129 1.96173 12.0235 1.96173 12.0393C1.91955 12.2608 1.88263 12.4822 1.85099 12.7037C1.85099 12.709 1.84572 12.709 1.84572 12.7143C1.81935 12.7776 1.81408 12.8356 1.82463 12.883C1.77189 13.3102 1.73498 13.7373 1.70334 14.1645C1.66115 14.7656 1.65588 15.3721 1.68752 15.9733C1.75607 17.1492 1.98283 18.3199 2.38888 19.4274C3.19572 21.6317 4.7883 23.4615 6.92931 24.4529C8.14748 25.0119 9.50275 25.3336 10.8264 25.5076C12.1711 25.6817 13.5422 25.6711 14.8869 25.476C17.5711 25.0858 20.0813 23.9098 22.0641 22.0588C23.9836 20.2711 25.4918 17.9666 26.1826 15.4248C26.8787 12.8988 26.5465 10.2094 25.149 7.97345ZM20.3344 22.8076C18.0985 24.3791 15.3721 25.1174 12.6563 25.1121C11.2852 25.1068 9.91408 24.8906 8.59572 24.5057C7.3881 24.1524 6.26486 23.6197 5.30509 22.8024C3.90763 21.6158 3.0217 19.9547 2.56291 18.1986C2.32033 17.2758 2.21486 16.3213 2.19904 15.3668C2.18849 14.8817 2.20959 14.3965 2.25705 13.9113C2.27814 13.6793 2.29923 13.4473 2.3256 13.2152C2.3256 13.2047 2.3256 13.1889 2.3256 13.1783C2.34142 13.0676 2.35724 12.9568 2.36779 12.8461C2.51017 12.4611 2.49435 12.034 2.56818 11.6332C2.61037 11.417 2.6631 11.2008 2.71056 10.9846C2.72111 10.9424 2.72638 10.8949 2.73166 10.8422C2.75275 10.7895 2.77912 10.7315 2.80548 10.6787C2.82658 10.6049 2.8424 10.5258 2.86349 10.452C2.88986 10.4045 2.90568 10.357 2.90041 10.3149C4.0922 6.2174 8.12111 3.16407 12.2819 2.51017C14.8078 2.10939 17.4129 2.71056 19.6699 3.8549C21.9164 4.98868 24.0363 6.7922 25.1649 9.0756C27.5906 14.0063 24.474 19.8914 20.3344 22.8076Z" fill="black"/>
<path d="M21.7107 10.8791C20.8881 8.38477 18.7049 6.5338 16.2475 5.76915C15.0715 5.40528 13.8059 5.30509 12.5877 5.5002C11.4961 5.67423 10.5047 6.12247 9.57128 6.70255C8.44277 7.39864 7.38281 8.28458 6.58652 9.34981C5.91679 10.2516 5.46327 11.3432 5.64785 12.4611C5.55292 12.4981 5.46855 12.5824 5.46327 12.7143C5.45273 13.0412 5.38417 13.3734 5.36835 13.7004C5.35253 14.001 5.34726 14.3016 5.34726 14.6022C5.35253 15.177 5.39472 15.7518 5.4791 16.3213C5.64257 17.4129 5.99062 18.4887 6.59179 19.4221C7.9787 21.5736 10.6523 22.2803 13.0887 22.0641C18.2566 21.5895 23.4879 16.2738 21.7107 10.8791ZM15.7781 20.5822C15.7096 20.6719 15.7096 20.7668 15.7412 20.8459C14.3068 21.4471 12.7353 21.7002 11.185 21.5051C11.1059 21.4945 11.0215 21.484 10.9424 21.4682C10.9476 21.1412 10.9687 20.867 11.0795 20.5453C11.185 20.2289 11.3168 19.9072 11.3801 19.5803C11.475 19.0635 11.1217 18.8051 10.6523 18.7629C10.0143 18.7102 9.33398 18.8209 8.833 18.341C8.38476 17.9139 8.45331 17.2705 8.3373 16.701C8.48495 16.7063 8.61152 16.7643 8.71171 16.9119C8.86464 17.1334 8.93847 17.4076 9.05449 17.6502C9.41835 18.3832 10.1303 18.6258 10.9002 18.3568C11.6279 18.1037 12.0709 17.434 11.8916 16.6641C11.7334 15.9996 11.1797 15.467 10.5047 15.3668C10.4519 15.3299 10.3887 15.3088 10.3043 15.3246C9.93515 15.3932 9.61347 14.9818 9.41308 14.7287C9.15995 14.4018 9.00702 14.0432 8.9121 13.6424C8.81191 13.1994 8.79081 12.7512 8.94374 12.3188C9.10195 11.8758 9.56074 11.5858 9.81386 11.2008C9.90878 11.0584 9.8455 10.9108 9.73476 10.8369C9.59765 10.3518 9.22324 9.28126 9.81386 9.3129C10.1197 9.32872 10.4203 9.56602 10.6471 9.74005C10.8685 9.9088 11.0795 10.0986 11.2746 10.2938C11.3326 10.3518 11.3959 10.3729 11.4644 10.3729C11.5066 10.3781 11.5488 10.3729 11.591 10.357C12.3135 10.1092 13.1256 10.0143 13.885 9.9879C14.6918 9.95626 15.6885 9.97208 16.3582 10.4889C16.548 10.6365 16.7537 10.4625 16.7643 10.2779C16.9541 10.0354 17.2705 9.85606 17.5553 9.76641C17.7029 9.71895 17.8348 9.71368 17.9824 9.74532C18.1353 9.77696 18.1353 9.87188 18.1195 10.009C18.0826 10.3518 17.9191 10.6471 17.9191 11.0057C17.9191 11.4275 18.0879 11.8178 18.2619 12.1975C18.4465 12.6035 18.5941 13.0201 18.5625 13.4684C18.5361 13.8902 18.2988 14.2541 18.0141 14.5494C17.6818 14.8922 17.318 15.1295 16.8697 15.293C16.4004 15.467 15.8941 15.5567 15.3984 15.6147C15.3562 15.5883 15.3035 15.5725 15.235 15.5777C14.7234 15.6252 14.4861 16.316 14.5441 16.759C14.6127 17.2811 15.0135 17.6818 15.293 18.1037C15.5303 18.457 15.6463 18.9106 15.7465 19.3219C15.8045 19.5697 15.8414 19.8229 15.8572 20.0813C15.873 20.2395 15.8783 20.4557 15.7781 20.5822ZM18.6152 19.0002C17.9402 19.6277 17.1703 20.1604 16.3476 20.5717C16.4057 20.3449 16.4004 20.1024 16.3793 19.8703C16.3371 19.401 16.2105 18.9264 16.0523 18.4834C15.9047 18.0721 15.6832 17.7451 15.4301 17.3918C15.2877 17.1914 15.1295 16.9752 15.082 16.7326C15.0609 16.6219 15.0662 16.5111 15.1031 16.4057C15.1189 16.3529 15.1928 16.2106 15.2455 16.1473C15.2824 16.1578 15.3246 16.1684 15.3721 16.1578C15.9943 16.084 16.606 15.9627 17.1967 15.7412C17.7187 15.5461 18.1459 15.2139 18.515 14.7973C18.8367 14.4281 19.0529 14.001 19.1004 13.5106C19.1531 12.9727 18.9633 12.4453 18.7471 11.9654C18.5467 11.5119 18.3674 11.0795 18.5203 10.5838C18.6258 10.2463 18.7787 9.8086 18.5361 9.4922C18.283 9.1547 17.7715 9.14415 17.4023 9.26544C17.049 9.38145 16.6641 9.59239 16.4109 9.88243C15.7043 9.47638 14.7867 9.43946 14.001 9.46056C13.1836 9.48165 12.3398 9.57657 11.5541 9.82442C11.0478 9.32872 10.3834 8.72755 9.65566 8.79083C9.24433 8.82774 8.97538 9.27071 8.96484 9.64513C8.94902 10.1356 9.18105 10.5943 9.25488 11.0742C8.94902 11.4592 8.54824 11.7756 8.40585 12.2713C8.24765 12.8303 8.29511 13.3945 8.44277 13.9535C8.56933 14.4281 8.81191 14.85 9.12831 15.2244C9.40781 15.5567 9.79804 15.8678 10.241 15.8572C10.2621 15.8625 10.2832 15.8678 10.3096 15.8731C10.9002 15.9311 11.359 16.3951 11.3959 16.9963C11.4381 17.666 10.5469 18.1248 9.97206 17.9033C9.51855 17.724 9.40253 17.1229 9.20214 16.7326C8.9332 16.2158 8.43222 16.1156 7.8996 16.2369C7.76249 16.2686 7.68867 16.4479 7.73613 16.5744C7.9787 17.1861 7.81523 17.9033 8.24238 18.4518C8.44277 18.7102 8.63788 18.9106 8.9332 19.0582C9.22324 19.2006 9.55546 19.2481 9.87714 19.2691C10.1514 19.285 10.4256 19.2639 10.6998 19.3008C10.8791 19.3272 10.8791 19.3535 10.8475 19.5328C10.7842 19.8703 10.6365 20.2025 10.531 20.5295C10.4467 20.7932 10.4203 21.0358 10.415 21.2941C10.415 21.3047 10.415 21.3205 10.415 21.3311V21.368C9.45527 21.1518 8.55351 20.7404 7.8205 20.0654C7.01367 19.3219 6.51269 18.3147 6.22265 17.2705C6.02753 16.5692 5.93261 15.8414 5.8957 15.1137C5.8746 14.7445 5.8746 14.3754 5.88515 14.001C5.8957 13.6477 5.94843 13.2996 5.98007 12.9463C6.00644 12.941 6.03281 12.9358 6.0539 12.9252C6.08027 12.6299 6.11191 12.3399 6.12773 12.0445C6.12773 12.0393 6.12773 12.0287 6.133 12.0234C6.10663 11.185 6.49687 10.3729 6.9873 9.69259C7.67812 8.73809 8.60624 7.9629 9.5871 7.31427C10.4941 6.71309 11.4803 6.22794 12.5613 6.03282C13.7848 5.81134 15.0398 5.9379 16.2211 6.30177C18.7207 7.07696 20.8301 9.1547 21.4101 11.7387C22.0219 14.4914 20.5769 17.1756 18.6152 19.0002Z" fill="#010101"/>
</svg>
