<svg width="24" height="24" viewBox="0 0 24 24" fill="none" xmlns="http://www.w3.org/2000/svg">
<path fill-rule="evenodd" clip-rule="evenodd" d="M0 12C0 5.37258 5.37258 0 12 0C18.6274 0 24 5.37258 24 12C24 18.6274 18.6274 24 12 24C5.37258 24 0 18.6274 0 12Z" fill="url(#paint0_linear)"/>
<mask id="mask0" mask-type="alpha" maskUnits="userSpaceOnUse" x="0" y="0" width="24" height="24">
<path fill-rule="evenodd" clip-rule="evenodd" d="M0 12C0 5.37258 5.37258 0 12 0C18.6274 0 24 5.37258 24 12C24 18.6274 18.6274 24 12 24C5.37258 24 0 18.6274 0 12Z" fill="white"/>
</mask>
<g mask="url(#mask0)">
<path fill-rule="evenodd" clip-rule="evenodd" d="M12.0006 5.59998C10.2625 5.59998 10.0443 5.60758 9.36165 5.63864C8.6803 5.66984 8.21523 5.77771 7.8083 5.93598C7.38736 6.09945 7.03029 6.31812 6.67455 6.67399C6.31855 7.02972 6.09988 7.38679 5.93588 7.8076C5.77721 8.21467 5.66921 8.67987 5.63854 9.36095C5.60801 10.0436 5.60001 10.2619 5.60001 12C5.60001 13.7382 5.60774 13.9557 5.63867 14.6383C5.67001 15.3197 5.77787 15.7847 5.93601 16.1917C6.09961 16.6126 6.31828 16.9697 6.67415 17.3254C7.02975 17.6814 7.38682 17.9006 7.8075 18.0641C8.2147 18.2224 8.6799 18.3302 9.36111 18.3614C10.0438 18.3925 10.2618 18.4001 11.9998 18.4001C13.7381 18.4001 13.9556 18.3925 14.6382 18.3614C15.3196 18.3302 15.7852 18.2224 16.1924 18.0641C16.6132 17.9006 16.9697 17.6814 17.3253 17.3254C17.6813 16.9697 17.9 16.6126 18.064 16.1918C18.2213 15.7847 18.3293 15.3195 18.3613 14.6385C18.392 13.9558 18.4 13.7382 18.4 12C18.4 10.2619 18.392 10.0438 18.3613 9.36108C18.3293 8.67974 18.2213 8.21467 18.064 7.80773C17.9 7.38679 17.6813 7.02972 17.3253 6.67399C16.9693 6.31798 16.6133 6.09931 16.192 5.93598C15.784 5.77771 15.3186 5.66984 14.6373 5.63864C13.9546 5.60758 13.7373 5.59998 11.9986 5.59998H12.0006ZM11.4265 6.75332C11.5969 6.75305 11.787 6.75332 12.0006 6.75332C13.7094 6.75332 13.912 6.75945 14.5868 6.79012C15.2108 6.81865 15.5494 6.92292 15.775 7.01052C16.0737 7.12652 16.2867 7.26519 16.5105 7.4892C16.7345 7.7132 16.8732 7.92653 16.9895 8.2252C17.0771 8.45054 17.1815 8.78921 17.2099 9.41322C17.2405 10.0879 17.2472 10.2906 17.2472 11.9986C17.2472 13.7066 17.2405 13.9093 17.2099 14.5839C17.1813 15.2079 17.0771 15.5466 16.9895 15.7719C16.8735 16.0706 16.7345 16.2833 16.5105 16.5072C16.2865 16.7312 16.0738 16.8698 15.775 16.9858C15.5497 17.0738 15.2108 17.1778 14.5868 17.2064C13.9121 17.237 13.7094 17.2437 12.0006 17.2437C10.2917 17.2437 10.0891 17.237 9.41445 17.2064C8.79044 17.1776 8.45177 17.0733 8.22603 16.9857C7.92736 16.8697 7.71403 16.731 7.49003 16.507C7.26602 16.283 7.12736 16.0702 7.01109 15.7714C6.92349 15.5461 6.81909 15.2074 6.79069 14.5834C6.76002 13.9087 6.75388 13.7061 6.75388 11.997C6.75388 10.2879 6.76002 10.0863 6.79069 9.41162C6.81922 8.78761 6.92349 8.44894 7.01109 8.22334C7.12709 7.92467 7.26602 7.71133 7.49003 7.48733C7.71403 7.26333 7.92736 7.12466 8.22603 7.00839C8.45164 6.92039 8.79044 6.81639 9.41445 6.78772C10.0049 6.76105 10.2337 6.75305 11.4265 6.75172V6.75332ZM15.4169 7.816C14.9929 7.816 14.6489 8.1596 14.6489 8.58374C14.6489 9.00774 14.9929 9.35175 15.4169 9.35175C15.8409 9.35175 16.1849 9.00774 16.1849 8.58374C16.1849 8.15974 15.8409 7.81573 15.4169 7.81573V7.816ZM12.0006 8.71334C10.1855 8.71334 8.71391 10.185 8.71391 12C8.71391 13.8151 10.1855 15.2861 12.0006 15.2861C13.8157 15.2861 15.2868 13.8151 15.2868 12C15.2868 10.185 13.8156 8.71334 12.0005 8.71334H12.0006ZM12.0006 9.86669C13.1788 9.86669 14.134 10.8218 14.134 12C14.134 13.1782 13.1788 14.1334 12.0006 14.1334C10.8223 14.1334 9.86725 13.1782 9.86725 12C9.86725 10.8218 10.8223 9.86669 12.0006 9.86669Z" fill="white"/>
</g>
<defs>
<linearGradient id="paint0_linear" x1="0.502654" y1="-1.97823" x2="-3.4538" y2="21.0165" gradientUnits="userSpaceOnUse">
<stop stop-color="#6357C8"/>
<stop offset="0.389961" stop-color="#CF2F81"/>
<stop offset="0.742256" stop-color="#F86E2B"/>
<stop offset="1" stop-color="#FED77F"/>
</linearGradient>
</defs>
</svg>
