<svg width="27" height="27" viewBox="0 0 27 27" fill="none" xmlns="http://www.w3.org/2000/svg">
<path d="M6.59982 2.00362C8.40263 1.91756 11.1521 1.60424 14.0541 1.77187C15.6966 1.86693 20.0177 1.57837 20.0177 1.57837C22.7745 1.57837 24.9446 3.77099 25.2889 6.50587C25.4064 7.43962 25.7361 9.41006 25.6275 10.2831C25.3958 12.1466 25.7552 14.9529 25.6759 15.7207C25.3159 19.215 25.4903 19.3618 25.6275 20.565C25.9397 23.3044 23.3893 25.6927 20.6359 25.5566C18.2379 25.4379 15.2224 25.3575 12.8143 25.5712C11.0008 25.7321 7.89188 25.4824 6.83382 25.5566C4.08375 25.749 1.86075 24.0733 1.84219 20.565C1.83713 19.6251 1.50132 18.4837 1.53507 16.8187C1.57613 14.796 1.82363 13.0022 1.84219 12.0932C1.86975 10.7612 1.84669 8.09549 1.84219 6.76293C1.83263 4.00668 2.85132 2.18193 6.59982 2.00362Z" fill="#4B7BB2"/>
<path d="M11.2421 25.9087C10.4906 25.9087 9.68906 25.884 8.94375 25.8604C8.04881 25.8328 7.27594 25.808 6.8535 25.8379C5.38087 25.9425 4.05394 25.5195 3.11737 24.6504C2.10881 23.7144 1.5705 22.3025 1.56094 20.5667C1.55925 20.2022 1.50356 19.7989 1.44 19.3325C1.34325 18.6244 1.23356 17.8217 1.25381 16.8131C1.27856 15.5914 1.37756 14.4574 1.45744 13.5455C1.50919 12.9538 1.55363 12.4425 1.56094 12.0875C1.58288 11.0334 1.57275 9.12767 1.56544 7.73604L1.56094 6.76404C1.54969 3.44304 3.09938 1.88829 6.58687 1.72179C7.03069 1.70042 7.53187 1.66554 8.07919 1.62786C9.76781 1.50973 11.8704 1.36348 14.0709 1.49061C15.6769 1.58286 19.9564 1.30048 19.9997 1.29767C19.9997 1.29767 20.0003 1.29767 20.0008 1.29767C22.8122 1.29767 25.1972 3.52179 25.5684 6.47098C25.5909 6.64817 25.6207 6.86248 25.6539 7.09986C25.7996 8.14442 25.9993 9.57429 25.9071 10.3179C25.7659 11.4553 25.8519 13.0027 25.9155 14.1328C25.956 14.8624 25.9881 15.4389 25.9566 15.75C25.6556 18.6682 25.7299 19.2082 25.8424 20.0267C25.8638 20.1808 25.8862 20.3445 25.9076 20.5335C26.0556 21.8317 25.5921 23.1604 24.6358 24.1802C23.5941 25.2911 22.0927 25.9087 20.6224 25.8379C17.3289 25.6742 14.7831 25.6792 12.8402 25.8519C12.3683 25.8941 11.8198 25.9087 11.2421 25.9087ZM7.36594 25.2619C7.80019 25.2619 8.35312 25.2793 8.96119 25.2979C10.2634 25.3384 11.7394 25.3845 12.789 25.2917C14.7583 25.1162 17.3289 25.1111 20.6494 25.2759C21.9594 25.3451 23.2937 24.7871 24.2241 23.7954C25.0796 22.883 25.4784 21.7474 25.3479 20.597C25.3266 20.4125 25.3046 20.2534 25.2844 20.1032C25.1663 19.2448 25.0881 18.6778 25.3957 15.6926C25.4233 15.426 25.3907 14.8415 25.353 14.1643C25.2849 12.9487 25.2006 11.4367 25.3485 10.2487C25.4318 9.57879 25.2304 8.13429 25.0965 7.17804C25.0628 6.93786 25.0324 6.72073 25.0099 6.54129C24.6735 3.87223 22.5276 1.85961 20.0177 1.85961C19.8591 1.87086 15.6791 2.14817 14.0378 2.05198C11.8693 1.92654 9.78975 2.07223 8.11744 2.18923C7.56619 2.22748 7.0605 2.26292 6.61331 2.28429C3.41381 2.43673 2.11331 3.73442 2.12344 6.76236L2.12794 7.73323C2.13525 9.12823 2.14538 11.0385 2.12344 12.0994C2.11556 12.4729 2.07 12.9926 2.01769 13.595C1.93894 14.4979 1.8405 15.6223 1.81631 16.8249C1.79663 17.789 1.9035 18.5687 1.99744 19.2566C2.06381 19.7426 2.12119 20.1628 2.12344 20.5639C2.13188 22.14 2.60775 23.4107 3.49988 24.2381C4.33294 25.011 5.48044 25.371 6.81469 25.2765C6.96319 25.2658 7.14994 25.2619 7.36594 25.2619Z" fill="#010101"/>
<path d="M9.19686 7.73552C9.06411 9.26721 8.10674 9.32965 7.4503 9.29646C6.79386 9.26327 5.57155 8.81214 5.6548 7.60502C5.73749 6.3979 7.52736 5.89502 7.52736 5.89502C7.52736 5.89502 9.32174 6.29777 9.19686 7.73552Z" fill="#D6E5E5"/>
<path d="M8.89201 6.25836C8.53989 5.92424 8.13264 5.71442 7.64832 5.63174C7.04701 5.52824 6.7382 5.78586 6.2972 6.15824C5.47595 6.85124 5.05295 7.92111 5.74314 8.88467C6.43445 9.84936 8.30982 9.89267 9.07539 9.02924C9.46745 8.58711 9.56476 8.04149 9.51638 7.46436C9.45845 6.77586 9.15189 6.38098 8.65295 5.93886C8.38295 5.6998 7.98357 6.0958 8.25526 6.33655C8.62426 6.66336 8.85151 6.87205 8.93982 7.39517C9.0197 7.86542 8.95051 8.35142 8.6102 8.70636C8.24964 9.08267 7.64551 9.0388 7.15276 9.01349C6.59476 8.98536 6.19539 8.69905 6.02045 8.16805C5.78307 7.44524 6.28145 6.95811 6.7787 6.52836C7.10664 6.24486 7.41376 6.08905 7.86207 6.24824C8.0387 6.31067 8.3447 6.51374 8.49432 6.65605C8.75645 6.9058 9.1547 6.50867 8.89201 6.25836Z" fill="#010101"/>
<path d="M5.8573 11.529L6.33655 22.5112L9.49724 22.5664L9.17211 11.6488L5.8573 11.529Z" fill="#D6E5E5"/>
<path d="M5.57606 11.529C5.98106 15.1543 6.01538 18.7527 6.01538 22.3915C6.01538 22.7532 6.57788 22.7543 6.57788 22.3915C6.57788 18.7527 6.54356 15.1549 6.13856 11.529C6.09919 11.1735 5.53612 11.1696 5.57606 11.529Z" fill="#010101"/>
<path d="M9.44326 11.7237C9.4517 11.6989 9.45957 11.6742 9.46801 11.65C9.53101 11.4632 9.36732 11.3085 9.19688 11.2939C8.08707 11.1983 6.9722 11.2078 5.85732 11.2078C5.49563 11.2078 5.49451 11.7703 5.85732 11.7703C6.97163 11.7703 8.08763 11.7608 9.19688 11.8564C9.10632 11.7377 9.01632 11.619 8.92576 11.5003C8.91732 11.5251 8.90945 11.5498 8.90101 11.574C8.78513 11.9183 9.32795 12.0657 9.44326 11.7237Z" fill="#010101"/>
<path d="M9.01744 11.8805C8.80312 11.8361 8.93419 14.004 8.93925 14.1615C8.97187 15.143 8.9505 16.1308 9.01969 17.1112C9.14119 18.8375 9.21825 20.6201 9.21037 22.3515C9.20869 22.7137 9.77119 22.7137 9.77287 22.3515C9.78862 18.7779 9.46575 15.1914 9.40669 11.6156C9.405 11.4986 9.32119 11.3692 9.20025 11.3445C9.189 11.3422 9.17831 11.34 9.16706 11.3377C8.81381 11.2652 8.6625 11.8074 9.01744 11.8805Z" fill="#010101"/>
<path d="M6.33657 22.23C6.32757 22.23 6.31914 22.23 6.31014 22.23C6.31014 22.4173 6.31014 22.6052 6.31014 22.7925C7.01382 22.7925 7.7147 22.7846 8.41557 22.8285C8.76376 22.8499 9.23851 22.9613 9.57151 22.8375C9.46576 22.6997 9.36001 22.5619 9.2537 22.4241C9.23851 22.4454 9.22332 22.4674 9.20814 22.4888C8.99945 22.7852 9.48657 23.0664 9.69357 22.7728C9.70876 22.7514 9.72395 22.7295 9.73914 22.7081C9.87639 22.5135 9.64689 22.2114 9.42132 22.2953C9.0827 22.4213 8.5472 22.2458 8.19282 22.2294C7.56789 22.2008 6.93451 22.2306 6.30901 22.2306C5.94732 22.2306 5.9462 22.7931 6.30901 22.7931C6.31801 22.7931 6.32645 22.7931 6.33545 22.7931C6.69882 22.7925 6.69939 22.23 6.33657 22.23Z" fill="#010101"/>
<path d="M11.169 11.4891L11.4885 19.2966L11.4548 22.6676L14.2239 22.8415C14.2239 22.8415 14.2043 20.6342 14.2239 20.4345C14.2436 20.2348 13.8094 16.9358 14.1165 16.6388C14.4236 16.3412 15.5391 14.9237 15.7016 14.9839C15.8642 15.0441 17.379 14.5474 17.379 14.5474C17.379 14.5474 18.3589 14.9023 18.3943 14.9321C18.4298 14.962 19.1239 15.9469 19.1239 15.9469L19.3157 17.7795L19.3826 22.0123L19.7949 22.5051L21.8216 22.5782L21.9909 18.3988L21.7693 16.0768L20.9458 12.6878L18.8162 11.4497L15.6814 11.9689L14.4776 12.8132L14.1092 11.4548L11.169 11.4891Z" fill="#D6E5E5"/>
<path d="M10.8979 11.5639C11.2866 13.1557 11.0959 15.0885 11.1274 16.7214C11.1656 18.675 11.0227 20.7292 11.1735 22.6671C11.1887 22.8639 11.4058 23.0383 11.5965 22.9101C11.6342 22.8847 11.6724 22.8589 11.7101 22.8336C12.0088 22.6327 11.7276 22.1451 11.4261 22.3481C11.3884 22.3734 11.3501 22.3993 11.3124 22.4246C11.4536 22.5056 11.5948 22.5866 11.7354 22.6676C11.5734 20.5841 11.6972 18.3628 11.6893 16.2624C11.6837 14.7217 11.8057 12.9139 11.4396 11.4148C11.3541 11.0632 10.8118 11.2117 10.8979 11.5639Z" fill="#010101"/>
<path d="M11.0498 11.0509C11.0419 11.061 11.0335 11.0717 11.0256 11.0818C10.9373 11.1949 10.9001 11.3704 11.0256 11.4795C11.2658 11.6887 11.6415 11.6224 11.9402 11.6415C12.6371 11.687 13.338 11.6308 14.0338 11.7253C13.9686 11.61 13.9028 11.4947 13.8375 11.3794C13.7318 11.943 13.8521 12.4363 14.2043 12.8857C14.4276 13.1704 14.823 12.7699 14.602 12.488C14.3876 12.2147 14.3162 11.8665 14.3798 11.529C14.4051 11.3957 14.3438 11.205 14.1835 11.183C13.644 11.1099 13.1006 11.088 12.5561 11.088C12.3058 11.088 12.0606 11.0615 11.8136 11.0509C11.7518 11.048 11.4413 11.0975 11.4233 11.0812C11.4233 11.214 11.4233 11.3462 11.4233 11.4789C11.4311 11.4688 11.4396 11.4581 11.4475 11.448C11.6674 11.1662 11.272 10.7657 11.0498 11.0509Z" fill="#010101"/>
<path d="M14.4017 12.8469C14.4011 12.8554 14.4011 12.8638 14.4005 12.8722C14.3899 13.1698 14.7763 13.23 14.9248 13.014C15.6628 11.9419 17.9167 11.6505 19.0462 11.8856C20.9694 12.2861 21.0774 13.8425 21.3997 15.5008C21.6439 16.7574 21.6962 18.0754 21.6697 19.355C21.6489 20.3726 21.3047 21.6545 21.5499 22.6519C21.6214 22.941 22.0016 22.8954 22.0922 22.6519C22.0955 22.6429 22.0989 22.6344 22.1017 22.6254C22.2283 22.2857 21.6849 22.1394 21.5595 22.4758C21.5561 22.4848 21.5527 22.4932 21.5499 22.5022C21.7305 22.5022 21.9116 22.5022 22.0922 22.5022C21.8891 21.6771 22.2109 20.6662 22.2305 19.8152C22.2514 18.9135 22.2199 18.0067 22.172 17.1073C22.0961 15.6746 21.9212 13.5844 21.0746 12.3862C20.4165 11.4547 19.0789 11.1088 17.9657 11.178C16.9155 11.2432 15.0722 11.8102 14.4394 12.7299C14.6143 12.7772 14.7887 12.8244 14.9636 12.8717C14.9642 12.8632 14.9642 12.8548 14.9647 12.8464C14.9777 12.4852 14.4152 12.4858 14.4017 12.8469Z" fill="#010101"/>
<path d="M11.466 22.468C11.4435 22.482 11.421 22.4967 11.3979 22.5107C11.2061 22.6322 11.2174 22.9725 11.4649 23.0248C12.3396 23.2088 13.4241 23.1857 14.3083 23.0108C14.4304 22.9866 14.5119 22.8567 14.5147 22.7397C14.5558 21.0139 13.9854 18.9253 14.3646 17.2412C14.598 16.2028 15.4187 15.5678 16.326 15.1262C18.0169 14.3027 18.9472 15.6465 19.0339 17.226C19.0845 18.1446 19.0417 19.0761 19.0738 19.9958C19.098 20.6944 18.9467 21.5528 19.1216 22.2283C19.4062 23.3252 20.7399 22.9697 21.5662 22.8032C21.9206 22.7318 21.771 22.1895 21.4166 22.261C20.7619 22.3932 19.926 22.6075 19.665 21.9004C19.5306 21.5365 19.6678 20.7906 19.6515 20.3783C19.6031 19.1475 19.7027 17.874 19.5547 16.6528C19.3607 15.0503 18.0922 13.8623 16.4424 14.4349C15.7241 14.6841 15.0609 15.2286 14.5018 15.7281C13.6997 16.4442 13.7582 17.1192 13.7582 18.2008C13.7576 19.3039 13.9382 20.3884 13.9663 21.4864C13.9719 21.7035 14.0428 22.2514 13.9596 22.4742C13.9185 22.5838 14.3634 22.5996 13.6024 22.5501C12.9577 22.5085 12.2467 22.6159 11.6145 22.4832C11.637 22.6547 11.6595 22.8257 11.6814 22.9973C11.7039 22.9832 11.7264 22.9686 11.7495 22.9545C12.0549 22.7605 11.7731 22.2739 11.466 22.468Z" fill="#010101"/>
</svg>
