<svg width="27" height="27" viewBox="0 0 27 27" fill="none" xmlns="http://www.w3.org/2000/svg">
<path d="M2.79956 15.3287C2.95875 12.7013 3.0825 9.64744 2.86762 7.02394C2.82712 6.525 2.77931 6.01931 2.86425 5.526C3.04594 4.46456 3.83344 3.83738 4.779 3.32156C5.72456 2.80575 6.81356 2.61844 7.88794 2.54306C9.47362 2.43169 11.0655 2.54644 12.6501 2.67075C14.8967 2.84625 17.7131 2.77931 19.9626 2.64544C20.7427 2.59931 21.5539 2.51831 22.2806 2.80519C23.0451 3.10725 23.6121 3.78844 23.9417 4.54163C24.2713 5.29425 23.8286 6.68306 23.9209 7.49981C24.3827 11.6049 24.2173 15.7534 24.003 19.8788C23.9659 20.5926 23.9248 21.5241 23.6812 22.1963C23.4377 22.8684 22.9579 23.4911 22.2851 23.7324C21.8925 23.8731 21.4661 23.8759 21.0493 23.8776C16.5774 23.8911 12.1056 23.9046 7.63369 23.9181C6.81075 23.9203 5.97544 23.9214 5.18231 23.7021C4.38919 23.4827 3.62925 23.0113 3.24731 22.2823C3.02231 21.8531 2.94131 21.3649 2.8755 20.8851C2.62462 19.0648 2.7 17.163 2.79956 15.3287Z" fill="#4B7BB2"/>
<path d="M7.41319 24.1993C6.62963 24.1993 5.85732 24.1802 5.10694 23.9732C4.14675 23.7066 3.37838 23.1384 2.99757 22.4128C2.75119 21.9426 2.664 21.4189 2.59594 20.9233C2.34338 19.0856 2.41932 17.1444 2.51832 15.3141V15.3124C2.66625 12.8779 2.80744 9.73856 2.5875 7.04756L2.58188 6.975C2.54194 6.48731 2.50032 5.98275 2.58694 5.47819C2.80069 4.23169 3.74738 3.564 4.64457 3.07462C5.74763 2.47275 7.01269 2.32256 7.86769 2.26237C9.41232 2.15437 10.8939 2.25169 12.6714 2.39062C15.2438 2.59087 18.333 2.46037 19.9462 2.36475L20.1358 2.35294C20.8839 2.30625 21.6585 2.25675 22.3841 2.54362C23.1564 2.84906 23.8016 3.51844 24.1999 4.42912C24.4277 4.94944 24.3444 5.66212 24.2634 6.35175C24.2139 6.77362 24.1672 7.17244 24.201 7.46775C24.6617 11.5639 24.5031 15.6825 24.2837 19.8934L24.2798 19.9704C24.2421 20.6983 24.1948 21.6045 23.9451 22.2924C23.643 23.1272 23.0721 23.7487 22.3796 23.9968C21.9392 24.1549 21.4667 24.1566 21.0499 24.1583L7.67532 24.1987C7.58757 24.1987 7.50038 24.1993 7.41319 24.1993ZM3.08025 15.345C2.98238 17.1478 2.90757 19.0581 3.15338 20.8451C3.21469 21.2923 3.29175 21.7609 3.49594 22.1501C3.80419 22.7391 4.446 23.2054 5.25713 23.4298C6.01707 23.6391 6.84113 23.6346 7.63313 23.6351L21.0482 23.5946C21.4374 23.5929 21.8408 23.5912 22.1901 23.4658C22.7244 23.274 23.1716 22.7756 23.4174 22.0989C23.6385 21.4897 23.6829 20.6303 23.7184 19.9395L23.7229 19.8619C23.9406 15.6763 24.0986 11.583 23.6419 7.5285C23.6019 7.16906 23.652 6.73931 23.7049 6.28425C23.7769 5.66887 23.8517 5.03325 23.6846 4.65244C23.3511 3.89081 22.8021 3.31144 22.1777 3.06506C21.5685 2.82487 20.8581 2.86931 20.1718 2.91262L19.98 2.92612C18.3516 3.02287 15.2336 3.15506 12.6281 2.95031C10.8748 2.81362 9.41288 2.71687 7.90763 2.82319C6.63132 2.91319 5.68013 3.15 4.914 3.56794C4.13438 3.99375 3.31425 4.56356 3.14157 5.57269C3.06675 6.00806 3.10388 6.45525 3.14269 6.92887L3.14832 7.00031C3.37107 9.72731 3.22875 12.8919 3.08025 15.345Z" fill="#010101"/>
<path d="M8.83294 19.4327C8.62031 16.533 8.80088 13.3476 8.70694 10.4417C9.45956 10.3331 9.96806 10.5537 10.728 10.5328C10.7871 10.5312 10.8501 10.5306 10.9001 10.5621C10.9423 10.588 10.9688 10.6324 10.9941 10.6746C11.8603 12.1348 12.7209 13.4381 13.5872 14.8984C14.0844 13.7087 14.6132 12.6866 15.1628 11.5195C15.3242 11.1763 15.4744 10.9682 15.8018 10.7775C15.9429 10.6954 16.1027 10.651 16.2613 10.6133C16.7861 10.4884 17.3267 10.4265 17.8661 10.4305C18.162 13.3161 18.2813 16.069 18.1598 18.9675C18.1536 19.1104 18.1378 19.2724 18.0236 19.3585C17.9207 19.4361 17.7784 19.4215 17.6501 19.4085C17.0814 19.3523 16.6275 19.4338 16.0886 19.4074C16.3119 17.8144 16.2383 16.519 15.9829 14.9305C15.5126 15.8861 14.9378 16.5617 14.4079 17.4859C14.3713 17.5495 14.3319 17.6158 14.2695 17.6546C14.2026 17.6963 14.1204 17.6996 14.0417 17.7019C13.6153 17.7148 13.1884 17.7272 12.762 17.7401C12.5539 17.2401 12.3458 16.8514 12.1376 16.3513C11.8502 15.6606 11.4986 14.8708 10.9783 14.3331C11.0351 15.8985 11.0936 17.5478 11.0486 19.1138C10.3359 19.2775 9.48319 19.3073 8.83294 19.4327Z" fill="#D6E5E5"/>
<path d="M8.83293 19.7139C8.77162 19.7139 8.71143 19.6937 8.66193 19.656C8.59837 19.6071 8.55787 19.5328 8.55224 19.4529C8.42624 17.7328 8.43805 15.8979 8.44874 14.1227C8.45662 12.9009 8.46393 11.6381 8.42568 10.4507C8.42118 10.3072 8.52524 10.1835 8.66699 10.1627C9.13162 10.0957 9.51299 10.1436 9.87918 10.1914C10.1424 10.2251 10.4152 10.2611 10.7201 10.2504C10.7916 10.2504 10.9221 10.2448 11.0464 10.3207C11.1504 10.386 11.2033 10.4754 11.2359 10.5289C11.6685 11.2579 12.0988 11.9469 12.5297 12.636C12.8683 13.1782 13.2069 13.7199 13.5467 14.2807C13.8262 13.6462 14.1131 13.0522 14.4135 12.4324C14.5766 12.0949 14.7414 11.7534 14.9091 11.3985C15.0851 11.0256 15.264 10.7646 15.6617 10.5334C15.8349 10.4321 16.0217 10.3804 16.1977 10.3387C16.7439 10.2082 17.2879 10.143 17.8695 10.1481C18.0129 10.1492 18.1327 10.2577 18.1468 10.4006C18.4635 13.4904 18.5569 16.2163 18.4421 18.9776C18.4359 19.1171 18.4236 19.4074 18.1946 19.5806C18.0056 19.7252 17.7789 19.7016 17.6299 19.6869C17.325 19.656 17.0601 19.6678 16.7794 19.6791C16.5504 19.6892 16.3209 19.6982 16.0762 19.6858C15.9969 19.6819 15.9238 19.6453 15.8737 19.584C15.8231 19.5238 15.8006 19.4439 15.8119 19.3657C15.9992 18.0281 15.966 16.9256 15.8254 15.7944C15.6606 16.0639 15.4907 16.3181 15.3236 16.5667C15.1009 16.8992 14.8708 17.2423 14.6537 17.6226C14.6098 17.6991 14.5434 17.8138 14.4202 17.8909C14.2892 17.9724 14.1474 17.9769 14.0541 17.9803L12.7727 18.018C12.6585 18.0242 12.5499 17.9527 12.5044 17.8447C12.402 17.5984 12.2996 17.3801 12.1972 17.1613C12.0915 16.9357 11.9857 16.7096 11.88 16.4559C11.7124 16.0521 11.5228 15.6178 11.2939 15.2263C11.3366 16.4818 11.3692 17.8301 11.3321 19.1188C11.3282 19.2471 11.2387 19.3562 11.1139 19.3849C10.6993 19.4799 10.2504 19.5306 9.81618 19.5795C9.4798 19.6172 9.16255 19.6532 8.88637 19.7072C8.86893 19.7122 8.85037 19.7139 8.83293 19.7139ZM17.2147 19.1059C17.3621 19.1059 17.5151 19.1115 17.6782 19.1272C17.7396 19.1346 17.8312 19.1424 17.8582 19.1312C17.8588 19.1256 17.8734 19.0867 17.8791 18.9551C17.9899 16.2979 17.9055 13.6721 17.6124 10.7151C17.1787 10.7286 16.7479 10.7865 16.3266 10.8872C16.1719 10.9232 16.0476 10.9603 15.9435 11.0205C15.6679 11.1808 15.5542 11.3479 15.4164 11.6392C15.2482 11.9964 15.0823 12.3396 14.9186 12.6787C14.5429 13.4544 14.1885 14.1874 13.8459 15.0069C13.8054 15.1054 13.7126 15.1717 13.6063 15.1796C13.5 15.1875 13.3999 15.1324 13.3464 15.0407C12.9139 14.3128 12.4836 13.6232 12.0527 12.9347C11.6196 12.2422 11.187 11.5492 10.7527 10.8169C10.3804 10.8253 10.0924 10.7854 9.80774 10.7488C9.5383 10.7151 9.28405 10.683 8.99605 10.6954C9.02587 11.8159 9.01855 12.9887 9.01124 14.1261C9.00055 15.7837 8.99043 17.4949 9.09224 19.1042C9.30205 19.0732 9.52368 19.0485 9.75318 19.0226C10.0957 18.9844 10.4484 18.9439 10.7752 18.8826C10.8096 17.3616 10.7511 15.7618 10.6987 14.3426C10.6948 14.2262 10.7623 14.1193 10.8697 14.0732C10.9766 14.0271 11.1009 14.0518 11.1825 14.1362C11.7337 14.7066 12.0999 15.5222 12.3992 16.2411C12.5016 16.4874 12.6039 16.7057 12.7063 16.9245C12.7867 17.0961 12.8672 17.2671 12.9476 17.4516L14.0361 17.4189C14.0642 17.4178 14.1142 17.4161 14.13 17.4105C14.1294 17.4066 14.1536 17.3655 14.1666 17.343C14.3932 16.947 14.6289 16.5954 14.8567 16.2546C15.1717 15.7854 15.4682 15.3416 15.7331 14.8044C15.7871 14.6953 15.9036 14.6306 16.0267 14.6509C16.1477 14.6689 16.2433 14.7634 16.263 14.8843C16.4863 16.2799 16.5971 17.55 16.4098 19.1295C16.5268 19.1278 16.6416 19.1227 16.7563 19.1177C16.9048 19.1126 17.0561 19.1059 17.2147 19.1059Z" fill="#010101"/>
<path d="M16.8413 5.93378C16.6157 6.49065 16.3631 7.01884 16.1376 7.57571C16.0836 7.70903 16.0346 7.87609 16.1274 7.98409C16.2315 8.10503 17.7413 8.51115 17.9421 8.67484C18.3555 8.13203 18.6559 7.49921 18.8168 6.83096C18.5192 6.62171 18.1299 6.46871 17.7778 6.38603C17.4268 6.30278 17.1433 6.11096 16.8413 5.93378Z" fill="#D6E5E5"/>
<path d="M17.9426 8.95612C17.8785 8.95612 17.8155 8.93418 17.7654 8.89312C17.6766 8.83349 17.1945 8.6743 16.8761 8.56912C16.1792 8.33962 16.0071 8.27493 15.9148 8.16749C15.6966 7.91606 15.8327 7.58024 15.8771 7.47056C15.9919 7.18762 16.1134 6.91199 16.2349 6.63637C16.3524 6.36918 16.47 6.10256 16.5808 5.82862C16.6118 5.75268 16.6742 5.69418 16.7518 5.66774C16.8289 5.64187 16.9144 5.65087 16.9847 5.69193L17.1158 5.77012C17.3571 5.91524 17.5843 6.05193 17.8431 6.11268C18.2649 6.21168 18.6784 6.38999 18.9793 6.60093C19.0738 6.66731 19.1183 6.78487 19.0913 6.89681C18.9214 7.59993 18.6024 8.27381 18.1665 8.8453C18.1204 8.90605 18.0518 8.94543 17.9758 8.95387C17.9651 8.95555 17.9539 8.95612 17.9426 8.95612ZM16.3614 7.79343C16.5009 7.85249 16.8137 7.95599 17.0522 8.03474C17.4251 8.15793 17.6805 8.24399 17.8554 8.31599C18.1373 7.90368 18.3549 7.44074 18.4933 6.95812C18.2706 6.83156 17.9961 6.72581 17.7148 6.65943C17.4341 6.59362 17.199 6.47156 16.9768 6.34162C16.902 6.51712 16.8255 6.68981 16.7496 6.86306C16.6303 7.13306 16.5111 7.40362 16.3991 7.68149C16.3766 7.73437 16.3665 7.7698 16.3614 7.79343Z" fill="#010101"/>
</svg>
