<svg width="27" height="27" viewBox="0 0 27 27" fill="none" xmlns="http://www.w3.org/2000/svg">
<path d="M18.1249 24.4052C18.9264 24.3545 19.9159 24.3287 20.7152 24.2539C21.5151 24.179 22.3374 23.9664 22.9399 23.4275C23.3308 23.0777 23.6042 22.6125 23.8264 22.1344C24.0851 21.578 24.2842 20.9908 24.3776 20.3827C24.4609 19.8394 24.4586 19.287 24.4564 18.7369C24.4474 16.7732 24.2274 14.9242 24.2865 12.9617C24.3737 10.0704 24.3174 7.29054 24.1037 4.40604C24.0851 4.14954 24.0637 3.89023 23.985 3.64498C23.7881 3.03017 23.2481 2.58129 22.6609 2.33154C21.1039 1.67004 19.3421 2.22073 17.6664 2.42267C14.5631 2.79617 11.1729 2.37598 8.04825 2.42379C6.96881 2.44011 5.55356 2.25504 4.62825 2.81867C4.12481 3.12467 3.74287 3.60336 3.44475 4.11636C3.03412 4.82286 2.76356 5.61204 2.65331 6.42486C2.57456 7.00536 2.57681 7.59373 2.57962 8.17929C2.58919 10.3455 2.87325 12.735 2.88281 14.9017C2.89744 15.9345 2.87212 17.2637 2.76975 18.2908C2.67806 19.2099 2.49244 20.1262 2.54362 21.0487C2.59481 21.9712 2.92612 22.9337 3.66075 23.4776C4.34362 23.9833 5.24194 24.0446 6.08625 24.084C10.035 24.2685 14.1801 24.6538 18.1249 24.4052Z" fill="#D6E5E5"/>
<path d="M15.3641 24.7674C13.1979 24.7674 11.0036 24.6403 8.85937 24.5165C7.92337 24.462 6.993 24.4085 6.07275 24.3647C5.31337 24.3292 4.27275 24.2808 3.49312 23.7037C2.77425 23.171 2.32594 22.2092 2.26237 21.0639C2.22469 20.3776 2.31244 19.6959 2.39737 19.0367C2.43056 18.7785 2.46375 18.5203 2.48962 18.2621C2.57737 17.3835 2.619 16.1291 2.60156 14.9045C2.59706 13.8273 2.52225 12.6737 2.45025 11.5582C2.37769 10.4343 2.30287 9.27221 2.29781 8.17984C2.295 7.59371 2.29219 6.9879 2.37375 6.38659C2.4885 5.54228 2.77425 4.70865 3.20119 3.97515C3.57525 3.33165 3.99375 2.8749 4.48087 2.57846C5.28412 2.08909 6.37875 2.11384 7.34287 2.13521C7.58587 2.14028 7.82212 2.1459 8.04319 2.14253C9.20306 2.12453 10.4186 2.17178 11.5948 2.2179C13.6102 2.29553 15.6954 2.37596 17.6321 2.14365C18 2.09865 18.3707 2.0379 18.7431 1.97659C20.0897 1.75496 21.483 1.52546 22.7711 2.07334C23.5108 2.38778 24.0508 2.9289 24.2533 3.56003C24.3444 3.84409 24.3664 4.14446 24.3844 4.38634C24.5959 7.24496 24.6555 10.053 24.5677 12.9712C24.534 14.0743 24.5914 15.1667 24.6465 16.223C24.6893 17.0381 24.7331 17.8813 24.7371 18.7368C24.7393 19.2892 24.7421 19.8613 24.6549 20.4266C24.5649 21.0138 24.372 21.6292 24.0806 22.2536C23.8995 22.6434 23.6031 23.2115 23.1266 23.6379C22.5613 24.1442 21.7811 24.4378 20.7405 24.5351C20.2269 24.5829 19.6414 24.611 19.0749 24.6386C18.7509 24.6538 18.4337 24.669 18.1417 24.6875C17.2266 24.7438 16.2979 24.7674 15.3641 24.7674ZM6.73087 2.68815C6.01594 2.68815 5.29031 2.7444 4.7745 3.05828C4.36894 3.30578 4.01344 3.69784 3.68775 4.25753C3.29794 4.92803 3.03637 5.69021 2.93175 6.46253C2.85525 7.02503 2.85806 7.61115 2.86087 8.17815C2.86537 9.25309 2.94019 10.4068 3.01219 11.5222C3.08475 12.6461 3.15956 13.8082 3.16462 14.9C3.18262 16.1409 3.13987 17.42 3.04987 18.3183C3.02344 18.5822 2.98969 18.8454 2.95594 19.1087C2.87044 19.7718 2.79 20.3985 2.82487 21.033C2.87944 22.01 3.24506 22.8189 3.82894 23.2515C4.42294 23.6908 5.20931 23.7611 6.10031 23.8027C7.02225 23.8455 7.95487 23.8995 8.89312 23.954C11.9441 24.1301 15.1003 24.3123 18.1086 24.1245C18.4033 24.1059 18.7234 24.0902 19.0502 24.075C19.6093 24.048 20.1876 24.0204 20.691 23.9732C21.6067 23.8877 22.2817 23.6402 22.7537 23.2177C23.0574 22.9455 23.3179 22.5635 23.5727 22.0145C23.8416 21.438 24.0187 20.8743 24.1009 20.3388C24.1813 19.8174 24.1785 19.2684 24.1762 18.7368C24.1723 17.8953 24.129 17.0589 24.0862 16.25C24.0306 15.1824 23.9726 14.0782 24.0064 12.9527C24.0941 10.0541 24.0345 7.26521 23.8247 4.42628C23.8078 4.20353 23.7892 3.94984 23.7189 3.7299C23.5665 3.25515 23.1418 2.84003 22.5523 2.58971C21.4155 2.10709 20.1622 2.31296 18.8359 2.53121C18.4556 2.59365 18.0765 2.65609 17.7013 2.70109C15.7202 2.94015 13.6125 2.85803 11.5746 2.77928C10.4062 2.73428 9.19856 2.68421 8.05331 2.70446C7.82437 2.70671 7.5825 2.70221 7.33219 2.69659C7.13531 2.69321 6.93337 2.68815 6.73087 2.68815Z" fill="#010101"/>
<path d="M13.7998 10.9569C12.5938 10.8152 11.1971 10.7004 10.0688 10.2527C8.93532 9.80268 7.58813 8.71368 7.05488 7.61737C6.49857 9.0135 7.0245 11.052 8.14894 12.0493C7.6635 11.9897 6.95025 11.7489 6.49857 11.5611C6.64763 12.9414 7.93463 14.2959 9.27282 14.6666C8.64732 14.9068 7.7085 15.0126 7.04082 14.949C7.641 15.5441 8.50894 16.1342 9.24975 16.5403C9.71607 16.7957 10.3393 16.9436 10.863 17.0387C10.6352 17.3199 10.1402 17.4369 9.78638 17.5129C8.71032 17.7435 7.63257 18.0855 6.5565 18.3161C8.38575 19.1059 10.6521 19.6667 12.6214 19.3646C14.5913 19.062 16.4807 18.0405 17.6479 16.4256C18.1727 15.6994 18.5434 14.8747 18.8663 14.0394C19.2673 13.0022 19.6031 11.9284 19.6948 10.8197C19.7033 10.7151 19.7111 10.6065 19.764 10.5159C19.8281 10.4057 19.9463 10.3416 20.0565 10.2786C20.565 9.9855 21.0459 9.531 21.1005 8.94656C20.6696 9.05625 20.2388 9.1665 19.8079 9.27618C20.1279 8.93925 20.2899 8.51906 20.5301 8.12137C20.0981 8.20687 19.7364 8.58768 19.2459 8.54662C18.9411 8.52131 18.6953 8.29968 18.4399 8.1315C17.514 7.524 16.2231 7.60218 15.3079 8.22656C14.3938 8.85037 13.8476 9.8505 13.7998 10.9569Z" fill="#4B7BB2"/>
<path d="M11.4711 19.7302C9.46125 19.7302 7.52287 19.0395 6.44512 18.5743C6.33262 18.5259 6.26456 18.41 6.27694 18.2885C6.28875 18.1665 6.37819 18.0664 6.498 18.041C7.02956 17.9274 7.57406 17.7829 8.10056 17.6428C8.63325 17.501 9.18394 17.3548 9.72844 17.2378C9.819 17.2187 9.94669 17.1911 10.08 17.1534C9.69131 17.0488 9.37294 16.9279 9.11587 16.7872C8.24906 16.3125 7.39969 15.6999 6.84394 15.1492C6.75956 15.0654 6.73706 14.9377 6.78712 14.8303C6.83719 14.7229 6.94631 14.6644 7.06837 14.6694C7.46662 14.7077 7.94812 14.6812 8.39081 14.607C7.24331 13.9787 6.34781 12.7805 6.21956 11.592C6.20887 11.493 6.25106 11.3957 6.33094 11.3366C6.41081 11.277 6.516 11.264 6.60769 11.3017C6.82537 11.3929 7.09762 11.4924 7.37044 11.5774C6.58125 10.413 6.30844 8.73167 6.79444 7.51329C6.8355 7.40979 6.93394 7.34061 7.04531 7.33667C7.17187 7.33667 7.26019 7.39461 7.30856 7.49473C7.77544 8.45492 9.00731 9.52817 10.1734 9.99111C11.1324 10.3719 12.3328 10.5075 13.392 10.6273L13.5444 10.6447C13.6744 9.56417 14.2493 8.60961 15.1515 7.99423C16.1882 7.28604 17.6051 7.24611 18.5963 7.89636C18.6514 7.93179 18.7059 7.97061 18.7605 8.00942C18.9377 8.13429 19.1053 8.25242 19.2712 8.26592C19.4794 8.28054 19.6774 8.18492 19.9018 8.07129C20.0801 7.98073 20.2652 7.88679 20.4778 7.84517C20.5869 7.82436 20.6989 7.86879 20.7624 7.95936C20.826 8.05048 20.8305 8.17086 20.7726 8.26648C20.7011 8.38461 20.637 8.50554 20.5734 8.62479C20.5391 8.68836 20.5048 8.75304 20.4694 8.81717L21.0324 8.67373C21.1219 8.65067 21.2153 8.67317 21.2844 8.73223C21.3542 8.79129 21.3902 8.88129 21.3818 8.97242C21.3261 9.56361 20.9053 10.1137 20.1977 10.5221C20.1088 10.5733 20.0306 10.6183 20.0081 10.6571C19.9884 10.6909 19.9823 10.7668 19.9766 10.8337C19.8726 12.0915 19.4692 13.2609 19.1295 14.1401C18.8347 14.9023 18.4551 15.7899 17.8768 16.5892C16.713 18.1997 14.8134 19.3123 12.6647 19.6419C12.2681 19.7032 11.8682 19.7302 11.4711 19.7302ZM7.48856 18.3847C8.81269 18.8685 10.7443 19.3685 12.5792 19.0867C14.58 18.7796 16.3446 17.7497 17.4206 16.2607C17.9612 15.5126 18.3229 14.6666 18.6047 13.9376C18.9309 13.0939 19.3179 11.9745 19.4152 10.7966C19.4259 10.6678 19.4383 10.5176 19.5216 10.3742C19.6189 10.2065 19.773 10.1177 19.8973 10.0462C20.1375 9.90786 20.4817 9.66992 20.6764 9.34536L19.8788 9.54842C19.7573 9.58048 19.6301 9.52592 19.5666 9.41848C19.503 9.31048 19.5188 9.17323 19.6054 9.08211C19.7139 8.96848 19.8034 8.83967 19.8861 8.70242C19.6909 8.78567 19.4766 8.84811 19.2234 8.82673C18.9056 8.80029 18.6559 8.62479 18.4359 8.46954C18.3864 8.43411 18.3369 8.39979 18.2869 8.36661C17.4808 7.83786 16.3215 7.87611 15.4676 8.45886C14.6306 9.02979 14.1249 9.94498 14.0811 10.9693C14.0777 11.0475 14.0422 11.1212 13.9826 11.1712C13.9236 11.2219 13.8448 11.25 13.7672 11.2359L13.3279 11.1859C12.2338 11.0621 10.9935 10.9215 9.96469 10.5137C9.02812 10.1419 7.86094 9.31161 7.15444 8.32611C6.96712 9.53773 7.44469 11.0486 8.33569 11.8384C8.42794 11.9205 8.45606 12.0521 8.406 12.164C8.35594 12.2765 8.24006 12.348 8.11519 12.3277C7.76531 12.285 7.29956 12.1534 6.87937 12.0065C7.21125 13.0708 8.22994 14.0844 9.34875 14.3955C9.46575 14.4281 9.54844 14.5316 9.55462 14.6531C9.56025 14.774 9.48769 14.8854 9.37462 14.9287C8.93981 15.0958 8.3565 15.2055 7.79456 15.2381C8.2575 15.6088 8.81662 15.9812 9.38644 16.2934C9.73575 16.4846 10.2358 16.6382 10.9147 16.7619C11.0126 16.7799 11.0936 16.848 11.1279 16.9408C11.1628 17.0342 11.1454 17.1388 11.0829 17.2153C10.8051 17.5584 10.2988 17.6906 9.84656 17.7879C9.31556 17.9015 8.77162 18.0461 8.24569 18.1862C7.99537 18.2525 7.74281 18.3195 7.48856 18.3847Z" fill="#010101"/>
</svg>
