<svg width="24" height="24" viewBox="0 0 24 24" fill="none" xmlns="http://www.w3.org/2000/svg">
<path fill-rule="evenodd" clip-rule="evenodd" d="M0 12C0 5.37258 5.37258 0 12 0C18.6274 0 24 5.37258 24 12C24 18.6274 18.6274 24 12 24C5.37258 24 0 18.6274 0 12Z" fill="#CE1312"/>
<path fill-rule="evenodd" clip-rule="evenodd" d="M18.2456 9.58451C18.2456 9.58451 18.1206 8.68319 17.7376 8.28629C17.2515 7.76512 16.7067 7.76266 16.457 7.73241C14.6684 7.59998 11.9855 7.59998 11.9855 7.59998H11.9799C11.9799 7.59998 9.29696 7.59998 7.50835 7.73241C7.25831 7.76266 6.7139 7.76512 6.2274 8.28629C5.84435 8.68319 5.71973 9.58451 5.71973 9.58451C5.71973 9.58451 5.59192 10.6432 5.59192 11.7015V12.694C5.59192 13.7527 5.71973 14.8109 5.71973 14.8109C5.71973 14.8109 5.84435 15.7123 6.2274 16.1092C6.7139 16.6303 7.35257 16.614 7.63696 16.6684C8.65949 16.7689 11.9827 16.8 11.9827 16.8C11.9827 16.8 14.6684 16.7959 16.457 16.6634C16.7067 16.6328 17.2515 16.6303 17.7376 16.1092C18.1206 15.7123 18.2456 14.8109 18.2456 14.8109C18.2456 14.8109 18.3734 13.7527 18.3734 12.694V11.7015C18.3734 10.6432 18.2456 9.58451 18.2456 9.58451Z" fill="white"/>
<path fill-rule="evenodd" clip-rule="evenodd" d="M10.663 13.8966L10.6626 10.2214L14.116 12.0653L10.663 13.8966Z" fill="#CE1312"/>
</svg>
