<svg viewBox="0 0 1454 884" fill="none"
    xmlns="http://www.w3.org/2000/svg">
    <g id="construction" clip-path="url(#clip0)">
        <path id="Vector" d="M349.912 868.99L314.095 802.355L349.928 876.249L349.948 883.842C352.503 883.807 355.032 883.692 357.536 883.497L354.614 785.961L354.653 785.207L354.587 785.063L354.309 775.846L391.759 702.815L354.27 768.944L354.158 770.897L351.951 697.204L384.146 621.643L351.7 684.255L350.19 531.511L350.183 531.003L350.178 531.503L349.443 651.932L318.679 603.746L349.471 662.304L349.613 728.263L321.069 664.56L349.629 737.961L349.708 774.637L308.245 685.939L349.741 787.432L349.912 868.99Z" fill="#E2E2E2"/>
        <path id="Vector_2" d="M657.268 868.99L621.451 802.355L657.285 876.249L657.304 883.842C659.859 883.807 662.389 883.692 664.892 883.497L661.971 785.961L662.01 785.207L661.944 785.063L661.666 775.846L699.115 702.815L661.627 768.944L661.515 770.897L659.308 697.204L691.503 621.643L659.056 684.255L657.547 531.511L657.54 531.003L657.535 531.503L656.8 651.931L626.036 603.746L656.827 662.304L656.97 728.263L628.426 664.559L656.986 737.961L657.065 774.637L615.601 685.939L657.097 787.432L657.268 868.99Z" fill="#E2E2E2"/>
        <path id="Vector_3" d="M42.2632 873.276L16.3999 825.159L42.2751 878.518L42.289 884C44.1341 883.975 45.9606 883.892 47.7685 883.752L45.659 813.321L45.6867 812.777L45.6392 812.673L45.4384 806.018L72.4806 753.282L45.4105 801.034L45.3295 802.443L43.7359 749.23L66.9837 694.668L43.5543 739.88L42.4644 629.584L42.4594 629.217L42.4557 629.578L41.925 716.539L19.7106 681.745L41.9447 724.029L42.0479 771.658L21.4361 725.658L42.0592 778.66L42.1163 805.145L12.1757 741.096L42.1398 814.384L42.2632 873.276Z" fill="#E2E2E2"/>
        <path id="Vector_4" d="M1404.79 868.99L1368.97 802.355L1404.81 876.249L1404.82 883.842C1407.38 883.807 1409.91 883.692 1412.41 883.497L1409.49 785.961L1409.53 785.207L1409.46 785.063L1409.19 775.846L1446.64 702.815L1409.15 768.944L1409.03 770.897L1406.83 697.204L1439.02 621.643L1406.58 684.255L1405.07 531.511L1405.06 531.003L1405.05 531.503L1404.32 651.932L1373.56 603.746L1404.35 662.304L1404.49 728.263L1375.95 664.56L1404.51 737.961L1404.58 774.637L1363.12 685.939L1404.62 787.432L1404.79 868.99Z" fill="#E2E2E2"/>
        <g id="blocks">
            <path id="Vector_5" d="M433.439 768.385H626.651V758.788H433.439V768.385Z" fill="#6C63FF"/>
            <path id="Vector_6" d="M423.615 758.788H616.827V749.19H423.615V758.788Z" fill="#6C63FF"/>
            <path id="Vector_7" d="M435.077 749.19H628.288V739.592H435.077V749.19Z" fill="#6C63FF"/>
            <path id="Vector_8" d="M454.725 739.592H647.937V729.995H454.725V739.592Z" fill="#6C63FF"/>
        </g>
        <path id="Vector_9" d="M290.33 743.418H297.038V687.581H290.33V743.418Z" fill="#3F3D56"/>
        <path id="Vector_10" d="M166.226 826.78H224.589V800.041H166.226V826.78Z" fill="#3F3D56"/>
        <path id="Vector_11" d="M171.593 853.519H459.38V823.634H171.593V853.519Z" fill="#3F3D56"/>
        <path id="Vector_12" d="M218.886 838.577H287.982V736.733H236.327L218.886 788.099V838.577Z" fill="#E2E2E2"/>
        <path id="Vector_13" d="M247.732 777.628H277.249V743.025H247.732V777.628Z" fill="white"/>
        <path id="Vector_14" d="M225.594 778.021H244.378V743.419H236.327L225.594 778.021Z" fill="white"/>
        <path id="Vector_15" d="M269.199 812.231H275.907V797.289H269.199V812.231Z" fill="#3F3D56"/>
        <path id="Vector_16" d="M238.676 780.381H238.341C236.65 780.381 235.029 779.594 233.834 778.193C232.639 776.791 231.968 774.891 231.968 772.91C231.968 770.928 232.639 769.028 233.834 767.627C235.029 766.226 236.65 765.439 238.341 765.439H238.676V780.381V780.381Z" fill="#3F3D56"/>
        <path id="Vector_17" d="M488.226 838.576H487.89C486.2 838.576 484.579 837.789 483.384 836.388C482.189 834.987 481.517 833.086 481.517 831.105V831.105C481.517 829.124 482.189 827.223 483.384 825.822C484.579 824.421 486.2 823.634 487.89 823.634H488.226V838.576V838.576Z" fill="#3F3D56"/>
        <path id="Vector_18" d="M192.053 823.521C187.064 823.596 182.154 824.989 177.688 827.595C173.221 830.202 169.313 833.955 166.255 838.576H153.145L165.891 796.954L225.259 783.227L223.582 838.576H217.851C214.793 833.955 210.885 830.202 206.419 827.595C201.952 824.989 197.042 823.596 192.053 823.521V823.521Z" fill="#E2E2E2"/>
        <path id="Vector_19" d="M191.382 882.616C207.499 882.616 220.563 867.3 220.563 848.407C220.563 829.513 207.499 814.197 191.382 814.197C175.266 814.197 162.201 829.513 162.201 848.407C162.201 867.3 175.266 882.616 191.382 882.616Z" fill="#3F3D56"/>
        <path id="Vector_20" d="M191.382 866.412C199.865 866.412 206.741 858.351 206.741 848.407C206.741 838.463 199.865 830.402 191.382 830.402C182.9 830.402 176.024 838.463 176.024 848.407C176.024 858.351 182.9 866.412 191.382 866.412Z" fill="#E2E2E2"/>
        <path id="Vector_21" d="M455.02 882.224C469.098 882.224 480.511 868.844 480.511 852.34C480.511 835.835 469.098 822.455 455.02 822.455C440.941 822.455 429.528 835.835 429.528 852.34C429.528 868.844 440.941 882.224 455.02 882.224Z" fill="#3F3D56"/>
        <path id="Vector_22" d="M455.02 868.068C462.429 868.068 468.436 861.026 468.436 852.339C468.436 843.652 462.429 836.61 455.02 836.61C447.61 836.61 441.603 843.652 441.603 852.339C441.603 861.026 447.61 868.068 455.02 868.068Z" fill="#E2E2E2"/>
        <path id="Vector_23" d="M285.97 841.723H300.057V722.578H285.97V841.723Z" fill="#3F3D56"/>
        <path id="Vector_24" d="M285.97 827.173H488.561V820.095H285.97V827.173Z" fill="#3F3D56"/>
        <path id="Vector_25" d="M234.651 782.74H241.359V779.594H234.651V782.74Z" fill="#3F3D56"/>
        <path id="Vector_26" d="M166.014 797.561L166.328 797.7C167.909 798.401 169.187 799.809 169.882 801.615C170.577 803.421 170.632 805.477 170.034 807.331C169.436 809.184 168.235 810.683 166.694 811.498C165.153 812.313 163.4 812.377 161.819 811.676L161.505 811.537L166.014 797.561V797.561Z" fill="#3F3D56"/>
        <g id="hooker">
            <path id="primary_rod" d="M290.316 686.873L292.839 694.16L541.082 576.039L538.559 568.752L290.316 686.873Z" fill="#3F3D56"/>
            <path id="hanging_rope" d="M531.159 768.326C531.095 768.244 531.047 768.147 531.018 768.042C530.989 767.937 530.979 767.825 530.988 767.715L540.24 665.15C540.258 664.957 540.335 664.779 540.458 664.649C540.58 664.519 540.739 664.447 540.904 664.446H540.907C541.072 664.446 541.231 664.517 541.354 664.645C541.477 664.774 541.555 664.951 541.574 665.143L551.58 767.495C551.591 767.605 551.582 767.716 551.554 767.821C551.525 767.926 551.479 768.023 551.416 768.106C551.354 768.188 551.278 768.255 551.192 768.3C551.107 768.346 551.014 768.37 550.92 768.371L531.662 768.584H531.656C531.562 768.584 531.47 768.561 531.384 768.517C531.299 768.472 531.222 768.408 531.159 768.326V768.326ZM540.934 672.413L532.402 767.003L550.162 766.807L540.934 672.413Z" fill="#3F3D56"/>
            <path id="hanging_rod" d="M537.867 683.649H544.576V568.83H537.867V683.649Z" fill="#3F3D56"/>
        </g>
        <path id="Vector_27" d="M293.684 700.165C298.871 700.165 303.076 695.235 303.076 689.155C303.076 683.074 298.871 678.145 293.684 678.145C288.497 678.145 284.293 683.074 284.293 689.155C284.293 695.235 288.497 700.165 293.684 700.165Z" fill="#3F3D56"/>
        <g id="second-blocks">
            <path id="Vector_28" d="M307.36 820.213H500.572V810.615H307.36V820.213Z" fill="#6C63FF"/>
            <path id="Vector_29" d="M318.822 810.615H512.034V801.018H318.822V810.615Z" fill="#6C63FF"/>
            <path id="Vector_30" d="M310.635 802.937H503.847V793.339H310.635V802.937Z" fill="#6C63FF"/>
            <path id="Vector_31" d="M322.097 793.339H515.309V783.742H322.097V793.339Z" fill="#6C63FF"/>
        </g>
        <path id="Vector_32" d="M626.034 234.65C632.192 234.641 638.144 237.242 642.795 241.971C646.47 240.794 650.323 240.596 654.072 241.39C657.176 236.11 661.639 232.132 666.808 230.037C671.978 227.941 677.583 227.839 682.806 229.745C688.029 231.65 692.595 235.464 695.837 240.628C699.08 245.792 700.828 252.037 700.828 258.449H600.952C602.177 251.715 605.335 245.678 609.901 241.346C614.466 237.015 620.161 234.651 626.034 234.65V234.65Z" fill="#E2E2E2"/>
        <path id="Vector_33" d="M475.778 329.376C481.599 329.368 487.227 331.826 491.624 336.297C495.099 335.185 498.741 334.997 502.286 335.748C505.22 330.756 509.439 326.995 514.326 325.014C519.213 323.034 524.513 322.937 529.45 324.738C534.388 326.54 538.705 330.145 541.77 335.028C544.835 339.91 546.489 345.813 546.488 351.876H452.066C453.223 345.509 456.21 339.802 460.526 335.707C464.842 331.611 470.226 329.377 475.778 329.376V329.376Z" fill="#E2E2E2"/>
        <path id="Vector_34" d="M325.552 173.14C331.609 173.131 337.464 175.689 342.04 180.341C345.655 179.184 349.445 178.989 353.132 179.77C356.185 174.576 360.575 170.663 365.66 168.602C370.745 166.541 376.259 166.44 381.396 168.315C386.534 170.189 391.025 173.94 394.214 179.02C397.404 184.1 399.124 190.243 399.123 196.55H300.88C302.085 189.926 305.192 183.988 309.683 179.727C314.173 175.466 319.775 173.141 325.552 173.14V173.14Z" fill="#E2E2E2"/>
        <path id="Vector_35" d="M930.452 881.071H1171.9V553.618H930.452V881.071Z" fill="#3F3D56"/>
        <path id="Vector_36" d="M1018.63 881.071H1083.72V814.471H1018.63V881.071Z" fill="#E2E2E2"/>
        <path id="Vector_37" d="M867.815 445.335H895.651L894.657 387.755V387.732L891.014 176.598C886.645 176.598 885.008 176.598 881.733 176.598C878.458 176.598 876.821 176.598 872.452 176.598L868.81 387.732V387.755L867.815 445.335Z" fill="#6C63FF"/>
        <path id="Vector_38" d="M815.65 481.46V881.071H948.198V475.913L917.43 477.199V395.445H846.416V480.174L815.65 481.46Z" fill="#6C63FF"/>
        <path id="Vector_39" d="M1206.22 445.392H1234.63L1229.89 212.29C1223.13 212.29 1218.22 212.29 1210.96 212.29L1206.22 445.392Z" fill="#6C63FF"/>
        <path id="Vector_40" d="M1154.15 481.46V881.071H1286.71V475.913L1275.82 476.373L1255.93 477.199V395.445H1184.91V480.174L1154.15 481.46Z" fill="#6C63FF"/>
        <path id="Vector_41" d="M1087.2 631.53H1119.95V593.139H1087.2V631.53Z" fill="white"/>
        <path id="Vector_42" d="M1034.8 631.53H1067.55V593.139H1034.8V631.53Z" fill="white"/>
        <path id="Vector_43" d="M982.405 631.53H1015.15V593.139H982.405V631.53Z" fill="white"/>
        <path id="Vector_44" d="M1087.2 692.956H1119.95V654.565H1087.2V692.956Z" fill="white"/>
        <path id="Vector_45" d="M1034.8 692.956H1067.55V654.565H1034.8V692.956Z" fill="white"/>
        <path id="Vector_46" d="M982.405 692.956H1015.15V654.565H982.405V692.956Z" fill="white"/>
        <path id="Vector_47" d="M1087.2 754.381H1119.95V715.99H1087.2V754.381Z" fill="white"/>
        <path id="Vector_48" d="M1034.8 754.381H1067.55V715.99H1034.8V754.381Z" fill="white"/>
        <path id="Vector_49" d="M982.405 754.381H1015.15V715.99H982.405V754.381Z" fill="white"/>
        <path id="Vector_50" d="M865.552 616.174H898.299V577.783H865.552V616.174Z" fill="white"/>
        <path id="Vector_51" d="M865.552 677.6H898.299V639.209H865.552V677.6Z" fill="white"/>
        <path id="Vector_52" d="M865.552 739.025H898.299V700.634H865.552V739.025Z" fill="white"/>
        <path id="Vector_53" d="M865.552 800.451H898.299V762.06H865.552V800.451Z" fill="white"/>
        <path id="Vector_54" d="M1203.78 616.174H1236.52V577.783H1203.78V616.174Z" fill="white"/>
        <path id="Vector_55" d="M1203.78 677.6H1236.52V639.209H1203.78V677.6Z" fill="white"/>
        <path id="Vector_56" d="M1203.78 739.025H1236.52V700.634H1203.78V739.025Z" fill="white"/>
        <path id="Vector_57" d="M1203.78 800.451H1236.52V762.06H1203.78V800.451Z" fill="white"/>
        <path id="Vector_58" d="M1454 880H-80V884H1454V880Z" fill="#3F3D56"/>
    </g>
    <defs>
        <clipPath id="clip0">
            <rect width="1454" height="884" fill="white"/>
        </clipPath>
    </defs>
</svg>
