<svg viewBox="0 0 939 807" fill="none"
    xmlns="http://www.w3.org/2000/svg">
    <g id="Home_Image" clip-path="url(#clip0)">
        <path id="Sun" d="M75.3653 222.889C116.988 222.889 150.731 189.147 150.731 147.524C150.731 105.901 116.988 72.1585 75.3653 72.1585C33.7422 72.1585 0 105.901 0 147.524C0 189.147 33.7422 222.889 75.3653 222.889Z" fill="#FF6584"/>
        <path id="Vector" d="M938.759 669.385H253.759V671.625H938.759V669.385Z" fill="#E6E6E6"/>
        <path id="Vector_2" d="M698.047 747.674L668.93 743.515L641.697 749.072C640.028 749.413 638.306 749.387 636.648 748.997C634.991 748.606 633.438 747.861 632.097 746.811C630.755 745.762 629.658 744.434 628.88 742.919C628.103 741.404 627.663 739.738 627.592 738.037C627.513 736.134 627.897 734.24 628.711 732.519C629.525 730.797 630.745 729.299 632.267 728.153L674.941 696C678.601 693.243 683.124 691.88 687.698 692.157C692.272 692.434 696.598 694.332 699.899 697.51L710.525 707.743C702.921 712.46 697.266 719.539 693.887 729.372C701.195 733.39 702.582 739.49 698.047 747.674Z" fill="#2F2E41"/>
        <g id="small-trees">
            <g id="right">
                <path id="Vector_3" d="M874.367 632.387C874.023 645.216 871.874 657.932 867.983 670.161C867.894 670.445 867.801 670.725 867.708 671.008H843.886C843.912 670.754 843.937 670.47 843.963 670.161C845.551 651.901 854.709 540.764 843.759 521.758C844.716 523.3 876.213 574.366 874.367 632.387Z" fill="#E6E6E6"/>
                <path id="Vector_4" d="M872.579 670.161C872.38 670.445 872.172 670.729 871.961 671.008H854.09C854.226 670.767 854.382 670.483 854.564 670.161C857.517 664.833 866.255 648.902 874.367 632.387C883.084 614.639 891.081 596.218 890.407 589.551C890.615 591.055 896.647 636.894 872.579 670.161Z" fill="#E6E6E6"/>
            </g>
            <g id="left">
                <path id="Vector_5" d="M360.902 620.507C361.342 636.95 364.096 653.248 369.083 668.923C369.197 669.286 369.316 669.645 369.436 670.008H399.969C399.936 669.683 399.903 669.319 399.871 668.923C397.835 645.518 386.097 503.072 400.131 478.712C398.904 480.688 358.534 546.14 360.902 620.507Z" fill="#E6E6E6"/>
                <path id="Vector_6" d="M363.193 668.923C363.448 669.286 363.714 669.65 363.985 670.008H386.89C386.716 669.699 386.516 669.335 386.282 668.923C382.498 662.093 371.298 641.674 360.902 620.507C349.729 597.759 339.479 574.149 340.342 565.603C340.076 567.531 332.345 626.283 363.193 668.923Z" fill="#E6E6E6"/>
            </g>
        </g>
        <path id="Vector_7" d="M725.855 459.453C740.727 459.453 752.783 447.397 752.783 432.526C752.783 417.654 740.727 405.598 725.855 405.598C710.984 405.598 698.928 417.654 698.928 432.526C698.928 447.397 710.984 459.453 725.855 459.453Z" fill="#FFB8B8"/>
        <path id="Vector_8" d="M692.223 739.355L695.551 711.902L789.555 687.777L778.74 655.333C786.274 633.726 799.499 623.133 823.663 633.704L865.227 659.524C869.266 662.034 872.557 665.582 874.755 669.799C876.953 674.016 877.977 678.746 877.72 683.495C877.466 688.262 875.93 692.872 873.273 696.839C870.616 700.805 866.937 703.98 862.625 706.03C816.095 728.086 756.791 736.525 692.223 739.355Z" fill="#FFB8B8"/>
        <path id="Vector_9" d="M767.926 485.626L707.613 510.999C712.515 486.388 714.958 463.968 707.613 450.271L746.297 445.695C744.376 456.221 754.163 470.318 767.926 485.626Z" fill="#FFB8B8"/>
        <path id="Vector_10" d="M665.603 738.523L643.141 736.859C629.381 679.48 622.336 625.244 625.411 575.747C625.846 568.521 629.062 561.744 634.386 556.839C639.709 551.933 646.726 549.281 653.963 549.437C660.917 549.595 667.563 552.34 672.602 557.135L701.648 584.776C714.601 597.007 724.656 611.978 731.079 628.595C739.305 650.14 736.352 662.219 716.713 660.167C704.442 658.799 693.156 652.799 685.159 643.391L663.939 618.73L665.603 738.523Z" fill="#FFB8B8"/>
        <path id="Vector_11" d="M648.209 806.707C645.265 806.515 642.404 805.648 639.849 804.173C637.295 802.697 635.114 800.654 633.476 798.2C631.838 795.746 630.787 792.948 630.405 790.023C630.022 787.097 630.318 784.123 631.27 781.331L635.654 768.471L638.982 736.027C644.108 725.568 651.367 727.132 659.779 735.195C665.127 734.67 666.275 729.323 665.603 721.885L682.467 744.587C683.91 746.53 684.806 748.825 685.061 751.232C685.316 753.638 684.921 756.07 683.917 758.272L666.945 795.503C665.327 799.051 662.669 802.023 659.322 804.024C655.976 806.025 652.1 806.961 648.209 806.707Z" fill="#2F2E41"/>
        <path id="Vector_12" d="M860.682 656.581C829.902 674.051 820.255 674.558 789.555 686.946L762.934 671.971C731.67 683.532 709.739 667.684 685.984 644.103C701.529 618.21 694.654 584.563 704.286 585.038L819.503 621.226L824.495 633.704L860.682 656.581Z" fill="#2F2E41"/>
        <path id="Vector_13" d="M823.663 629.545C782.981 647.154 739.177 628.51 701.79 587.534L677.034 487.554C676.742 486.453 676.678 485.304 676.846 484.177C677.015 483.05 677.413 481.969 678.015 481.002C678.617 480.034 679.411 479.201 680.348 478.552C681.285 477.903 682.345 477.453 683.462 477.23L712.189 471.484L726.331 493.945L754.615 468.989L784.653 478.809C788.647 480.114 792.211 482.481 794.965 485.655C797.718 488.829 799.558 492.691 800.287 496.829L823.663 629.545Z" fill="#6C63FF"/>
        <path id="Vector_14" opacity="0.2" d="M759.044 714.303C756.848 713.466 754.886 712.115 753.32 710.363C751.754 708.612 750.632 706.51 750.046 704.234C749.461 701.959 749.43 699.576 749.956 697.286C750.482 694.996 751.549 692.866 753.068 691.074L772.085 668.644L785.396 676.131L778.542 704.074C778.046 706.096 777.126 707.989 775.842 709.629C774.559 711.268 772.942 712.616 771.099 713.583C769.255 714.551 767.227 715.115 765.149 715.239C763.07 715.363 760.99 715.044 759.044 714.303Z" fill="black"/>
        <path id="Vector_15" d="M759.044 710.975C756.848 710.139 754.886 708.788 753.32 707.036C751.754 705.284 750.632 703.182 750.046 700.907C749.461 698.631 749.43 696.249 749.956 693.959C750.482 691.669 751.549 689.538 753.068 687.746L772.085 665.316L785.396 672.803L778.542 700.746C778.046 702.768 777.126 704.662 775.842 706.301C774.559 707.941 772.942 709.289 771.099 710.256C769.255 711.223 767.227 711.787 765.149 711.911C763.07 712.035 760.99 711.716 759.044 710.975Z" fill="#FFB8B8"/>
        <path id="Vector_16" d="M788.723 679.458L768.758 666.148L797.874 588.782L787.059 479.803L796.925 485.969C802.219 489.278 806.787 493.628 810.349 498.756C813.912 503.883 816.396 509.68 817.651 515.797L833.646 593.773C826.647 629.715 814.981 661.338 788.723 679.458Z" fill="#6C63FF"/>
        <path id="Vector_17" opacity="0.2" d="M776.661 555.922L786.644 605.836L778.433 635.028L776.661 555.922Z" fill="black"/>
        <path id="Vector_18" d="M699.521 430.217C699.521 430.217 684.004 379.433 731.428 390.084C738.784 391.736 745.139 396.012 750.195 401.605C750.648 402.094 751.202 402.478 751.819 402.73C752.436 402.982 753.101 403.096 753.767 403.064C761.343 403.064 766.022 430.136 750.871 442.041C750.871 442.041 753.962 426.021 748.343 420.562C747.332 419.639 746.486 418.55 745.842 417.342C742.184 409.964 729.889 407.542 721.41 408.17C717.081 408.491 716.702 416.039 711.91 414.984C701.006 412.586 697.525 425.217 699.521 430.217Z" fill="#2F2E41"/>
        <path id="Vector_19" d="M747.254 505.59L746.941 507.89L745.003 522.077L741.829 545.312L741.034 551.129C740.974 551.573 740.754 551.98 740.417 552.275C740.079 552.569 739.646 552.732 739.198 552.732H718.035C717.587 552.732 717.155 552.57 716.818 552.276C716.48 551.983 716.26 551.577 716.198 551.133L715.39 545.312L712.163 522.077L710.191 507.879L709.874 505.595C709.838 505.332 709.858 505.065 709.933 504.811C710.009 504.557 710.138 504.322 710.312 504.123C710.485 503.923 710.7 503.762 710.941 503.653C711.183 503.543 711.444 503.486 711.709 503.486H745.418C745.682 503.486 745.944 503.543 746.185 503.652C746.425 503.762 746.64 503.922 746.814 504.121C746.988 504.32 747.117 504.555 747.193 504.808C747.269 505.061 747.29 505.328 747.254 505.59Z" fill="#E6E6E6"/>
        <path id="Vector_20" d="M713.943 497.33H743.294C743.537 497.33 743.778 497.378 744.003 497.471C744.228 497.565 744.433 497.701 744.605 497.873C744.777 498.045 744.913 498.25 745.006 498.475C745.1 498.699 745.148 498.941 745.148 499.184V501.633C745.148 502.124 744.952 502.596 744.605 502.943C744.257 503.291 743.786 503.486 743.294 503.486H713.943C713.451 503.486 712.98 503.291 712.632 502.943C712.284 502.596 712.089 502.124 712.089 501.633V499.184C712.089 498.94 712.137 498.699 712.23 498.475C712.323 498.25 712.46 498.045 712.632 497.873C712.804 497.701 713.008 497.565 713.233 497.471C713.458 497.378 713.699 497.33 713.943 497.33Z" fill="#3F3D56"/>
        <path id="Vector_21" d="M749.906 506.564C735.756 508.108 721.48 508.108 707.331 506.564C707.087 506.564 706.846 506.516 706.622 506.423C706.397 506.33 706.192 506.193 706.02 506.021C705.848 505.849 705.712 505.645 705.618 505.42C705.525 505.195 705.477 504.954 705.477 504.711V502.262C705.477 502.018 705.525 501.777 705.618 501.552C705.712 501.328 705.848 501.123 706.02 500.951C706.192 500.779 706.397 500.643 706.622 500.549C706.846 500.456 707.087 500.408 707.331 500.408C721.469 502.147 735.767 502.147 749.906 500.408C750.397 500.408 750.869 500.604 751.216 500.951C751.564 501.299 751.759 501.77 751.759 502.262V504.711C751.759 505.202 751.564 505.674 751.216 506.021C750.869 506.369 750.397 506.564 749.906 506.564Z" fill="#3F3D56"/>
        <path id="Vector_22" d="M727.759 535.008C732.177 535.008 735.759 531.427 735.759 527.008C735.759 522.59 732.177 519.008 727.759 519.008C723.341 519.008 719.759 522.59 719.759 527.008C719.759 531.427 723.341 535.008 727.759 535.008Z" fill="white"/>
        <path id="Vector_23" d="M748.326 543.839C748.569 546.176 748.248 548.537 747.39 550.724C746.532 552.911 745.161 554.861 743.394 556.409C741.627 557.957 739.514 559.059 737.233 559.621C734.952 560.184 732.569 560.192 730.284 559.643L701.69 552.778L702.374 537.522L730.407 531.045C732.435 530.576 734.54 530.544 736.582 530.95C738.624 531.357 740.556 532.193 742.25 533.402C743.945 534.612 745.363 536.168 746.41 537.968C747.457 539.767 748.11 541.768 748.326 543.839Z" fill="#FFB8B8"/>
        <path id="Vector_24" d="M709.693 555.506L632.524 557.435C629.739 557.505 626.972 556.966 624.415 555.857C621.859 554.748 619.575 553.094 617.724 551.012C615.872 548.93 614.496 546.469 613.693 543.801C612.889 541.133 612.677 538.322 613.071 535.563C613.688 531.241 615.763 527.259 618.951 524.277L655.285 490.287C662.023 483.983 670.42 479.732 679.489 478.031L692.223 475.644L699.71 532.213L656.452 527.221L707.197 533.045L709.693 555.506Z" fill="#6C63FF"/>
        <path id="Vector_25" d="M608.03 721.501H411.023C409.271 721.501 407.591 720.805 406.352 719.566C405.113 718.327 404.417 716.647 404.417 714.895C475.832 706.595 545.905 706.595 614.636 714.895C614.636 716.647 613.94 718.327 612.701 719.566C611.462 720.805 609.782 721.501 608.03 721.501Z" fill="#2F2E41"/>
        <path id="Vector_26" d="M614.636 715.284L404.417 714.895L428.781 673.901L428.897 673.706V583.359C428.897 582.262 429.113 581.176 429.533 580.163C429.953 579.15 430.568 578.229 431.343 577.454C432.118 576.679 433.039 576.063 434.052 575.644C435.065 575.224 436.151 575.008 437.248 575.008H580.64C581.736 575.008 582.822 575.224 583.835 575.644C584.848 576.063 585.769 576.679 586.545 577.454C587.32 578.229 587.935 579.15 588.355 580.163C588.774 581.176 588.99 582.262 588.99 583.359V674.328L614.636 715.284Z" fill="#3F3D56"/>
        <path id="Vector_27" d="M437.057 580.837C436.336 580.838 435.645 581.125 435.135 581.635C434.625 582.145 434.338 582.836 434.338 583.557V665.935C434.338 666.656 434.625 667.347 435.135 667.857C435.645 668.367 436.336 668.654 437.057 668.655H581.996C582.717 668.654 583.408 668.367 583.918 667.857C584.428 667.347 584.715 666.656 584.716 665.935V583.557C584.715 582.836 584.428 582.145 583.918 581.635C583.408 581.125 582.717 580.838 581.996 580.837L437.057 580.837Z" fill="white"/>
        <path id="Vector_28" d="M438.01 679.535C437.787 679.535 437.569 679.599 437.381 679.72C437.194 679.84 437.044 680.011 436.951 680.213L429.444 696.534C429.362 696.711 429.326 696.906 429.34 697.102C429.353 697.297 429.416 697.485 429.521 697.65C429.627 697.814 429.772 697.95 429.943 698.044C430.115 698.137 430.307 698.187 430.503 698.187H588.375C588.574 698.187 588.769 698.136 588.943 698.039C589.116 697.942 589.262 697.803 589.366 697.634C589.471 697.465 589.53 697.272 589.539 697.073C589.548 696.875 589.506 696.677 589.417 696.499L581.257 680.179C581.161 679.985 581.012 679.822 580.828 679.708C580.644 679.594 580.431 679.534 580.215 679.535L438.01 679.535Z" fill="#2F2E41"/>
        <path id="Vector_29" d="M508.944 579.477C509.91 579.477 510.692 578.694 510.692 577.728C510.692 576.763 509.91 575.98 508.944 575.98C507.978 575.98 507.195 576.763 507.195 577.728C507.195 578.694 507.978 579.477 508.944 579.477Z" fill="white"/>
        <path id="Vector_30" d="M493.426 701.295C493.17 701.295 492.921 701.38 492.718 701.536C492.514 701.692 492.368 701.91 492.301 702.158L490.418 709.152C490.371 709.325 490.365 709.506 490.4 709.681C490.434 709.857 490.509 710.022 490.618 710.164C490.727 710.306 490.867 710.421 491.027 710.501C491.188 710.58 491.364 710.621 491.543 710.621H527.356C527.541 710.621 527.725 710.577 527.89 710.491C528.055 710.406 528.197 710.283 528.305 710.131C528.413 709.98 528.483 709.805 528.509 709.621C528.536 709.437 528.518 709.249 528.457 709.074L526.036 702.079C525.956 701.85 525.808 701.652 525.61 701.511C525.413 701.371 525.177 701.295 524.934 701.295H493.426Z" fill="#2F2E41"/>
        <path id="Vector_31" d="M588.99 672.346V673.901H428.781L428.901 673.706V672.346H588.99Z" fill="#2F2E41"/>
        <g id="tree">
            <path id="big-leaf" d="M229.971 451.019C290.89 440.035 322.107 330.367 299.696 206.067C277.285 81.7679 209.733 -10.0927 148.814 0.890802C87.895 11.8743 56.678 121.543 79.0889 245.842C101.5 370.142 169.052 462.002 229.971 451.019Z" fill="#E6E6E6"/>
            <g id="tree-branch">
                <path id="Vector_32" d="M171.036 183.149C180.895 209.957 189.667 237.13 197.355 264.667C205.027 292.179 211.591 319.969 217.044 348.036C222.498 376.094 226.821 404.34 230.015 432.774C233.193 461.159 235.235 489.64 236.141 518.218C237.041 546.765 236.792 575.317 235.395 603.875C235.223 607.374 235.033 610.872 234.826 614.369C234.616 617.951 240.188 617.938 240.398 614.369C242.082 585.721 242.61 557.037 241.983 528.318C241.352 499.763 239.579 471.264 236.664 442.821C233.741 414.295 229.693 385.913 224.518 357.675C219.34 329.45 213.035 301.462 205.605 273.712C198.179 245.994 189.641 218.606 179.99 191.548C178.813 188.249 177.619 184.955 176.409 181.668C175.181 178.331 169.794 179.773 171.036 183.149V183.149Z" fill="#3F3D56"/>
                <path id="Vector_33" d="M209.428 288.604L234.112 233.795L241.07 218.347C241.421 217.704 241.513 216.951 241.327 216.243C241.141 215.534 240.692 214.923 240.07 214.535C239.431 214.168 238.673 214.067 237.96 214.254C237.246 214.441 236.635 214.901 236.259 215.535L211.574 270.344L204.617 285.792C204.266 286.435 204.174 287.188 204.359 287.897C204.545 288.605 204.995 289.216 205.616 289.604C206.255 289.971 207.013 290.072 207.727 289.885C208.44 289.698 209.051 289.238 209.428 288.604H209.428Z" fill="#3F3D56"/>
                <path id="Vector_34" d="M214.882 326.055L158.597 304.951L142.732 299.003C142.02 298.813 141.262 298.911 140.62 299.275C139.979 299.639 139.507 300.24 139.305 300.949C139.125 301.661 139.227 302.415 139.589 303.054C139.952 303.692 140.547 304.166 141.251 304.376L197.537 325.479L213.401 331.427C214.113 331.617 214.871 331.52 215.513 331.156C216.154 330.792 216.626 330.191 216.828 329.481C217.008 328.77 216.906 328.015 216.544 327.377C216.181 326.738 215.586 326.264 214.882 326.055V326.055Z" fill="#3F3D56"/>
            </g>
        </g>
        <path id="Vector_35" d="M171.052 625C171.052 625 238.84 602.713 301.986 625H171.052Z" fill="#E6E6E6"/>
        <g id="coding">
            <path id="line" d="M474.377 614.441C487.81 614.301 501.242 614.061 514.674 613.878C519.152 613.817 523.63 613.764 528.108 613.718C531.967 613.678 531.977 607.678 528.108 607.718C514.675 607.858 501.244 608.098 487.812 608.281C483.334 608.341 478.856 608.395 474.377 608.441C470.519 608.481 470.509 614.481 474.377 614.441Z" fill="#6C63FF"/>
            <path id="line_2" d="M474.377 628.441L528.668 627.878L544.108 627.718C547.967 627.678 547.977 621.678 544.108 621.718L489.818 622.281L474.377 622.441C470.519 622.481 470.509 628.481 474.377 628.441Z" fill="#6C63FF"/>
            <path id="line_3" d="M474.377 642.441L528.668 641.878L544.108 641.718C547.967 641.678 547.977 635.678 544.108 635.718L489.818 636.281L474.377 636.441C470.519 636.481 470.509 642.481 474.377 642.441Z" fill="#6C63FF"/>
        </g>
        <g id="books">
            <path id="Vector_36" d="M294.391 723.541L217.982 723.143L210.39 704.178L237.236 702.102L232.557 681.308L285.656 673.978L234.81 655.153L239.301 654.016L321.061 668.222L316.558 700.673L310.123 718.507L294.391 723.541Z" fill="#6C63FF"/>
            <path id="Vector_37" d="M219.78 715.372C219.78 715.372 224.392 714.544 227.159 718.201C227.159 718.201 225.13 719.994 220.764 717.511L219.78 715.372Z" fill="#6C63FF"/>
            <path id="Vector_38" d="M219.174 715.292C219.174 715.292 215.949 719.195 217.537 723.541C217.537 723.541 220.165 722.506 220.451 717.237L219.174 715.292Z" fill="#6C63FF"/>
            <path id="Vector_39" d="M216.427 708.826C216.427 708.826 218.305 705.377 225.817 710.205C225.817 710.205 224.815 712.523 221.498 712.335C218.18 712.147 217.303 710.643 216.427 708.826Z" fill="#6C63FF"/>
            <path id="Vector_40" d="M216.065 708.815C216.065 708.815 212.115 708.35 211.732 717.611C211.732 717.611 214.236 718.142 216.015 715.213C217.795 712.284 217.065 710.641 216.065 708.815Z" fill="#6C63FF"/>
            <path id="Vector_41" d="M213.744 701.025C213.744 701.025 215.918 694.76 223.805 699.217C223.805 699.217 222.004 704.964 214.551 703.156L213.744 701.025Z" fill="#6C63FF"/>
            <path id="Vector_42" d="M211.061 691.294C211.061 691.294 215.173 684.643 222.463 690.81C222.463 690.81 219.909 697.054 211.684 693.66L211.061 691.294Z" fill="#6C63FF"/>
            <path id="Vector_43" d="M210.39 681.905C210.39 681.905 215.211 676.159 222.463 681.905C222.463 681.905 217.894 686.948 210.39 683.373V681.905Z" fill="#6C63FF"/>
            <path id="Vector_44" d="M209.72 672.936C209.72 672.936 214.425 666.398 221.122 672.588C221.122 672.588 215.813 678.361 209.72 674.466V672.936Z" fill="#6C63FF"/>
            <path id="Vector_45" d="M209.72 664.851C209.72 664.851 215.051 657.047 221.793 662.336C221.793 662.336 216.081 669.043 209.72 666.334V664.851Z" fill="#6C63FF"/>
            <path id="Vector_46" d="M213.117 700.724C213.117 700.724 207.798 697.011 204.354 706.094C204.354 706.094 209.088 709.634 213.744 703.041L213.117 700.724Z" fill="#6C63FF"/>
            <path id="Vector_47" d="M211.112 691.073C211.112 691.073 204.303 687.998 201 696.7C201 696.7 206.26 700.284 211.732 693.273L211.112 691.073Z" fill="#6C63FF"/>
            <path id="Vector_48" d="M337.829 708.811C337.829 708.811 332.786 715.369 336.79 725.283L296.522 743.889L292.658 744.751L290.878 736.456L292.068 725.987V720.266L337.829 708.811Z" fill="#D5D6DB"/>
            <path id="Vector_49" d="M210.39 704.288L266.356 693.492L340.512 705.993L294.452 723.541L210.39 704.288Z" fill="#6C63FF"/>
            <path id="Vector_50" d="M210.39 704.288L266.356 693.492L340.512 705.993L294.452 723.541L210.39 704.288Z" fill="#6C63FF"/>
            <path id="Vector_51" d="M210.477 704.097C210.477 704.097 205.262 714.818 211.272 724.72L293.967 744.162C293.967 744.162 288.834 735.622 294.232 723.769L210.477 704.097Z" fill="#6C63FF"/>
            <path id="Vector_52" opacity="0.1" d="M210.477 704.097C210.477 704.097 205.262 714.818 211.272 724.72L293.967 744.162C293.967 744.162 288.834 735.622 294.232 723.769L210.477 704.097Z" fill="black"/>
            <path id="Vector_53" opacity="0.1" d="M213.073 708.222C213.073 708.222 210.055 715.733 213.073 720.595V708.222Z" fill="black"/>
            <path id="Vector_54" d="M294.291 743.916L340.382 722.951C340.382 722.951 342.959 723.544 341.293 725.557C339.626 727.571 295.18 745.93 295.18 745.93L211.732 724.846L294.291 743.916Z" fill="#6C63FF"/>
            <path id="Vector_55" opacity="0.1" d="M294.291 743.916L340.382 722.951C340.382 722.951 342.959 723.544 341.293 725.557C339.626 727.571 295.18 745.93 295.18 745.93L211.732 724.846L294.291 743.916Z" fill="black"/>
            <path id="Vector_56" opacity="0.1" d="M290.207 725.897C290.207 725.897 285.68 731.554 290.207 740.038V725.897Z" fill="black"/>
            <path id="Vector_57" opacity="0.1" d="M311.939 725.792L291.979 732.953L292.049 733.18L312.009 726.019L311.939 725.792Z" fill="black"/>
            <path id="Vector_58" opacity="0.1" d="M315.937 725.079L291.973 734.879L292.052 735.102L316.016 725.303L315.937 725.079Z" fill="black"/>
            <path id="Vector_59" opacity="0.1" d="M319.608 725.045L292.106 737.15L292.191 737.372L319.693 725.267L319.608 725.045Z" fill="black"/>
            <path id="Vector_60" opacity="0.1" d="M323.601 724.009L292.427 739.151L292.519 739.369L323.693 724.227L323.601 724.009Z" fill="black"/>
            <path id="Vector_61" opacity="0.1" d="M326.955 724.013L292.674 740.127L292.763 740.346L327.044 724.233L326.955 724.013Z" fill="black"/>
            <path id="Vector_62" opacity="0.1" d="M334.292 722.674L293.191 741.763L293.279 741.983L334.38 722.893L334.292 722.674Z" fill="black"/>
            <path id="Vector_63" opacity="0.3" d="M231.183 705.223L270.363 696.438L294.232 701.305L262.126 712.346L231.183 705.223Z" fill="white"/>
            <path id="Vector_64" d="M340.63 705.865C340.63 705.865 342.677 706.739 341.476 708.089C340.274 709.439 294.232 723.541 294.232 723.541L340.63 705.865Z" fill="#6C63FF"/>
            <path id="Vector_65" d="M359.963 685.243C359.963 685.243 354.922 691.906 358.927 701.983L318.657 720.891L314.792 721.773L313.012 713.343L314.22 702.706V696.884L359.963 685.243Z" fill="#D5D6DB"/>
            <path id="Vector_66" d="M232.524 681.307L288.488 670.514L362.646 683.014L316.586 700.562L232.524 681.307Z" fill="#3A3768"/>
            <path id="Vector_67" d="M232.613 681.119C232.613 681.119 227.396 691.84 233.405 701.742L316.092 721.184C316.092 721.184 310.962 712.637 316.366 700.788L232.613 681.119Z" fill="#3A3768"/>
            <path id="Vector_68" opacity="0.1" d="M232.613 681.119C232.613 681.119 227.396 691.84 233.405 701.742L316.092 721.184C316.092 721.184 310.962 712.637 316.366 700.788L290.218 694.646L232.613 681.119Z" fill="black"/>
            <path id="Vector_69" opacity="0.1" d="M235.207 684.654C235.207 684.654 232.189 692.521 235.207 697.616V684.654Z" fill="black"/>
            <path id="Vector_70" d="M316.425 720.938L362.518 699.973C362.518 699.973 365.093 700.565 363.426 702.579C361.76 704.592 317.314 722.951 317.314 722.951L233.866 701.868L316.425 720.938Z" fill="#3A3768"/>
            <path id="Vector_71" opacity="0.1" d="M316.425 720.938L362.518 699.973C362.518 699.973 365.093 700.565 363.426 702.579C361.76 704.592 317.314 722.951 317.314 722.951L233.866 701.868L316.425 720.938Z" fill="black"/>
            <path id="Vector_72" opacity="0.1" d="M312.341 702.919C312.341 702.919 307.814 708.575 312.341 717.059V702.919Z" fill="black"/>
            <path id="Vector_73" opacity="0.1" d="M334.032 702.783L314.072 709.943L314.143 710.17L334.103 703.01L334.032 702.783Z" fill="black"/>
            <path id="Vector_74" opacity="0.1" d="M338.033 702.069L314.069 711.868L314.148 712.092L338.112 702.292L338.033 702.069Z" fill="black"/>
            <path id="Vector_75" opacity="0.1" d="M341.701 702.031L314.199 714.136L314.284 714.358L341.786 702.253L341.701 702.031Z" fill="black"/>
            <path id="Vector_76" opacity="0.1" d="M345.697 700.995L314.523 716.138L314.614 716.356L345.788 701.213L345.697 700.995Z" fill="black"/>
            <path id="Vector_77" opacity="0.1" d="M349.048 700.997L314.766 717.11L314.856 717.329L349.137 701.216L349.048 700.997Z" fill="black"/>
            <path id="Vector_78" opacity="0.1" d="M356.386 699.657L315.285 718.746L315.373 718.966L356.474 699.877L356.386 699.657Z" fill="black"/>
            <path id="Vector_79" opacity="0.45" d="M253.317 682.245L292.497 673.459L316.366 678.327L284.26 689.368L253.317 682.245Z" fill="white"/>
            <path id="Vector_80" d="M362.111 682.886C362.111 682.886 364.128 683.761 362.945 685.108C361.763 686.456 316.366 700.562 316.366 700.562L362.111 682.886Z" fill="#3A3768"/>
            <path id="Vector_81" d="M361.976 659.319C361.976 659.319 356.931 671.089 360.936 681.001L320.661 694.39L316.805 695.259L315.024 686.966L316.215 676.499V670.771L361.976 659.319Z" fill="#D5D6DB"/>
            <path id="Vector_82" d="M235.207 655.008L290.883 644L364.659 656.746L318.835 674.638L235.207 655.008Z" fill="#6C63FF"/>
            <path id="Vector_83" d="M234.63 655.195C234.63 655.195 229.406 665.758 235.416 675.514L318.106 694.67C318.106 694.67 312.974 686.249 318.378 674.577L234.63 655.195Z" fill="#6C63FF"/>
            <path id="Vector_84" opacity="0.1" d="M234.63 655.195C234.63 655.195 229.406 665.758 235.416 675.514L318.106 694.67C318.106 694.67 312.974 686.249 318.378 674.577L234.63 655.195Z" fill="black"/>
            <path id="Vector_85" opacity="0.1" d="M237.22 658.73C237.22 658.73 234.201 666.599 237.22 671.692V658.73Z" fill="black"/>
            <path id="Vector_86" d="M318.437 694.412L364.528 678.564C364.528 678.564 367.106 679.159 365.439 681.185C363.772 683.211 319.326 696.438 319.326 696.438L235.878 675.227L318.437 694.412Z" fill="#6C63FF"/>
            <path id="Vector_87" opacity="0.1" d="M318.437 694.412L364.528 678.564C364.528 678.564 367.106 679.159 365.439 681.185C363.772 683.211 319.326 696.438 319.326 696.438L235.878 675.227L318.437 694.412Z" fill="black"/>
            <path id="Vector_88" opacity="0.1" d="M314.354 676.405C314.354 676.405 309.826 682.297 314.354 691.135V676.405Z" fill="black"/>
            <path id="Vector_89" opacity="0.1" d="M336.133 676.456L316.173 683.617L316.244 683.844L336.204 676.683L336.133 676.456Z" fill="black"/>
            <path id="Vector_90" opacity="0.1" d="M343.799 675.707L316.297 687.812L316.381 688.034L343.883 675.929L343.799 675.707Z" fill="black"/>
            <path id="Vector_91" opacity="0.1" d="M347.797 674.669L316.623 689.812L316.715 690.03L347.889 674.887L347.797 674.669Z" fill="black"/>
            <path id="Vector_92" opacity="0.1" d="M358.487 673.335L317.386 692.424L317.474 692.644L358.575 673.555L358.487 673.335Z" fill="black"/>
            <path id="Vector_93" opacity="0.3" d="M255.329 656.32L294.509 647.535L318.378 652.403L286.273 663.443L255.329 656.32Z" fill="white"/>
            <path id="Vector_94" d="M364.776 656.373C364.776 656.373 366.824 657.276 365.622 658.671C364.42 660.066 318.378 674.638 318.378 674.638L364.776 656.373Z" fill="#6C63FF"/>
            <path id="Vector_95" opacity="0.1" d="M242.25 745.93C245.028 745.93 247.28 745.666 247.28 745.341C247.28 745.015 245.028 744.751 242.25 744.751C239.472 744.751 237.22 745.015 237.22 745.341C237.22 745.666 239.472 745.93 242.25 745.93Z" fill="#6C63FF"/>
            <path id="Vector_96" opacity="0.1" d="M208.713 735.914C211.492 735.914 213.744 735.65 213.744 735.324C213.744 734.999 211.492 734.735 208.713 734.735C205.935 734.735 203.683 734.999 203.683 735.324C203.683 735.65 205.935 735.914 208.713 735.914Z" fill="#6C63FF"/>
            <path id="Vector_97" opacity="0.1" d="M268.073 753C271.037 753 273.439 752.736 273.439 752.411C273.439 752.085 271.037 751.822 268.073 751.822C265.11 751.822 262.707 752.085 262.707 752.411C262.707 752.736 265.11 753 268.073 753Z" fill="#6C63FF"/>
            <path id="Vector_98" opacity="0.1" d="M356.274 734.735C359.053 734.735 361.305 734.471 361.305 734.146C361.305 733.821 359.053 733.557 356.274 733.557C353.496 733.557 351.244 733.821 351.244 734.146C351.244 734.471 353.496 734.735 356.274 734.735Z" fill="#6C63FF"/>
            <path id="Vector_99" opacity="0.1" d="M329.11 749.465C332.444 749.465 335.146 748.937 335.146 748.286C335.146 747.636 332.444 747.108 329.11 747.108C325.776 747.108 323.073 747.636 323.073 748.286C323.073 748.937 325.776 749.465 329.11 749.465Z" fill="#6C63FF"/>
            <path id="Vector_100" d="M331.668 737.092C331.668 737.092 323.369 741.724 327.657 747.181C327.657 747.181 328.06 748.365 329.226 748.282C329.226 748.282 328.994 747.823 329.884 747.456C330.2 747.324 330.501 747.151 330.78 746.942C331.157 746.66 331.439 746.254 331.582 745.784C331.582 745.784 333.279 743.33 331.964 738.79C331.964 738.79 332.135 737.506 331.986 737.298L330.977 738.792C330.977 738.792 332.018 739.548 332.139 740.659C332.139 740.659 331.043 738.795 330.824 739.001C330.776 739.043 330.324 739.818 330.324 739.818C330.324 739.818 332.13 741.142 332.264 742.861C332.264 742.861 331.247 740.453 330.149 740.109L329.52 741.322C329.52 741.322 331.492 742.62 331.712 744.571C331.712 744.571 330.565 742.096 329.395 741.596L328.932 742.878C328.932 742.878 330.835 744.185 331.01 745.81C331.01 745.81 329.419 743.093 328.847 743.179C328.847 743.179 328.487 744.382 328.536 744.753C328.536 744.753 329.879 745.725 329.903 746.679C329.903 746.679 328.663 744.986 328.472 745.097C328.472 745.097 328.393 746.8 328.775 747.685C328.775 747.685 328.117 746.421 328.224 745.097C327.84 745.464 327.563 745.945 327.429 746.48C327.429 746.48 327.071 745.545 328.248 744.682C328.248 744.682 328.36 743.359 328.496 743.195C328.496 743.195 327.223 743.868 326.681 744.692C326.681 744.692 326.881 743.463 328.608 742.852L329.046 741.554C329.046 741.554 327.319 742.345 326.787 743.041C326.787 743.041 327.17 741.821 329.182 741.236L329.778 740.052C329.778 740.052 328.244 740.611 327.494 741.236C327.494 741.236 328.075 740.187 329.963 739.704L330.447 738.958C330.447 738.958 329.333 739.387 329.022 739.541C328.711 739.695 328.65 739.619 328.65 739.619C329.219 739.099 329.91 738.76 330.646 738.638C330.646 738.638 331.744 737.172 331.668 737.092Z" fill="#6C63FF"/>
            <path id="Vector_101" opacity="0.1" d="M333.805 676.995C333.805 676.995 338.23 673.104 343.866 676.867" stroke="black" stroke-miterlimit="10"/>
            <path id="Vector_102" opacity="0.1" d="M302.951 676.405C302.951 676.405 304.779 670.785 309.659 675.071" stroke="black" stroke-miterlimit="10"/>
            <path id="Vector_103" opacity="0.1" d="M322.402 658.73C323.252 658.092 324.157 657.53 325.106 657.051C326.519 656.371 329.11 654.605 329.11 654.605" fill="black"/>
        </g>
        <g id="Bird" opacity="0.3">
            <path id="Vector_104" opacity="0.6" d="M290 136.53H322.94C322.94 136.53 310.53 158.49 290 136.53Z" fill="#030B44"/>
            <g id="Vector_105" opacity="0.6" filter="url(#filter0_d)">
                <path d="M291.99 145.87L313.59 121C313.59 121 322.03 144.77 291.99 145.87Z" fill="#030B44"/>
                <path d="M307.753 141.109C304.598 143.299 299.944 144.918 293.134 145.315L313.373 122.012C313.385 122.057 313.398 122.103 313.411 122.151C313.579 122.788 313.787 123.702 313.944 124.802C314.261 127.008 314.371 129.94 313.572 132.892C312.776 135.834 311.077 138.802 307.753 141.109Z" stroke="black"/>
            </g>
        </g>
        <g id="Bird_2" opacity="0.3">
            <path id="Vector_106" opacity="0.6" d="M761 124.53H793.94C793.94 124.53 781.53 146.49 761 124.53Z" fill="#030B44"/>
            <g id="Vector_107" opacity="0.6" filter="url(#filter1_d)">
                <path d="M762.99 133.87L784.59 109C784.59 109 793.03 132.77 762.99 133.87Z" fill="#030B44"/>
                <path d="M778.753 129.109C775.598 131.299 770.944 132.918 764.134 133.315L784.373 110.012C784.385 110.057 784.398 110.103 784.411 110.151C784.579 110.788 784.787 111.702 784.944 112.802C785.261 115.008 785.371 117.94 784.572 120.892C783.776 123.834 782.077 126.802 778.753 129.109Z" stroke="black"/>
            </g>
        </g>
        <g id="Bird_3" opacity="0.3">
            <path id="Vector_108" opacity="0.6" d="M468 213.53H500.94C500.94 213.53 488.53 235.49 468 213.53Z" fill="#030B44"/>
            <g id="Vector_109" opacity="0.6" filter="url(#filter2_d)">
                <path d="M469.99 222.87L491.59 198C491.59 198 500.03 221.77 469.99 222.87Z" fill="#030B44"/>
                <path d="M485.753 218.109C482.598 220.299 477.944 221.918 471.134 222.315L491.373 199.012C491.385 199.057 491.398 199.103 491.411 199.151C491.579 199.788 491.787 200.702 491.944 201.802C492.261 204.008 492.371 206.94 491.572 209.892C490.776 212.834 489.077 215.802 485.753 218.109Z" stroke="black"/>
            </g>
        </g>
    </g>
    <defs>
        <filter id="filter0_d" x="287.99" y="121" width="30.6924" height="32.87" filterUnits="userSpaceOnUse" color-interpolation-filters="sRGB">
            <feFlood flood-opacity="0" result="BackgroundImageFix"/>
            <feColorMatrix in="SourceAlpha" type="matrix" values="0 0 0 0 0 0 0 0 0 0 0 0 0 0 0 0 0 0 127 0"/>
            <feOffset dy="4"/>
            <feGaussianBlur stdDeviation="2"/>
            <feColorMatrix type="matrix" values="0 0 0 0 0 0 0 0 0 0 0 0 0 0 0 0 0 0 0.25 0"/>
            <feBlend mode="normal" in2="BackgroundImageFix" result="effect1_dropShadow"/>
            <feBlend mode="normal" in="SourceGraphic" in2="effect1_dropShadow" result="shape"/>
        </filter>
        <filter id="filter1_d" x="758.99" y="109" width="30.6924" height="32.87" filterUnits="userSpaceOnUse" color-interpolation-filters="sRGB">
            <feFlood flood-opacity="0" result="BackgroundImageFix"/>
            <feColorMatrix in="SourceAlpha" type="matrix" values="0 0 0 0 0 0 0 0 0 0 0 0 0 0 0 0 0 0 127 0"/>
            <feOffset dy="4"/>
            <feGaussianBlur stdDeviation="2"/>
            <feColorMatrix type="matrix" values="0 0 0 0 0 0 0 0 0 0 0 0 0 0 0 0 0 0 0.25 0"/>
            <feBlend mode="normal" in2="BackgroundImageFix" result="effect1_dropShadow"/>
            <feBlend mode="normal" in="SourceGraphic" in2="effect1_dropShadow" result="shape"/>
        </filter>
        <filter id="filter2_d" x="465.99" y="198" width="30.6924" height="32.87" filterUnits="userSpaceOnUse" color-interpolation-filters="sRGB">
            <feFlood flood-opacity="0" result="BackgroundImageFix"/>
            <feColorMatrix in="SourceAlpha" type="matrix" values="0 0 0 0 0 0 0 0 0 0 0 0 0 0 0 0 0 0 127 0"/>
            <feOffset dy="4"/>
            <feGaussianBlur stdDeviation="2"/>
            <feColorMatrix type="matrix" values="0 0 0 0 0 0 0 0 0 0 0 0 0 0 0 0 0 0 0.25 0"/>
            <feBlend mode="normal" in2="BackgroundImageFix" result="effect1_dropShadow"/>
            <feBlend mode="normal" in="SourceGraphic" in2="effect1_dropShadow" result="shape"/>
        </filter>
        <clipPath id="clip0">
            <rect width="938.759" height="806.748" fill="white"/>
        </clipPath>
    </defs>
</svg>
