<svg viewBox="0 0 86 90" fill="none"
    xmlns="http://www.w3.org/2000/svg">
    <path d="M42.88 3.75L5.375 17.4094L11.3018 68.265L42.9194 86.25L74.7 68.0212L80.625 17.1675L42.88 3.75Z" fill="#BDBDBD"/>
    <path d="M76.7156 19.7381L43 7.75311V81.9281L71.3657 65.6569L76.7156 19.7381Z" fill="#B71C1C"/>
    <path d="M42.8943 7.71564L9.28262 19.9575L14.6343 65.8931L42.9122 81.9769L43 81.9281V7.75314L42.8943 7.71564Z" fill="#DD2C00"/>
    <path d="M43 11.2425V29.07L58.3689 63.75H66.2684L43 11.2425Z" fill="#BDBDBD"/>
    <path d="M19.7316 63.75H27.6311L43 29.07V11.2425L19.7316 63.75Z" fill="#EEEEEE"/>
    <path d="M43 45H53.75V52.5H43V45Z" fill="#BDBDBD"/>
    <path d="M32.25 45H43V52.5H32.25V45Z" fill="#EEEEEE"/>
</svg>
