<svg viewBox="0 0 89 92" fill="none"
    xmlns="http://www.w3.org/2000/svg">
    <path d="M89 46C89 51.9931 87.892 57.7178 85.874 62.9693C84.7951 65.7782 83.4564 68.4518 81.8871 70.9564C79.9328 74.0807 77.6205 76.944 75.0124 79.4824C73.4848 80.9713 71.8574 82.3475 70.1391 83.6018C62.8921 88.8927 54.0484 92 44.5 92C34.9516 92 26.1079 88.8927 18.8607 83.6018C16.7101 82.0322 14.7013 80.2729 12.8577 78.3427C4.90769 70.0345 0 58.6078 0 46C0 33.3922 4.90769 21.9655 12.8577 13.6573C14.8103 11.6146 16.9481 9.76134 19.2421 8.12421C26.4167 3.00024 35.1187 0 44.5 0C53.8813 0 62.5833 3.00024 69.7579 8.12421C71.5106 9.37286 73.1709 10.7509 74.7273 12.2435C77.4536 14.8496 79.862 17.8067 81.8873 21.0436C83.4566 23.5482 84.7953 26.2218 85.8742 29.0307C87.892 34.2822 89 40.0069 89 46Z" fill="#E4BA42"/>
    <path d="M67.9754 41.8619C66.7369 38.1488 61.6584 38.1488 60.6677 41.2216C59.6769 44.2945 63.0212 46.0869 68.2233 47.8796C73.4255 49.6722 76.646 54.4096 76.0266 58.6346C75.4073 62.8596 73.6732 68.3654 63.3928 68.3654C56.9676 68.3654 53.3968 64.2141 51.6222 61.1008L57.4474 57.4823C57.4474 57.4823 59.4292 61.8356 63.1449 61.8356C66.8609 61.8356 68.3471 60.5553 68.3471 57.6104C68.3471 54.0255 56.3324 52.7452 54.4746 46.5993C52.6167 40.4535 55.0939 31.7471 63.7641 32.3871C69.1832 32.7873 72.2313 35.5379 73.7554 37.5447L67.9754 41.8619Z" fill="#F2F2F2"/>
    <path d="M40.9737 33.0275C40.9737 33.0275 40.9737 54.6656 40.9737 57.6105C40.9737 60.5552 38.4965 62.0919 36.0193 61.5796C33.542 61.0675 32.4273 57.9947 32.4273 57.9947L26.7297 61.9638C26.7297 61.9638 27.9682 67.8534 35.7716 68.3657C43.5749 68.8778 48.0337 64.0124 48.0337 59.9152C48.0337 55.818 48.0337 33.0275 48.0337 33.0275H40.9737Z" fill="#F2F2F2"/>
    <path d="M12.8577 8.12427V78.3427C14.7013 80.2729 16.7101 82.0321 18.8607 83.6018H70.1393C71.8576 82.3476 73.4849 80.9714 75.0126 79.4825H16.8427V12.2436H81.8871V70.9565C83.4564 68.4518 84.7951 65.7783 85.874 62.9694V8.12427H12.8577Z" fill="#F2F2F2"/>
    <path d="M15.2717 68.2377C19.1708 68.2377 22.3317 64.9703 22.3317 60.9397C22.3317 56.9092 19.1708 53.6417 15.2717 53.6417C11.3725 53.6417 8.21164 56.9092 8.21164 60.9397C8.21164 64.9703 11.3725 68.2377 15.2717 68.2377Z" fill="#3F4A43"/>
</svg>
