<svg viewBox="0 0 89 92" fill="none"
    xmlns="http://www.w3.org/2000/svg">
    <path d="M53.1636 5.53441C52.9759 5.56316 52.7881 5.62066 52.6073 5.70691C51.0777 6.49034 49.3394 8.81909 49.0056 9.27909C48.9848 9.30784 48.9639 9.33659 48.95 9.36534C47.2326 12.0247 46.3148 15.1369 46.28 18.3785C46.2591 20.8078 46.718 23.2157 47.6498 25.5372C49.8191 30.9207 54.3248 35.3769 59.6856 37.4613C59.8664 37.526 60.0402 37.5907 60.3531 37.7057C60.3809 37.72 60.6452 37.8063 60.6869 37.8135L60.8816 37.8853C61.1597 37.9788 61.4448 38.0722 61.7229 38.1297C63.1344 38.4244 64.5111 38.5897 65.8044 38.6328C66.0269 38.6328 66.2494 38.64 66.4719 38.64C76.2271 38.64 80.0096 31.5244 81.2681 29.1525C81.3933 28.9225 81.4837 28.7357 81.5671 28.6207C81.5671 28.6135 81.5671 28.6135 81.5741 28.6063C82.1234 27.7653 81.9148 26.6225 81.1012 26.0475C80.2947 25.4797 79.1891 25.6953 78.6329 26.5363H78.6259C76.0255 30.4966 71.5755 31.6969 65.408 30.1157C64.9491 30.0007 64.4485 29.821 64.0035 29.6485C63.4194 29.4328 62.8354 29.1813 62.293 28.9082C61.2153 28.3547 60.2002 27.6935 59.2823 26.9603C53.8589 22.6119 51.7382 13.5628 54.9088 8.33753C55.333 7.64034 55.2565 6.73472 54.7211 6.12378C54.3178 5.66378 53.7337 5.45534 53.1636 5.53441ZM37.3939 9.20003C36.9906 9.19284 36.5804 9.32941 36.2466 9.61691C33.5558 11.881 30.8023 15.5897 30.6841 15.7407C30.6702 15.7694 30.6563 15.791 30.6355 15.8197C25.7683 23.1438 25.3998 33.5657 29.7037 42.3703C30.3782 43.7647 31.143 45.0944 31.9566 46.3163L32.1999 46.6757C32.8883 47.7178 33.6601 48.8966 34.6474 49.8166C34.9881 50.2191 35.3566 50.6072 35.7182 50.981L35.892 51.1678L36.038 51.3188C36.4066 51.6853 36.782 52.0591 37.1714 52.4185H37.1784C37.2062 52.4616 37.2479 52.4903 37.2827 52.5263C37.7207 52.9288 38.1657 53.3097 38.7567 53.7913L38.9166 53.9135C39.3755 54.2944 39.8414 54.6538 40.3212 55.006C40.3698 55.0419 40.4185 55.0778 40.4672 55.1138C40.6341 55.2288 40.8009 55.3366 40.9678 55.4588L41.1347 55.5738L41.3294 55.7032C41.684 55.9475 42.0316 56.1703 42.5253 56.465C42.8452 56.6663 43.1859 56.8675 43.4084 56.9825C43.5057 57.04 43.61 57.0975 43.8534 57.2341L44.3957 57.5288C44.4235 57.5432 44.5487 57.6007 44.5765 57.615C44.9311 57.8019 45.2996 57.9816 45.6681 58.1541L46.2313 58.4128C46.5998 58.5782 46.9753 58.7363 47.4342 58.916L47.6428 58.995C47.6567 59.0094 47.8305 59.0741 47.8444 59.0813C48.1782 59.2035 48.5189 59.3257 48.8596 59.4407L49.6384 59.7066C50.0277 59.8432 50.4797 60.0013 50.9734 60.0875C53.4 60.5044 55.7571 60.72 57.9891 60.72C58.2533 60.72 58.5175 60.7128 58.7748 60.7128C78.4243 60.2672 83.5348 43.01 83.5835 42.8375C83.8269 41.9678 83.4305 41.0407 82.6379 40.6525C81.8452 40.2644 80.8996 40.5375 80.4059 41.285C75.4275 48.8032 66.013 51.98 56.4246 49.3638C55.9796 49.2488 55.5485 49.1194 55.0131 48.9397C54.9227 48.911 54.8462 48.8822 54.7002 48.8247C54.3873 48.7241 54.0814 48.6163 53.7337 48.4797L53.2401 48.2857C52.955 48.1707 52.6699 48.0557 52.3223 47.8975L52.0928 47.7897C51.6687 47.6028 51.2584 47.3944 50.8899 47.2075L49.8748 46.6613C49.6453 46.5463 49.4437 46.4169 49.1308 46.2228L48.9569 46.1222L48.7831 46.0144C48.5259 45.8563 48.2686 45.691 48.0322 45.5185L47.8653 45.4107C47.8514 45.4035 47.7123 45.3028 47.6984 45.2885C47.4898 45.1519 47.2882 45.0153 47.0935 44.886C46.6624 44.5697 46.2383 44.2391 45.7446 43.8366L45.5499 43.6713C40.9609 39.8835 37.5677 34.8235 35.9755 29.3969C34.4944 24.416 35.593 17.8969 38.9166 11.96C39.3477 11.191 39.1878 10.2135 38.5273 9.63847C38.2005 9.35097 37.7972 9.20003 37.3939 9.20003ZM17.8069 14.72C17.3828 14.72 16.9517 14.8782 16.611 15.1944C13.2109 18.3497 10.6661 22.4394 10.388 22.9066C3.115 33.8532 4.51953 50.866 9.51187 61.2663C9.60921 61.4819 9.71351 61.6903 9.81781 61.8988L9.88734 62.0138C9.97773 62.2222 10.082 62.4378 10.1168 62.481C10.1724 62.6175 10.2559 62.7685 10.2906 62.8116C10.3741 62.9913 10.4575 63.1494 10.6105 63.4225L11.1806 64.436C11.2641 64.5725 11.3475 64.7163 11.3753 64.7666C11.4866 64.9535 11.6048 65.1475 11.723 65.3416L12.0011 65.8016C12.0845 65.9382 12.168 66.0603 12.2236 66.1322C12.5017 66.5778 12.7798 67.0235 13.0858 67.4475C13.0997 67.4691 13.1136 67.4835 13.1275 67.4978L13.2387 67.656C13.4891 68.0297 13.7463 68.3891 13.9758 68.6838L14.9909 70.0135C15.0048 70.0278 15.1161 70.1644 15.123 70.1788L15.2691 70.3513C15.575 70.7394 15.9018 71.1275 16.2286 71.5013C16.2773 71.5588 16.3259 71.6091 16.3746 71.6666C16.6875 72.0188 17.0073 72.371 17.3411 72.7375L17.6609 73.0538C17.9252 73.3413 18.1894 73.6216 18.4675 73.8875C18.4675 73.8947 18.5996 74.0241 18.5996 74.0241L18.8777 74.29C19.2115 74.6207 19.5591 74.9513 19.8234 75.1813C19.8373 75.2029 20.0876 75.4257 20.1084 75.44C20.4352 75.7419 20.762 76.0294 21.0958 76.3097L22.7993 77.7041C23.0844 77.9197 23.3764 78.1353 23.7102 78.3869C23.8214 78.4732 23.9396 78.5594 24.0578 78.6385C24.1065 78.6816 24.1621 78.7247 24.1969 78.7463L25.4762 79.6303C25.9421 79.9466 26.408 80.2413 26.9781 80.5935L27.2841 80.7732C27.6387 80.9888 28.0002 81.2044 28.3409 81.3913C28.5426 81.5063 28.7442 81.6069 28.918 81.7003C29.1614 81.8369 29.4256 81.9878 29.8289 82.1891C29.8637 82.2107 30.1487 82.3544 30.1835 82.3688C30.5868 82.5772 30.997 82.7713 31.5116 83.0085C31.5116 83.0157 31.6784 83.0947 31.6784 83.0947C32.1512 83.3032 32.6102 83.5044 33.2151 83.756C33.3124 83.7991 33.4098 83.835 33.4306 83.8422C33.8617 84.0147 34.3137 84.1872 34.6822 84.3238C34.7169 84.3382 34.9047 84.4172 34.9394 84.4316C35.4331 84.6041 35.9198 84.7694 36.5456 84.9707C36.6499 85.0066 36.7612 85.0425 36.7751 85.0425L37.1297 85.1575C37.5608 85.2941 37.9919 85.4379 38.4577 85.5313C41.7674 86.1566 45.0006 86.48 48.06 86.48H48.0669C73.5641 86.48 81.6853 65.2697 81.7687 65.0541C82.0816 64.1988 81.7409 63.2357 80.9622 62.79C80.1973 62.3516 79.2239 62.56 78.6816 63.286C72.1387 72.1913 59.7969 75.4975 45.6681 72.141C45.3274 72.0547 44.9798 71.9541 44.6391 71.8463L43.9716 71.6378C43.5196 71.4941 43.0677 71.336 42.6296 71.1778C42.6227 71.1778 42.421 71.0988 42.421 71.0988C42.0316 70.9622 41.6423 70.8041 41.3016 70.6675L40.9122 70.5094C40.4811 70.3297 40.05 70.1428 39.6328 69.9488L39.3895 69.841C39.014 69.6613 38.6524 69.4888 38.2909 69.3019C38.263 69.2875 37.978 69.1438 37.9502 69.1366C37.6998 69.0072 37.4495 68.8707 37.1297 68.691L35.6765 67.886C35.5305 67.7853 35.3775 67.6919 35.2315 67.6128C34.7934 67.3325 34.3415 67.0522 33.8965 66.7575C33.7922 66.6928 33.7018 66.621 33.528 66.4988C33.222 66.2975 32.923 66.0891 32.485 65.7728L32.3112 65.6435C32.0122 65.4278 31.7201 65.1978 31.4768 65.011C31.3238 64.896 31.1709 64.7666 30.9205 64.5725C30.698 64.3928 30.4755 64.2203 30.2669 64.0478L29.8776 63.7172C29.5508 63.4441 29.2448 63.1566 28.925 62.8763C28.8833 62.8332 28.8485 62.8044 28.7998 62.7685C28.4452 62.4307 28.0837 62.0928 27.6526 61.6688L26.3941 60.375C26.0881 60.0516 25.7822 59.721 25.4345 59.3257C25.1147 58.9591 24.8087 58.5925 24.3985 58.0894L23.6476 57.1407C23.5572 57.0041 23.4598 56.8675 23.3416 56.7238C23.0844 56.3644 22.8271 56.0122 22.5698 55.6385C15.6445 45.7772 13.8367 25.1922 19.2323 17.6525C19.7747 16.8978 19.6773 15.8341 18.9959 15.1944C18.6622 14.8782 18.2311 14.72 17.8069 14.72Z" fill="black"/>
</svg>
