<svg viewBox="0 0 125 125" fill="none"
    xmlns="http://www.w3.org/2000/svg">
    <path d="M109.375 45.052C109.375 98.4375 62.5 114.583 62.5 114.583C62.5 114.583 15.625 98.4375 15.625 45.052C15.625 38.5416 16.1458 33.0729 16.6667 28.6458C17.4479 22.1354 21.875 16.927 28.125 15.3645C36.1979 13.0208 48.9583 10.4166 62.5 10.4166C76.0417 10.4166 88.8021 13.0208 97.1354 15.3645C103.385 16.927 107.813 22.3958 108.594 28.6458C108.854 33.0729 109.375 38.802 109.375 45.052Z" fill="#5D4037"/>
    <path d="M62.5 18.2291C75.2604 18.2291 87.2396 20.8333 95.0521 22.9166C98.1771 23.6979 100.26 26.302 100.781 29.6875C101.302 34.6354 101.562 39.8437 101.562 45.052C101.562 85.677 71.6146 102.083 62.5 105.99C53.3854 101.823 23.4375 85.4166 23.4375 45.052C23.4375 39.8437 23.6979 34.6354 24.2188 29.6875C24.4792 26.302 26.8229 23.6979 29.9479 22.9166C37.7604 20.8333 49.7396 18.2291 62.5 18.2291ZM62.5 10.4166C48.9583 10.4166 36.1979 13.0208 27.8646 15.3645C21.875 16.927 17.1875 22.3958 16.6667 28.6458C16.1458 33.0729 15.625 38.802 15.625 45.052C15.625 98.4375 62.5 114.583 62.5 114.583C62.5 114.583 109.375 98.4375 109.375 45.052C109.375 38.5416 108.854 33.0729 108.333 28.6458C107.552 22.1354 103.125 16.927 96.875 15.3645C88.8021 13.0208 76.0417 10.4166 62.5 10.4166Z" fill="#4CAF50"/>
    <path d="M59.8958 72.9166H65.1042V93.75H59.8958V72.9166Z" fill="#DCEDC8"/>
    <path d="M62.5 26.0416C62.5 26.0416 46.875 39.0625 46.875 59.8958C46.875 73.4375 55.4688 82.0312 59.8958 85.9375L62.5 78.125L65.1042 85.9375C69.5312 82.0312 78.125 73.4375 78.125 59.8958C78.125 39.0625 62.5 26.0416 62.5 26.0416Z" fill="#4CAF50"/>
    <path d="M62.5 26.0416C62.5 26.0416 46.875 39.0625 46.875 59.8958C46.875 73.4375 55.4688 82.0312 59.8958 85.9375L62.5 78.125V26.0416Z" fill="#81C784"/>
</svg>
