<svg viewBox="0 0 125 125" fill="none"
    xmlns="http://www.w3.org/2000/svg">
    <g clip-path="url(#clip0)">
        <path d="M77.9199 20C76.748 19.9707 75.7227 20.4199 75.1953 21.7187C74.2969 23.8965 76.5332 26.0254 77.334 27.1387C77.8906 27.9101 78.6133 28.7793 79.0137 29.6484C79.2773 30.2246 79.3164 30.8008 79.541 31.4062C80.0977 32.9004 80.9863 34.5996 81.6992 35.9863C82.0605 36.6894 82.4609 37.4219 82.9199 38.0469C83.2031 38.4277 83.6816 38.6035 83.7598 39.1894C83.291 39.8535 83.2617 40.8789 82.998 41.7187C81.8066 45.4785 82.2559 50.1562 83.9844 52.9297C84.5215 53.7891 85.7812 55.6152 87.5 54.9219C89.0039 54.3066 88.6719 52.4023 89.1016 50.7129C89.1992 50.3418 89.1406 50.0586 89.3359 49.8047V49.8828C89.7852 50.8008 90.2441 51.7187 90.7031 52.6269C91.7285 54.2676 93.5352 55.9766 95.0586 57.1387C95.8496 57.7344 96.4746 58.7695 97.5 59.1211V59.043H97.4219C97.2266 58.7305 96.9141 58.6035 96.6602 58.3594C96.0645 57.7734 95.4004 57.041 94.9121 56.3672C93.5156 54.4824 92.2852 52.4121 91.1719 50.2637C90.6348 49.2383 90.166 48.1055 89.7168 47.0605C89.541 46.6504 89.541 46.0449 89.1797 45.8301C88.6816 46.6016 87.959 47.2168 87.5781 48.125C86.9727 49.5703 86.8848 51.3379 86.6602 53.1641C86.5234 53.2129 86.582 53.1738 86.5137 53.2422C85.4492 52.9785 85.0684 51.8848 84.6777 50.9473C83.6816 48.5742 83.4863 44.7461 84.375 42.0215C84.5996 41.3086 85.625 39.082 85.2148 38.4277C85.0195 37.7734 84.3555 37.4023 83.9941 36.9043C83.5352 36.2891 83.0859 35.4785 82.7734 34.7656C81.9531 32.9101 81.1816 30.7617 80.3125 28.8867C79.9023 27.9883 79.209 27.0898 78.6328 26.2891C77.998 25.4102 77.2949 24.7656 76.7969 23.6914C76.6309 23.3203 76.3867 22.7148 76.6504 22.3242C76.7285 22.0605 76.8457 21.9531 77.1094 21.8652C77.5488 21.5234 78.7793 21.9727 79.248 22.168C80.4688 22.6758 81.4941 23.1641 82.5293 23.8477C83.0273 24.1797 83.5254 24.8144 84.1309 25H84.8145C85.8984 25.2441 87.0996 25.0684 88.0957 25.3809C89.873 25.918 91.4648 26.7578 92.9004 27.666C97.3047 30.4394 100.908 34.3945 103.359 39.1113C103.76 39.873 103.936 40.6055 104.287 41.4062C104.98 43.0273 105.869 44.707 106.572 46.2891C107.266 47.8809 107.949 49.4727 108.936 50.791C109.453 51.4844 111.465 51.8652 112.373 52.2461C113.008 52.5195 114.062 52.8027 114.658 53.1641C115.82 53.8574 116.934 54.6875 118.018 55.459C118.564 55.8398 120.225 56.6699 120.312 57.3633C117.627 57.2949 115.576 57.5391 113.828 58.2812C113.33 58.4961 112.529 58.4961 112.451 59.1211C112.715 59.4043 112.764 59.834 112.979 60.1855C113.398 60.8594 114.102 61.7676 114.736 62.2461C115.43 62.7637 116.133 63.3203 116.875 63.7793C118.184 64.5703 119.648 65.0293 120.918 65.8301C121.66 66.3086 122.412 66.9043 123.135 67.4316C123.496 67.7051 123.73 68.1152 124.199 68.2812V68.2031C123.955 67.8906 123.896 67.4609 123.672 67.1387L122.666 66.1328C121.699 64.8535 120.469 63.7207 119.16 62.7832C118.115 62.0312 115.781 61.0156 115.352 59.8047L115.273 59.7266C116.006 59.6484 116.875 59.375 117.559 59.1894C118.711 58.8867 119.727 58.9648 120.908 58.6621C121.445 58.5059 121.982 58.3496 122.52 58.2031V57.8906C121.924 57.2851 121.494 56.4648 120.84 55.9082C119.131 54.4531 117.266 52.998 115.342 51.7871C114.277 51.1133 112.959 50.6738 111.836 50.1074C111.455 49.9121 110.791 49.8144 110.537 49.4922C109.941 48.7402 109.619 47.7832 109.16 46.9043C108.203 45.0586 107.266 43.0469 106.416 41.1035C105.84 39.7852 105.459 38.4766 104.736 37.2852C101.27 31.5918 97.5391 28.1445 91.7578 24.7656C90.5273 24.043 89.0527 23.7695 87.4902 23.3984C86.6406 23.3398 85.8105 23.291 84.9609 23.2422C84.4531 23.0273 83.916 22.4023 83.4375 22.0898C82.2363 21.3379 79.873 20.0293 77.9199 20ZM86.1914 28.2812C85.6348 28.2715 85.2344 28.3496 84.8145 28.4375V28.5156H84.8926C85.1562 29.0625 85.6348 29.4141 85.9668 29.8828C86.2207 30.4199 86.4648 30.957 86.7188 31.4941L86.7969 31.416C87.2656 31.084 87.4902 30.5469 87.4902 29.7363C87.2949 29.541 87.2656 29.2871 87.1094 29.0527C86.8848 28.7305 86.4648 28.5547 86.1914 28.2812ZM4.66797 59.9902C3.91601 60.0195 3.0957 60.166 2.20703 60.4492C0.722657 60.8984 -0.00976562 61.7871 -0.00976562 63.5937V82.5H5V64.0527L11.9434 79.8242C12.8027 81.7871 13.9746 82.4902 16.2695 82.4902C18.5742 82.4902 19.6973 81.7871 20.5566 79.8242L27.5 64.4531V82.5H32.5V63.5937C32.5 61.7871 31.7773 60.8984 30.2832 60.4492C26.7285 59.3262 24.3359 60.293 23.2617 62.7246L16.1328 78.7598L9.23828 62.7246C8.45703 60.8984 6.89453 59.9023 4.66797 59.9902ZM65.6152 60C63.6426 60 57.5 60.2344 57.5 65V68.0859C57.5 70.2734 59.4238 72.0605 63.5938 72.5C64.0625 72.5293 64.5312 72.5684 65 72.5684C65 72.5684 69.8633 72.4707 70 72.5C72.8125 72.5 72.5 74.6875 72.5 75V77.5C72.5 77.8418 72.4219 80 69.9707 80H57.5V82.5H70.0195C71.6602 82.5 73.252 82.1582 74.5215 81.5625C76.6309 80.5957 77.5 79.2871 77.5 77.5684V73.9941C77.5 70.1562 72.7344 70 70 70H65C63.0371 70 62.7344 68.8086 62.5 67.5V65C62.7344 64.0039 63.1738 62.6562 64.9121 62.5H77.5V60H65.6152ZM84.9512 60C81.2598 60.5078 79.9609 62.3437 79.9609 65V77.5C79.9609 79.9316 81.3184 81.3965 84.1113 82.1582C85.0488 82.4219 85.8984 82.5293 86.6992 82.5293L92.2656 82.5H95.5371L98.3203 85H103.945L100.078 81.5137C101.895 80.7617 102.461 79.6094 102.461 77.4512V65C102.461 62.3437 100.732 60.5078 97.041 60H84.9512ZM105 60V77.3926C105 80.4101 106.709 82.1094 111.23 82.4512C111.65 82.4707 112.08 82.5 112.5 82.5H125V80H113.447C110.869 80 110 78.916 110 77.373V60H105ZM87.9297 62.5H94.3652C96.0645 62.5 97.207 63.8672 97.4609 65C97.4609 65 97.5 76.6406 97.5 77.5C97.5 78.3594 97.0215 78.75 97.0215 78.75L95.6641 77.5H90L92.7832 80H87.9297C86.1914 80 85.2148 78.7109 84.9609 77.5V65.2539C84.9609 63.9258 85.9766 62.5 87.9297 62.5ZM35 67.5C35.0977 67.5976 35 78.1543 35 78.3594C35.0391 80.5469 37.8125 82.4609 42.1582 82.5H50V82.666C50 83.1348 50.3418 84.6973 47.5 85C47.4707 85 35.0293 85 35 85V87.5H48.0371C50.2441 87.4316 55.0293 86.9336 55 83.1055C55 83.0371 55.0195 67.5 55 67.5H50V80C49.9219 80 43.8086 80.0195 42.5781 80C40.166 79.9609 39.9609 78.584 40 78.0566V67.5H35Z" fill="black"/>
    </g>
    <defs>
        <clipPath id="clip0">
            <rect class="add_width" fill="white"/>
        </clipPath>
    </defs>
</svg>
