<svg viewBox="0 0 125 125" fill="none"
    xmlns="http://www.w3.org/2000/svg">
    <g clip-path="url(#clip0)">
        <path d="M44.8021 49.7969L32.0234 56.8672C31.5443 57.1303 31.25 57.6198 31.25 58.1485V72.2969C31.25 72.8256 31.5443 73.3125 32.0234 73.5782L44.8047 80.6537C45.2812 80.9167 45.8724 80.9167 46.349 80.6537L59.1276 73.5782C59.6016 73.3125 59.8958 72.8256 59.8958 72.2969V58.1485C59.8958 57.6198 59.6016 57.1329 59.1224 56.8672L46.3464 49.7969C46.1068 49.6641 45.8385 49.599 45.5729 49.599C45.3047 49.599 45.0391 49.6641 44.7995 49.7969H44.8021ZM110.549 62.5339L108.419 63.711C108.339 63.7553 108.292 63.836 108.292 63.9245V66.2839C108.292 66.3724 108.341 66.4532 108.419 66.4974L110.549 67.6771C110.63 67.7214 110.727 67.7214 110.807 67.6771L112.938 66.4974C113.016 66.4532 113.065 66.3724 113.065 66.2839V63.9245C113.065 63.836 113.016 63.7553 112.935 63.711L110.805 62.5339C110.766 62.5105 110.721 62.5 110.677 62.5C110.633 62.5 110.589 62.5105 110.549 62.5339Z" fill="#388E3C"/>
        <path d="M93.1016 34.8021L86.8802 31.3307C86.6849 31.2214 86.4453 31.224 86.2526 31.3385C86.0599 31.4531 85.9401 31.6589 85.9401 31.8828L85.9375 52.8516L80.2005 49.6771C79.9609 49.5443 79.6927 49.4792 79.4271 49.4792C79.1615 49.4792 78.8932 49.5443 78.6536 49.6771H78.6562L65.8776 56.7474C65.3984 57.0104 65.1042 57.5 65.1042 58.026V72.1745C65.1042 72.7031 65.3984 73.1901 65.8776 73.4557L78.6589 80.5313C79.1354 80.7943 79.7266 80.7943 80.2031 80.5313L92.9818 73.4557C93.4557 73.1927 93.75 72.7031 93.75 72.1745V35.9063C93.75 35.4479 93.5 35.026 93.1016 34.8021ZM85.5885 68.901L79.7812 72.1172C79.5651 72.237 79.2969 72.237 79.0807 72.1172L73.2708 68.901C73.0495 68.7813 72.9167 68.5573 72.9167 68.3177V61.8854C72.9167 61.6458 73.0495 61.4245 73.2682 61.3021L79.0781 58.0885H79.0755C79.1849 58.0287 79.3047 58 79.4271 58C79.5495 58 79.6693 58.0313 79.7786 58.0885L85.5859 61.3021C85.8047 61.4245 85.9375 61.6484 85.9375 61.888V68.3203C85.9375 68.5573 85.8047 68.7813 85.5885 68.901Z" fill="#37474F"/>
        <path d="M44.8021 49.7969L31.25 72.2969C31.25 72.8256 31.5443 73.3125 32.0234 73.5782L44.8047 80.6537C45.2812 80.9167 45.8724 80.9167 46.349 80.6537L59.8958 58.1485C59.8958 57.6198 59.6016 57.1329 59.1224 56.8672L46.3464 49.7969C46.1068 49.6641 45.8385 49.599 45.5729 49.599C45.3047 49.599 45.0391 49.6641 44.7995 49.7969" fill="#2E7D32"/>
        <path d="M44.8021 49.7969L32.0234 56.8672C31.5443 57.1303 31.25 57.6198 31.25 58.1485L44.8021 80.6537C45.2786 80.9167 45.8698 80.9167 46.3464 80.6537L59.125 73.5782C59.6016 73.3125 59.8958 72.8256 59.8958 72.2969L46.3464 49.7969C46.1068 49.6641 45.8385 49.599 45.5729 49.599C45.3047 49.599 45.0391 49.6641 44.7995 49.7969" fill="#4CAF50"/>
        <path d="M124.227 56.7474L111.451 49.677C111.211 49.5442 110.943 49.4791 110.677 49.4791C110.411 49.4791 110.143 49.5442 109.904 49.677H109.906L97.1276 56.7474C96.651 57.0104 96.3542 57.5104 96.3542 58.0573V72.1484C96.3542 72.6927 96.651 73.1953 97.1276 73.4583L109.909 80.5338C110.388 80.7994 110.974 80.7994 111.453 80.5338L117.346 77.2708C117.885 76.9713 117.883 76.1979 117.341 75.901L104.518 68.9036C104.302 68.7812 104.167 68.5546 104.167 68.3099V61.888C104.167 61.6484 104.297 61.427 104.505 61.3125L110.326 58.0937H110.323C110.432 58.0338 110.552 58.0052 110.674 58.0052C110.797 58.0052 110.917 58.0364 111.026 58.0937L116.846 61.3151C117.055 61.4296 117.185 61.651 117.185 61.8906V67.1302C117.185 67.3541 117.305 67.5625 117.5 67.6744C117.695 67.7838 117.935 67.7838 118.13 67.6718L124.375 64.0442C124.76 63.8203 125 63.4062 125 62.9583V58.0625C125 57.513 124.703 57.0104 124.227 56.7474ZM27.8724 56.7474L15.0964 49.677C14.8568 49.5442 14.5885 49.4791 14.3229 49.4791C14.0573 49.4791 13.7891 49.5442 13.5495 49.677H13.5521L0.773438 56.7474C0.296875 57.0104 0 57.5104 0 58.0573V77.4974C0 77.7213 0.119792 77.9296 0.315104 78.0416C0.510417 78.151 0.75 78.151 0.945313 78.039L7.1901 74.4114C7.57552 74.1875 7.8125 73.7734 7.8125 73.3255V61.8854C7.8125 61.6458 7.94271 61.4244 8.15104 61.3099L13.9714 58.0911C14.0807 58.0312 14.2005 58.0026 14.3229 58.0026C14.4453 58.0026 14.5651 58.0338 14.6745 58.0911L20.4948 61.3125C20.7031 61.427 20.8333 61.6484 20.8333 61.888V73.3281C20.8333 73.776 21.0703 74.1901 21.4583 74.414L27.7031 78.0416C27.8984 78.1536 28.138 78.1536 28.3333 78.0442C28.526 77.9296 28.6458 77.7213 28.6458 77.4974V58.0599C28.6458 57.513 28.349 57.0104 27.8724 56.7474Z" fill="#37474F"/>
    </g>
    <defs>
        <clipPath id="clip0">
            <rect class="add_width" fill="white"/>
        </clipPath>
    </defs>
</svg>
