<svg viewBox="0 0 125 125" fill="none"
    xmlns="http://www.w3.org/2000/svg">
    <path d="M62.5 27.3438C46.442 27.3438 31.0416 31.0835 19.6869 37.7403C8.33215 44.3971 1.95313 53.4257 1.95312 62.8398C1.95313 72.254 8.33215 81.2826 19.6869 87.9394C31.0416 94.5962 46.442 98.3359 62.5 98.3359C78.558 98.3359 93.9584 94.5962 105.313 87.9394C116.668 81.2826 123.047 72.254 123.047 62.8398C123.047 53.4257 116.668 44.3971 105.313 37.7403C93.9584 31.0835 78.558 27.3438 62.5 27.3438Z" fill="#B5C4E0"/>
    <path d="M62.5 27.3438C29.0605 27.3438 1.95312 43.2363 1.95312 62.8398C1.95312 82.4434 29.0605 98.3359 62.5 98.3359C95.9395 98.3359 123.047 82.4434 123.047 62.8398C123.047 43.2363 95.9395 27.3438 62.5 27.3438ZM62.5 88.5703C32.5742 88.5703 11.7188 75.0117 11.7188 62.8398C11.7188 50.6699 32.5742 37.1094 62.5 37.1094C92.4258 37.1094 113.281 50.6699 113.281 62.8398C113.281 75.0098 92.4258 88.5703 62.5 88.5703Z" fill="#CED9ED"/>
    <path d="M82.8809 51.6309L77.543 80.5879H84.5078L85.8945 72.6914H90.2285C99.3008 72.6914 104.236 70.5898 106.082 62.8047C107.67 56.1152 103.613 51.6328 96.9219 51.6328H82.8809V51.6309ZM91.3789 67.4258H86.877L88.8652 56.8965H94.291C98.7871 56.8965 99.7324 58.9238 99.498 61.1797C98.8945 66.9863 95.2734 67.4258 91.3789 67.4258ZM27.5977 51.6309L22.2598 80.5879H29.2246L30.6113 72.6914H34.9453C44.0176 72.6914 48.9531 70.5898 50.7988 62.8047C52.3867 56.1152 48.3301 51.6328 41.6387 51.6328H27.5977V51.6309ZM36.0957 67.4258H31.5938L33.582 56.8965H39.0078C43.5039 56.8965 44.4492 58.9238 44.2148 61.1797C43.6113 66.9863 39.9922 67.4258 36.0957 67.4258ZM76.7793 53.5449C75.291 52.1816 72.6699 51.6309 68.7617 51.6309H62.6035L64.7988 41.1016H57.8906L51.291 72.6914H58.2012L61.5332 56.8965H67.0566C68.8184 56.8965 69.9805 57.1914 70.5234 57.7734C71.0625 58.3613 71.1816 59.4668 70.8691 61.0664L68.3477 72.6914H75.3652L78.0977 60.1133C78.6836 57.0977 78.2402 54.8867 76.7793 53.5449Z" fill="#8D6C9E"/>
    <path d="M62.5 100.289C28.0371 100.289 0 83.4883 0 62.8398C0 42.1914 28.0371 25.3906 62.5 25.3906C96.9629 25.3906 125 42.1914 125 62.8398C125 83.4883 96.9629 100.289 62.5 100.289ZM62.5 29.2969C30.1914 29.2969 3.90625 44.3438 3.90625 62.8398C3.90625 81.3359 30.1914 96.3828 62.5 96.3828C94.8086 96.3828 121.094 81.3359 121.094 62.8398C121.094 44.3438 94.8086 29.2969 62.5 29.2969ZM114.635 98.959C113.99 98.959 113.359 98.6406 112.984 98.0547L110.887 94.7598C110.307 93.8496 110.576 92.6426 111.486 92.0625C112.393 91.4844 113.602 91.75 114.184 92.6621L116.281 95.957C116.861 96.8672 116.592 98.0742 115.682 98.6543C115.357 98.8594 114.994 98.959 114.635 98.959ZM106.34 103.523C105.607 103.523 104.906 103.109 104.572 102.404L102.904 98.8711C102.445 97.8965 102.863 96.7305 103.838 96.2715C104.816 95.8086 105.977 96.2305 106.438 97.2051L108.105 100.738C108.564 101.713 108.146 102.879 107.172 103.338C106.902 103.465 106.619 103.523 106.34 103.523ZM97.5957 107.064C96.7871 107.064 96.0293 106.557 95.75 105.75L94.4727 102.057C94.1191 101.037 94.6621 99.9238 95.6797 99.5723C96.6973 99.2207 97.8105 99.7617 98.1641 100.779L99.4414 104.473C99.7949 105.492 99.252 106.605 98.2344 106.957C98.0234 107.031 97.8066 107.064 97.5957 107.064ZM88.5625 109.709C87.6816 109.709 86.8828 109.107 86.666 108.213L85.748 104.416C85.4941 103.369 86.1387 102.312 87.1875 102.061C88.2207 101.805 89.2891 102.451 89.543 103.5L90.4609 107.297C90.7148 108.344 90.0703 109.4 89.0215 109.652C88.8691 109.691 88.7148 109.709 88.5625 109.709ZM79.3379 111.51C78.3867 111.51 77.5527 110.814 77.4082 109.844L76.8301 105.979C76.6719 104.912 77.4062 103.918 78.4746 103.758C79.5527 103.613 80.5371 104.336 80.6953 105.402L81.2734 109.268C81.4316 110.334 80.6973 111.328 79.6289 111.488C79.5312 111.502 79.4336 111.51 79.3379 111.51ZM70.002 112.492C68.9824 112.492 68.1211 111.699 68.0547 110.664L67.8027 106.766C67.7344 105.689 68.5508 104.762 69.627 104.689C70.6895 104.637 71.6328 105.438 71.7031 106.514L71.9551 110.412C72.0234 111.488 71.207 112.416 70.1309 112.488C70.0879 112.49 70.043 112.492 70.002 112.492Z" fill="#8D6C9F"/>
    <path d="M42.6992 41.3301C41.8242 41.3301 41.0273 40.7363 40.8047 39.8477C40.5449 38.8008 41.1836 37.7402 42.2285 37.4805C44.8555 36.8281 47.6308 36.2734 50.4785 35.8301C51.5469 35.666 52.543 36.3945 52.709 37.459C52.875 38.5254 52.1445 39.5234 51.0801 39.6895C48.3457 40.1152 45.6855 40.6465 43.1719 41.2715C43.0137 41.3125 42.8555 41.3301 42.6992 41.3301Z" fill="#8D6C9F"/>
    <path d="M13.6699 58.5879C13.3516 58.5879 13.0293 58.5098 12.7305 58.3457C11.791 57.8262 11.4434 56.6484 11.957 55.7051C12.1699 55.3145 17.3613 46.0859 34.2695 39.9024C35.2773 39.5293 36.4023 40.0527 36.7734 41.0664C37.1445 42.0801 36.623 43.2012 35.6094 43.5703C20.2109 49.2012 15.4258 57.502 15.3809 57.584C15.0234 58.2266 14.3555 58.5879 13.6699 58.5879Z" fill="#8D6C9F"/>
</svg>
