<svg viewBox="0 0 87 90" fill="none"
    xmlns="http://www.w3.org/2000/svg">
    <path d="M43.5 53.4375C48.0046 53.4375 51.6562 49.6599 51.6562 45C51.6562 40.3401 48.0046 36.5625 43.5 36.5625C38.9954 36.5625 35.3438 40.3401 35.3438 45C35.3438 49.6599 38.9954 53.4375 43.5 53.4375Z" fill="url(#paint0_linear)"/>
    <path d="M78.8438 45C78.8438 39.7153 73.0759 35.1324 64.0905 32.355C64.3909 30.9052 64.6437 29.4792 64.8028 28.1152C65.6959 20.4047 64.1462 15.0047 60.4378 12.9094C56.7281 10.8155 51.5013 12.3863 45.7144 17.3335C44.9749 17.9649 44.2368 18.6525 43.5 19.3725C42.7632 18.6511 42.0251 17.9649 41.2856 17.3335C35.4987 12.3863 30.2692 10.8169 26.5622 12.9094C22.8538 15.0033 21.3041 20.4033 22.1972 28.1152C22.3549 29.4806 22.6091 30.9052 22.9095 32.355C13.9241 35.1324 8.15625 39.7153 8.15625 45C8.15625 50.2847 13.9241 54.8677 22.9095 57.645C22.6091 59.0949 22.3563 60.5208 22.1972 61.8849C21.3041 69.5953 22.8538 74.9953 26.5622 77.0906C27.6347 77.6967 28.8323 77.9949 30.1346 77.9949C33.3387 77.9949 37.1721 76.185 41.2856 72.668C42.0251 72.0366 42.7632 71.3489 43.5 70.6289C44.2368 71.3503 44.9749 72.0366 45.7144 72.668C49.8279 76.185 53.6613 77.9949 56.8654 77.9949C58.1677 77.9949 59.3666 77.6953 60.4378 77.0906C64.1462 74.9967 65.6959 69.5967 64.8028 61.8849C64.6451 60.5194 64.3909 59.0949 64.0905 57.645C73.0759 54.8677 78.8438 50.2847 78.8438 45ZM47.4449 19.4991C52.2435 15.397 56.5051 13.8924 59.1342 15.3774C61.7632 16.861 62.8439 21.382 62.1031 27.7777C61.9603 29.0138 61.7319 30.3033 61.4655 31.6153C58.5877 30.8855 55.4435 30.3286 52.0967 29.9756C49.9706 26.7764 47.7263 23.857 45.4249 21.3525C46.0964 20.6972 46.7707 20.0756 47.4449 19.4991ZM54.2377 51.0652C53.0782 53.2617 51.8452 55.3613 50.5647 57.3567C48.3203 57.5508 45.9618 57.6563 43.5 57.6563C41.0382 57.6563 38.6797 57.5508 36.434 57.3567C35.1548 55.3599 33.9205 53.2617 32.7609 51.0652C31.6952 49.0472 30.7232 47.018 29.8492 45C30.7232 42.9835 31.6952 40.9542 32.7609 38.9349C33.9205 36.7383 35.1534 34.6388 36.434 32.6433C38.6797 32.4492 41.0382 32.3438 43.5 32.3438C45.9618 32.3438 48.3203 32.4492 50.566 32.6433C51.8452 34.6402 53.0795 36.7383 54.2391 38.9349C55.3048 40.9528 56.2768 42.982 57.1508 45C56.2768 47.0166 55.3035 49.0458 54.2377 51.0652ZM58.5592 48.4974C59.4835 50.9428 60.2421 53.3405 60.8375 55.6636C58.7386 56.1924 56.4739 56.6395 54.0284 56.97C54.9215 55.4935 55.7955 53.9831 56.6234 52.4124C57.3126 51.1116 57.9488 49.8038 58.5592 48.4974ZM43.5 66.6605C41.7709 64.7747 40.0717 62.6344 38.4309 60.3141C40.0839 60.4139 41.7736 60.4688 43.5 60.4688C45.2264 60.4688 46.9161 60.4139 48.5691 60.3141C46.9283 62.6344 45.2291 64.7747 43.5 66.6605ZM32.9703 56.97C30.5248 56.6395 28.26 56.1924 26.1612 55.6636C26.7566 53.3405 27.5151 50.9414 28.4395 48.4974C29.0512 49.8052 29.6874 51.1116 30.3739 52.4138C31.2031 53.9831 32.0772 55.4935 32.9703 56.97ZM28.4408 41.5027C27.5165 39.0572 26.7579 36.6581 26.1625 34.3364C28.2614 33.8077 30.5261 33.3605 32.9716 33.03C32.0785 34.5066 31.2045 36.0169 30.3766 37.5877C29.6874 38.8885 29.0512 40.1963 28.4408 41.5027ZM43.5 23.3395C45.2291 25.2253 46.9283 27.3656 48.5691 29.686C46.9161 29.5861 45.2264 29.5313 43.5 29.5313C41.7736 29.5313 40.0839 29.5861 38.4309 29.686C40.0717 27.3656 41.7709 25.2253 43.5 23.3395ZM56.6248 37.5877C55.7969 36.0183 54.9228 34.508 54.0297 33.03C56.4752 33.3605 58.74 33.8077 60.8388 34.3364C60.2434 36.6595 59.4849 39.0586 58.5605 41.5027C57.9488 40.1963 57.3126 38.8885 56.6248 37.5877ZM24.897 27.7791C24.1547 21.382 25.2368 16.861 27.8658 15.3788C28.5292 15.0033 29.2973 14.8205 30.1509 14.8205C32.6794 14.8205 35.9663 16.4335 39.5551 19.5005C40.2293 20.077 40.905 20.6986 41.5778 21.3553C39.2764 23.8599 37.0307 26.7778 34.906 29.9785C31.5579 30.3314 28.4137 30.8897 25.5372 31.6181C25.2681 30.3047 25.041 29.0152 24.897 27.7791ZM10.875 45C10.875 41.3438 15.592 37.5427 23.5403 35.0719C24.3641 38.2767 25.4937 41.6166 26.8993 45C25.4937 48.3849 24.3641 51.7247 23.5403 54.9281C15.592 52.4574 10.875 48.6563 10.875 45ZM39.5551 70.5009C34.7565 74.603 30.4989 76.1105 27.8658 74.6227C25.2368 73.1391 24.1561 68.618 24.897 62.2224C25.0397 60.9863 25.2681 59.6967 25.5345 58.3847C28.4123 59.1145 31.5565 59.6714 34.9033 60.0244C37.0294 63.2236 39.2737 66.143 41.5751 68.6475C40.9036 69.3028 40.2293 69.9244 39.5551 70.5009ZM62.1031 62.221C62.8453 68.618 61.7632 73.1391 59.1342 74.6213C56.5051 76.1105 52.2449 74.6016 47.4449 70.4995C46.7707 69.923 46.095 69.3014 45.4222 68.6447C47.7236 66.1402 49.9693 63.2222 52.094 60.0216C55.4421 59.6686 58.5863 59.1103 61.4628 58.3819C61.7319 59.6953 61.959 60.9849 62.1031 62.221ZM63.4597 54.9281C62.6359 51.7233 61.5063 48.3834 60.1007 45C61.5063 41.6152 62.6359 38.2753 63.4597 35.0719C71.408 37.5427 76.125 41.3438 76.125 45C76.125 48.6563 71.408 52.4574 63.4597 54.9281Z" fill="url(#paint1_linear)"/>
    <defs>
        <linearGradient id="paint0_linear" x1="43.5" y1="35.4558" x2="43.5" y2="51.6403" gradientUnits="userSpaceOnUse">
            <stop stop-color="#6DC7FF"/>
            <stop offset="1" stop-color="#E6ABFF"/>
        </linearGradient>
        <linearGradient id="paint1_linear" x1="43.5" y1="10.4428" x2="43.5" y2="75.15" gradientUnits="userSpaceOnUse">
            <stop stop-color="#1A6DFF"/>
            <stop offset="1" stop-color="#C822FF"/>
        </linearGradient>
    </defs>
</svg>
