<svg viewBox="0 0 87 90" fill="none"
    xmlns="http://www.w3.org/2000/svg">
    <path d="M76.125 11.25H10.875V78.75H76.125V11.25Z" fill="#1976D2"/>
    <path d="M49.8256 41.25H25.7864V47.37H34.4085V75H41.2398V47.37H49.8256V41.25Z" fill="white"/>
    <path d="M71.0391 48.9075C71.0391 48.9075 67.8002 46.6725 64.1389 46.6725C60.4777 46.6725 59.16 48.4725 59.16 50.3963C59.16 55.3613 72.5381 54.8644 72.5381 64.8563C72.5381 80.2481 52.1402 73.4213 52.1402 73.4213V66.0375C52.1402 66.0375 56.0407 69.0788 60.7187 69.0788C65.3968 69.0788 65.2192 65.9138 65.2192 65.4788C65.2192 60.8869 51.9607 60.8869 51.9607 50.7075C51.9607 36.8681 71.2784 42.3281 71.2784 42.3281L71.0391 48.9075Z" fill="white"/>
</svg>
